<?xml version="1.0" standalone="no"?><!DOCTYPE svg PUBLIC "-//W3C//DTD SVG 1.1//EN" "http://www.w3.org/Graphics/SVG/1.1/DTD/svg11.dtd"><svg t="1706780074168" class="icon" viewBox="0 0 1024 1024" version="1.1" xmlns="http://www.w3.org/2000/svg" p-id="6054" xmlns:xlink="http://www.w3.org/1999/xlink" width="200" height="200"><path d="M538.944 1003.584c224.832-122.912 353.312-248.64 385.536-377.152A2450.752 2450.752 0 0 0 986.88 263.04a64 64 0 0 0-36.64-64.064L536.832 6.016A64 64 0 0 0 483.232 5.76L69.44 194.464a64 64 0 0 0-37.408 61.28c5.28 111.136 26.496 234.688 63.648 370.688 40.256 147.392 168.448 273.6 384.576 378.56a64 64 0 0 0 58.656-1.408z m-30.688-56.16C307.2 849.792 192.096 736.48 157.44 609.568 121.472 477.856 101.056 358.848 96 252.704L509.76 64l413.44 192.96a2386.752 2386.752 0 0 1-60.8 353.92c-26.88 107.296-143.488 221.376-354.144 336.544zM544 475.968A128.064 128.064 0 0 0 512 224a128 128 0 0 0-32 251.968V768a32 32 0 0 0 64 0v-128h96a32 32 0 0 0 0-64h-96v-100.032zM512 416a64 64 0 1 1 0-128 64 64 0 0 1 0 128z" fill="#515151" p-id="6055"></path></svg>