<svg xmlns="http://www.w3.org/2000/svg" viewBox="0 0 24 24"><path fill="#646A73" d="M14 5a2.5 2.5 0 1 0 .001 5.001A2.5 2.5 0 0 0 14 5ZM9.5 7.5a4.5 4.5 0 1 1 9 0 4.5 4.5 0 0 1-9 0Zm1.835 7.5C9.515 15 8 16.498 8 18.4V20h12v-1.6c0-1.901-1.515-3.4-3.335-3.4h-5.33ZM6 18.4c0-2.982 2.39-5.4 5.335-5.4h5.33C19.61 13 22 15.418 22 18.4v2.7c0 .497-.4.9-.89.9H6.89a.896.896 0 0 1-.89-.9v-2.7Z" clip-rule="evenodd" fill-rule="evenodd"/><path fill-opacity=".2" fill="#000" d="M14 5a2.5 2.5 0 1 0 .001 5.001A2.5 2.5 0 0 0 14 5ZM9.5 7.5a4.5 4.5 0 1 1 9 0 4.5 4.5 0 0 1-9 0Zm1.835 7.5C9.515 15 8 16.498 8 18.4V20h12v-1.6c0-1.901-1.515-3.4-3.335-3.4h-5.33ZM6 18.4c0-2.982 2.39-5.4 5.335-5.4h5.33C19.61 13 22 15.418 22 18.4v2.7c0 .497-.4.9-.89.9H6.89a.896.896 0 0 1-.89-.9v-2.7Z" clip-rule="evenodd" fill-rule="evenodd"/><path fill="#646A73" d="M3 6h4a1 1 0 0 0 0-2H2.5A1.5 1.5 0 0 0 1 5.5v15A1.5 1.5 0 0 0 2.5 22H4a1 1 0 1 0 0-2H3V6Zm1 4a1 1 0 0 1 1-1h2a1 1 0 0 1 0 2H5a1 1 0 0 1-1-1Zm0 3a1 1 0 0 1 1-1h1a1 1 0 1 1 0 2H5a1 1 0 0 1-1-1Z" clip-rule="evenodd" fill-rule="evenodd"/><path fill-opacity=".2" fill="#000" d="M3 6h4a1 1 0 0 0 0-2H2.5A1.5 1.5 0 0 0 1 5.5v15A1.5 1.5 0 0 0 2.5 22H4a1 1 0 1 0 0-2H3V6Zm1 4a1 1 0 0 1 1-1h2a1 1 0 0 1 0 2H5a1 1 0 0 1-1-1Zm0 3a1 1 0 0 1 1-1h1a1 1 0 1 1 0 2H5a1 1 0 0 1-1-1Z" clip-rule="evenodd" fill-rule="evenodd"/></svg>