<svg width="40" height="41" xmlns="http://www.w3.org/2000/svg"><path d="M40 11.326c0 .899-.45 1.348-1.348 1.348h-4.72c-.898 0-1.348-.45-1.348-1.348 0-.899.45-1.348 1.349-1.348h4.719c.899 0 1.348.449 1.348 1.348zM40 28.045c0 .899-.45 1.348-1.348 1.348h-4.72c-.898 0-1.348-.45-1.348-1.348 0-.899.45-1.348 1.349-1.348h4.719c.899 0 1.348.45 1.348 1.348zM7.416 28.045c0 .899-.45 1.348-1.349 1.348H1.348C.45 29.393 0 28.943 0 28.045c0-.899.45-1.348 1.348-1.348h4.72c.898 0 1.348.45 1.348 1.348zM7.416 11.326c0 .899-.45 1.348-1.349 1.348H1.348C.45 12.674 0 12.224 0 11.326c0-.899.45-1.348 1.348-1.348h4.72c.898 0 1.348.449 1.348 1.348zM20.135 0c.899 0 1.348.45 1.348 1.348v4.72c0 .898-.45 1.348-1.348 1.348-.899 0-1.348-.45-1.348-1.349V1.348C18.787.45 19.236 0 20.135 0zM20.135 15.46c.899 0 1.348.45 1.348 1.349v4.72c0 .898-.45 1.347-1.348 1.347-.899 0-1.348-.449-1.348-1.348V16.81c0-.899.449-1.348 1.348-1.348zM20.135 32.72c.899 0 1.348.449 1.348 1.347v4.72c0 .898-.45 1.348-1.348 1.348-.899 0-1.348-.45-1.348-1.348v-4.72c0-.898.449-1.348 1.348-1.348z"/><path d="M8.045 24.584a.27.27 0 0 0-.27.27v6.382c0 .149.121.27.27.27h24.18a.27.27 0 0 0 .27-.27v-6.382a.27.27 0 0 0-.27-.27H8.045zm0-2.696h24.18a2.966 2.966 0 0 1 2.966 2.966v6.382a2.966 2.966 0 0 1-2.966 2.966H8.045a2.966 2.966 0 0 1-2.966-2.966v-6.382a2.966 2.966 0 0 1 2.966-2.966zm0-14.023a.27.27 0 0 0-.27.27v6.382c0 .149.121.27.27.27h24.18a.27.27 0 0 0 .27-.27V8.135a.27.27 0 0 0-.27-.27H8.045zm0-2.696h24.18a2.966 2.966 0 0 1 2.966 2.966v6.382a2.966 2.966 0 0 1-2.966 2.966H8.045a2.966 2.966 0 0 1-2.966-2.966V8.135a2.966 2.966 0 0 1 2.966-2.966z"/><path d="M29.158 12.663a1.348 1.348 0 1 0-.338-2.675 1.348 1.348 0 0 0 .338 2.675zm0 16.72a1.348 1.348 0 1 0-.338-2.676 1.348 1.348 0 0 0 .338 2.676z"/></svg>