<svg width="20px" height="20.0674157px" viewBox="0 0 20 20.0674157" version="1.1" xmlns="http://www.w3.org/2000/svg"
>
    <g id="页面-1" stroke="none" stroke-width="1" fill="none" fill-rule="evenodd">
        <g id="acl" fill="#515151" fill-rule="nonzero">
            <path d="M20,5.66292135 L20,5.66292135 C20,6.11235955 19.7752809,6.33707865 19.3258427,6.33707865 L16.9662921,6.33707865 C16.5168539,6.33707865 16.2921348,6.11235955 16.2921348,5.66292135 L16.2921348,5.66292135 C16.2921348,5.21348315 16.5168539,4.98876404 16.9662921,4.98876404 L19.3258427,4.98876404 C19.7752809,4.98876404 20,5.21348315 20,5.66292135 Z"
                  id="路径"></path>
            <path d="M20,14.0224719 L20,14.0224719 C20,14.4719101 19.7752809,14.6966292 19.3258427,14.6966292 L16.9662921,14.6966292 C16.5168539,14.6966292 16.2921348,14.4719101 16.2921348,14.0224719 L16.2921348,14.0224719 C16.2921348,13.5730337 16.5168539,13.3483146 16.9662921,13.3483146 L19.3258427,13.3483146 C19.7752809,13.3483146 20,13.5730337 20,14.0224719 Z"
                  id="路径"></path>
            <path d="M3.70786517,14.0224719 L3.70786517,14.0224719 C3.70786517,14.4719101 3.48314607,14.6966292 3.03370787,14.6966292 L0.674157303,14.6966292 C0.224719101,14.6966292 0,14.4719101 0,14.0224719 L0,14.0224719 C0,13.5730337 0.224719101,13.3483146 0.674157303,13.3483146 L3.03370787,13.3483146 C3.48314607,13.3483146 3.70786517,13.5730337 3.70786517,14.0224719 Z"
                  id="路径"></path>
            <path d="M3.70786517,5.66292135 L3.70786517,5.66292135 C3.70786517,6.11235955 3.48314607,6.33707865 3.03370787,6.33707865 L0.674157303,6.33707865 C0.224719101,6.33707865 0,6.11235955 0,5.66292135 L0,5.66292135 C0,5.21348315 0.224719101,4.98876404 0.674157303,4.98876404 L3.03370787,4.98876404 C3.48314607,4.98876404 3.70786517,5.21348315 3.70786517,5.66292135 Z"
                  id="路径"></path>
            <path d="M10.0674157,0 L10.0674157,0 C10.5168539,0 10.741573,0.224719101 10.741573,0.674157303 L10.741573,3.03370787 C10.741573,3.48314607 10.5168539,3.70786517 10.0674157,3.70786517 L10.0674157,3.70786517 C9.61797753,3.70786517 9.39325843,3.48314607 9.39325843,3.03370787 L9.39325843,0.674157303 C9.39325843,0.224719101 9.61797753,0 10.0674157,0 Z"
                  id="路径"></path>
            <path d="M10.0674157,7.73033708 L10.0674157,7.73033708 C10.5168539,7.73033708 10.741573,7.95505618 10.741573,8.40449438 L10.741573,10.7640449 C10.741573,11.2134831 10.5168539,11.4382022 10.0674157,11.4382022 L10.0674157,11.4382022 C9.61797753,11.4382022 9.39325843,11.2134831 9.39325843,10.7640449 L9.39325843,8.40449438 C9.39325843,7.95505618 9.61797753,7.73033708 10.0674157,7.73033708 Z"
                  id="路径"></path>
            <path d="M10.0674157,16.3595506 L10.0674157,16.3595506 C10.5168539,16.3595506 10.741573,16.5842697 10.741573,17.0337079 L10.741573,19.3932584 C10.741573,19.8426966 10.5168539,20.0674157 10.0674157,20.0674157 L10.0674157,20.0674157 C9.61797753,20.0674157 9.39325843,19.8426966 9.39325843,19.3932584 L9.39325843,17.0337079 C9.39325843,16.5842697 9.61797753,16.3595506 10.0674157,16.3595506 Z"
                  id="路径"></path>
            <path d="M4.02247191,12.2921348 C3.94800655,12.2921348 3.88764045,12.3525009 3.88764045,12.4269663 L3.88764045,15.6179775 C3.88764045,15.6924429 3.94800655,15.752809 4.02247191,15.752809 L16.1123596,15.752809 C16.1868249,15.752809 16.247191,15.6924429 16.247191,15.6179775 L16.247191,12.4269663 C16.247191,12.3525009 16.1868249,12.2921348 16.1123596,12.2921348 L4.02247191,12.2921348 Z M4.02247191,10.9438202 L16.1123596,10.9438202 C16.9314607,10.9438202 17.5955056,11.6078652 17.5955056,12.4269663 L17.5955056,15.6179775 C17.5955056,16.4370787 16.9314607,17.1011236 16.1123596,17.1011236 L4.02247191,17.1011236 C3.20337079,17.1011236 2.53932584,16.4370787 2.53932584,15.6179775 L2.53932584,12.4269663 C2.53932584,11.6078652 3.20337079,10.9438202 4.02247191,10.9438202 Z M4.02247191,3.93258427 C3.94800655,3.93258427 3.88764045,3.99295037 3.88764045,4.06741573 L3.88764045,7.25842697 C3.88764045,7.33289233 3.94800655,7.39325843 4.02247191,7.39325843 L16.1123596,7.39325843 C16.1868249,7.39325843 16.247191,7.33289233 16.247191,7.25842697 L16.247191,4.06741573 C16.247191,3.99295037 16.1868249,3.93258427 16.1123596,3.93258427 L4.02247191,3.93258427 Z M4.02247191,2.58426966 L16.1123596,2.58426966 C16.9314607,2.58426966 17.5955056,3.24831461 17.5955056,4.06741573 L17.5955056,7.25842697 C17.5955056,8.07752809 16.9314607,8.74157303 16.1123596,8.74157303 L4.02247191,8.74157303 C3.20337079,8.74157303 2.53932584,8.07752809 2.53932584,7.25842697 L2.53932584,4.06741573 C2.53932584,3.24831461 3.20337079,2.58426966 4.02247191,2.58426966 Z"
                  id="形状"></path>
            <path d="M14.5789438,6.33173034 C14.8179096,6.30154903 15.0226138,6.14615604 15.1159266,5.92410131 C15.2092393,5.70204659 15.17698,5.44707579 15.0313034,5.25525843 C14.885672,5.06343331 14.6487586,4.96388271 14.4098202,4.99411236 C14.1708544,5.02429366 13.9661502,5.17968666 13.8728375,5.40174138 C13.7795247,5.62379611 13.8117841,5.87876691 13.9574607,6.07058427 C14.103092,6.26240939 14.3400055,6.36195999 14.5789438,6.33173034 L14.5789438,6.33173034 Z M14.5789438,14.6912809 C14.8179096,14.6610996 15.0226138,14.5057066 15.1159266,14.2836519 C15.2092393,14.0615972 15.17698,13.8066263 15.0313034,13.614809 C14.885672,13.4229839 14.6487586,13.3234333 14.4098202,13.3536629 C14.1708544,13.3838442 13.9661502,13.5392372 13.8728375,13.7612919 C13.7795247,13.9833467 13.8117841,14.2383175 13.9574607,14.4301348 C14.103092,14.62196 14.3400055,14.7215105 14.5789438,14.6912809 L14.5789438,14.6912809 Z"
                  id="形状"></path>
        </g>
    </g>
</svg>
