<?xml version="1.0" standalone="no"?><!DOCTYPE svg PUBLIC "-//W3C//DTD SVG 1.1//EN" "http://www.w3.org/Graphics/SVG/1.1/DTD/svg11.dtd"><svg t="1706779803337" class="icon" viewBox="0 0 1024 1024" version="1.1" xmlns="http://www.w3.org/2000/svg" p-id="1493" xmlns:xlink="http://www.w3.org/1999/xlink" width="200" height="200"><path d="M957 290m0 30l0 0q0 30-30 30l-105 0q-30 0-30-30l0 0q0-30 30-30l105 0q30 0 30 30Z" fill="#515151" p-id="1494"></path><path d="M957 662m0 30l0 0q0 30-30 30l-105 0q-30 0-30-30l0 0q0-30 30-30l105 0q30 0 30 30Z" fill="#515151" p-id="1495"></path><path d="M232 662m0 30l0 0q0 30-30 30l-105 0q-30 0-30-30l0 0q0-30 30-30l105 0q30 0 30 30Z" fill="#515151" p-id="1496"></path><path d="M232 290m0 30l0 0q0 30-30 30l-105 0q-30 0-30-30l0 0q0-30 30-30l105 0q30 0 30 30Z" fill="#515151" p-id="1497"></path><path d="M485 68m30 0l0 0q30 0 30 30l0 105q0 30-30 30l0 0q-30 0-30-30l0-105q0-30 30-30Z" fill="#515151" p-id="1498"></path><path d="M485 412m30 0l0 0q30 0 30 30l0 105q0 30-30 30l0 0q-30 0-30-30l0-105q0-30 30-30Z" fill="#515151" p-id="1499"></path><path d="M485 796m30 0l0 0q30 0 30 30l0 105q0 30-30 30l0 0q-30 0-30-30l0-105q0-30 30-30Z" fill="#515151" p-id="1500"></path><path d="M246 615a6 6 0 0 0-6 6v142a6 6 0 0 0 6 6h538a6 6 0 0 0 6-6V621a6 6 0 0 0-6-6H246z m0-60h538c36.45 0 66 29.55 66 66v142c0 36.45-29.55 66-66 66H246c-36.45 0-66-29.55-66-66V621c0-36.45 29.55-66 66-66zM246 243a6 6 0 0 0-6 6v142a6 6 0 0 0 6 6h538a6 6 0 0 0 6-6V249a6 6 0 0 0-6-6H246z m0-60h538c36.45 0 66 29.55 66 66v142c0 36.45-29.55 66-66 66H246c-36.45 0-66-29.55-66-66V249c0-36.45 29.55-66 66-66z" fill="#515151" p-id="1501"></path><path d="M715.763 349.762a29.997 29.997 0 0 0 20.13-47.903 29.996 29.996 0 0 0-27.656-11.621 29.997 29.997 0 0 0-20.13 47.903 29.996 29.996 0 0 0 27.656 11.621zM715.763 721.762a29.997 29.997 0 0 0 20.13-47.903 29.996 29.996 0 0 0-27.656-11.621 29.997 29.997 0 0 0-20.13 47.903 29.996 29.996 0 0 0 27.656 11.621z" fill="#515151" p-id="1502"></path></svg>