<svg width="138" height="134" xmlns="http://www.w3.org/2000/svg"><g fill="currentColor" fill-rule="nonzero"><path d="M125.455 123.012c0 .289-.145.457-.02.473l-112.645.068a.684.684 0 0 1-.245-.541v-78.35h112.91v78.35zM12.545 18.865c0-.284.126-.452.02-.478h25.071v2.633c0 2.902 2.809 5.255 6.273 5.255 3.464 0 6.273-2.353 6.273-5.255v-2.628h37.636v2.628c0 2.902 2.809 5.255 6.273 5.255 3.464 0 6.273-2.353 6.273-5.255v-2.628h24.896a.697.697 0 0 1 .195.473v15.292H12.545V18.865zM125.423 7.882h-25.06V5.255c0-2.902-2.808-5.255-6.272-5.255-3.464 0-6.273 2.353-6.273 5.255v2.627H50.182V5.255C50.182 2.353 47.373 0 43.909 0c-3.464 0-6.273 2.353-6.273 5.255v2.627H12.49C5.602 7.882 0 12.812 0 18.865v104.152C0 129.077 5.608 134 12.495 134h113.01c6.887 0 12.495-4.924 12.495-10.983V18.865c0-6.059-5.64-10.988-12.577-10.988v.005z"/><path d="M44.3 76.571h50.4c3.48 0 6.3-2.366 6.3-5.285 0-2.92-2.82-5.286-6.3-5.286H44.3c-3.48 0-6.3 2.366-6.3 5.286 0 2.919 2.82 5.285 6.3 5.285m0 26.429h50.4c3.48 0 6.3-2.366 6.3-5.286 0-2.919-2.82-5.285-6.3-5.285H44.3c-3.48 0-6.3 2.366-6.3 5.285 0 2.92 2.82 5.286 6.3 5.286"/></g></svg>