<svg t="1736148692584" class="icon" viewBox="0 0 1024 1024" version="1.1" xmlns="http://www.w3.org/2000/svg"
     p-id="41075" width="200" height="200">
    <path d="M512.034996 927.992188c-229.350883 0-415.937195-186.646305-415.937196-415.927196 0-229.290891 186.586312-415.937195 415.937196-415.937196s415.927197 186.646305 415.927196 415.937196c0 229.280892-186.576314 415.927197-415.927196 415.927196z m0-927.862205C229.330886 0.129983 0.099987 229.360882 0.099987 512.064992s229.230898 511.935008 511.935009 511.935008 511.935008-229.2209 511.935008-511.935008c0-282.70411-229.2209-511.935008-511.935008-511.935009z m209.893353 352.33527c-12.948356-0.539931-26.016697 3.789519-35.895443 13.728258L464.03109 588.195327 337.977093 462.131331c-9.878746-9.878746-22.947087-14.208196-35.835451-13.728257-11.628524 0.479939-23.127064 4.819388-32.045931 13.728257-8.848877 8.848877-13.188326 20.417408-13.668265 32.045932-0.479939 12.888364 3.849511 25.956705 13.668265 35.83545l159.969691 159.959693c9.388808 9.338814 21.677248 14.028219 33.905695 14.028219 12.28844 0 24.57688-4.699403 33.905696-14.028219l255.967504-255.967504c9.878746-9.878746 14.218195-22.947087 13.738256-35.835451-0.479939-11.628524-4.819388-23.187056-13.738256-32.045932-8.908869-8.838878-20.297423-13.238319-31.915948-13.658266z"
          fill="#515151" p-id="41076"></path>
</svg>
