<svg class="icon" viewBox="0 0 1024 1024" xmlns="http://www.w3.org/2000/svg" width="200" height="200"><path d="M512.035 927.992c-229.35 0-415.937-186.646-415.937-415.927 0-229.29 186.586-415.937 415.937-415.937s415.927 186.646 415.927 415.937c0 229.28-186.576 415.927-415.927 415.927zm0-927.862C229.331.13.1 229.36.1 512.065S229.33 1024 512.035 1024s511.935-229.22 511.935-511.935C1023.97 229.361 794.75.13 512.035.13zm209.893 352.335c-12.948-.54-26.016 3.79-35.895 13.729L464.03 588.195 337.977 462.131c-9.879-9.878-22.947-14.208-35.835-13.728-11.629.48-23.127 4.82-32.046 13.728-8.85 8.85-13.189 20.418-13.669 32.046-.48 12.889 3.85 25.957 13.669 35.836l159.97 159.96C439.453 699.31 451.742 704 463.97 704c12.289 0 24.577-4.7 33.906-14.029l255.967-255.967c9.879-9.879 14.218-22.947 13.739-35.836-.48-11.628-4.82-23.187-13.739-32.045-8.909-8.84-20.297-13.239-31.916-13.659z" fill="currentColor"/></svg>