<?xml version="1.0" encoding="UTF-8"?>
<svg width="40px" height="40px" viewBox="0 0 40 40" version="1.1" xmlns="http://www.w3.org/2000/svg"
>
    <path d="M20,2.99999997 C29.3888408,2.99999997 37,10.6111592 37,20 C37,29.3888408 29.3888408,37 20,37 C10.6111592,37 2.99999997,29.3888408 2.99999997,20 C2.99999997,10.6111592 10.6111592,2.99999997 20,2.99999997 M20,0 C8.95430504,0 0,8.95430504 0,20 C0,31.045695 8.95430504,40 20,40 C31.045695,40 40,31.045695 40,20 C40,8.95430504 31.045695,0 20,0 L20,0 Z"
          id="形状"></path>
    <path d="M14.5,38.5 C13.6715729,38.5 12.9998649,37.8284271 12.9998649,37 L12.9998649,12.5 C12.9950101,11.9783475 13.2632038,11.4920757 13.7070718,11.217982 C14.1509399,10.9438883 14.7058314,10.9218957 15.17,11.16 L29.87,18.51 C30.376377,18.7647348 30.695908,19.2831601 30.695908,19.85 C30.695908,20.4168398 30.376377,20.9352652 29.87,21.19 L16,28.13 L16,37 C16,37.8284271 15.3284271,38.5 14.5,38.5 L14.5,38.5 Z M16,14.93 L16,24.77 L25.85,19.85 L16,14.93 Z"
          id="形状"></path>
</svg>
