<svg t="1716531899181" class="icon" viewBox="0 0 1024 1024" version="1.1" xmlns="http://www.w3.org/2000/svg" p-id="88117" width="200" height="200"><path d="M512 116.363636A395.636364 395.636364 0 1 1 116.363636 512 395.636364 395.636364 0 0 1 512 116.363636m0-69.818181a465.454545 465.454545 0 1 0 465.454545 465.454545A465.454545 465.454545 0 0 0 512 46.545455z" fill="#2c2c2c" p-id="88118"></path><path d="M384 942.545455A34.909091 34.909091 0 0 1 349.090909 907.636364V337.454545a34.676364 34.676364 0 0 1 50.501818-31.185454l342.109091 171.054545a34.909091 34.909091 0 0 1 0 62.370909L418.909091 701.207273V907.636364a34.909091 34.909091 0 0 1-34.909091 34.909091zM418.909091 394.007273v229.003636l229.236364-114.501818z" fill="#2c2c2c" p-id="88119"></path></svg>
