<?xml version="1.0" encoding="UTF-8"?>
<svg width="40px" height="40px" viewBox="0 0 40 40" version="1.1" xmlns="http://www.w3.org/2000/svg"
>
    <path d="M20.5597162,35.9666034 L40,39.1471674 L40,21.1860823 L20.5597162,21.1860823 L20.5597162,35.9680367 L20.5597162,35.9666034 Z M23.7847135,24.4110797 L36.7750027,24.4110797 L36.7750027,35.3402372 L23.7847135,33.2346723 L23.7847135,24.4110797 Z M20.5597162,3.22499731 L20.5597162,17.961085 L40,17.961085 L40,0 L20.5597162,3.22499731 Z M36.7735694,14.7360877 L23.7832802,14.7360877 L23.7832802,5.95692837 L36.7735694,3.80693016 L36.7735694,14.7360877 Z M0,17.961085 L16.4388863,17.961085 L16.4388863,3.76249686 L0,6.49442792 L0,17.961085 Z M3.22499731,9.22635898 L13.213889,7.56942703 L13.213889,14.7360877 L3.22499731,14.7360877 L3.22499731,9.22635898 Z M0,32.741606 L16.4388863,35.4291038 L16.4388863,21.184649 L0,21.184649 L0,32.741606 Z M3.22499731,24.4110797 L13.213889,24.4110797 L13.213889,31.6221736 L3.22499731,30.009675 L3.22499731,24.4110797 L3.22499731,24.4110797 Z"
          id="形状"></path>
</svg>
