<!-- <svg xmlns="http://www.w3.org/2000/svg" viewBox="0 0 24 24"><path stroke-linejoin="round" stroke-width="2" stroke="#646A73" d="m3.375 5.531 6.469-.862v6.037H3.375V5.531Z"/><path stroke-linejoin="round" stroke-width="2" stroke-opacity=".2" stroke="#000" d="m3.375 5.531 6.469-.862v6.037H3.375V5.531Z"/><path stroke-linejoin="round" stroke-width="2" stroke="#646A73" d="m12.431 4.422 8.194-1.047v7.331H12.43V4.422Z"/><path stroke-linejoin="round" stroke-width="2" stroke-opacity=".2" stroke="#000" d="m12.431 4.422 8.194-1.047v7.331H12.43V4.422Z"/><path stroke-linejoin="round" stroke-width="2" stroke="#646A73" d="m12.431 13.725 8.194.192v6.708l-8.194-1.342v-5.558Z"/><path stroke-linejoin="round" stroke-width="2" stroke-opacity=".2" stroke="#000" d="m12.431 13.725 8.194.192v6.708l-8.194-1.342v-5.558Z"/><path stroke-linejoin="round" stroke-width="2" stroke="#646A73" d="m3.375 13.294 6.469.155V18.9l-6.469-1.09v-4.516Z"/><path stroke-linejoin="round" stroke-width="2" stroke-opacity=".2" stroke="#000" d="m3.375 13.294 6.469.155V18.9l-6.469-1.09v-4.516Z"/></svg> -->

<svg t="1676621228913" class="icon" viewBox="0 0 1024 1024" version="1.1" xmlns="http://www.w3.org/2000/svg" p-id="30600" width="200" height="200"><path d="M527.008 868.992l434.016 71.008V539.008H527.008v330.016z m72-257.984h290.016v244l-290.016-47.008v-196.992z m-72-472.992v328.992h434.016V66.016z m361.984 256.992h-290.016V199.008l290.016-48v244z m-820.992 72h367.008V150.016L68 211.008v256zM140 272l223.008-36.992v160H140V272z m-72 524.992l367.008 60v-318.016H68v258.016z m72-185.984h223.008v160.992L140 736v-124.992z" p-id="30601" fill="#000000"></path></svg>