<svg width="30" height="26.346" xmlns="http://www.w3.org/2000/svg"><path d="M11.1 10.553h18a.3.3 0 0 0 .3-.299V8.158a.3.3 0 0 0-.3-.3h-18a.3.3 0 0 0-.3.3v2.096a.3.3 0 0 0 .3.3zm-.3 7.635a.3.3 0 0 0 .3.3h18a.3.3 0 0 0 .3-.3v-2.096a.3.3 0 0 0-.3-.3h-18a.3.3 0 0 0-.3.3v2.096zM29.7 0H.3a.3.3 0 0 0-.3.3v2.095a.3.3 0 0 0 .3.3h29.4a.3.3 0 0 0 .3-.3V.3A.3.3 0 0 0 29.7 0zm0 23.652H.3a.3.3 0 0 0-.3.299v2.096a.3.3 0 0 0 .3.3h29.4a.3.3 0 0 0 .3-.3V23.95a.3.3 0 0 0-.3-.3zm-28.56-5.61l5.861-4.607a.33.33 0 0 0 0-.52L1.14 8.305a.334.334 0 0 0-.54.258v9.217a.333.333 0 0 0 .54.262z"/></svg>