<!-- <svg t="1668761036371" class="icon" viewBox="0 0 1024 1024" version="1.1" xmlns="http://www.w3.org/2000/svg" p-id="3947" width="200" height="200"><path d="M448 512V0h128v512h192l-256 256-256-256h192z m576 512H0v-128h1024v128z" fill="#8F959E" p-id="3948"></path></svg> -->

<svg xmlns="http://www.w3.org/2000/svg" fill="none" viewBox="0 0 24 24"><path fill="#8F959E" d="M19.144 13H7.5a.5.5 0 0 1-.5-.5v-1a.5.5 0 0 1 .5-.5h11.686l-5.024-5.025a.5.5 0 0 1 0-.707l.706-.707a.5.5 0 0 1 .708 0l6.003 6.004.007-.008 1.41 1.41a.005.005 0 0 1 0 .008.005.005 0 0 0 0 .007.005.005 0 0 1 0 .007l-1.41 1.411-.008-.007-6.002 6.003a.5.5 0 0 1-.708 0l-.707-.706a.5.5 0 0 1 0-.708L19.144 13ZM2.5 4a.5.5 0 0 1 .5.5v15a.5.5 0 0 1-.5.5h-1a.5.5 0 0 1-.5-.5v-15a.5.5 0 0 1 .5-.5h1Z"/><path fill-opacity=".2" fill="#8F959E" d="M19.144 13H7.5a.5.5 0 0 1-.5-.5v-1a.5.5 0 0 1 .5-.5h11.686l-5.024-5.025a.5.5 0 0 1 0-.707l.706-.707a.5.5 0 0 1 .708 0l6.003 6.004.007-.008 1.41 1.41a.005.005 0 0 1 0 .008.005.005 0 0 0 0 .007.005.005 0 0 1 0 .007l-1.41 1.411-.008-.007-6.002 6.003a.5.5 0 0 1-.708 0l-.707-.706a.5.5 0 0 1 0-.708L19.144 13ZM2.5 4a.5.5 0 0 1 .5.5v15a.5.5 0 0 1-.5.5h-1a.5.5 0 0 1-.5-.5v-15a.5.5 0 0 1 .5-.5h1Z"/></svg>