<svg t="1719396627639" class="icon" viewBox="0 0 1024 1024" version="1.1" xmlns="http://www.w3.org/2000/svg" p-id="6265" width="40" height="40"><path d="M450.56 143.36m40.96 0l0 0q40.96 0 40.96 40.96l0 573.44q0 40.96-40.96 40.96l0 0q-40.96 0-40.96-40.96l0-573.44q0-40.96 40.96-40.96Z" fill="#000000" p-id="6266"></path><path d="M492.58496 796.22144l203.22304-203.22304a40.96 40.96 0 1 1 57.91744 57.93792L522.0352 882.62656c-0.8192 0.8192-1.6384 1.57696-2.49856 2.29376a40.96 40.96 0 0 1-55.95136-1.8432L231.87456 651.38688a40.96 40.96 0 0 1 57.93792-57.93792l202.752 202.77248z" fill="#000000" p-id="6267"></path></svg>
