<svg t="1707190169322" class="icon" viewBox="0 0 1024 1024" version="1.1" xmlns="http://www.w3.org/2000/svg" p-id="17866" width="230" height="240"><path d="M895.36 113.376a64 64 0 0 1 64 64V896a64 64 0 0 1-64 64H522.144a63.68 63.68 0 0 1-32.064-8.576c-9.408 5.44-20.352 8.576-32 8.576H183.68a64 64 0 0 1-64-64V391.424a64 64 0 0 1 64-64h274.432V177.344a64 64 0 0 1 64-64H895.36z m0 64H522.144V896h373.152V177.376z m-437.28 214.08H183.712V896h274.368V391.424zM812.48 735.264v64h-207.36v-64h207.36z m-400.96 0v64H233.28v-64h178.24z m400.96-106.432v64h-207.36v-64h207.36z m-400.96 0v64H233.28v-64h178.24z m400.96-106.432v64h-207.36v-64h207.36z" fill="#000000" p-id="17867"></path></svg>
