<svg xmlns="http://www.w3.org/2000/svg" viewBox="0 0 24 24"><path fill="#646A73" d="M11.703 2.052a.87.87 0 0 1 .594 0l9.09 3.293A.95.95 0 0 1 22 6.24a.951.951 0 0 1-.606.902l-9.09 3.374a.87.87 0 0 1-.608 0l-9.09-3.374A.951.951 0 0 1 2 6.24a.95.95 0 0 1 .612-.896l9.09-3.293ZM5.66 6.256 12 8.609l6.339-2.353-6.34-2.296-6.338 2.296Z" clip-rule="evenodd" fill-rule="evenodd"/><path fill-opacity=".2" fill="#000" d="M11.703 2.052a.87.87 0 0 1 .594 0l9.09 3.293A.95.95 0 0 1 22 6.24a.951.951 0 0 1-.606.902l-9.09 3.374a.87.87 0 0 1-.608 0l-9.09-3.374A.951.951 0 0 1 2 6.24a.95.95 0 0 1 .612-.896l9.09-3.293ZM5.66 6.256 12 8.609l6.339-2.353-6.34-2.296-6.338 2.296Z" clip-rule="evenodd" fill-rule="evenodd"/><path fill="#646A73" d="M2.051 11.685c.166-.496.685-.758 1.158-.584L12 14.324l8.791-3.223c.474-.174.993.088 1.159.584.165.497-.084 1.04-.558 1.214l-9.09 3.333a.87.87 0 0 1-.602 0L2.61 12.9c-.474-.174-.724-.717-.558-1.214Z" clip-rule="evenodd" fill-rule="evenodd"/><path fill-opacity=".2" fill="#000" d="M2.051 11.685c.166-.496.685-.758 1.158-.584L12 14.324l8.791-3.223c.474-.174.993.088 1.159.584.165.497-.084 1.04-.558 1.214l-9.09 3.333a.87.87 0 0 1-.602 0L2.61 12.9c-.474-.174-.724-.717-.558-1.214Z" clip-rule="evenodd" fill-rule="evenodd"/><path fill="#646A73" d="M2.051 17.4c.166-.497.685-.758 1.158-.585L12 20.04l8.791-3.224c.474-.173.993.088 1.159.585.165.496-.084 1.04-.558 1.213l-9.09 3.334a.87.87 0 0 1-.602 0l-9.09-3.334c-.474-.174-.724-.717-.558-1.213Z" clip-rule="evenodd" fill-rule="evenodd"/><path fill-opacity=".2" fill="#000" d="M2.051 17.4c.166-.497.685-.758 1.158-.585L12 20.04l8.791-3.224c.474-.173.993.088 1.159.585.165.496-.084 1.04-.558 1.213l-9.09 3.334a.87.87 0 0 1-.602 0l-9.09-3.334c-.474-.174-.724-.717-.558-1.213Z" clip-rule="evenodd" fill-rule="evenodd"/></svg>