<svg t="1712480806752" class="icon" viewBox="0 0 1137 1024" version="1.1" xmlns="http://www.w3.org/2000/svg" p-id="5037" width="200" height="200"><path d="M568.888889 960c-28.444444 0-49.777778-14.222222-64-35.555556l-7.111111-7.111111H263.111111c-14.222222 0-35.555556-14.222222-35.555555-35.555555s21.333333-28.444444 35.555555-28.444445h241.777778c7.111111-14.222222 14.222222-21.333333 28.444444-28.444444l7.111111-7.111111V704h-497.777777c-28.444444 0-28.444444-14.222222-28.444445-21.333333V28.444444C14.222222 21.333333 28.444444 14.222222 42.666667 14.222222h1052.444444c28.444444 0 28.444444 14.222222 28.444445 14.222222v661.333334c0 7.111111-14.222222 21.333333-28.444445 21.333333h-497.777778v106.666667l7.111111 7.111111c14.222222 7.111111 21.333333 14.222222 28.444445 28.444444l7.111111 7.111111h241.777778c14.222222 0 28.444444 14.222222 28.444444 35.555556s-14.222222 28.444444-28.444444 28.444444H632.888889c-14.222222 28.444444-35.555556 35.555556-64 35.555556zM71.111111 647.111111h995.555556v-568.888889L71.111111 71.111111v256h960v56.888889H71.111111v263.111111z m867.555556-92.444444v-64h56.888889v64h-56.888889z m0-320v-64h56.888889v64h-56.888889z" fill="#2c2c2c" p-id="5038"></path><path d="M568.888889 960c-28.444444 0-49.777778-14.222222-64-35.555556l-7.111111-7.111111H263.111111c-14.222222 0-28.444444-14.222222-28.444444-28.444444s14.222222-28.444444 28.444444-28.444445H497.777778l7.111111-7.111111c7.111111-14.222222 14.222222-21.333333 28.444444-28.444444l7.111111-7.111111V696.888889h56.888889v120.888889l7.111111 7.111111c14.222222 7.111111 21.333333 14.222222 28.444445 28.444444l7.111111 7.111111h241.777778c14.222222 0 28.444444 14.222222 28.444444 28.444445s-14.222222 28.444444-28.444444 28.444444H640l-7.111111 7.111111c-14.222222 21.333333-35.555556 35.555556-64 35.555556z m56.888889-256H42.666667c-21.333333 0-28.444444-7.111111-28.444445-14.222222V28.444444C14.222222 21.333333 28.444444 14.222222 42.666667 14.222222h1052.444444c21.333333 0 28.444444 7.111111 28.444445 14.222222v661.333334c0 7.111111-14.222222 14.222222-28.444445 14.222222H625.777778zM71.111111 647.111111h995.555556V71.111111H71.111111v256h960v56.888889H71.111111v263.111111z m867.555556-99.555555v-56.888889h56.888889v56.888889h-56.888889z m0-320v-56.888889h56.888889v56.888889h-56.888889z" fill="#2c2c2c" p-id="5039"></path></svg>
