<svg width="40" height="35" xmlns="http://www.w3.org/2000/svg"><path d="M20 34.103c-1.026 0-1.795-.513-2.308-1.282l-.256-.257H8.974c-.512 0-1.282-.513-1.282-1.282 0-.77.77-1.026 1.282-1.026h8.718c.257-.512.513-.769 1.026-1.025l.256-.257v-4.102H1.026C0 24.872 0 24.359 0 24.102V.513C0 .257.513 0 1.026 0h37.948C40 0 40 .513 40 .513v23.846c0 .256-.513.77-1.026.77H21.026v3.845l.256.257c.513.256.77.513 1.026 1.025l.256.257h8.718c.513 0 1.026.513 1.026 1.282 0 .77-.513 1.026-1.026 1.026h-8.974c-.513 1.025-1.282 1.282-2.308 1.282zM2.051 22.82H37.95V2.308L2.05 2.05v9.231h34.616v2.051H2.05v9.488zm31.282-3.334V17.18h2.052v2.308h-2.052zm0-11.538V5.64h2.052v2.308h-2.052z"/><path d="M20 34.103c-1.026 0-1.795-.513-2.308-1.282l-.256-.257H8.974c-.512 0-1.025-.513-1.025-1.026 0-.512.513-1.025 1.025-1.025h8.462l.256-.257c.257-.512.513-.769 1.026-1.025l.256-.257v-4.359h2.052v4.36l.256.256c.513.256.77.513 1.026 1.025l.256.257h8.718c.513 0 1.026.513 1.026 1.025 0 .513-.513 1.026-1.026 1.026h-8.718l-.256.257c-.513.769-1.282 1.282-2.308 1.282zm2.051-9.231H1.026c-.77 0-1.026-.257-1.026-.513V.513C0 .256.513 0 1.026 0h37.948C39.744 0 40 .256 40 .513v23.846c0 .256-.513.513-1.026.513H22.051zm-20-2.051H37.95V2.05H2.05v9.231h34.616v2.051H2.05v9.488zm31.282-3.59v-2.052h2.052v2.052h-2.052zm0-11.539V5.641h2.052v2.051h-2.052z"/></svg>