<!-- <svg xmlns="http://www.w3.org/2000/svg" viewBox="0 0 24 24"><path stroke-linejoin="round" stroke-width="2" stroke="#646A73" d="M21 4H3a1 1 0 0 0-1 1v14a1 1 0 0 0 1 1h18a1 1 0 0 0 1-1V5a1 1 0 0 0-1-1Z"/><path stroke-linejoin="round" stroke-width="2" stroke-opacity=".2" stroke="#000" d="M21 4H3a1 1 0 0 0-1 1v14a1 1 0 0 0 1 1h18a1 1 0 0 0 1-1V5a1 1 0 0 0-1-1Z"/><path stroke-linejoin="round" stroke-width="2" stroke="#646A73" d="M8.5 12.5a2 2 0 1 0 0-4 2 2 0 0 0 0 4Z"/><path stroke-linejoin="round" stroke-width="2" stroke-opacity=".2" stroke="#000" d="M8.5 12.5a2 2 0 1 0 0-4 2 2 0 0 0 0 4Z"/><path stroke-linejoin="round" stroke-linecap="round" stroke-width="2" stroke="#646A73" d="M11.5 15.5a3 3 0 0 0-6 0"/><path stroke-linejoin="round" stroke-linecap="round" stroke-width="2" stroke-opacity=".2" stroke="#000" d="M11.5 15.5a3 3 0 0 0-6 0"/><path stroke-linejoin="round" stroke-linecap="round" stroke-width="2" stroke="#646A73" d="M14 10h4"/><path stroke-linejoin="round" stroke-linecap="round" stroke-width="2" stroke-opacity=".2" stroke="#000" d="M14 10h4"/><path stroke-linejoin="round" stroke-linecap="round" stroke-width="2" stroke="#646A73" d="M15 14h3"/><path stroke-linejoin="round" stroke-linecap="round" stroke-width="2" stroke-opacity=".2" stroke="#000" d="M15 14h3"/></svg> -->

<svg t="1676619380793" class="icon" viewBox="0 0 1024 1024" version="1.1" xmlns="http://www.w3.org/2000/svg" p-id="8636" width="200" height="200"><path d="M832 405.344h-224a32 32 0 0 0 0 64h224a32 32 0 0 0 0-64zM832 565.344h-224a32 32 0 0 0 0 64h224a32 32 0 0 0 0-64zM404.352 635.36v-20.864c30.816-19.968 60.544-55.04 76.768-98.048 11.488-4.992 19.744-19.104 26.4-44.256 5.152-19.488-3.104-32.352-14.272-39.488C487.744 340.832 434.144 288 352 288c-83.296 0-139.456 54.368-143.776 148.672-10.112 8.352-16.608 21.76-11.552 40.864 7.2 27.232 16.096 42.88 28.352 48.864 17.312 38.656 45.664 70.016 74.624 88.384v20.576C219.04 644.032 160 672.256 160 705.728c0 40.384 384 40.384 384 0 0-33.472-59.04-61.696-139.648-70.368z" p-id="8637"></path><path d="M896 128H128a96 96 0 0 0-96 96v576a96 96 0 0 0 96 96h768a96 96 0 0 0 96-96V224a96 96 0 0 0-96-96z m32 672a32 32 0 0 1-32 32H128a32 32 0 0 1-32-32V224a32 32 0 0 1 32-32h768a32 32 0 0 1 32 32v576z" p-id="8638"></path></svg>