<svg width="40" height="32" xmlns="http://www.w3.org/2000/svg"><path d="M33.333 11.556H24a1.333 1.333 0 1 0 0 2.667h9.333a1.333 1.333 0 0 0 0-2.667zm0 6.667H24a1.333 1.333 0 1 0 0 2.666h9.333a1.333 1.333 0 1 0 0-2.666zM15.515 21.14v-.87c1.284-.831 2.522-2.293 3.198-4.085.479-.208.823-.796 1.1-1.844.215-.812-.129-1.348-.594-1.645-.23-3.828-2.463-6.03-5.886-6.03-3.47 0-5.81 2.266-5.99 6.195-.422.348-.692.907-.482 1.703.3 1.135.671 1.787 1.182 2.036.721 1.61 1.902 2.917 3.109 3.683v.857c-3.359.361-5.819 1.537-5.819 2.932 0 1.683 16 1.683 16 0 0-1.395-2.46-2.57-5.818-2.932z"/><path d="M36 0H4a4 4 0 0 0-4 4v24a4 4 0 0 0 4 4h32a4 4 0 0 0 4-4V4a4 4 0 0 0-4-4zm1.333 28c0 .736-.597 1.333-1.333 1.333H4A1.333 1.333 0 0 1 2.667 28V4c0-.736.597-1.333 1.333-1.333h32c.736 0 1.333.597 1.333 1.333v24z"/></svg>