<svg width="43px" height="43px" viewBox="0 0 43 43" version="1.1" xmlns="http://www.w3.org/2000/svg">
    <path d="M30.8597157,40.331332 C25.7237184,40.331332 21.5453925,36.5185883 21.5453925,31.8319645 C21.5453925,27.1453408 25.7237184,23.3325971 30.8597157,23.3325971 C35.9957131,23.3325971 40.1740389,27.1453408 40.1740389,31.8319645 C40.1740389,36.5185882 35.995713,40.331332 30.8597157,40.331332 Z M30.8597157,26.5654481 C27.6722084,26.5654481 25.0882231,28.9233478 25.0882231,31.8319645 C25.0882231,34.7405812 27.6722084,37.0984809 30.8597157,37.0984809 C34.0472231,37.0984809 36.6312083,34.7405812 36.6312083,31.8319645 C36.6275476,28.9247326 34.0457056,26.5687885 30.8597157,26.5654481 Z M0.103517085,42.3109481 L0,5.67415866 L12.2321765,5.64536611 L12.2410335,8.87821712 L3.5522413,8.89842246 L3.6369371,39.0700149 L21.2857695,39.0280889 L21.2946265,42.2609399 L0.103517085,42.3109481 Z M39.2390638,23.03962 L39.199207,8.81457039 L30.5098612,8.83528082 L30.5010041,5.60242982 L42.732627,5.57363722 L42.7818944,23.0315379 L39.2390638,23.03962 L39.2390638,23.03962 Z"
          id="形状"></path>
    <polygon id="路径"
             points="11.5158603 11.5569373 11.4915034 2.94997656 18.8212879 2.93280204 18.8306986 6.16565307 15.0431912 6.17424032 15.0492804 8.31549901 27.6982929 8.28569614 27.6922037 6.14443749 23.9417853 6.15352989 23.9329283 2.92067885 31.2261773 2.90350432 31.2505342 11.510465"></polygon>
    <path d="M15.2457518,5.59939899 C15.2413867,4.1181016 15.8821393,2.69589808 17.0270489,1.64576232 C18.1719586,0.595626552 19.7272051,0.00361237818 21.3505368,0 L21.3665902,0 C24.7391532,0.00331652328 27.4746437,2.49314384 27.4868302,5.57060643 L23.9439996,5.57868856 C23.9385165,4.28263381 22.7863725,3.23423142 21.3660367,3.23285105 L21.3599475,3.23285105 C20.6763299,3.23432269 20.0213689,3.48360964 19.5392244,3.92584263 C19.0570799,4.36807563 18.78727,4.96700796 18.789181,5.59081175 L15.2457518,5.59939899 Z M9.46915602,16.2654838 L27.5584065,16.1876933 L27.5751242,19.4205444 L9.48587376,19.4983348 L9.46915602,16.2654838 Z M9.47762559,25.0359055 L17.8697057,25.0359055 L17.8697057,28.2687565 L9.47762559,28.2687565 L9.47762559,25.0359055 Z M34.6033252,37.740808 L37.0732317,35.4231569 L43,40.6822984 L40.5300381,43 L34.6033252,37.740808 Z"
          id="形状"></path>
</svg>
