<svg t="1709100595404" class="icon" viewBox="0 0 1024 1024" version="1.1" xmlns="http://www.w3.org/2000/svg" p-id="20350" width="200" height="200"><path d="M715.369826 960.381901c-111.599305 0-202.389513-90.790208-202.389513-202.389513s90.790208-202.389513 202.389513-202.389512 202.389513 90.790208 202.389512 202.389512-90.790208 202.389513-202.389512 202.389513z m0-327.797397a125.407884 125.407884 0 1 0 125.407884 125.407884 125.552225 125.552225 0 0 0-125.407884-125.407884zM47.073063 1007.52112L44.823756 135.114786l265.791101-0.685617 0.192454 76.981628-188.797444 0.481136 1.840342 718.455105 383.488794-0.998356 0.192454 76.981629-460.458394 1.190809zM897.443406 548.626415l-0.866044-338.731193-188.809472 0.493163-0.192454-76.981628 265.779072-0.685618 1.070526 415.712822-76.981628 0.192454z" p-id="20351" fill="#515151"></path><path d="M295.050134 275.197294l-0.529249-204.951558L453.788658 69.836771l0.204482 76.981629-82.298172 0.204482 0.132312 50.988301 274.848471-0.709675-0.132313-50.9883-81.49227 0.216511-0.192454-76.981629 158.473899-0.408965 0.529249 204.951558-428.811728 1.106611z" p-id="20352" fill="#515151"></path><path d="M376.097355 133.334586A132.973735 132.973735 0 0 1 508.746323 0h0.348823a133.130104 133.130104 0 0 1 132.985764 132.648969l-76.981629 0.192454A56.076305 56.076305 0 0 0 509.083118 76.981629h-0.132312a55.992106 55.992106 0 0 0-55.859794 56.148475zM250.577607 387.31863l393.058572-1.852371 0.363257 76.981629-393.058572 1.85237zM250.761641 596.162571h182.350232v76.981629h-182.350232zM796.714147 898.69556l53.668224-55.188611L979.164216 968.739219l-53.669427 55.189814z" p-id="20353" fill="#515151"></path></svg>
