<?xml version="1.0" encoding="UTF-8"?>
<svg width="40px" height="44px" viewBox="0 0 40 44" version="1.1" xmlns="http://www.w3.org/2000/svg"
>
    <path d="M28.7067123,41.1148588 C23.9290404,41.1148588 20.0422256,37.228044 20.0422256,32.450372 C20.0422256,27.6727001 23.9290404,23.7858853 28.7067123,23.7858853 C33.4843843,23.7858853 37.371199,27.6727001 37.371199,32.450372 C37.371199,37.2280439 33.4843842,41.1148588 28.7067123,41.1148588 Z M28.7067123,27.0815417 C25.7415892,27.0815417 23.337882,29.4852489 23.337882,32.450372 C23.337882,35.4154951 25.7415892,37.8192023 28.7067123,37.8192023 C31.6718354,37.8192023 34.0755426,35.4154951 34.0755426,32.450372 C34.0721373,29.4866606 31.6704238,27.084947 28.7067123,27.0815417 Z M0.096294963,43.1329334 L0,5.78439195 L11.3787688,5.75504004 L11.3870079,9.05069645 L3.30441051,9.07129433 L3.3831973,39.8290378 L19.8007158,39.7862973 L19.8089549,43.0819537 L0.096294963,43.1329334 Z M36.5014547,23.4872164 L36.4643786,8.98581324 L28.3812662,9.00692602 L28.3730271,5.71126962 L39.7512809,5.68191766 L39.7971111,23.4789773 L36.5014547,23.4872164 L36.5014547,23.4872164 Z"
          id="形状"></path>
    <polygon id="路径"
             points="10.7124282 11.7814568 10.6897706 3.00728649 17.5081748 2.98977831 17.5169289 6.28543475 13.9936662 6.29418882 13.9993306 8.47704628 25.7658539 8.44666442 25.7601895 6.26380701 22.2714282 6.27307605 22.2631891 2.9774196 29.0476068 2.95991142 29.0702644 11.7340817"></polygon>
    <path d="M14.1821155,5.70817991 C14.1780341,4.19810498 14.7740831,2.74827196 15.8391153,1.67773495 C16.9041475,0.607197937 18.3508885,0.00368255675 19.8609645,0 L19.8758979,0 C23.0131658,0.0033809542 25.5578081,2.54157877 25.5691444,5.67882799 L22.273488,5.68706713 C22.2683874,4.3658336 21.1966256,3.29706364 19.875383,3.29565645 L19.8697186,3.29565645 C19.2337953,3.29715668 18.6245292,3.55128659 18.1760227,4.00211095 C17.7275162,4.45293532 17.4765302,5.06350326 17.4783079,5.69942584 L14.1821155,5.70817991 Z M8.80851723,16.5814774 L25.635727,16.5021756 L25.6512783,19.7978321 L8.82406861,19.8771338 L8.80851723,16.5814774 Z M8.8163959,25.5222843 L16.622982,25.5222843 L16.622982,28.8179407 L8.8163959,28.8179407 L8.8163959,25.5222843 Z M32.1891397,38.4740081 L34.4867272,36.1113314 L40,41.4726435 L37.702361,43.8353717 L32.1891397,38.4740081 Z"
          id="形状"></path>
</svg>
