<svg xmlns="http://www.w3.org/2000/svg" viewBox="0 0 24 24"><path fill="#646A73" d="M3 2.91c0-.503.403-.91.9-.91h5.4a.9.9 0 0 1 .842.588c.266.712.57 1.164.873 1.432.285.253.6.373.985.373s.7-.12.985-.373c.302-.268.607-.72.873-1.432A.9.9 0 0 1 14.7 2h5.4c.497 0 .9.407.9.91v18.18c0 .503-.403.91-.9.91H3.9a.905.905 0 0 1-.9-.91V2.91Zm1.8.908v16.364h14.4V3.818h-3.905c-.296.627-.664 1.162-1.123 1.57A3.198 3.198 0 0 1 12 6.21c-.82 0-1.556-.279-2.172-.824-.459-.407-.827-.942-1.123-1.569H4.8Z" clip-rule="evenodd" fill-rule="evenodd"/><path fill-opacity=".2" fill="#000" d="M3 2.91c0-.503.403-.91.9-.91h5.4a.9.9 0 0 1 .842.588c.266.712.57 1.164.873 1.432.285.253.6.373.985.373s.7-.12.985-.373c.302-.268.607-.72.873-1.432A.9.9 0 0 1 14.7 2h5.4c.497 0 .9.407.9.91v18.18c0 .503-.403.91-.9.91H3.9a.905.905 0 0 1-.9-.91V2.91Zm1.8.908v16.364h14.4V3.818h-3.905c-.296.627-.664 1.162-1.123 1.57A3.198 3.198 0 0 1 12 6.21c-.82 0-1.556-.279-2.172-.824-.459-.407-.827-.942-1.123-1.569H4.8Z" clip-rule="evenodd" fill-rule="evenodd"/><path fill="#646A73" d="M7.042 11.911a.555.555 0 0 0 .121.18l3.142 3.143.053.047a.557.557 0 0 0 .733-.047l5.5-5.5a.555.555 0 0 0 0-.785l-.786-.786a.556.556 0 0 0-.786 0l-4.32 4.321-1.965-1.964a.555.555 0 0 0-.786 0l-.785.786a.556.556 0 0 0-.12.605Z"/><path fill-opacity=".2" fill="#000" d="M7.042 11.911a.555.555 0 0 0 .121.18l3.142 3.143.053.047a.557.557 0 0 0 .733-.047l5.5-5.5a.555.555 0 0 0 0-.785l-.786-.786a.556.556 0 0 0-.786 0l-4.32 4.321-1.965-1.964a.555.555 0 0 0-.786 0l-.785.786a.556.556 0 0 0-.12.605Z"/></svg>