<svg width="43" height="43" xmlns="http://www.w3.org/2000/svg"><path d="M30.86 40.331c-5.136 0-9.315-3.812-9.315-8.499 0-4.687 4.179-8.5 9.315-8.5 5.136 0 9.314 3.813 9.314 8.5 0 4.687-4.178 8.5-9.314 8.5zm0-13.766c-3.188 0-5.772 2.358-5.772 5.267 0 2.909 2.584 5.266 5.772 5.266 3.187 0 5.771-2.357 5.771-5.266-.003-2.907-2.585-5.263-5.771-5.267zM.104 42.311L0 5.674l12.232-.029.009 3.233-8.689.02.085 30.172 17.649-.042.009 3.233-21.191.05zM39.239 23.04L39.2 8.815l-8.69.02-.008-3.233 12.232-.028.049 17.458-3.543.008z"/><path d="M11.516 11.557l-.024-8.607 7.33-.017.009 3.233-3.788.008.006 2.141 12.65-.03-.007-2.14-3.75.009-.01-3.233 7.294-.017.025 8.606z"/><path d="M15.246 5.6c-.005-1.482.636-2.904 1.781-3.954C18.172.596 19.727.004 21.351 0h.016c3.372.003 6.108 2.493 6.12 5.57l-3.543.009c-.005-1.296-1.158-2.345-2.578-2.346h-.006a2.706 2.706 0 0 0-1.82.693 2.25 2.25 0 0 0-.75 1.665l-3.544.008zM9.469 16.264l18.09-.077.016 3.233-18.09.077-.016-3.233zm.009 8.77h8.392v3.234H9.478v-3.233zm25.125 12.706l2.47-2.318L43 40.683 40.53 43l-5.927-5.26z"/></svg>