<svg width="40" height="40" xmlns="http://www.w3.org/2000/svg"><path d="M29.007 6.58a1.654 1.654 0 0 1-.066.036L25.816 8.42a1.332 1.332 0 0 1-1.82-.488l-.333-.576a1.332 1.332 0 0 1 .488-1.82l.8-.463a15.028 15.028 0 0 0-3.042-1.206A14.624 14.624 0 0 0 10.67 5.293c-7.063 4.081-9.445 13.2-5.304 20.373.46.797-2.426 2.462-2.885 1.666C-2.575 18.572.34 7.412 9.004 2.409A17.955 17.955 0 0 1 22.792.655a18.374 18.374 0 0 1 5.762 2.733c.37.078.69.31.878.638l.333.576a1.332 1.332 0 0 1-.488 1.82l-.27.157zM6.41 32.47a1.654 1.654 0 0 1-.036-.066l-.172-.295a1.332 1.332 0 0 1 .488-1.82l3.461-2a1.332 1.332 0 0 1 1.82.489l.334.576a1.332 1.332 0 0 1-.488 1.82l-.842.485c.982.524 2.019.937 3.092 1.233a14.624 14.624 0 0 0 11.237-1.428c6.939-4.005 9.352-12.886 5.513-19.998a9.108 9.108 0 0 0-.046-.087.333.333 0 0 1 .123-.45l2.31-1.333a.333.333 0 0 1 .466.144c4.812 8.711 1.864 19.666-6.7 24.609a17.955 17.955 0 0 1-13.786 1.754A18.361 18.361 0 0 1 7.32 33.3a1.327 1.327 0 0 1-.786-.615l-.125-.216v.001z"/><path d="M16.22 19.684h3.532l-1.719-4.89h-.037l-1.775 4.89zm.287-8.175h3.073l5.097 13.325h-3.111l-1.033-2.968h-5.097l-1.065 2.968h-3.018l5.154-13.325zM37.835 30.953H38c1.333 0 1.999.666 1.999 1.999v.103c0 1.332-.666 1.998-1.999 1.998h-.166c-1.333 0-1.999-.666-1.999-1.998v-.103c0-1.333.666-2 1.999-2z"/><path d="M29.59 30.965l7.109-4.376a.8.8 0 0 1 1.22.683v11.486a.8.8 0 0 1-1.22.68l-7.109-4.373h-4.647a1.599 1.599 0 0 1-1.599-1.599v-.904a1.6 1.6 0 0 1 1.6-1.6h4.646v.003z"/><path d="M26.467 35.065h2.777v3.3a.8.8 0 0 1-.8.799h-1.177a.8.8 0 0 1-.8-.8v-3.299z"/></svg>