<svg t="1716522219919" class="icon" viewBox="0 0 1024 1024" version="1.1" xmlns="http://www.w3.org/2000/svg" p-id="27887" width="200" height="200"><path d="M743.13344 172.373333a42.368 42.368 0 0 1-1.706667 0.938667l-80.042666 46.250667a34.133333 34.133333 0 0 1-46.634667-12.501334l-8.533333-14.762666a34.133333 34.133333 0 0 1 12.501333-46.634667l20.522667-11.861333a384.981333 384.981333 0 0 0-77.952-30.890667 374.613333 374.613333 0 0 0-287.872 36.522667C92.466773 243.968 31.45344 477.568 137.522773 661.333333c11.776 20.394667-62.122667 63.061333-73.898666 42.666667C-65.911893 479.616 8.754773 193.706667 230.706773 65.536A459.946667 459.946667 0 0 1 583.90144 20.608c52.821333 14.506667 102.826667 38.229333 147.626667 70.016a34.048 34.048 0 0 1 22.485333 16.341333l8.533333 14.762667a34.133333 34.133333 0 0 1-12.501333 46.634667l-6.912 4.010666zM164.232107 835.626667a42.368 42.368 0 0 1-0.938667-1.706667l-4.394667-7.552A34.133333 34.133333 0 0 1 171.400107 779.733333l88.661333-51.2a34.133333 34.133333 0 0 1 46.634667 12.501334l8.533333 14.762666a34.133333 34.133333 0 0 1-12.501333 46.634667l-21.546667 12.416a384.981333 384.981333 0 0 0 79.189333 31.573333 374.613333 374.613333 0 0 0 287.872-36.565333c177.749333-102.613333 239.573333-330.112 141.226667-512.298667a233.301333 233.301333 0 0 0-1.194667-2.218666 8.533333 8.533333 0 0 1 3.157334-11.52l59.178666-34.176a8.533333 8.533333 0 0 1 11.946667 3.712c123.264 223.146667 47.744 503.765333-171.648 630.4a459.946667 459.946667 0 0 1-353.152 44.928 470.357333 470.357333 0 0 1-150.186667-71.808 34.005333 34.005333 0 0 1-20.138666-15.744l-3.2-5.546667z" fill="#2c2c2c" p-id="27888"></path><path d="M415.58144 508.074667h90.453333l-44.032-125.269334h-0.938666l-45.482667 125.269334zM422.920107 298.666667h78.72l130.56 341.333333h-79.701334l-26.453333-76.032h-130.56L368.178773 640H290.866773l132.053334-341.333333z" fill="#2c2c2c" p-id="27889"></path><path d="M918.066773 796.757333m51.2 0l4.266667 0q51.2 0 51.2 51.2l0 2.645334q0 51.2-51.2 51.2l-4.266667 0q-51.2 0-51.2-51.2l0-2.645334q0-51.2 51.2-51.2Z" fill="#2c2c2c" p-id="27890"></path><path d="M758.066773 797.056L940.168107 684.970667a20.48 20.48 0 0 1 31.232 17.493333V996.693333a20.48 20.48 0 0 1-31.232 17.408L758.066773 902.101333H639.026773a40.96 40.96 0 0 1-40.96-40.96V837.973333c0-22.613333 18.346667-40.96 40.96-40.96h119.04z" fill="#2c2c2c" p-id="27891"></path><path d="M678.066773 902.101333h71.125334v84.522667a20.48 20.48 0 0 1-20.48 20.48h-30.165334a20.48 20.48 0 0 1-20.48-20.48V902.101333z" fill="#2c2c2c" p-id="27892"></path></svg>
