<svg t="1730795663037" class="icon" viewBox="0 0 1024 1024" version="1.1" xmlns="http://www.w3.org/2000/svg"
     p-id="53312" width="200" height="200">
    <path d="M81.4592 150.4768c-44.544 0-80.6912 35.0208-80.6912 78.2848v712.704c0 43.2128 36.1472 78.2848 80.6912 78.2848h686.6432c44.5952 0 80.7424-35.072 80.7424-78.336v-71.8848h90.3168c44.544 0 80.6912-35.0208 80.6912-78.2848V78.5408c0-43.2128-36.1472-78.2848-80.6912-78.2848H252.416c-44.544 0-80.6912 35.072-80.6912 78.336v71.8848H81.4592zM848.896 800.3584V228.7616c0-43.264-36.1472-78.336-80.7424-78.336H243.0976V69.2736h710.144v731.136h-104.448zM72.0896 941.4656V219.648h705.4336v731.136H72.0896v-9.3184z"
          fill="#333333" p-id="53313"></path>
    <path d="M215.1936 716.8a35.1232 35.1232 0 0 0-35.6352 34.6112c0 19.1488 15.9232 34.6112 35.6352 34.6112h203.3664a35.1232 35.1232 0 0 0 35.6864-34.6112 35.1232 35.1232 0 0 0-35.6864-34.56H215.1936z m0-186.9824a35.1232 35.1232 0 0 0-35.6352 34.56c0 19.0976 15.9232 34.6112 35.6352 34.6112h389.4272a35.1232 35.1232 0 0 0 35.6352-34.6112 35.1232 35.1232 0 0 0-35.6352-34.56H215.1936z m0-180.224a35.1232 35.1232 0 0 0-35.6352 34.56c0 19.1488 15.9232 34.6112 35.6352 34.6112h389.4272a35.1232 35.1232 0 0 0 35.6352-34.6112 35.1232 35.1232 0 0 0-35.6352-34.56H215.1936z"
          fill="#333333" p-id="53314"></path>
</svg>
