<svg width="40" height="40" xmlns="http://www.w3.org/2000/svg"><path d="M27.5 7.5h6.25V10H27.5V7.5zm0 7.5h6.25v2.5H27.5V15zm0 7.5h6.25V25H27.5v-2.5zm-3.75-15H1.25C.562 7.5 0 8.063 0 8.75v30C0 39.438.563 40 1.25 40h22.5c.688 0 1.25-.563 1.25-1.25v-30c0-.688-.563-1.25-1.25-1.25zm-1.25 30h-20V10h20v27.5z"/><path d="M6.25 15h12.5v2.5H6.25V15zm0 7.5h12.5V25H6.25v-2.5zm.04 7.5h12.5v2.5H6.29V30zM38.75 0h-22.5C15.562 0 15 .563 15 1.25V5h2.5V2.5h20V30h-10v2.5h11.25c.688 0 1.25-.563 1.25-1.25v-30C40 .562 39.437 0 38.75 0z"/></svg>