<svg t="1712573882692" class="icon" viewBox="0 0 1024 1024" version="1.1" xmlns="http://www.w3.org/2000/svg" p-id="28075" width="200" height="200"><path d="M704 192h160v64H704zM704 384h160v64H704zM704 576h160v64H704zM608 192H32c-17.6 0-32 14.4-32 32v768c0 17.6 14.4 32 32 32h576c17.6 0 32-14.4 32-32V224c0-17.6-14.4-32-32-32z m-32 768H64V256h512v704z" fill="#5A5B5C" p-id="28076"></path><path d="M160 384h320v64H160zM160 576h320v64H160zM161 768h320v64H161zM992 0H416c-17.6 0-32 14.4-32 32v96h64V64h512v704H704v64h288c17.6 0 32-14.4 32-32V32c0-17.6-14.4-32-32-32z" fill="#5A5B5C" p-id="28077"></path></svg>
