<svg class="icon" viewBox="0 0 1024 1024" xmlns="http://www.w3.org/2000/svg" width="200" height="200"><path d="M81.46 150.477c-44.545 0-80.692 35.02-80.692 78.285v712.704c0 43.212 36.147 78.284 80.691 78.284h686.643c44.596 0 80.743-35.072 80.743-78.336V869.53h90.317c44.544 0 80.69-35.021 80.69-78.285V78.54c0-43.213-36.146-78.285-80.69-78.285H252.416c-44.544 0-80.691 35.072-80.691 78.336v71.885H81.459zm767.436 649.881V228.762c0-43.264-36.147-78.336-80.742-78.336H243.098V69.274h710.144V800.41H848.794zM72.09 941.466V219.648h705.433v731.136H72.09v-9.318z" fill="currentColor"/><path d="M215.194 716.8a35.123 35.123 0 0 0-35.636 34.611c0 19.149 15.924 34.611 35.636 34.611H418.56a35.123 35.123 0 0 0 35.686-34.61 35.123 35.123 0 0 0-35.686-34.56H215.194zm0-186.982a35.123 35.123 0 0 0-35.636 34.56c0 19.097 15.924 34.61 35.636 34.61H604.62a35.123 35.123 0 0 0 35.635-34.61 35.123 35.123 0 0 0-35.635-34.56H215.194zm0-180.224a35.123 35.123 0 0 0-35.636 34.56c0 19.148 15.924 34.61 35.636 34.61H604.62a35.123 35.123 0 0 0 35.635-34.61 35.123 35.123 0 0 0-35.635-34.56H215.194z" fill="currentColor"/></svg>