<?xml version="1.0" encoding="UTF-8"?>
<svg width="40px" height="40px" viewBox="0 0 40 40" version="1.1" xmlns="http://www.w3.org/2000/svg"
>
    <title>backup-account</title>


    <path d="M27.5,7.5 L33.75,7.5 L33.75,10 L27.5,10 L27.5,7.5 Z M27.5,15 L33.75,15 L33.75,17.5 L27.5,17.5 L27.5,15 Z M27.5,22.5 L33.75,22.5 L33.75,25 L27.5,25 L27.5,22.5 Z M23.75,7.5 L1.25,7.5 C0.5625,7.5 0,8.0625 0,8.75 L0,38.75 C0,39.4375 0.5625,40 1.25,40 L23.75,40 C24.4375,40 25,39.4375 25,38.75 L25,8.75 C25,8.0625 24.4375,7.5 23.75,7.5 Z M22.5,37.5 L2.5,37.5 L2.5,10 L22.5,10 L22.5,37.5 Z"
          id="形状"></path>
    <path d="M6.25,15 L18.75,15 L18.75,17.5 L6.25,17.5 L6.25,15 Z M6.25,22.5 L18.75,22.5 L18.75,25 L6.25,25 L6.25,22.5 Z M6.2890625,30 L18.7890625,30 L18.7890625,32.5 L6.2890625,32.5 L6.2890625,30 Z M38.75,0 L16.25,0 C15.5625,0 15,0.5625 15,1.25 L15,5 L17.5,5 L17.5,2.5 L37.5,2.5 L37.5,30 L27.5,30 L27.5,32.5 L38.75,32.5 C39.4375,32.5 40,31.9375 40,31.25 L40,1.25 C40,0.5625 39.4375,0 38.75,0 Z"
          id="形状"></path>


</svg>
