<!-- <svg xmlns="http://www.w3.org/2000/svg" viewBox="0 0 24 24"><path stroke-linejoin="round" stroke-linecap="round" stroke-width="2" stroke="#646A73" d="M20.75 5h-3"/><path stroke-linejoin="round" stroke-linecap="round" stroke-width="2" stroke-opacity=".2" stroke="#000" d="M20.75 5h-3"/><path stroke-linejoin="round" stroke-linecap="round" stroke-width="2" stroke="#646A73" d="M13.75 3v4"/><path stroke-linejoin="round" stroke-linecap="round" stroke-width="2" stroke-opacity=".2" stroke="#000" d="M13.75 3v4"/><path stroke-linejoin="round" stroke-linecap="round" stroke-width="2" stroke="#646A73" d="M13.75 5h-11"/><path stroke-linejoin="round" stroke-linecap="round" stroke-width="2" stroke-opacity=".2" stroke="#000" d="M13.75 5h-11"/><path stroke-linejoin="round" stroke-linecap="round" stroke-width="2" stroke="#646A73" d="M6.75 12h-4"/><path stroke-linejoin="round" stroke-linecap="round" stroke-width="2" stroke-opacity=".2" stroke="#000" d="M6.75 12h-4"/><path stroke-linejoin="round" stroke-linecap="round" stroke-width="2" stroke="#646A73" d="M10.75 10v4"/><path stroke-linejoin="round" stroke-linecap="round" stroke-width="2" stroke-opacity=".2" stroke="#000" d="M10.75 10v4"/><path stroke-linejoin="round" stroke-linecap="round" stroke-width="2" stroke="#646A73" d="M21.75 12h-11"/><path stroke-linejoin="round" stroke-linecap="round" stroke-width="2" stroke-opacity=".2" stroke="#000" d="M21.75 12h-11"/><path stroke-linejoin="round" stroke-linecap="round" stroke-width="2" stroke="#646A73" d="M20.75 19h-3"/><path stroke-linejoin="round" stroke-linecap="round" stroke-width="2" stroke-opacity=".2" stroke="#000" d="M20.75 19h-3"/><path stroke-linejoin="round" stroke-linecap="round" stroke-width="2" stroke="#646A73" d="M13.75 17v4"/><path stroke-linejoin="round" stroke-linecap="round" stroke-width="2" stroke-opacity=".2" stroke="#000" d="M13.75 17v4"/><path stroke-linejoin="round" stroke-linecap="round" stroke-width="2" stroke="#646A73" d="M13.75 19h-11"/><path stroke-linejoin="round" stroke-linecap="round" stroke-width="2" stroke-opacity=".2" stroke="#000" d="M13.75 19h-11"/></svg> -->

<svg t="1676623650264" class="icon" viewBox="0 0 1024 1024" version="1.1" xmlns="http://www.w3.org/2000/svg" p-id="50546" width="200" height="200"><path d="M403.456 498.36032H207.54432a72.704 72.704 0 0 1-72.62208-72.62208V229.7856a72.704 72.704 0 0 1 72.62208-72.66304H403.456a72.704 72.704 0 0 1 72.66304 72.66304v195.95264a72.704 72.704 0 0 1-72.66304 72.62208z m-184.32-84.09088h172.8512V241.2544H219.01312zM821.16608 498.36032h-195.95264a72.704 72.704 0 0 1-72.62208-72.62208V229.7856a72.704 72.704 0 0 1 72.62208-72.62208h195.95264a72.704 72.704 0 0 1 72.62208 72.62208v195.95264a72.704 72.704 0 0 1-72.62208 72.62208z m-184.32-84.09088h173.01504V241.2544h-173.17888zM403.456 916.02944H207.54432a72.704 72.704 0 0 1-72.62208-72.62208v-195.95264a72.704 72.704 0 0 1 72.62208-72.62208H403.456a72.704 72.704 0 0 1 72.62208 72.62208v195.95264a72.704 72.704 0 0 1-72.62208 72.62208z m-184.32-84.09088h172.8512v-173.01504H219.01312zM821.16608 916.02944h-195.95264a72.704 72.704 0 0 1-72.62208-72.62208v-195.95264a72.704 72.704 0 0 1 72.62208-72.62208h195.95264a72.704 72.704 0 0 1 72.62208 72.62208v195.95264a72.704 72.704 0 0 1-72.62208 72.62208z m-184.32-84.09088h173.01504v-173.01504h-173.17888z" p-id="50547" fill="#000000"></path></svg>