<svg width="40" height="40" xmlns="http://www.w3.org/2000/svg"><path d="M14.154 17.987H3.828A3.832 3.832 0 0 1 0 14.159V3.83A3.832 3.832 0 0 1 3.828 0h10.326a3.832 3.832 0 0 1 3.83 3.83V14.16a3.832 3.832 0 0 1-3.83 3.828zM4.44 13.554h9.111v-9.12H4.432l.007 9.12zm31.733 4.433H25.843a3.832 3.832 0 0 1-3.828-3.828V3.83A3.832 3.832 0 0 1 25.843.002h10.33A3.832 3.832 0 0 1 40 3.83V14.16a3.832 3.832 0 0 1-3.828 3.828zm-9.715-4.433h9.12v-9.12h-9.13l.01 9.12zM14.154 40.002H3.828A3.832 3.832 0 0 1 0 36.174V25.846a3.832 3.832 0 0 1 3.828-3.828h10.326a3.832 3.832 0 0 1 3.828 3.828v10.328a3.832 3.832 0 0 1-3.828 3.828zM4.44 35.57h9.111v-9.12H4.432l.007 9.12zm31.733 4.432H25.843a3.832 3.832 0 0 1-3.828-3.828V25.846a3.832 3.832 0 0 1 3.828-3.828h10.33A3.832 3.832 0 0 1 40 25.846v10.328a3.832 3.832 0 0 1-3.828 3.828zm-9.715-4.432h9.12v-9.12h-9.13l.01 9.12z"/></svg>