<?xml version="1.0" encoding="UTF-8"?>
<svg width="40px" height="39px" viewBox="0 0 40 39" version="1.1" xmlns="http://www.w3.org/2000/svg" xmlns:xlink="http://www.w3.org/1999/xlink">
    <title>batch-update</title>
    <g id="jumpserver" stroke="none" stroke-width="1" fill="none" fill-rule="evenodd">
        <g id="batch-update" fill="#272636" fill-rule="nonzero">
            <path d="M12.7391982,21.5403486 C12.7133829,21.5732044 12.6875676,21.6078314 12.6759662,21.649499 L10.6832746,28.9553115 C10.5670838,29.3806658 10.6861086,29.8390088 11.0009841,30.1621204 C11.2365098,30.3921997 11.5468245,30.5186636 11.8773309,30.5186636 C11.9864813,30.5186636 12.0958531,30.505601 12.2034979,30.476996 L19.4574584,28.4985184 C19.4691041,28.4985184 19.4747277,28.5087028 19.4834951,28.5087028 C19.5668302,28.5087028 19.648704,28.4783709 19.710519,28.4151832 L39.1078895,9.02064673 C39.6840617,8.44372176 40,7.6578391 40,6.802791 C40,5.83394311 39.589081,4.8654938 38.8694856,4.14780247 L37.037575,2.31296933 C36.3190866,1.59337396 35.3492646,1.18170217 34.3808595,1.18170217 C33.5260328,1.18170217 32.7401945,1.49772899 32.162561,2.07319277 L12.7680688,21.4729101 C12.7479213,21.4914191 12.7535892,21.5188285 12.7391982,21.5403486 M37.2098687,7.12120901 L35.2831545,9.04646203 L32.1597714,5.87348528 L34.0591649,3.97404751 C34.3592951,3.67227884 34.9412238,3.71629326 35.2860769,4.06238625 L37.1192274,5.89721939 C37.3105173,6.08819934 37.4195791,6.34245547 37.4195791,6.59387767 C37.4184278,6.7999571 37.3450115,6.98695182 37.2098687,7.12120901 M16.1888811,21.845084 L30.1857217,7.84744639 L33.3106546,11.0225486 L19.3398506,24.9926883 L16.1888811,21.845084 L16.1888811,21.845084 Z M13.6387477,27.5200617 L14.6502373,23.8073995 L17.3483103,26.5057382 L13.6387477,27.5200617 L13.6387477,27.5200617 Z M37.3756976,14.8069445 C36.6414455,14.8069445 35.9951336,15.4039284 35.9922997,16.1481434 L35.9922997,34.2967274 C35.9922997,35.2449408 35.2222251,35.9802999 34.2725062,35.9802999 L4.43717267,35.9802999 C3.48891504,35.9802999 2.7821609,35.2450294 2.7821609,34.2967274 L2.7821609,4.42906946 C2.7821609,3.48010335 3.48887077,2.76564445 4.43717267,2.76564445 L24.9126299,2.76564445 C25.651,2.76564445 26.2501094,2.10950242 26.2501094,1.37091088 C26.2501094,0.633780616 25.6509558,-6.14926012e-16 24.9126299,-6.14926012e-16 L4.23313012,-6.14926012e-16 C1.92135638,-6.14926012e-16 6.14926012e-16,1.91329748 6.14926012e-16,4.22644388 L6.14926012e-16,34.5008586 C6.14926012e-16,36.8140935 1.92140069,38.7597597 4.23313012,38.7597597 L34.4749546,38.7597597 C36.788411,38.7597597 38.7574127,36.8140935 38.7574127,34.5008586 L38.7574127,16.139686 C38.7545788,15.4039284 38.1097725,14.8069445 37.3756976,14.8069445" id="形状"></path>
        </g>
    </g>
</svg>