<svg t="1736134870052" class="icon" viewBox="0 0 1024 1024" version="1.1" xmlns="http://www.w3.org/2000/svg"
     p-id="30043" width="200" height="200">
    <path d="M863.936 864.448v-304a48 48 0 0 1 96 0v345.6c0 30.08-24.32 54.4-54.4 54.4H118.528a54.4 54.4 0 0 1-54.4-54.4V118.592c0-30.08 24.32-54.4 54.4-54.4h344.96a48 48 0 1 1 0 96h-303.36v704.256h703.808z"
          fill="#666666" p-id="30044"></path>
    <path d="M422.4 669.44a48 48 0 0 1-67.904-67.904L870.848 85.184a48 48 0 1 1 67.84 67.84L422.4 669.44z"
          fill="#666666" p-id="30045"></path>
</svg>
