<svg t="1712573591686" class="icon" viewBox="0 0 1024 1024" version="1.1" xmlns="http://www.w3.org/2000/svg" p-id="11504" width="200" height="200"><path d="M761.952 850.304c0 23.232-10.624 32.608-36.864 32.608H246.112c-26.4 0-37.024-9.376-37.024-32.608v-266.56c0-23.232 10.656-32.64 37.024-32.64h446.752v-69.088H214.336c-45.6 0-74.336 28.736-74.336 74.336v321.28c0 45.6 28.736 74.336 74.336 74.336h542.528c45.408 0 74.144-28.736 74.144-74.336v-215.968H761.92v188.64z" fill="#2c2c2c" p-id="11505"></path><path d="M457.984 634.016a13.76 13.76 0 0 1 13.824-13.824h27.648c7.584 0 13.824 6.208 13.824 13.824V800a13.856 13.856 0 0 1-13.824 13.824h-27.648a13.76 13.76 0 0 1-13.824-13.824v-165.984zM951.68 382.112a34.368 34.368 0 0 0-48.768 0l-303.04 303.04a34.528 34.528 0 1 0 48.896 48.8l302.912-302.912a34.496 34.496 0 0 0 0-48.928zM347.264 482.048v-197.44c0-81.664 62.048-148.128 138.336-148.128 76.288 0 138.176 66.464 138.176 148.128v114.56h69.088V274.752a207.36 207.36 0 1 0-414.688 0v276.352h414.688v-69.088h-345.6z" fill="#2c2c2c" p-id="11506"></path></svg>
