<?xml version="1.0" encoding="UTF-8"?>
<svg width="40px" height="44px" viewBox="0 0 40 44" version="1.1" xmlns="http://www.w3.org/2000/svg"
>
    <path d="M30.2706254,38.229976 C30.2706254,39.3606857 29.7535516,39.817019 28.4764414,39.817019 L5.16450885,39.817019 C3.87961144,39.817019 3.36253758,39.3606857 3.36253758,38.229976 L3.36253758,25.2564058 C3.36253758,24.1256961 3.88116889,23.6678054 5.16450885,23.6678054 L26.9080879,23.6678054 L26.9080879,20.3052678 L3.6179596,20.3052678 C1.39859136,20.3052678 0,21.7038592 0,23.9232274 L0,39.5600395 C0,41.7794077 1.39859136,43.1779991 3.6179596,43.1779991 L30.0229907,43.1779991 C32.2330142,43.1779991 33.6316056,41.7794077 33.6316056,39.5600395 L33.6316056,29.0488 L30.269068,29.0488 L30.269068,38.229976 L30.2706254,38.229976 Z"
          id="路径"></path>
    <path d="M15.4763873,27.703162 C15.4755615,27.5244652 15.54618,27.3528466 15.6725391,27.2264875 C15.7988982,27.1001284 15.9705168,27.0295099 16.1492136,27.0303357 L17.4948516,27.0303357 C17.8639676,27.0303357 18.1676706,27.3324885 18.1676706,27.703162 L18.1676706,35.7816624 C18.1668142,36.1528948 17.866084,36.453625 17.4948516,36.4544887 L16.1492136,36.4544887 C15.9705168,36.4553145 15.7988982,36.384696 15.6725391,36.2583369 C15.54618,36.1319778 15.4755615,35.9603592 15.4763873,35.7816624 L15.4763873,27.703162 L15.4763873,27.703162 Z M39.5047548,15.4429045 C39.1907428,15.1267586 38.7635683,14.9489692 38.3179768,14.9489692 C37.8723853,14.9489692 37.4452109,15.1267586 37.1311989,15.4429045 L22.3821341,30.1919693 C21.9578609,30.6170771 21.7926087,31.2362399 21.9486262,31.8162251 C22.1046438,32.3962103 22.5582284,32.8489044 23.1385191,33.0037818 C23.7188098,33.1586592 24.3376467,32.9921905 24.7619198,32.5670827 L39.5047548,17.8242477 C39.8217544,17.5091076 40,17.0805683 40,16.6335761 C40,16.1865839 39.8217544,15.7580447 39.5047548,15.4429045 L39.5047548,15.4429045 Z M10.0876127,20.3068253 L10.0876127,10.6973501 C10.0876127,6.72273414 13.107511,3.48790758 16.8204751,3.48790758 C20.5334393,3.48790758 23.5455503,6.72273414 23.5455503,10.6973501 L23.5455503,16.2730261 L26.9080879,16.2730261 L26.9080879,10.2176551 C26.9532494,6.58243177 25.0397574,3.20385387 21.8988728,1.37308023 C18.7579882,-0.45769341 14.8751748,-0.45769341 11.7342902,1.37308023 C8.59340562,3.20385387 6.67991361,6.58243177 6.72507515,10.2176551 L6.72507515,23.6678054 L26.9080879,23.6678054 L26.9080879,20.3052678 L10.0876127,20.3052678 L10.0876127,20.3068253 Z"
          id="形状"></path>
</svg>
