<svg width="162" height="176" xmlns="http://www.w3.org/2000/svg"><g fill="currentColor" fill-rule="nonzero"><path d="M145.273 109.375a5.401 5.401 0 0 0-5.39 5.39v49.551H10.78V87.305h80.332a5.401 5.401 0 0 0 5.39-5.39 5.401 5.401 0 0 0-5.39-5.392H31.25V50.43c0-21.856 17.773-39.63 39.648-39.63h8.008c21.856 0 39.63 17.774 39.63 39.63v4.18h.019a5.385 5.385 0 0 0 10.761-.352c0-.137 0-.274-.02-.41V50.41c0-27.734-22.675-50.41-50.41-50.41H70.88c-27.734 0-50.41 22.676-50.41 50.41v26.094H5.39A5.401 5.401 0 0 0 0 81.894V170a5.401 5.401 0 0 0 5.39 5.39 5.38 5.38 0 0 0 1.856-.331h136.172a5.299 5.299 0 0 0 1.855.332 5.401 5.401 0 0 0 5.391-5.391v-55.254c-.02-2.95-2.441-5.371-5.39-5.371z"/><path d="M159.648 56.934c-2.09-2.09-5.527-2.09-7.617 0L76.895 132.05c-2.09 2.09-2.09 5.527 0 7.617s5.527 2.09 7.617 0l75.117-75.117c2.11-2.11 2.11-5.528.02-7.617z"/></g></svg>