<?xml version="1.0" standalone="no"?><!DOCTYPE svg PUBLIC "-//W3C//DTD SVG 1.1//EN" "http://www.w3.org/Graphics/SVG/1.1/DTD/svg11.dtd"><svg t="1584946958165" class="icon" viewBox="0 0 1024 1024" version="1.1" xmlns="http://www.w3.org/2000/svg" p-id="680" xmlns:xlink="http://www.w3.org/1999/xlink" width="200" height="200"><defs><style type="text/css"></style></defs><path d="M841.142857 531.428571l0 181.714286q0 68-48.285714 116.285714t-116.285714 48.285714l-475.428571 0q-68 0-116.285714-48.285714t-48.285714-116.285714l0-475.428571q0-68 48.285714-116.285714t116.285714-48.285714l475.428571 0q36 0 66.857143 14.285714 8.571429 4 10.285714 13.142857 1.714286 9.714286-5.142857 16.571429l-28 28q-5.714286 5.714286-13.142857 5.714286-1.714286 0-5.142857-1.142857-13.142857-3.428571-25.714286-3.428571l-475.428571 0q-37.714286 0-64.571429 26.857143t-26.857143 64.571429l0 475.428571q0 37.714286 26.857143 64.571429t64.571429 26.857143l475.428571 0q37.714286 0 64.571429-26.857143t26.857143-64.571429l0-145.142857q0-7.428571 5.142857-12.571429l36.571429-36.571429q5.714286-5.714286 13.142857-5.714286 3.428571 0 6.857143 1.714286 11.428571 4.571429 11.428571 16.571429zm132-279.428571l-465.142857 465.142857q-13.714286 13.714286-32.571429 13.714286t-32.571429-13.714286l-245.714286-245.714286q-13.714286-13.714286-13.714286-32.571429t13.714286-32.571429l62.857143-62.857143q13.714286-13.714286 32.571429-13.714286t32.571429 13.714286l150.285714 150.285714 369.714286-369.714286q13.714286-13.714286 32.571429-13.714286t32.571429 13.714286l62.857143 62.857143q13.714286 13.714286 13.714286 32.571429t-13.714286 32.571429z" p-id="681"></path></svg>