<svg width="40" height="41" xmlns="http://www.w3.org/2000/svg"><path d="M39.98 39.102l-2.736-15.773h.924a1.34 1.34 0 0 0 1.342-1.342v-9.91a1.34 1.34 0 0 0-1.342-1.342H25.47V1.342A1.34 1.34 0 0 0 24.129 0h-8.258a1.34 1.34 0 0 0-1.342 1.342v9.393H1.832A1.34 1.34 0 0 0 .49 12.077v9.91a1.34 1.34 0 0 0 1.342 1.342h.924L.021 39.102a1.34 1.34 0 0 0 1.321 1.569h37.316a1.336 1.336 0 0 0 1.321-1.569zM4.102 14.348h14.039V3.613h3.716v10.735h14.039v5.368H4.103v-5.368zm24.155 22.71v-8.052a.414.414 0 0 0-.413-.412h-2.477a.414.414 0 0 0-.413.412v8.052h-9.91v-8.052a.414.414 0 0 0-.413-.412h-2.477a.414.414 0 0 0-.413.412v8.052h-7.7l2.327-13.42h27.257l2.328 13.42h-7.696z"/></svg>