<svg xmlns="http://www.w3.org/2000/svg" fill="none" viewBox="0 0 24 24"><path stroke-linejoin="round" stroke-linecap="round" stroke-width="2" stroke="#646A73" d="M10 2h4v4h7.5v4h-19V6H10V2Z" clip-rule="evenodd"/><path stroke-linejoin="round" stroke-linecap="round" stroke-width="2" stroke-opacity=".2" stroke="#000" d="M10 2h4v4h7.5v4h-19V6H10V2Z" clip-rule="evenodd"/><path stroke-linejoin="round" stroke-linecap="round" stroke-width="2" stroke="#646A73" d="M20 10H4v10h7"/><path stroke-linejoin="round" stroke-linecap="round" stroke-width="2" stroke-opacity=".2" stroke="#000" d="M20 10H4v10h7"/><path stroke-linejoin="round" stroke-linecap="round" stroke-width="2" stroke="#646A73" d="M7 19.949v-2.992"/><path stroke-linejoin="round" stroke-linecap="round" stroke-width="2" stroke-opacity=".2" stroke="#000" d="M7 19.949v-2.992"/><path stroke-linejoin="round" stroke-linecap="round" stroke-width="2" stroke="#646A73" d="M10 19.949v-3"/><path stroke-linejoin="round" stroke-linecap="round" stroke-width="2" stroke-opacity=".2" stroke="#000" d="M10 19.949v-3"/><path stroke-linejoin="round" stroke-linecap="round" stroke-width="2" stroke="#646A73" d="M6 20h4"/><path stroke-linejoin="round" stroke-linecap="round" stroke-width="2" stroke-opacity=".2" stroke="#000" d="M6 20h4"/><path stroke-width="2" stroke="#646A73" d="M17 21.5a4.5 4.5 0 1 0 0-9 4.5 4.5 0 0 0 0 9Z"/><path stroke-width="2" stroke-opacity=".2" stroke="#000" d="M17 21.5a4.5 4.5 0 1 0 0-9 4.5 4.5 0 0 0 0 9Z"/><path stroke-linejoin="round" stroke-linecap="round" stroke-width="2" stroke="#646A73" d="M16.5 15.5v2h2"/><path stroke-linejoin="round" stroke-linecap="round" stroke-width="2" stroke-opacity=".2" stroke="#000" d="M16.5 15.5v2h2"/></svg>