<svg width="40" height="47" xmlns="http://www.w3.org/2000/svg"><path d="M32.067 16.58h-5.464V6.603A6.59 6.59 0 0 0 20 0a6.59 6.59 0 0 0-6.603 6.603v9.977H7.933C3.563 16.58 0 20.143 0 24.513v2.755c0 2.47 2.043 4.513 4.513 4.513h.19l-2.375 5.654c-.855 1.995-.618 4.275.57 6.128a6.484 6.484 0 0 0 5.416 2.898H31.59c2.233 0 4.276-1.093 5.464-2.993 1.187-1.853 1.377-4.18.427-6.176l-2.565-5.51h.57c2.47 0 4.513-2.043 4.513-4.514v-2.755a7.917 7.917 0 0 0-7.933-7.933zm-14.87-9.977A2.808 2.808 0 0 1 20 3.8a2.808 2.808 0 0 1 2.803 2.803v9.977h-5.606V6.603zm16.58 34.822c-.523.76-1.33 1.235-2.28 1.235H8.218c-.903 0-1.71-.427-2.233-1.187-.523-.76-.57-1.663-.238-2.518l2.946-6.984h.57v5.796c0 1.045.855 1.9 1.9 1.9s1.9-.855 1.9-1.9v-5.796h1.9v5.796c0 1.045.855 1.9 1.9 1.9 1.046 0 1.9-.855 1.9-1.9v-5.843h1.901v5.843c0 1.045.855 1.9 1.9 1.9s1.9-.855 1.9-1.9V31.877h1.9v5.89c0 1.045.856 1.9 1.901 1.9s1.9-.855 1.9-1.9V31.83h.665l3.23 7.078a2.83 2.83 0 0 1-.284 2.518zM36.2 27.221a.73.73 0 0 1-.713.712H4.513a.73.73 0 0 1-.713-.712v-2.755a4.136 4.136 0 0 1 4.133-4.133h24.134a4.136 4.136 0 0 1 4.133 4.133v2.755z"/></svg>