<?xml version="1.0" standalone="no"?><!DOCTYPE svg PUBLIC "-//W3C//DTD SVG 1.1//EN" "http://www.w3.org/Graphics/SVG/1.1/DTD/svg11.dtd"><svg t="1712647324694" class="icon" viewBox="0 0 1024 1024" version="1.1" xmlns="http://www.w3.org/2000/svg" p-id="14461" xmlns:xlink="http://www.w3.org/1999/xlink" width="200" height="200"><path d="M958.92 739.73H65.08c-18.26 0-33.08-14.8-33.08-33.08V79.38C32 61.11 46.82 46.3 65.08 46.3h893.85c18.26 0 33.08 14.8 33.08 33.08v627.27c-0.01 18.28-14.83 33.08-33.09 33.08zM98.15 673.58h827.69V112.46H98.15v561.12z" fill="#231815" p-id="14462"></path><path d="M512 977.7c-18.26 0-33.08-14.8-33.08-33.08V713.63c0-18.27 14.82-33.08 33.08-33.08s33.08 14.8 33.08 33.08v230.99c0 18.27-14.82 33.08-33.08 33.08z" fill="#231815" p-id="14463"></path><path d="M762.01 977.7H261.96c-18.26 0-33.08-14.8-33.08-33.08 0-18.27 14.82-33.08 33.08-33.08h500.05c18.26 0 33.08 14.8 33.08 33.08 0 18.27-14.82 33.08-33.08 33.08zM547.25 506.22c-8.46 0-16.93-3.23-23.39-9.69-12.92-12.91-12.92-33.86 0-46.77l88.4-88.4c12.92-12.92 33.85-12.92 46.77 0 12.92 12.91 12.92 33.86 0 46.77l-88.4 88.4c-6.45 6.46-14.92 9.69-23.38 9.69zM331.78 506.22c-8.46 0-16.93-3.23-23.39-9.69-12.92-12.91-12.92-33.86 0-46.77l187.52-187.52c12.92-12.92 33.85-12.92 46.77 0 12.92 12.91 12.92 33.86 0 46.77L355.17 496.53c-6.46 6.46-14.93 9.69-23.39 9.69z" fill="#231815" p-id="14464"></path></svg>