<svg width="40" height="39" xmlns="http://www.w3.org/2000/svg"><path d="M38.621 28.893H1.378c-.76 0-1.378-.617-1.378-1.379V1.378C0 .618.617 0 1.378 0h37.244C39.382 0 40 .617 40 1.378v26.136c0 .762-.618 1.379-1.379 1.379zM2.756 26.136h34.487V2.756H2.756v23.38z"/><path d="M20 38.808c-.761 0-1.379-.617-1.379-1.378v-9.625a1.379 1.379 0 0 1 2.757 0v9.625c0 .76-.617 1.378-1.378 1.378z"/><path d="M30.417 38.808H9.582a1.378 1.378 0 1 1 0-2.757h20.835a1.378 1.378 0 1 1 0 2.757zm-8.948-19.645a1.378 1.378 0 0 1-.975-2.352l3.683-3.684a1.378 1.378 0 1 1 1.949 1.95l-3.683 3.682c-.27.27-.622.404-.974.404zm-8.978 0a1.378 1.378 0 0 1-.975-2.352l7.813-7.814a1.378 1.378 0 1 1 1.95 1.95l-7.814 7.812c-.269.27-.622.404-.974.404z"/></svg>