<?xml version="1.0" standalone="no"?><!DOCTYPE svg PUBLIC "-//W3C//DTD SVG 1.1//EN" "http://www.w3.org/Graphics/SVG/1.1/DTD/svg11.dtd"><svg t="1717410087646" class="icon" viewBox="0 0 1024 1024" version="1.1" xmlns="http://www.w3.org/2000/svg" p-id="11156" xmlns:xlink="http://www.w3.org/1999/xlink" width="200" height="200"><path d="M533.333333 448c17.664 0 32 13.653333 32 30.378667v336.682666l116.053334-116.053333 3.584-3.072a32 32 0 0 1 42.965333 46.976l-1.28 1.408-140.544 140.458667-5.205333 4.778666a74.666667 74.666667 0 0 1-98.56-2.986666l-1.792-1.792-140.501334-140.458667-3.114666-3.626667a32 32 0 0 1 46.976-42.922666l1.365333 1.28 116.053333 116.053333v-336.725333c0-16.768 14.336-30.378667 32-30.378667zM522.666667 85.333333a288 288 0 0 1 255.872 155.733334l2.346666 4.565333 3.968 0.256a256 256 0 0 1 239.104 251.221333l0.042667 4.224a256.085333 256.085333 0 0 1-207.232 251.349334 32 32 0 1 1-12.16-62.848 192.085333 192.085333 0 0 0-43.349333-380.373334 32 32 0 0 1-30.805334-20.010666A224.042667 224.042667 0 0 0 298.837333 364.245333a32 32 0 0 1-31.957333 30.72h-1.877333A149.333333 149.333333 0 1 0 256 693.333333a32 32 0 1 1-0.042667 63.957334 213.333333 213.333333 0 0 1-21.802666-425.557334l3.498666-0.341333 0.256-1.578667A288.085333 288.085333 0 0 1 517.973333 85.333333L522.666667 85.333333z" fill="#000000" p-id="11157"></path></svg>