<svg width="40" height="34" xmlns="http://www.w3.org/2000/svg"><path d="M20.002 14.78c.72 0 1.305.557 1.305 1.239V29.74l4.73-4.73.146-.125a1.304 1.304 0 0 1 1.75 1.914l-.051.058-5.728 5.724-.213.195a3.043 3.043 0 0 1-4.017-.122l-.073-.073-5.726-5.724-.127-.148a1.304 1.304 0 0 1 1.915-1.75l.055.053 4.73 4.73V16.018c0-.684.585-1.238 1.304-1.238zM19.568 0c4.39 0 8.412 2.448 10.428 6.347l.096.186.161.01a10.433 10.433 0 0 1 9.745 10.24l.002.171c0 4.996-3.542 9.291-8.446 10.244a1.304 1.304 0 0 1-.495-2.561 7.829 7.829 0 0 0-1.767-15.502 1.304 1.304 0 0 1-1.256-.816 9.131 9.131 0 0 0-17.59 3.048 1.304 1.304 0 0 1-1.303 1.252h-.077A6.086 6.086 0 1 0 8.7 24.78a1.304 1.304 0 1 1-.002 2.607 8.695 8.695 0 0 1-.889-17.344l.143-.014.01-.064A11.741 11.741 0 0 1 19.376 0h.192z"/></svg>