<?xml version="1.0" standalone="no"?><!DOCTYPE svg PUBLIC "-//W3C//DTD SVG 1.1//EN" "http://www.w3.org/Graphics/SVG/1.1/DTD/svg11.dtd"><svg t="1584946926481" class="icon" viewBox="0 0 1024 1024" version="1.1" xmlns="http://www.w3.org/2000/svg" p-id="2735" xmlns:xlink="http://www.w3.org/1999/xlink" width="200" height="200"><defs><style type="text/css"></style></defs><path d="M914.561 720.735c0 65.695-53.582 119.277-119.277 119.277L198.897 840.012c-65.696 0-119.277-53.582-119.277-119.277L914.561 720.735zM765.464 541.819l-29.819 0 0 14.91c0 57.309-47.059 104.367-104.367 104.367L303.265 661.096c-57.309 0-104.367-47.059-104.367-104.367L198.898 213.807c0-16.308 13.512-29.819 29.819-29.819l536.747 0c98.776 0 178.916 80.14 178.916 178.916S864.24 541.819 765.464 541.819zM765.464 273.445l-29.819 0 0 178.916 29.819 0c49.389 0 89.458-40.069 89.458-89.458C854.922 313.516 814.853 273.445 765.464 273.445z" p-id="2736"></path></svg>