<?xml version="1.0" encoding="UTF-8"?>
<svg width="40px" height="31px" viewBox="0 0 40 31" version="1.1" xmlns="http://www.w3.org/2000/svg"
>
    <title>coffee</title>


    <path d="M38.620704,24.8275591 C38.620704,27.8663213 36.142236,30.3447893 33.1034738,30.3447893 L5.51723021,30.3447893 C2.47842176,30.3447893 0,27.8663213 0,24.8275591 L38.620704,24.8275591 Z M31.7241316,16.5516906 L30.3448356,16.5516906 L30.3448356,17.2413618 C30.3448356,19.8922244 28.1680929,22.0689209 25.5172765,22.0689209 L10.3448356,22.0689209 C7.69397289,22.0689209 5.51727647,19.8921782 5.51727647,17.2413618 L5.51727647,1.37929599 C5.51727647,0.624959526 6.14228225,0 6.89657246,0 L31.7241316,0 C36.2930755,0 40,3.70692446 40,8.27586845 C40,12.8448124 36.2930755,16.5516906 31.7241316,16.5516906 Z M31.7241316,4.13788797 L30.3448356,4.13788797 L30.3448356,12.4137564 L31.7241316,12.4137564 C34.0086498,12.4137564 35.8620658,10.5603404 35.8620658,8.27582219 C35.8620658,5.99139646 34.0086498,4.13788797 31.7241316,4.13788797 Z"
          id="形状"></path>


</svg>
