<svg width="40" height="40" xmlns="http://www.w3.org/2000/svg"><path d="M17.058 19.558a.625.625 0 0 1 0 .884l-5.99 5.99A.625.625 0 0 1 10 25.99V14.01a.625.625 0 0 1 1.068-.442l5.99 5.99z"/><path d="M4.375 0h31.25A4.377 4.377 0 0 1 40 4.375v31.25A4.375 4.375 0 0 1 35.625 40H4.375A4.375 4.375 0 0 1 0 35.625V4.375A4.377 4.377 0 0 1 4.375 0zM3.75 4.375v31.25c0 .345.28.625.625.625H23.75V3.75H4.375a.625.625 0 0 0-.625.625zM27.5 36.25h8.125c.345 0 .625-.28.625-.625V4.375a.625.625 0 0 0-.625-.625H27.5v32.5z"/></svg>