<svg t="1716540168627" class="icon" viewBox="0 0 1024 1024" version="1.1" xmlns="http://www.w3.org/2000/svg" p-id="95308" width="200" height="200"><path d="M992 96v832H32v-832h960z m-64 64h-832v704h832v-704zM303.36 386.176a35.2 35.2 0 0 1 34.688 5.952l105.6 89.344a83.712 83.712 0 0 1 0 128.448l-105.6 89.344a35.2 35.2 0 0 1-22.528 8.448 35.2 35.2 0 0 1-22.528-62.272l105.6-89.408a12.992 12.992 0 0 0 0-20.416l-105.6-89.344a35.2 35.2 0 0 1 10.304-60.16z m453.76 244.096a35.2 35.2 0 0 1 0 70.4H581.12a35.2 35.2 0 0 1 0-70.4z" fill="#2c2c2c" p-id="95309"></path></svg>
