<svg width="40" height="40" xmlns="http://www.w3.org/2000/svg"><path d="M24.117 15.88a1.299 1.299 0 0 0-1.833 0L15.86 22.3a1.299 1.299 0 0 0 0 1.833 1.299 1.299 0 0 0 1.834 0l6.423-6.424c.506-.5.506-1.323 0-1.828zM9.103 36.044c-1.011 1.016-2.834-.271-3.85-1.282-1.016-1.01-2.298-2.834-1.282-3.85l11.837-12.254c-1.73-.458-4.07-.65-5.424.704l-8.976 8.987c-2.027 2.026-1.792 6.126.234 8.153l1.834 1.834c2.027 2.027 6.169 2.303 8.195.276l8.982-8.982c1.354-1.354 1.12-3.735.661-5.465L9.103 36.043zM38.335 3.476L36.5 1.642c-2.027-2.026-6.127-2.26-8.153-.234l-8.982 8.976c-1.355 1.355-1.162 3.694-.703 5.424L30.916 3.97c1.01-1.016 2.834.271 3.85 1.282 1.01 1.016 2.298 2.834 1.282 3.85L24.164 21.314c1.73.459 4.11.693 5.465-.661l8.982-8.982c2.027-2.032 1.75-6.168-.276-8.195z"/></svg>