<?xml version="1.0" encoding="UTF-8"?>
<svg width="40px" height="40px" viewBox="0 0 40 40" version="1.1" xmlns="http://www.w3.org/2000/svg" xmlns:xlink="http://www.w3.org/1999/xlink">
    <title>connect</title>
    <g id="jumpserver" stroke="none" stroke-width="1" fill="none" fill-rule="evenodd">
        <g id="connect" fill="#2C2C2C" fill-rule="nonzero">
            <path d="M24.1173754,15.8806663 C23.6120238,15.3753147 22.7888739,15.3753147 22.2835224,15.8806663 L15.859827,22.2991518 C15.3544755,22.8045033 15.3544755,23.6276532 15.859827,24.1330048 C16.3651786,24.6383563 17.1883285,24.6383563 17.69368,24.1330048 L24.1173754,17.7093095 C24.6227269,17.2091677 24.6227269,16.3860178 24.1173754,15.8806663 Z M9.10270392,36.0426297 C8.09200085,37.0585425 6.26856747,35.7717196 5.25265458,34.7610165 C4.2367417,33.7503134 2.95512852,31.92688 3.97104141,30.9109672 L15.807729,18.6574948 C14.0780721,18.1990316 11.7388676,18.0062686 10.3843171,19.3608191 L1.40781505,28.3477408 C-0.618800903,30.3743568 -0.384359468,34.474477 1.64225649,36.5010929 L3.47610949,38.3349459 C5.50272545,40.3615619 9.64452412,40.6376818 11.6711401,38.6110658 L20.6528519,29.629354 C22.0074024,28.2748035 21.772961,25.8939204 21.3144978,24.1642636 L9.10270392,36.0426297 Z M38.3349459,3.47610949 L36.5010929,1.64225649 C34.474477,-0.384359468 30.3743568,-0.618800903 28.3477408,1.40781505 L19.3660289,10.3843171 C18.0114784,11.7388676 18.2042414,14.0780721 18.6627046,15.807729 L30.916177,3.97104141 C31.92688,2.95512852 33.7503134,4.24195151 34.7662263,5.25265458 C35.7769294,6.26856747 37.0637524,8.08679104 36.0478395,9.10270392 L24.1642636,21.3144978 C25.8939204,21.772961 28.2748035,22.0074024 29.629354,20.6528519 L38.6110658,11.6711401 C40.6376818,9.63931432 40.3615619,5.50272545 38.3349459,3.47610949 Z" id="形状"></path>
        </g>
    </g>
</svg>