<svg xmlns="http://www.w3.org/2000/svg" viewBox="0 0 24 24"><path fill="#646A73" d="M5.5 7a1 1 0 0 1 1 1v13a1 1 0 1 1-2 0V8a1 1 0 0 1 1-1Z" clip-rule="evenodd" fill-rule="evenodd"/><path fill-opacity=".2" fill="#000" d="M5.5 7a1 1 0 0 1 1 1v13a1 1 0 1 1-2 0V8a1 1 0 0 1 1-1Z" clip-rule="evenodd" fill-rule="evenodd"/><path fill="#646A73" d="M12 13.5a1 1 0 0 1 1 1V21a1 1 0 1 1-2 0v-6.5a1 1 0 0 1 1-1Z" clip-rule="evenodd" fill-rule="evenodd"/><path fill-opacity=".2" fill="#000" d="M12 13.5a1 1 0 0 1 1 1V21a1 1 0 1 1-2 0v-6.5a1 1 0 0 1 1-1Z" clip-rule="evenodd" fill-rule="evenodd"/><path fill="#646A73" d="M12 2a1 1 0 0 1 1 1v6.5a1 1 0 1 1-2 0V3a1 1 0 0 1 1-1Z" clip-rule="evenodd" fill-rule="evenodd"/><path fill-opacity=".2" fill="#000" d="M12 2a1 1 0 0 1 1 1v6.5a1 1 0 1 1-2 0V3a1 1 0 0 1 1-1Z" clip-rule="evenodd" fill-rule="evenodd"/><path fill="#646A73" d="M18.5 2a1 1 0 0 1 1 1v13a1 1 0 1 1-2 0V3a1 1 0 0 1 1-1Z" clip-rule="evenodd" fill-rule="evenodd"/><path fill-opacity=".2" fill="#000" d="M18.5 2a1 1 0 0 1 1 1v13a1 1 0 1 1-2 0V3a1 1 0 0 1 1-1Z" clip-rule="evenodd" fill-rule="evenodd"/><path fill="#646A73" d="M2 5.5a3.5 3.5 0 1 1 7 0 3.5 3.5 0 0 1-7 0ZM5.5 4a1.5 1.5 0 1 0 0 3 1.5 1.5 0 0 0 0-3Z" clip-rule="evenodd" fill-rule="evenodd"/><path fill-opacity=".2" fill="#000" d="M2 5.5a3.5 3.5 0 1 1 7 0 3.5 3.5 0 0 1-7 0ZM5.5 4a1.5 1.5 0 1 0 0 3 1.5 1.5 0 0 0 0-3Z" clip-rule="evenodd" fill-rule="evenodd"/><path fill="#646A73" d="M8.5 12a3.5 3.5 0 1 1 7 0 3.5 3.5 0 0 1-7 0Zm3.5-1.5a1.5 1.5 0 1 0 0 3 1.5 1.5 0 0 0 0-3Z" clip-rule="evenodd" fill-rule="evenodd"/><path fill-opacity=".2" fill="#000" d="M8.5 12a3.5 3.5 0 1 1 7 0 3.5 3.5 0 0 1-7 0Zm3.5-1.5a1.5 1.5 0 1 0 0 3 1.5 1.5 0 0 0 0-3Z" clip-rule="evenodd" fill-rule="evenodd"/><path fill="#646A73" d="M15 18.5a3.5 3.5 0 1 1 7 0 3.5 3.5 0 0 1-7 0Zm3.5-1.5a1.5 1.5 0 1 0 0 3 1.5 1.5 0 0 0 0-3Z" clip-rule="evenodd" fill-rule="evenodd"/><path fill-opacity=".2" fill="#000" d="M15 18.5a3.5 3.5 0 1 1 7 0 3.5 3.5 0 0 1-7 0Zm3.5-1.5a1.5 1.5 0 1 0 0 3 1.5 1.5 0 0 0 0-3Z" clip-rule="evenodd" fill-rule="evenodd"/></svg>