<svg width="40" height="35" xmlns="http://www.w3.org/2000/svg"><path d="M36.875 0H3.125A3.125 3.125 0 0 0 0 3.125v22.321a3.125 3.125 0 0 0 3.125 3.125h33.75A3.125 3.125 0 0 0 40 25.446V3.125C40 1.399 38.6 0 36.875 0zm.213 23.572a1.857 1.857 0 0 1-1.858 1.858h-5.943V14.657a1.857 1.857 0 1 0-3.715 0V25.43h-3.715V10.942a1.857 1.857 0 1 0-3.715 0V25.43h-3.715v-7.801a1.857 1.857 0 1 0-3.714 0v7.8H4.77a1.857 1.857 0 0 1-1.857-1.857V5c0-1.026.831-1.858 1.857-1.858h30.46c1.026 0 1.858.832 1.858 1.858v18.573zm-8.874 7.857H11.786a1.786 1.786 0 1 0 0 3.57h16.428a1.786 1.786 0 1 0 0-3.57z"/></svg>