<svg xmlns="http://www.w3.org/2000/svg" viewBox="0 0 24 24"><path fill="#646A73" d="M8.5 3.5a2 2 0 0 1 2-2h10a2 2 0 0 1 2 2v11a2 2 0 0 1-2 2h-2v-2h2v-11h-10V5h-2V3.5Z" clip-rule="evenodd" fill-rule="evenodd"/><path fill-opacity=".2" fill="#000" d="M8.5 3.5a2 2 0 0 1 2-2h10a2 2 0 0 1 2 2v11a2 2 0 0 1-2 2h-2v-2h2v-11h-10V5h-2V3.5Z" clip-rule="evenodd" fill-rule="evenodd"/><path fill="#646A73" d="M1.5 10a2 2 0 0 1 2-2h10a2 2 0 0 1 2 2v10a2 2 0 0 1-2 2h-10a2 2 0 0 1-2-2V10Zm12 0h-10v10h10V10Z" clip-rule="evenodd" fill-rule="evenodd"/><path fill-opacity=".2" fill="#000" d="M1.5 10a2 2 0 0 1 2-2h10a2 2 0 0 1 2 2v10a2 2 0 0 1-2 2h-10a2 2 0 0 1-2-2V10Zm12 0h-10v10h10V10Z" clip-rule="evenodd" fill-rule="evenodd"/><path fill="#646A73" d="M8 17.5a.5.5 0 0 1-.5-.5v-4a.5.5 0 0 1 .5-.5h1a.5.5 0 0 1 .5.5v4a.5.5 0 0 1-.5.5H8Z" clip-rule="evenodd" fill-rule="evenodd"/><path fill-opacity=".2" fill="#000" d="M8 17.5a.5.5 0 0 1-.5-.5v-4a.5.5 0 0 1 .5-.5h1a.5.5 0 0 1 .5.5v4a.5.5 0 0 1-.5.5H8Z" clip-rule="evenodd" fill-rule="evenodd"/><path fill="#646A73" d="M11 15.5a.5.5 0 0 1-.5.5h-4a.5.5 0 0 1-.5-.5v-1a.5.5 0 0 1 .5-.5h4a.5.5 0 0 1 .5.5v1Z" clip-rule="evenodd" fill-rule="evenodd"/><path fill-opacity=".2" fill="#000" d="M11 15.5a.5.5 0 0 1-.5.5h-4a.5.5 0 0 1-.5-.5v-1a.5.5 0 0 1 .5-.5h4a.5.5 0 0 1 .5.5v1Z" clip-rule="evenodd" fill-rule="evenodd"/></svg>