<?xml version="1.0" encoding="UTF-8"?>
<svg width="40px" height="40px" viewBox="0 0 40 40" version="1.1" xmlns="http://www.w3.org/2000/svg" xmlns:xlink="http://www.w3.org/1999/xlink">
    <title>create</title>
    <g id="jumpserver" stroke="none" stroke-width="1" fill="none" fill-rule="evenodd">
        <g id="create">
            <path d="M13.3333333,3.80952381 C13.3333333,1.70558191 15.0389152,0 17.1428571,0 L36.1904762,0 C38.2944181,0 40,1.70558191 40,3.80952381 L40,24.7619048 C40,26.8658467 38.2944181,28.5714286 36.1904762,28.5714286 L32.3809524,28.5714286 L32.3809524,24.7619048 L36.1904762,24.7619048 L36.1904762,3.80952381 L17.1428571,3.80952381 L17.1428571,6.66666667 L13.3333333,6.66666667 L13.3333333,3.80952381 Z" id="路径" fill="#646A73"></path>
            <path d="M13.3333333,3.80952381 C13.3333333,1.70558191 15.0389152,0 17.1428571,0 L36.1904762,0 C38.2944181,0 40,1.70558191 40,3.80952381 L40,24.7619048 C40,26.8658467 38.2944181,28.5714286 36.1904762,28.5714286 L32.3809524,28.5714286 L32.3809524,24.7619048 L36.1904762,24.7619048 L36.1904762,3.80952381 L17.1428571,3.80952381 L17.1428571,6.66666667 L13.3333333,6.66666667 L13.3333333,3.80952381 Z" id="路径" fill-opacity="0.2" fill="#000000"></path>
            <path d="M0,16.1904762 C0,14.0865343 1.70558191,12.3809524 3.80952381,12.3809524 L22.8571429,12.3809524 C24.9610848,12.3809524 26.6666667,14.0865343 26.6666667,16.1904762 L26.6666667,35.2380952 C26.6666667,37.3420371 24.9610848,39.047619 22.8571429,39.047619 L3.80952381,39.047619 C1.70558191,39.047619 0,37.3420371 0,35.2380952 L0,16.1904762 Z M22.8571429,16.1904762 L3.80952381,16.1904762 L3.80952381,35.2380952 L22.8571429,35.2380952 L22.8571429,16.1904762 Z" id="形状" fill="#646A73"></path>
            <path d="M0,16.1904762 C0,14.0865343 1.70558191,12.3809524 3.80952381,12.3809524 L22.8571429,12.3809524 C24.9610848,12.3809524 26.6666667,14.0865343 26.6666667,16.1904762 L26.6666667,35.2380952 C26.6666667,37.3420371 24.9610848,39.047619 22.8571429,39.047619 L3.80952381,39.047619 C1.70558191,39.047619 0,37.3420371 0,35.2380952 L0,16.1904762 Z M22.8571429,16.1904762 L3.80952381,16.1904762 L3.80952381,35.2380952 L22.8571429,35.2380952 L22.8571429,16.1904762 Z" id="形状" fill-opacity="0.2" fill="#000000"></path>
            <path d="M12.3809524,30.4761905 C11.8549669,30.4761905 11.4285714,30.049795 11.4285714,29.5238095 L11.4285714,21.9047619 C11.4285714,21.3787764 11.8549669,20.952381 12.3809524,20.952381 L14.2857143,20.952381 C14.8116998,20.952381 15.2380952,21.3787764 15.2380952,21.9047619 L15.2380952,29.5238095 C15.2380952,30.049795 14.8116998,30.4761905 14.2857143,30.4761905 L12.3809524,30.4761905 Z" id="路径" fill="#646A73"></path>
            <path d="M12.3809524,30.4761905 C11.8549669,30.4761905 11.4285714,30.049795 11.4285714,29.5238095 L11.4285714,21.9047619 C11.4285714,21.3787764 11.8549669,20.952381 12.3809524,20.952381 L14.2857143,20.952381 C14.8116998,20.952381 15.2380952,21.3787764 15.2380952,21.9047619 L15.2380952,29.5238095 C15.2380952,30.049795 14.8116998,30.4761905 14.2857143,30.4761905 L12.3809524,30.4761905 Z" id="路径" fill-opacity="0.2" fill="#000000"></path>
            <path d="M18.0952381,26.6666667 C18.0952381,27.1926521 17.6688426,27.6190476 17.1428571,27.6190476 L9.52380952,27.6190476 C8.99782405,27.6190476 8.57142857,27.1926521 8.57142857,26.6666667 L8.57142857,24.7619048 C8.57142857,24.2359193 8.99782405,23.8095238 9.52380952,23.8095238 L17.1428571,23.8095238 C17.6688426,23.8095238 18.0952381,24.2359193 18.0952381,24.7619048 L18.0952381,26.6666667 Z" id="路径" fill="#646A73"></path>
            <path d="M18.0952381,26.6666667 C18.0952381,27.1926521 17.6688426,27.6190476 17.1428571,27.6190476 L9.52380952,27.6190476 C8.99782405,27.6190476 8.57142857,27.1926521 8.57142857,26.6666667 L8.57142857,24.7619048 C8.57142857,24.2359193 8.99782405,23.8095238 9.52380952,23.8095238 L17.1428571,23.8095238 C17.6688426,23.8095238 18.0952381,24.2359193 18.0952381,24.7619048 L18.0952381,26.6666667 Z" id="路径" fill-opacity="0.2" fill="#000000"></path>
        </g>
    </g>
</svg>