<svg width="40" height="40" xmlns="http://www.w3.org/2000/svg"><path d="M13.333 3.81A3.81 3.81 0 0 1 17.143 0H36.19A3.81 3.81 0 0 1 40 3.81v20.952a3.81 3.81 0 0 1-3.81 3.81h-3.809v-3.81h3.81V3.81H17.142v2.857h-3.81V3.81z" fill="currentColor"/><path d="M13.333 3.81A3.81 3.81 0 0 1 17.143 0H36.19A3.81 3.81 0 0 1 40 3.81v20.952a3.81 3.81 0 0 1-3.81 3.81h-3.809v-3.81h3.81V3.81H17.142v2.857h-3.81V3.81z" fill-opacity=".2" fill="currentColor"/><path d="M0 16.19a3.81 3.81 0 0 1 3.81-3.809h19.047a3.81 3.81 0 0 1 3.81 3.81v19.047a3.81 3.81 0 0 1-3.81 3.81H3.81A3.81 3.81 0 0 1 0 35.238V16.19zm22.857 0H3.81v19.048h19.047V16.19z" fill="currentColor"/><path d="M0 16.19a3.81 3.81 0 0 1 3.81-3.809h19.047a3.81 3.81 0 0 1 3.81 3.81v19.047a3.81 3.81 0 0 1-3.81 3.81H3.81A3.81 3.81 0 0 1 0 35.238V16.19zm22.857 0H3.81v19.048h19.047V16.19z" fill-opacity=".2" fill="currentColor"/><path d="M12.381 30.476a.952.952 0 0 1-.952-.952v-7.62c0-.525.426-.952.952-.952h1.905c.526 0 .952.427.952.953v7.619a.952.952 0 0 1-.952.952H12.38z" fill="currentColor"/><path d="M12.381 30.476a.952.952 0 0 1-.952-.952v-7.62c0-.525.426-.952.952-.952h1.905c.526 0 .952.427.952.953v7.619a.952.952 0 0 1-.952.952H12.38z" fill-opacity=".2" fill="currentColor"/><path d="M18.095 26.667a.952.952 0 0 1-.952.952h-7.62a.952.952 0 0 1-.952-.952v-1.905c0-.526.427-.952.953-.952h7.619c.526 0 .952.426.952.952v1.905z" fill="currentColor"/><path d="M18.095 26.667a.952.952 0 0 1-.952.952h-7.62a.952.952 0 0 1-.952-.952v-1.905c0-.526.427-.952.953-.952h7.619c.526 0 .952.426.952.952v1.905z" fill-opacity=".2" fill="currentColor"/></svg>