<svg width="40" height="36" xmlns="http://www.w3.org/2000/svg"><path d="M38.429 12.214a19.942 19.942 0 0 0-4.286-6.357A19.942 19.942 0 0 0 20 0 19.942 19.942 0 0 0 5.857 5.857 19.942 19.942 0 0 0 0 20a19.964 19.964 0 0 0 7.138 15.317l.076.062c.26.215.585.335.92.335H31.87c.334 0 .66-.12.92-.335l.075-.062A19.974 19.974 0 0 0 40 20c0-2.7-.531-5.317-1.571-7.786zm-7.295 20.107H8.866A16.568 16.568 0 0 1 3.393 20c0-4.438 1.728-8.607 4.866-11.741A16.497 16.497 0 0 1 20 3.393c4.438 0 8.607 1.728 11.741 4.866A16.497 16.497 0 0 1 36.607 20c0 4.714-1.986 9.174-5.473 12.321z"/><path d="M24.978 13.817a.358.358 0 0 0-.505 0l-3.772 3.772a2.494 2.494 0 0 0-2.415.648 2.498 2.498 0 0 0 0 3.535 2.498 2.498 0 0 0 3.535 0c.657-.656.871-1.58.648-2.415l3.772-3.772a.358.358 0 0 0 0-.505l-1.263-1.263zm-5.96-4.531h1.964c.197 0 .357-.161.357-.357V5.357A.358.358 0 0 0 20.982 5h-1.964a.358.358 0 0 0-.357.357V8.93c0 .196.16.357.357.357zm11.607 9.732v1.964c0 .197.16.357.357.357h3.572c.196 0 .357-.16.357-.357v-1.964a.358.358 0 0 0-.357-.357h-3.572a.358.358 0 0 0-.357.357zm.567-8.804l-1.388-1.388a.358.358 0 0 0-.505 0l-2.527 2.527a.358.358 0 0 0 0 .504l1.389 1.389a.358.358 0 0 0 .504 0l2.527-2.527a.358.358 0 0 0 0-.505zM10.719 8.826a.358.358 0 0 0-.505 0l-1.388 1.388a.358.358 0 0 0 0 .505l2.527 2.527a.358.358 0 0 0 .504 0l1.389-1.389a.358.358 0 0 0 0-.504l-2.527-2.527zm-1.88 9.835H5.268a.358.358 0 0 0-.357.357v1.964c0 .197.16.357.357.357h3.571c.197 0 .357-.16.357-.357v-1.964a.358.358 0 0 0-.357-.357z"/></svg>