<svg t="1711619639548" class="icon" viewBox="0 0 1024 1024" version="1.1" xmlns="http://www.w3.org/2000/svg" p-id="13591" width="200" height="200"><path d="M800 896c17.673 0 32 14.327 32 32 0 17.673-14.327 32-32 32H224c-17.673 0-32-14.327-32-32 0-17.673 14.327-32 32-32h576z m64-832c53.02 0 96 42.98 96 96v576c0 53.02-42.98 96-96 96H160c-53.02 0-96-42.98-96-96V160c0-53.02 42.98-96 96-96h704z m0.53 64H160c-17.496 0-31.713 14.042-32 31.47V736c0 17.496 14.042 31.713 31.47 32H864c17.496 0 31.713-14.042 32-31.47V160c0-17.496-14.042-31.713-31.47-32z m-54.965 252.753l0.315 0.426c10.29 14.15 7.296 33.906-6.633 44.386l-0.426 0.315L644.158 541.27c-20.98 15.258-49.093 16.343-71.185 2.748l-161.395-99.32a16 16 0 0 0-18.209 0.997L275.646 537.26c-13.81 10.742-33.654 8.386-44.577-5.198l-0.328-0.415c-10.742-13.81-8.386-33.654 5.198-44.577l0.415-0.328 126.483-98.376c21.07-16.388 50.1-17.978 72.834-3.988l161.716 99.517a16 16 0 0 0 17.796-0.687L765.18 374.12c14.15-10.29 33.906-7.296 44.386 6.633z" fill="#000000" p-id="13592"></path></svg>
