<?xml version="1.0" encoding="UTF-8"?>
<svg width="40px" height="27px" viewBox="0 0 40 27" version="1.1" xmlns="http://www.w3.org/2000/svg"
>
    <title>device</title>


    <path d="M6.66666668,3.33333332 L36.6666667,3.33333332 L36.6666667,0 L6.66666668,0 C4.825,0 3.33333336,1.49166668 3.33333332,3.33333332 L3.33333332,21.6666666 L0,21.6666666 L0,26.6666666 L23.3333333,26.6666666 L23.3333333,21.6666666 L6.66666668,21.6666666 L6.66666668,3.33333332 Z M38.3333333,6.66666664 L28.3333333,6.66666664 C27.4166666,6.66666664 26.6666667,7.41666664 26.6666667,8.33333332 L26.6666667,25 C26.6666667,25.9166667 27.4166667,26.6666666 28.3333333,26.6666666 L38.3333333,26.6666666 C39.25,26.6666666 40,25.9166666 40,25 L40,8.33333332 C40,7.41666664 39.25,6.66666664 38.3333333,6.66666664 L38.3333333,6.66666664 Z M36.6666667,21.6666666 L30,21.6666666 L30,10 L36.6666667,10 L36.6666667,21.6666666 Z"
          id="形状"></path>


</svg>
