<svg width="40" height="30" xmlns="http://www.w3.org/2000/svg"><path d="M32.992 16.365H11.82a.91.91 0 0 1-.909-.909v-1.818a.91.91 0 0 1 .91-.91h21.248l-9.135-9.137a.91.91 0 0 1 0-1.285l1.284-1.286a.91.91 0 0 1 1.287 0L37.42 11.937l.012-.014 2.564 2.564a.01.01 0 0 1 0 .014.01.01 0 0 0 0 .013.009.009 0 0 1 0 .013l-2.564 2.565-.014-.012-10.914 10.915a.91.91 0 0 1-1.287 0l-1.286-1.283a.91.91 0 0 1 0-1.288l9.061-9.059zM2.728 0a.91.91 0 0 1 .909.91v27.274a.91.91 0 0 1-.91.91H.91a.91.91 0 0 1-.909-.91V.91A.91.91 0 0 1 .91 0h1.818z" fill="currentColor"/><path d="M32.992 16.365H11.82a.91.91 0 0 1-.909-.909v-1.818a.91.91 0 0 1 .91-.91h21.248l-9.135-9.137a.91.91 0 0 1 0-1.285l1.284-1.286a.91.91 0 0 1 1.287 0L37.42 11.937l.012-.014 2.564 2.564a.01.01 0 0 1 0 .014.01.01 0 0 0 0 .013.009.009 0 0 1 0 .013l-2.564 2.565-.014-.012-10.914 10.915a.91.91 0 0 1-1.287 0l-1.286-1.283a.91.91 0 0 1 0-1.288l9.061-9.059zM2.728 0a.91.91 0 0 1 .909.91v27.274a.91.91 0 0 1-.91.91H.91a.91.91 0 0 1-.909-.91V.91A.91.91 0 0 1 .91 0h1.818z" fill-opacity=".2" fill="currentColor"/></svg>