<!-- <svg xmlns="http://www.w3.org/2000/svg" viewBox="0 0 24 24"><path fill="#646A73" d="M4.856 11H16.5a.5.5 0 0 1 .5.5v1a.5.5 0 0 1-.5.5H4.814l5.025 5.024a.5.5 0 0 1 0 .707l-.707.708a.5.5 0 0 1-.707 0L2.42 13.435l-.006.008L1 12.028l.008-.007L1 12.014 2.414 10.6l.008.007 6.003-6.003a.5.5 0 0 1 .707 0l.707.706a.5.5 0 0 1 0 .708L4.856 11ZM21.5 20a.5.5 0 0 1-.5-.5v-15a.5.5 0 0 1 .5-.5h1a.5.5 0 0 1 .5.5v15a.5.5 0 0 1-.5.5h-1Z"/><path fill-opacity=".2" fill="#000" d="M4.856 11H16.5a.5.5 0 0 1 .5.5v1a.5.5 0 0 1-.5.5H4.814l5.025 5.024a.5.5 0 0 1 0 .707l-.707.708a.5.5 0 0 1-.707 0L2.42 13.435l-.006.008L1 12.028l.008-.007L1 12.014 2.414 10.6l.008.007 6.003-6.003a.5.5 0 0 1 .707 0l.707.706a.5.5 0 0 1 0 .708L4.856 11ZM21.5 20a.5.5 0 0 1-.5-.5v-15a.5.5 0 0 1 .5-.5h1a.5.5 0 0 1 .5.5v15a.5.5 0 0 1-.5.5h-1Z"/></svg> -->

<svg xmlns="http://www.w3.org/2000/svg" viewBox="0 0 24 24"><path fill="#646A73" d="M19.144 13H7.5a.5.5 0 0 1-.5-.5v-1a.5.5 0 0 1 .5-.5h11.686l-5.024-5.025a.5.5 0 0 1 0-.707l.706-.707a.5.5 0 0 1 .708 0l6.003 6.004.007-.008 1.41 1.41a.005.005 0 0 1 0 .008.005.005 0 0 0 0 .007.005.005 0 0 1 0 .007l-1.41 1.411-.008-.007-6.002 6.003a.5.5 0 0 1-.708 0l-.707-.706a.5.5 0 0 1 0-.708L19.144 13ZM2.5 4a.5.5 0 0 1 .5.5v15a.5.5 0 0 1-.5.5h-1a.5.5 0 0 1-.5-.5v-15a.5.5 0 0 1 .5-.5h1Z"/><path fill-opacity=".2" fill="#000" d="M19.144 13H7.5a.5.5 0 0 1-.5-.5v-1a.5.5 0 0 1 .5-.5h11.686l-5.024-5.025a.5.5 0 0 1 0-.707l.706-.707a.5.5 0 0 1 .708 0l6.003 6.004.007-.008 1.41 1.41a.005.005 0 0 1 0 .008.005.005 0 0 0 0 .007.005.005 0 0 1 0 .007l-1.41 1.411-.008-.007-6.002 6.003a.5.5 0 0 1-.708 0l-.707-.706a.5.5 0 0 1 0-.708L19.144 13ZM2.5 4a.5.5 0 0 1 .5.5v15a.5.5 0 0 1-.5.5h-1a.5.5 0 0 1-.5-.5v-15a.5.5 0 0 1 .5-.5h1Z"/></svg>