<svg t="1736148729915" class="icon" viewBox="0 0 1024 1024" version="1.1" xmlns="http://www.w3.org/2000/svg"
     p-id="42152" width="200" height="200">
    <path d="M512 0a512 512 0 1 0 0 1024A512 512 0 0 0 512 0zM113.777778 512a398.222222 398.222222 0 0 1 398.222222-398.222222c89.429333 0 171.690667 29.809778 238.193778 79.587555L193.422222 750.136889A395.377778 395.377778 0 0 1 113.777778 512z m398.222222 398.222222a395.719111 395.719111 0 0 1-238.136889-79.587555L830.577778 273.806222A396.060444 396.060444 0 0 1 910.222222 512a398.222222 398.222222 0 0 1-398.222222 398.222222z"
          fill="#515151" p-id="42153"></path>
</svg>
