<svg width="175" height="172" xmlns="http://www.w3.org/2000/svg"><g fill="currentColor" fill-rule="nonzero"><path d="M173.785 165.455l-50.423-50.446c14.086-16.735 20.16-39.807 14.29-62.555C128.017 15.122 89.81-7.4 52.476 2.222c-18.083 4.67-33.268 16.1-42.755 32.185C.234 50.496-2.42 69.313 2.247 87.397c4.667 18.083 16.096 33.27 32.185 42.757 10.903 6.43 23.06 9.721 35.398 9.721 5.861 0 11.765-.745 17.592-2.246a69.496 69.496 0 0 0 30.818-17.162l50.256 50.278a3.725 3.725 0 0 0 2.645 1.096 3.74 3.74 0 0 0 2.645-6.386zM85.551 130.38c-16.149 4.172-32.955 1.798-47.32-6.674-14.366-8.472-24.571-22.029-28.74-38.18C5.324 69.38 7.695 52.574 16.167 38.21 24.64 23.842 38.199 13.635 54.348 9.47a62.204 62.204 0 0 1 15.591-1.99c27.789 0 53.21 18.722 60.468 46.844 5.483 21.25-.707 42.816-14.549 57.89a3.814 3.814 0 0 0-.307.273 3.751 3.751 0 0 0-.407.489A62.047 62.047 0 0 1 85.55 130.38z"/><path d="M91.605 27.13c-5.456-3.215-11.844-4.114-17.978-2.535a3.743 3.743 0 0 0 1.87 7.248c8.675-2.24 17.543 2.995 19.783 11.664a3.74 3.74 0 0 0 4.557 2.686 3.738 3.738 0 0 0 2.687-4.556c-1.584-6.134-5.461-11.289-10.92-14.507z"/></g></svg>