<svg width="24" height="24" xmlns="http://www.w3.org/2000/svg"><path d="M20.889 13.667c.611 0 1.111.5 1.111 1.11v4.445A2.75 2.75 0 0 1 19.222 22H4.778A2.75 2.75 0 0 1 2 19.222v-4.444c0-.611.5-1.111 1.111-1.111s1.111.5 1.111 1.11v4.445c0 .334.222.556.556.556h14.444c.334 0 .556-.222.556-.556v-4.444c0-.611.5-1.111 1.11-1.111zM12.056 2c.61 0 1.11.5 1.11 1.111v9.056l1.39-1.39a1.074 1.074 0 0 1 1.555 0 1.074 1.074 0 0 1 0 1.556l-3.055 3.056a1.518 1.518 0 0 1-1.056.444c-.389 0-.778-.166-1.056-.444L8 12.333a1.074 1.074 0 0 1 0-1.555 1.074 1.074 0 0 1 1.556 0l1.388 1.389V3.11c0-.611.5-1.111 1.112-1.111z" fill="currentColor"/></svg>