<!-- <?xml version="1.0" encoding="UTF-8"?><svg width="24" height="24" viewBox="0 0 48 48" xmlns="http://www.w3.org/2000/svg"><path d="M6 24.0083V42H42V24" stroke="#333" stroke-width="4" stroke-linecap="round" stroke-linejoin="round"/><path d="M33 23L24 32L15 23" stroke="#333" stroke-width="4" stroke-linecap="round" stroke-linejoin="round"/><path d="M23.9917 6V32" stroke="#333" stroke-width="4" stroke-linecap="round" stroke-linejoin="round"/></svg> -->

<svg t="1676635881296" class="icon" viewBox="0 0 1024 1024" version="1.1" xmlns="http://www.w3.org/2000/svg" p-id="2627" width="200" height="200"><path d="M484.266667 631.466667c10.666667 10.666667 25.6 17.066667 40.533333 17.066666s29.866667-6.4 40.533333-17.066666l117.333334-117.333334c17.066667-17.066667 17.066667-42.666667 0-59.733333-17.066667-17.066667-42.666667-17.066667-59.733334 0l-53.333333 53.333333V160c0-23.466667-19.2-42.666667-42.666667-42.666667s-42.666667 19.2-42.666666 42.666667v347.733333l-53.333334-53.333333c-17.066667-17.066667-42.666667-17.066667-59.733333 0-17.066667 17.066667-17.066667 42.666667 0 59.733333l113.066667 117.333334z" p-id="2628" fill="#000000"></path><path d="M866.133333 565.333333c-23.466667 0-42.666667 19.2-42.666666 42.666667v170.666667c0 12.8-8.533333 21.333333-21.333334 21.333333h-554.666666c-12.8 0-21.333333-8.533333-21.333334-21.333333v-170.666667c0-23.466667-19.2-42.666667-42.666666-42.666667s-42.666667 19.2-42.666667 42.666667v170.666667c0 59.733333 46.933333 106.666667 106.666667 106.666666h554.666666c59.733333 0 106.666667-46.933333 106.666667-106.666666v-170.666667c0-23.466667-19.2-42.666667-42.666667-42.666667z" p-id="2629" fill="#000000"></path></svg>
