<?xml version="1.0" encoding="UTF-8"?>
<svg width="40px" height="40px" viewBox="0 0 40 40" version="1.1" xmlns="http://www.w3.org/2000/svg"
>
    <title>download</title>


    <path d="M17.8888889,26.7777778 C18.4444445,27.3333334 19.2222222,27.6666667 20,27.6666667 C20.7777778,27.6666667 21.5555556,27.3333333 22.1111111,26.7777778 L28.2222222,20.6666667 C29.1111111,19.7777778 29.1111111,18.4444444 28.2222222,17.5555556 C27.3333333,16.6666667 26,16.6666667 25.1111111,17.5555556 L22.3333333,20.3333333 L22.3333333,2.22222224 C22.3333333,1 21.3333333,0 20.1111111,0 C18.8888889,0 17.8888889,1 17.8888889,2.22222224 L17.8888889,20.3333333 L15.1111111,17.5555556 C14.2222222,16.6666667 12.8888889,16.6666667 12,17.5555556 C11.1111111,18.4444445 11.1111111,19.7777778 12,20.6666667 L17.8888889,26.7777778 Z"
          id="路径"></path>
    <path d="M37.7777778,23.3333333 C36.5555555,23.3333333 35.5555555,24.3333333 35.5555556,25.5555556 L35.5555556,34.4444445 C35.5555556,35.1111111 35.1111111,35.5555556 34.4444444,35.5555556 L5.55555557,35.5555556 C4.88888891,35.5555556 4.44444448,35.1111111 4.44444443,34.4444445 L4.44444443,25.5555556 C4.44444443,24.3333333 3.44444443,23.3333333 2.22222224,23.3333333 C1,23.3333333 0,24.3333333 0,25.5555556 L0,34.4444445 C0,37.5555556 2.44444443,40 5.55555557,40 L34.4444444,40 C37.5555555,40 40,37.5555556 40,34.4444445 L40,25.5555556 C40,24.3333333 39,23.3333333 37.7777778,23.3333333 Z"
          id="路径"></path>


</svg>
