<?xml version="1.0" standalone="no"?><!DOCTYPE svg PUBLIC "-//W3C//DTD SVG 1.1//EN" "http://www.w3.org/Graphics/SVG/1.1/DTD/svg11.dtd"><svg t="1584946813037" class="icon" viewBox="0 0 1024 1024" version="1.1" xmlns="http://www.w3.org/2000/svg" p-id="1271" xmlns:xlink="http://www.w3.org/1999/xlink" width="200" height="200"><defs><style type="text/css"></style></defs><path d="M507.428571 676.571429l66.285715-66.285715-86.857143-86.857143-66.285714 66.285715v32h54.857142v54.857143h32z m251.428572-411.428572q-9.142857-9.142857-18.857143 0.571429L540 465.714286q-9.714286 9.714286-0.571429 18.857143t18.857143-0.571429l200-200q9.714286-9.714286 0.571429-18.857143z m45.714286 339.428572v108.571428q0 68-48.285715 116.285714T640 877.714286H164.571429q-68 0-116.285715-48.285715T0 713.142857V237.714286q0-68 48.285714-116.285715T164.571429 73.142857h475.428571q36 0 66.857143 14.285714 8.571429 4 10.285714 13.142858 1.714286 9.714286-5.142857 16.571428l-28 28q-8 8-18.285714 4.571429-13.142857-3.428571-25.714286-3.428572H164.571429q-37.714286 0-64.571429 26.857143t-26.857143 64.571429v475.428571q0 37.714286 26.857143 64.571429t64.571429 26.857143h475.428571q37.714286 0 64.571429-26.857143t26.857142-64.571429v-72q0-7.428571 5.142858-12.571428l36.571428-36.571429q8.571429-8.571429 20-4t11.428572 16.571429z m-54.857143-421.714286l164.571428 164.571428-384 384H365.714286V566.857143z m253.714285 75.428571l-52.571428 52.571429-164.571429-164.571429 52.571429-52.571428q16-16 38.857143-16t38.857143 16l86.857142 86.857143q16 16 16 38.857142t-16 38.857143z" p-id="1272"></path></svg>