<svg width="40" height="32" xmlns="http://www.w3.org/2000/svg"><path d="M19.91 23.677l2.601-2.6-3.408-3.409-2.6 2.601v1.256h2.152v2.152h1.255zm9.866-16.143c-.24-.24-.486-.232-.74.022l-7.848 7.848c-.254.254-.261.5-.022.74.24.239.486.231.74-.023l7.847-7.847c.254-.255.262-.501.023-.74zm1.794 13.318v4.26c0 1.779-.632 3.3-1.895 4.563s-2.784 1.895-4.563 1.895H6.457c-1.778 0-3.3-.632-4.562-1.895C.632 28.412 0 26.89 0 25.112V6.457c0-1.778.632-3.3 1.895-4.562C3.158.632 4.679 0 6.457 0h18.655c.942 0 1.816.187 2.623.56a.68.68 0 0 1 .404.516.698.698 0 0 1-.202.65l-1.098 1.1c-.21.208-.449.268-.718.178a3.988 3.988 0 0 0-1.009-.134H6.457c-.986 0-1.83.351-2.533 1.054C3.22 4.626 2.87 5.47 2.87 6.457v18.655c0 .987.351 1.831 1.054 2.534.702.702 1.547 1.054 2.533 1.054h18.655c.987 0 1.831-.352 2.534-1.054.702-.703 1.054-1.547 1.054-2.534v-2.825c0-.194.067-.359.201-.493l1.435-1.435c.225-.224.486-.277.785-.157.299.12.449.336.449.65zM29.417 4.305l6.457 6.457L20.807 25.83H14.35v-6.458L29.417 4.305zm9.955 2.96L37.31 9.327 30.852 2.87 32.915.807A2.076 2.076 0 0 1 34.439.18c.598 0 1.107.21 1.525.628l3.408 3.408c.419.419.628.927.628 1.525 0 .598-.21 1.106-.628 1.525z"/></svg>