<!-- <?xml version="1.0" standalone="no"?><!DOCTYPE svg PUBLIC "-//W3C//DTD SVG 1.1//EN" "http://www.w3.org/Graphics/SVG/1.1/DTD/svg11.dtd"><svg t="1645509697274" class="icon" viewBox="0 0 1024 1024" version="1.1" xmlns="http://www.w3.org/2000/svg" p-id="2361" xmlns:xlink="http://www.w3.org/1999/xlink" width="200" height="200"><defs><style type="text/css"></style></defs><path d="M867.046319 156.952658 156.952658 156.952658c-49.040926 0-88.317465 39.720653-88.317465 88.76158l-0.444115 532.570501c0 49.040926 39.720653 88.76158 88.76158 88.76158l710.09366 0c49.040926 0 88.76158-39.720653 88.76158-88.76158L955.807898 245.714238C955.808922 196.673311 916.087245 156.952658 867.046319 156.952658zM867.046319 334.476841l-355.047342 221.903949-355.047342-221.903949 0-88.76158 355.047342 221.903949 355.047342-221.903949L867.046319 334.476841z" p-id="2362"></path></svg> -->

<svg xmlns="http://www.w3.org/2000/svg" viewBox="0 0 24 24"><path stroke-linejoin="round" stroke-width="2" stroke="#ffffff" d="M2 21h20V9H2v12Z"/><path stroke-linejoin="round" stroke-width="2" stroke-opacity=".2" stroke="#ffffff" d="M2 21h20V9H2v12Z"/><path stroke-linejoin="round" stroke-linecap="round" stroke-width="2" stroke="#ffffff" d="m2 9 10 7.5L22 9"/><path stroke-linejoin="round" stroke-linecap="round" stroke-width="2" stroke-opacity=".2" stroke="#ffffff" d="m2 9 10 7.5L22 9"/><path stroke-linejoin="round" stroke-linecap="round" stroke-width="2" stroke="#ffffff" d="M12 9H2v7.5"/><path stroke-linejoin="round" stroke-linecap="round" stroke-width="2" stroke-opacity=".2" stroke="#ffffff" d="M12 9H2v7.5"/><path stroke-linejoin="round" stroke-linecap="round" stroke-width="2" stroke="#ffffff" d="M22 16.5V9H12"/><path stroke-linejoin="round" stroke-linecap="round" stroke-width="2" stroke-opacity=".2" stroke="#ffffff" d="M22 16.5V9H12"/><path stroke-linejoin="round" stroke-linecap="round" stroke-width="2" stroke="#ffffff" d="M6 6h12"/><path stroke-linejoin="round" stroke-linecap="round" stroke-width="2" stroke-opacity=".2" stroke="#ffffff" d="M6 6h12"/><path stroke-linejoin="round" stroke-linecap="round" stroke-width="2" stroke="#ffffff" d="M8 3h8"/><path stroke-linejoin="round" stroke-linecap="round" stroke-width="2" stroke-opacity=".2" stroke="#000" d="M8 3h8"/></svg>