<svg width="40" height="36" xmlns="http://www.w3.org/2000/svg"><path d="M15.72 26.2H3.494V11.878l13.798 7.336c2.27-4.542 6.987-7.686 12.402-7.686 1.922 0 3.668.35 5.24 1.048V0H0v29.694h16.418c-.35-1.048-.524-2.27-.698-3.494zM3.494 3.494H31.44v4.192l-13.974 7.336L3.493 7.686V3.494z"/><path d="M32.314 20.436l.35.524 1.922 3.494.35.524-.35.524-1.922 3.494-.35.524H26.9l-.35-.524-1.922-3.494-.174-.524.35-.524 1.922-3.494.35-.524h5.24-.002zm.873-5.414c-.35 0-.524.174-.699.524l-.873 1.398h-4.018l-.874-1.398c-.174-.35-.524-.524-.698-.524-.174 0-.35 0-.524.174l-2.446 1.572c-.35.174-.524.698-.35 1.222l.874 1.398-1.922 3.494h-1.572c-.524 0-.874.35-.874.874v2.794c0 .524.35.874.874.874h1.572l1.922 3.494-.874 1.397a.92.92 0 0 0 .35 1.223l2.446 1.572c.174 0 .35.174.524.174.35 0 .524-.174.698-.524l.874-1.398h4.018l.873 1.398c.175.35.524.524.699.524.174 0 .35 0 .524-.174l2.445-1.572c.35-.175.524-.699.35-1.223l-.874-1.397 1.922-3.494h1.572c.524 0 .874-.35.874-.874v-2.794c0-.524-.35-.874-.874-.874h-1.572l-1.922-3.494.874-1.398a.92.92 0 0 0-.35-1.222l-2.445-1.572c-.175-.174-.35-.174-.524-.174z"/><path d="M33.187 24.978l-1.747 3.144h-3.493L26.2 24.978l1.747-2.97h3.493z"/></svg>