<svg xmlns="http://www.w3.org/2000/svg" fill="none" viewBox="0 0 24 24"><path stroke-linejoin="round" stroke-linecap="round" stroke-width="2" stroke="#646A73" d="M22 10V4.5H2v15h10"/><path stroke-linejoin="round" stroke-linecap="round" stroke-width="2" stroke-opacity=".2" stroke="#000" d="M22 10V4.5H2v15h10"/><path stroke-linejoin="round" stroke-linecap="round" stroke-width="2" stroke="#646A73" d="M2 4.5 12 12l10-7.5"/><path stroke-linejoin="round" stroke-linecap="round" stroke-width="2" stroke-opacity=".2" stroke="#000" d="M2 4.5 12 12l10-7.5"/><path stroke-width="2" stroke="#646A73" d="M18 18.5a2.5 2.5 0 1 0 0-5 2.5 2.5 0 0 0 0 5Z"/><path stroke-width="2" stroke-opacity=".2" stroke="#000" d="M18 18.5a2.5 2.5 0 1 0 0-5 2.5 2.5 0 0 0 0 5Z"/><path stroke-linejoin="round" stroke-linecap="round" stroke-width="2" stroke="#646A73" d="M18 12v1.5"/><path stroke-linejoin="round" stroke-linecap="round" stroke-width="2" stroke-opacity=".2" stroke="#000" d="M18 12v1.5"/><path stroke-linejoin="round" stroke-linecap="round" stroke-width="2" stroke="#646A73" d="M18 18.5V20"/><path stroke-linejoin="round" stroke-linecap="round" stroke-width="2" stroke-opacity=".2" stroke="#000" d="M18 18.5V20"/><path stroke-linejoin="round" stroke-linecap="round" stroke-width="2" stroke="#646A73" d="m20.914 13-1.06 1.06"/><path stroke-linejoin="round" stroke-linecap="round" stroke-width="2" stroke-opacity=".2" stroke="#000" d="m20.914 13-1.06 1.06"/><path stroke-linejoin="round" stroke-linecap="round" stroke-width="2" stroke="#646A73" d="m15.914 18-1.06 1.06"/><path stroke-linejoin="round" stroke-linecap="round" stroke-width="2" stroke-opacity=".2" stroke="#000" d="m15.914 18-1.06 1.06"/><path stroke-linejoin="round" stroke-linecap="round" stroke-width="2" stroke="#646A73" d="m15 13 1.06 1.06"/><path stroke-linejoin="round" stroke-linecap="round" stroke-width="2" stroke-opacity=".2" stroke="#000" d="m15 13 1.06 1.06"/><path stroke-linejoin="round" stroke-linecap="round" stroke-width="2" stroke="#646A73" d="m20 18 1.06 1.06"/><path stroke-linejoin="round" stroke-linecap="round" stroke-width="2" stroke-opacity=".2" stroke="#000" d="m20 18 1.06 1.06"/><path stroke-linejoin="round" stroke-linecap="round" stroke-width="2" stroke="#646A73" d="M14 16h1.5"/><path stroke-linejoin="round" stroke-linecap="round" stroke-width="2" stroke-opacity=".2" stroke="#000" d="M14 16h1.5"/><path stroke-linejoin="round" stroke-linecap="round" stroke-width="2" stroke="#646A73" d="M20.5 16H22"/><path stroke-linejoin="round" stroke-linecap="round" stroke-width="2" stroke-opacity=".2" stroke="#000" d="M20.5 16H22"/></svg>