<!-- <svg xmlns="http://www.w3.org/2000/svg" fill="transparent" viewBox="0 0 24 24"><path stroke-linejoin="round" stroke-linecap="round" stroke-width="2" stroke="#646A73" d="M22 10V4.5H2v15h10"/><path stroke-linejoin="round" stroke-linecap="round" stroke-width="2" stroke-opacity=".2" stroke="#000" d="M22 10V4.5H2v15h10"/><path stroke-linejoin="round" stroke-linecap="round" stroke-width="2" stroke="#646A73" d="M2 4.5 12 12l10-7.5"/><path stroke-linejoin="round" stroke-linecap="round" stroke-width="2" stroke-opacity=".2" stroke="#000" d="M2 4.5 12 12l10-7.5"/><path stroke-width="2" stroke="#646A73" d="M18 18.5a2.5 2.5 0 1 0 0-5 2.5 2.5 0 0 0 0 5Z"/><path stroke-width="2" stroke-opacity=".2" stroke="#000" d="M18 18.5a2.5 2.5 0 1 0 0-5 2.5 2.5 0 0 0 0 5Z"/><path stroke-linejoin="round" stroke-linecap="round" stroke-width="2" stroke="#646A73" d="M18 12v1.5"/><path stroke-linejoin="round" stroke-linecap="round" stroke-width="2" stroke-opacity=".2" stroke="#000" d="M18 12v1.5"/><path stroke-linejoin="round" stroke-linecap="round" stroke-width="2" stroke="#646A73" d="M18 18.5V20"/><path stroke-linejoin="round" stroke-linecap="round" stroke-width="2" stroke-opacity=".2" stroke="#000" d="M18 18.5V20"/><path stroke-linejoin="round" stroke-linecap="round" stroke-width="2" stroke="#646A73" d="m20.914 13-1.06 1.06"/><path stroke-linejoin="round" stroke-linecap="round" stroke-width="2" stroke-opacity=".2" stroke="#000" d="m20.914 13-1.06 1.06"/><path stroke-linejoin="round" stroke-linecap="round" stroke-width="2" stroke="#646A73" d="m15.914 18-1.06 1.06"/><path stroke-linejoin="round" stroke-linecap="round" stroke-width="2" stroke-opacity=".2" stroke="#000" d="m15.914 18-1.06 1.06"/><path stroke-linejoin="round" stroke-linecap="round" stroke-width="2" stroke="#646A73" d="m15 13 1.06 1.06"/><path stroke-linejoin="round" stroke-linecap="round" stroke-width="2" stroke-opacity=".2" stroke="#000" d="m15 13 1.06 1.06"/><path stroke-linejoin="round" stroke-linecap="round" stroke-width="2" stroke="#646A73" d="m20 18 1.06 1.06"/><path stroke-linejoin="round" stroke-linecap="round" stroke-width="2" stroke-opacity=".2" stroke="#000" d="m20 18 1.06 1.06"/><path stroke-linejoin="round" stroke-linecap="round" stroke-width="2" stroke="#646A73" d="M14 16h1.5"/><path stroke-linejoin="round" stroke-linecap="round" stroke-width="2" stroke-opacity=".2" stroke="#000" d="M14 16h1.5"/><path stroke-linejoin="round" stroke-linecap="round" stroke-width="2" stroke="#646A73" d="M20.5 16H22"/><path stroke-linejoin="round" stroke-linecap="round" stroke-width="2" stroke-opacity=".2" stroke="#000" d="M20.5 16H22"/></svg> -->

<svg t="1676620224135" class="icon" viewBox="0 0 1024 1024" version="1.1" xmlns="http://www.w3.org/2000/svg" p-id="9051" width="200" height="200"><path d="M384 768H85.344V418.144l337.056 179.2c55.456-110.944 170.656-187.744 302.944-187.744 46.944 0 89.6 8.544 128 25.6V128H0v725.344h401.056c-8.544-25.6-12.8-55.456-17.056-85.344zM85.344 213.344H768v102.4l-341.344 179.2-341.344-179.2v-102.4z" p-id="9052" fill="#000000"></path><path d="M789.344 627.2l8.544 12.8 46.944 85.344 8.544 12.8-8.544 12.8-46.944 85.344-8.544 12.8h-132.256l-8.544-12.8-46.944-85.344-4.256-12.8 8.544-12.8L652.832 640l8.544-12.8h128z m21.312-132.256c-8.544 0-12.8 4.256-17.056 12.8l-21.344 34.144h-98.144l-21.344-34.144c-4.256-8.544-12.8-12.8-17.056-12.8s-8.544 0-12.8 4.256l-59.744 38.4c-8.544 4.256-12.8 17.056-8.544 29.856l21.344 34.144-46.944 85.344h-38.4c-12.8 0-21.344 8.544-21.344 21.344v68.256c0 12.8 8.544 21.344 21.344 21.344h38.4l46.944 85.344-21.344 34.144a22.496 22.496 0 0 0 8.544 29.856l59.744 38.4c4.256 0 8.544 4.256 12.8 4.256 8.544 0 12.8-4.256 17.056-12.8l21.344-34.144h98.144l21.344 34.144c4.256 8.544 12.8 12.8 17.056 12.8s8.544 0 12.8-4.256l59.744-38.4c8.544-4.256 12.8-17.056 8.544-29.856l-21.344-34.144 46.944-85.344h38.4c12.8 0 21.344-8.544 21.344-21.344v-68.256c0-12.8-8.544-21.344-21.344-21.344h-38.4L870.4 601.6l21.344-34.144a22.496 22.496 0 0 0-8.544-29.856l-59.744-38.4c-4.256-4.256-8.544-4.256-12.8-4.256z" p-id="9053" fill="#000000"></path><path d="M810.656 738.144L768 814.944h-85.344L640 738.144l42.656-72.544H768z" p-id="9054" fill="#000000"></path></svg>