<svg width="40" height="73" xmlns="http://www.w3.org/2000/svg"><path d="M.592 20.289a2 2 0 0 1 0-2.842L17.119.88a3.001 3.001 0 0 1 2.12-.88h1.521c.794.01 1.554.325 2.121.88l16.527 16.567a2 2 0 0 1 0 2.842l-2.841 2.84a1.96 1.96 0 0 1-2.801 0L20 9.325 6.234 23.13a2 2 0 0 1-2.841 0L.592 20.289zM36.607 48.9a2 2 0 0 0-2.841 0L20 62.706 6.234 48.941a1.96 1.96 0 0 0-2.801 0L.592 51.78a2 2 0 0 0 0 2.842L17.119 71.19a3.081 3.081 0 0 0 2.12.88h1.521c.796 0 1.559-.317 2.121-.88l16.527-16.567a2 2 0 0 0 0-2.841L36.607 48.9z"/></svg>