<?xml version="1.0" encoding="UTF-8"?>
<svg width="40px" height="73px" viewBox="0 0 40 73" version="1.1" xmlns="http://www.w3.org/2000/svg" xmlns:xlink="http://www.w3.org/1999/xlink">
    <title>expand-y</title>
    <g id="jumpserver" stroke="none" stroke-width="1" fill="none" fill-rule="evenodd">
        <g id="expand-y" fill="#000000" fill-rule="nonzero">
            <path d="M0.591845321,20.2885246 C0.213060868,19.9128336 0,19.401427 0,18.8679277 C0,18.3344285 0.213060868,17.8230219 0.591845321,17.4473309 L17.1187894,0.880369936 C17.6810951,0.317363424 18.4439648,0.000700519065 19.2396805,-1.70601938e-15 L20.7603195,-1.70601938e-15 C21.5543096,0.00921990902 22.3140901,0.324600503 22.8812106,0.880369936 L39.4081547,17.4473309 C39.7869391,17.8230219 40,18.3344285 40,18.8679277 C40,19.401427 39.7869391,19.9128336 39.4081547,20.2885246 L36.5669609,23.1297184 C36.1981516,23.5061328 35.6933526,23.7182514 35.1663724,23.7182514 C34.6393922,23.7182514 34.1345932,23.5061328 33.7657839,23.1297184 L20,9.32391759 L6.23421607,23.1297184 C5.85852502,23.5085028 5.3471184,23.7215637 4.81361915,23.7215637 C4.2801199,23.7215637 3.76871328,23.5085028 3.39302223,23.1297184 L0.591845321,20.2885246 Z M36.6069778,48.9005465 C36.2312867,48.5217621 35.7198801,48.3087012 35.1863809,48.3087012 C34.6528816,48.3087012 34.141475,48.5217621 33.7657839,48.9005465 L20,62.7063473 L6.23421607,48.9405633 C5.86540676,48.5641489 5.36060777,48.3520303 4.83362757,48.3520303 C4.30664737,48.3520303 3.80184839,48.5641489 3.43303907,48.9405633 L0.591845321,51.7817571 C0.213060868,52.1574482 7.10542736e-15,52.6688548 7.10542736e-15,53.202354 C7.10542736e-15,53.7358532 0.213060868,54.2472598 0.591845321,54.6229509 L17.1187894,71.1899118 C17.6859099,71.7456812 18.4456904,72.0610618 19.2396805,72.0702817 L20.7603195,72.0702817 C21.5560352,72.0695812 22.3189049,71.7529183 22.8812106,71.1899118 L39.4081547,54.6229509 C39.7869391,54.2472598 40,53.7358532 40,53.202354 C40,52.6688548 39.7869391,52.1574482 39.4081547,51.7817571 L36.6069778,48.9005465 Z" id="形状"></path>
        </g>
    </g>
</svg>