<svg width="40" height="30" xmlns="http://www.w3.org/2000/svg"><path d="M20 0c1.814 0 3.579.276 5.293.827 1.715.55 3.219 1.267 4.512 2.148a30.33 30.33 0 0 1 3.652 2.923c1.14 1.068 2.1 2.136 2.878 3.204a62.914 62.914 0 0 1 2.018 2.923c.568.881.987 1.595 1.257 2.142L40 15l-.247.527a25.26 25.26 0 0 1-.735 1.355 34.953 34.953 0 0 1-1.236 2.018 33.301 33.301 0 0 1-1.732 2.343 32.356 32.356 0 0 1-2.22 2.514 24.496 24.496 0 0 1-2.715 2.35 20.93 20.93 0 0 1-3.217 2.011c-1.097.551-2.332 1.003-3.705 1.355-1.372.352-2.77.528-4.193.527-1.814 0-3.579-.276-5.293-.827-1.715-.55-3.219-1.265-4.512-2.141a30.606 30.606 0 0 1-3.652-2.904c-1.14-1.059-2.1-2.12-2.878-3.183a63.006 63.006 0 0 1-2.018-2.91C1.079 17.158.66 16.442.39 15.887l-.39-.82.247-.527c.103-.221.348-.674.735-1.36.386-.686.799-1.36 1.236-2.025A34.753 34.753 0 0 1 3.95 8.798a31.426 31.426 0 0 1 2.22-2.526 24.73 24.73 0 0 1 2.715-2.357 21.21 21.21 0 0 1 3.217-2.025c1.097-.557 2.332-1.01 3.705-1.36C17.179.18 18.577.004 20 .003V0zm0 3.333c-1.216 0-2.409.16-3.58.482a15.05 15.05 0 0 0-3.17 1.243A18.274 18.274 0 0 0 10.49 6.9c-.898.72-1.674 1.43-2.33 2.128a29.927 29.927 0 0 0-1.908 2.254 29.82 29.82 0 0 0-1.472 2.063 35.373 35.373 0 0 0-1.028 1.718c.32.565.664 1.131 1.028 1.7.364.57.855 1.25 1.472 2.045a29.436 29.436 0 0 0 1.908 2.227c.656.69 1.432 1.391 2.33 2.103.898.712 1.818 1.32 2.76 1.824.942.503 1.999.913 3.17 1.23a13.66 13.66 0 0 0 7.16-.007 15.298 15.298 0 0 0 3.17-1.237 18.085 18.085 0 0 0 2.76-1.83 22.555 22.555 0 0 0 2.33-2.116 29.631 29.631 0 0 0 1.908-2.24 28.896 28.896 0 0 0 1.472-2.057c.364-.572.707-1.14 1.028-1.705a39.9 39.9 0 0 0-1.028-1.705 28.855 28.855 0 0 0-1.472-2.057 29.678 29.678 0 0 0-1.908-2.24 22.526 22.526 0 0 0-2.33-2.116 18.105 18.105 0 0 0-2.76-1.83 15.284 15.284 0 0 0-3.17-1.237A13.48 13.48 0 0 0 20 3.333zm0 5c1.84 0 3.411.651 4.713 1.954 1.303 1.302 1.954 2.873 1.954 4.713 0 1.84-.651 3.411-1.954 4.713-1.302 1.303-2.873 1.954-4.713 1.954-1.84 0-3.411-.651-4.713-1.954-1.303-1.302-1.954-2.873-1.954-4.713 0-1.84.652-3.411 1.954-4.713C16.589 8.984 18.16 8.333 20 8.333zm0 3.334c-.92 0-1.706.325-2.357.976A3.212 3.212 0 0 0 16.667 15c0 .92.325 1.706.976 2.357a3.212 3.212 0 0 0 2.357.976 3.21 3.21 0 0 0 2.357-.976A3.212 3.212 0 0 0 23.333 15c0-.92-.325-1.706-.976-2.357A3.212 3.212 0 0 0 20 11.667z"/></svg>