<svg width="40" height="20" xmlns="http://www.w3.org/2000/svg"><path d="M39.75 2.475a1.74 1.74 0 0 0-.286-2.152c-.644-.537-1.502-.384-2.003.308-.071.076-8.012 10.14-17.454 10.14C10.85 10.77 2.552.63 2.48.554 1.98-.061 1.05-.137.478.401-.094.938-.166 1.936.335 2.55c.143.23 1.86 2.305 4.578 4.61l-3.648 4.07c-.573.616-.501 1.614.071 2.152.143.307.501.46.859.46.357 0 .715-.153 1.001-.46l3.935-4.379c1.86 1.383 4.077 2.69 6.51 3.61l-1.503 5.455c-.214.845.215 1.69 1.001 1.92h.43c.644 0 1.216-.46 1.359-1.152l1.502-5.454c1.145.23 2.36.384 3.577.384 1.216 0 2.432-.153 3.577-.384l1.502 5.378c.143.691.787 1.152 1.359 1.152.143 0 .286 0 .358-.077.787-.23 1.216-1.075 1.001-1.92l-1.502-5.378c2.432-.922 4.65-2.227 6.51-3.61l3.863 4.302c.285.307.643.46 1.001.46.358 0 .715-.153 1.001-.46a1.64 1.64 0 0 0 .072-2.152L35.1 7.008c2.933-2.305 4.65-4.533 4.65-4.533z"/></svg>