<!-- <svg xmlns="http://www.w3.org/2000/svg" viewBox="0 0 24 24"><path stroke-linejoin="round" stroke-linecap="round" stroke-width="2" stroke="#646A73" d="M21 11V4.5A1.5 1.5 0 0 0 19.5 3h-15A1.5 1.5 0 0 0 3 4.5v15A1.5 1.5 0 0 0 4.5 21H11"/><path stroke-linejoin="round" stroke-linecap="round" stroke-width="2" stroke-opacity=".2" stroke="#000" d="M21 11V4.5A1.5 1.5 0 0 0 19.5 3h-15A1.5 1.5 0 0 0 3 4.5v15A1.5 1.5 0 0 0 4.5 21H11"/><path stroke-width="2" stroke="#646A73" d="M17 19.5a2.5 2.5 0 1 0 0-5 2.5 2.5 0 0 0 0 5Z"/><path stroke-width="2" stroke-opacity=".2" stroke="#000" d="M17 19.5a2.5 2.5 0 1 0 0-5 2.5 2.5 0 0 0 0 5Z"/><path stroke-linejoin="round" stroke-linecap="round" stroke-width="2" stroke="#646A73" d="M17 13v1.5"/><path stroke-linejoin="round" stroke-linecap="round" stroke-width="2" stroke-opacity=".2" stroke="#000" d="M17 13v1.5"/><path stroke-linejoin="round" stroke-linecap="round" stroke-width="2" stroke="#646A73" d="M17 19.5V21"/><path stroke-linejoin="round" stroke-linecap="round" stroke-width="2" stroke-opacity=".2" stroke="#000" d="M17 19.5V21"/><path stroke-linejoin="round" stroke-linecap="round" stroke-width="2" stroke="#646A73" d="m19.914 14-1.06 1.06"/><path stroke-linejoin="round" stroke-linecap="round" stroke-width="2" stroke-opacity=".2" stroke="#000" d="m19.914 14-1.06 1.06"/><path stroke-linejoin="round" stroke-linecap="round" stroke-width="2" stroke="#646A73" d="m14.914 19-1.06 1.06"/><path stroke-linejoin="round" stroke-linecap="round" stroke-width="2" stroke-opacity=".2" stroke="#000" d="m14.914 19-1.06 1.06"/><path stroke-linejoin="round" stroke-linecap="round" stroke-width="2" stroke="#646A73" d="m14 14 1.06 1.06"/><path stroke-linejoin="round" stroke-linecap="round" stroke-width="2" stroke-opacity=".2" stroke="#000" d="m14 14 1.06 1.06"/><path stroke-linejoin="round" stroke-linecap="round" stroke-width="2" stroke="#646A73" d="m19 19 1.06 1.06"/><path stroke-linejoin="round" stroke-linecap="round" stroke-width="2" stroke-opacity=".2" stroke="#000" d="m19 19 1.06 1.06"/><path stroke-linejoin="round" stroke-linecap="round" stroke-width="2" stroke="#646A73" d="M13 17h1.5"/><path stroke-linejoin="round" stroke-linecap="round" stroke-width="2" stroke-opacity=".2" stroke="#000" d="M13 17h1.5"/><path stroke-linejoin="round" stroke-linecap="round" stroke-width="2" stroke="#646A73" d="M19.5 17H21"/><path stroke-linejoin="round" stroke-linecap="round" stroke-width="2" stroke-opacity=".2" stroke="#000" d="M19.5 17H21"/><path stroke-linejoin="round" stroke-linecap="round" stroke-width="2" stroke="#646A73" d="M3 8.5h18"/><path stroke-linejoin="round" stroke-linecap="round" stroke-width="2" stroke-opacity=".2" stroke="#000" d="M3 8.5h18"/><path stroke-linejoin="round" stroke-linecap="round" stroke-width="2" stroke="#646A73" d="M8.5 21V8.5"/><path stroke-linejoin="round" stroke-linecap="round" stroke-width="2" stroke-opacity=".2" stroke="#000" d="M8.5 21V8.5"/></svg> -->

<svg t="1676621451682" class="icon" viewBox="0 0 1024 1024" version="1.1" xmlns="http://www.w3.org/2000/svg" p-id="1730" width="160" height="160"><path d="M214.136772 262.324706a69.270588 69.270588 0 0 0 48.188235-117.63953 67.403294 67.403294 0 0 0-48.188235-20.299294h-0.180706a67.252706 67.252706 0 0 0-48.00753 20.058353 69.270588 69.270588 0 0 0 48.188236 117.880471z" fill="#000000" p-id="1731"></path><path d="M422.761713 262.324706a68.909176 68.909176 0 1 0-68.065882-69.722353v0.813176a68.608 68.608 0 0 0 68.065882 68.909177z" fill="#000000" p-id="1732"></path><path d="M973.914654 0H49.995595A50.266353 50.266353 0 0 0 0.060536 50.537412v922.925176A50.296471 50.296471 0 0 0 49.995595 1024h483.297883a44.001882 44.001882 0 0 0 31.412706-13.131294 45.176471 45.176471 0 0 0-31.503059-77.071059H89.058184v-546.936471h845.703529v53.910589a45.176471 45.176471 0 0 0 13.643294 31.623529 44.062118 44.062118 0 0 0 31.774118 12.619294 44.784941 44.784941 0 0 0 43.730823-44.393412V50.597647A50.386824 50.386824 0 0 0 973.914654 0z m-39.152941 90.202353v206.396235H89.058184V90.202353z" fill="#000000" p-id="1733"></path><path d="M1001.713242 818.778353l-45.025882-26.232471a173.688471 173.688471 0 0 0 0-87.341176l44.995765-26.232471a17.769412 17.769412 0 0 0 7.529411-21.865411 239.254588 239.254588 0 0 0-29.635764-51.862589 17.287529 17.287529 0 0 0-22.40753-4.336941l-45.025882 26.292706a168.116706 168.116706 0 0 0-74.752-43.670588V530.974118a17.528471 17.528471 0 0 0-15.058824-17.498353 231.725176 231.725176 0 0 0-59.181176 0 17.468235 17.468235 0 0 0-15.058824 17.498353v52.555294a168.026353 168.026353 0 0 0-74.721882 43.670588l-44.965647-26.262588a17.347765 17.347765 0 0 0-22.528 4.397176 236.574118 236.574118 0 0 0-29.635765 51.862588 17.679059 17.679059 0 0 0 7.499294 21.835295l45.025883 26.262588a172.303059 172.303059 0 0 0-5.541647 46.110117 170.014118 170.014118 0 0 0 5.632 41.200942l-45.176471 26.262588a17.769412 17.769412 0 0 0-7.499294 21.955765 239.495529 239.495529 0 0 0 29.635765 51.892705 17.347765 17.347765 0 0 0 22.407529 4.306824l45.176471-26.383059a168.96 168.96 0 0 0 74.511059 43.700706v52.555294a17.528471 17.528471 0 0 0 15.058823 17.498353 234.526118 234.526118 0 0 0 59.181177 0 17.498353 17.498353 0 0 0 15.058823-17.498353v-52.555294a168.237176 168.237176 0 0 0 74.752-43.670588l44.965647 26.23247a17.347765 17.347765 0 0 0 22.528-4.367058 237.929412 237.929412 0 0 0 29.545412-51.712 17.769412 17.769412 0 0 0-7.288471-22.046118z m-128.993882-68.306824a79.932235 79.932235 0 0 1-78.667294 79.600942h-2.349177a80.835765 80.835765 0 1 1 1.144471-161.67153h1.174588a80.474353 80.474353 0 0 1 78.697412 82.070588z" fill="#000000" p-id="1734"></path></svg>