<svg width="40" height="40" xmlns="http://www.w3.org/2000/svg"><path d="M8.364 10.249a2.706 2.706 0 0 0 1.882-4.596 2.633 2.633 0 0 0-1.882-.793h-.007a2.627 2.627 0 0 0-1.876.783 2.706 2.706 0 0 0 1.883 4.606zM16.514 10.249a2.692 2.692 0 1 0-2.659-2.724v.031a2.68 2.68 0 0 0 2.66 2.693z"/><path d="M38.047 0H1.95A1.964 1.964 0 0 0 0 1.974v36.057a1.965 1.965 0 0 0 1.95 1.975h18.882a1.72 1.72 0 0 0 1.228-.513 1.765 1.765 0 0 0-1.231-3.011H3.477V15.114h33.04v2.106c.008.466.2.91.533 1.236.33.324.778.502 1.241.493A1.75 1.75 0 0 0 40 17.214V1.977A1.969 1.969 0 0 0 38.047 0zm-1.53 3.524v8.064H3.477V3.524h33.04z"/><path d="M39.133 31.988l-1.76-1.025a6.786 6.786 0 0 0 0-3.412l1.759-1.025a.694.694 0 0 0 .294-.854 9.347 9.347 0 0 0-1.158-2.026.675.675 0 0 0-.875-.17l-1.76 1.028a6.568 6.568 0 0 0-2.92-1.707v-2.053a.685.685 0 0 0-.588-.683 9.053 9.053 0 0 0-2.312 0 .682.682 0 0 0-.589.683v2.053a6.564 6.564 0 0 0-2.919 1.707l-1.757-1.026a.678.678 0 0 0-.88.171 9.243 9.243 0 0 0-1.158 2.026.69.69 0 0 0 .293.854l1.76 1.026a6.732 6.732 0 0 0 .003 3.41l-1.765 1.027a.694.694 0 0 0-.293.857c.3.722.689 1.403 1.158 2.028a.678.678 0 0 0 .875.168l1.765-1.03c.806.811 1.81 1.4 2.911 1.707v2.053a.685.685 0 0 0 .589.684 9.163 9.163 0 0 0 2.312 0 .684.684 0 0 0 .588-.684v-2.053a6.573 6.573 0 0 0 2.92-1.706l1.757 1.024c.295.173.672.1.88-.17a9.295 9.295 0 0 0 1.155-2.02.694.694 0 0 0-.285-.862zm-5.04-2.668a3.123 3.123 0 0 1-3.073 3.11h-.092a3.158 3.158 0 0 1 .045-6.317h.046a3.144 3.144 0 0 1 3.074 3.207z"/></svg>