<svg xmlns="http://www.w3.org/2000/svg" fill="none" viewBox="0 0 24 24"><path stroke-linejoin="round" stroke-linecap="round" stroke-width="2" stroke="#646A73" d="M21 11V4.5A1.5 1.5 0 0 0 19.5 3h-15A1.5 1.5 0 0 0 3 4.5v15A1.5 1.5 0 0 0 4.5 21H11"/><path stroke-linejoin="round" stroke-linecap="round" stroke-width="2" stroke-opacity=".2" stroke="#000" d="M21 11V4.5A1.5 1.5 0 0 0 19.5 3h-15A1.5 1.5 0 0 0 3 4.5v15A1.5 1.5 0 0 0 4.5 21H11"/><path stroke-width="2" stroke="#646A73" d="M17 19.5a2.5 2.5 0 1 0 0-5 2.5 2.5 0 0 0 0 5Z"/><path stroke-width="2" stroke-opacity=".2" stroke="#000" d="M17 19.5a2.5 2.5 0 1 0 0-5 2.5 2.5 0 0 0 0 5Z"/><path stroke-linejoin="round" stroke-linecap="round" stroke-width="2" stroke="#646A73" d="M17 13v1.5"/><path stroke-linejoin="round" stroke-linecap="round" stroke-width="2" stroke-opacity=".2" stroke="#000" d="M17 13v1.5"/><path stroke-linejoin="round" stroke-linecap="round" stroke-width="2" stroke="#646A73" d="M17 19.5V21"/><path stroke-linejoin="round" stroke-linecap="round" stroke-width="2" stroke-opacity=".2" stroke="#000" d="M17 19.5V21"/><path stroke-linejoin="round" stroke-linecap="round" stroke-width="2" stroke="#646A73" d="m19.914 14-1.06 1.06"/><path stroke-linejoin="round" stroke-linecap="round" stroke-width="2" stroke-opacity=".2" stroke="#000" d="m19.914 14-1.06 1.06"/><path stroke-linejoin="round" stroke-linecap="round" stroke-width="2" stroke="#646A73" d="m14.914 19-1.06 1.06"/><path stroke-linejoin="round" stroke-linecap="round" stroke-width="2" stroke-opacity=".2" stroke="#000" d="m14.914 19-1.06 1.06"/><path stroke-linejoin="round" stroke-linecap="round" stroke-width="2" stroke="#646A73" d="m14 14 1.06 1.06"/><path stroke-linejoin="round" stroke-linecap="round" stroke-width="2" stroke-opacity=".2" stroke="#000" d="m14 14 1.06 1.06"/><path stroke-linejoin="round" stroke-linecap="round" stroke-width="2" stroke="#646A73" d="m19 19 1.06 1.06"/><path stroke-linejoin="round" stroke-linecap="round" stroke-width="2" stroke-opacity=".2" stroke="#000" d="m19 19 1.06 1.06"/><path stroke-linejoin="round" stroke-linecap="round" stroke-width="2" stroke="#646A73" d="M13 17h1.5"/><path stroke-linejoin="round" stroke-linecap="round" stroke-width="2" stroke-opacity=".2" stroke="#000" d="M13 17h1.5"/><path stroke-linejoin="round" stroke-linecap="round" stroke-width="2" stroke="#646A73" d="M19.5 17H21"/><path stroke-linejoin="round" stroke-linecap="round" stroke-width="2" stroke-opacity=".2" stroke="#000" d="M19.5 17H21"/><path stroke-linejoin="round" stroke-linecap="round" stroke-width="2" stroke="#646A73" d="M3 8.5h18"/><path stroke-linejoin="round" stroke-linecap="round" stroke-width="2" stroke-opacity=".2" stroke="#000" d="M3 8.5h18"/><path stroke-linejoin="round" stroke-linecap="round" stroke-width="2" stroke="#646A73" d="M8.5 21V8.5"/><path stroke-linejoin="round" stroke-linecap="round" stroke-width="2" stroke-opacity=".2" stroke="#000" d="M8.5 21V8.5"/></svg>