<svg width="40" height="34.844" xmlns="http://www.w3.org/2000/svg"><path d="M31.932 34.844H8.144c-1.675 0-3.183-1.172-3.685-2.847L.103 14.407c-.335-1.508.168-2.848 1.173-3.853 1.005-1.005 2.68-1.173 4.02-.503l5.194 2.513c.335.168.67 0 .837-.335L16.688 2.01C17.358.67 18.698 0 20.038 0c1.34 0 2.68.67 3.35 2.01l5.194 10.22c.168.334.503.334.838.334l5.193-2.513c1.34-.67 2.848-.502 4.02.503 1.173 1.005 1.676 2.513 1.173 3.853L35.45 31.829c-.335 1.843-1.842 3.015-3.518 3.015zM3.79 12.732c-.168 0-.335.167-.503.167 0 .168-.335.335-.167.67l4.355 17.59c0 .335.335.503.67.503h23.788c.335 0 .503-.168.67-.503l4.356-17.422c.168-.503-.167-.67-.167-.838-.168-.167-.335-.167-.67-.167l-5.194 2.512c-1.842.838-4.02.168-5.025-1.507l-5.193-10.22c-.168-.167-.336-.334-.503-.334-.168 0-.335 0-.503.335l-5.36 10.219c-1.005 1.842-3.183 2.513-5.026 1.675l-5.193-2.513c-.168 0-.335-.167-.335-.167z"/><path d="M24.561 28.479h-9.046c-.837 0-1.507-.67-1.507-1.508s.67-1.508 1.507-1.508h9.046c.838 0 1.508.67 1.508 1.508s-.67 1.508-1.508 1.508z"/></svg>