<?xml version="1.0" encoding="UTF-8"?>
<svg width="40px" height="47px" viewBox="0 0 40 47" version="1.1" xmlns="http://www.w3.org/2000/svg"
>
    <path d="M29.384614,15.334552 L19.8415393,20.8760892 L10.4630799,15.5053212 C8.6800034,14.4899368 7.15846529,17.1653208 8.9415418,18.1791667 L18.4953858,23.6499347 L18.4953858,35.9930088 C18.4953858,36.8426774 19.1841783,37.5314699 20.0338469,37.5314699 C20.8835156,37.5314699 21.5723081,36.8426774 21.5723081,35.9930088 L21.5723081,23.5883962 C21.5723081,23.537627 21.5476927,23.4945501 21.5430774,23.4437809 L30.9061521,18.0068591 C32.6892286,16.9945516 31.1676905,14.3191676 29.384614,15.334552 L29.384614,15.334552 Z"
          id="路径"></path>
    <path d="M37.7061506,9.63763022 L22.3169233,0.62993999 C20.8820847,-0.209979997 19.1056092,-0.209979997 17.6707706,0.62993999 L2.29231257,9.63763022 C0.870612488,10.4730407 -0.00177007795,11.9994174 2.69671022e-06,13.6483985 L2.69671022e-06,32.7668557 C2.69671022e-06,34.439163 0.895389811,35.9822395 2.34308178,36.8053163 L17.7276936,45.5514681 C19.1359944,46.3529907 20.8624687,46.3529907 22.2707695,45.5514681 L37.6553813,36.8053163 C39.1062505,35.9787049 40.0015075,34.4366776 40.0000027,32.7668557 L40.0000027,13.6483985 C40.0014514,11.999103 39.1284421,10.472654 37.7061506,9.63763022 Z M36.9230738,32.7668557 C36.9230738,33.3237786 36.6246123,33.8391631 36.1415355,34.1130092 L20.7569237,42.859161 C20.2877855,43.1267596 19.7122161,43.1267596 19.2430779,42.859161 L3.85846605,34.1130092 C3.37484298,33.8374721 3.07642399,33.323463 3.07692713,32.7668557 L3.07692713,13.6483985 C3.07692713,13.0976294 3.36769693,12.5899372 3.84154298,12.3114758 L19.220001,3.30378553 C19.6979042,3.02377813 20.2897897,3.02377813 20.7676929,3.30378553 L36.1584586,12.3130142 C36.6323047,12.5883988 36.9230738,13.0976294 36.9230738,13.6483985 L36.9230738,32.7668557 L36.9230738,32.7668557 Z"
          id="形状"></path>
</svg>
