<svg t="1692600488483" class="icon" viewBox="0 0 1024 1024" version="1.1" xmlns="http://www.w3.org/2000/svg" p-id="11042" width="200" height="200"><path d="M707.2 350.976l-198.496 115.264-195.072-111.712c-37.088-21.12-68.736 34.528-31.648 55.616l198.72 113.792v256.736a32 32 0 0 0 64 0v-258.016c0-1.056-0.512-1.952-0.608-3.008l194.752-113.088c37.088-21.056 5.44-76.704-31.648-55.584z" p-id="11043"></path><path d="M880.288 232.48L560.192 45.12a95.648 95.648 0 0 0-96.64 0L143.68 232.48A96.64 96.64 0 0 0 96 315.904v397.664c0 34.784 18.624 66.88 48.736 84l320 181.92a95.52 95.52 0 0 0 94.496 0l320-181.92A96.576 96.576 0 0 0 928 713.568V315.904a96.64 96.64 0 0 0-47.712-83.424zM864 713.568c0 11.584-6.208 22.304-16.256 28l-320 181.92a31.776 31.776 0 0 1-31.488 0l-320-181.92A32.192 32.192 0 0 1 160 713.568V315.904c0-11.456 6.048-22.016 15.904-27.808l319.872-187.36a31.84 31.84 0 0 1 32.192 0l320.128 187.392c9.856 5.728 15.904 16.32 15.904 27.776v397.664z" p-id="11044"></path></svg>
