<?xml version="1.0" encoding="UTF-8"?>
<svg width="40px" height="38px" viewBox="0 0 40 38" version="1.1" xmlns="http://www.w3.org/2000/svg"
>
    <title>file-transfer</title>


    <path d="M11.0466666,2.22222222 L4.44444446,2.22222222 C3.21714501,2.22222222 2.22222222,3.21714501 2.22222222,4.44444446 L2.22222222,33.3333334 C2.22222222,34.5606328 3.21714501,35.5555555 4.44444446,35.5555555 L35.5555555,35.5555555 C36.782855,35.5555555 37.7777778,34.5606328 37.7777778,33.3333334 L37.7777778,10.1066666 C37.7777778,8.8793672 36.782855,7.88444446 35.5555555,7.88444446 L18.3644445,7.88444446 C17.6432804,7.88467502 16.9481074,7.61516668 16.4155555,7.12888886 L11.0466666,2.22222222 Z M4.44444446,0 L11.6511111,0 C11.8173988,0.000486781818 11.9775016,0.0631012258 12.1,0.175555547 L17.9155555,5.48666668 C18.038054,5.599121 18.1981567,5.66173545 18.3644445,5.66222222 L35.5555555,5.66222222 C38.0101544,5.66222222 40,7.65206778 40,10.1066666 L40,33.3333334 C40,35.7879322 38.0101544,37.7777778 35.5555555,37.7777778 L4.44444446,37.7777778 C1.98984556,37.7777778 0,35.7879322 0,33.3333334 L0,4.44444446 C0,1.98984556 1.98984556,0 4.44444446,0 L4.44444446,0 Z"
          id="形状"></path>
    <path d="M24.5533334,17.4377778 L21.8422222,15.32 C21.5162206,15.0803646 21.346249,14.682463 21.3984991,14.2812498 C21.4507492,13.8800364 21.7169609,13.5389392 22.0934637,13.3907911 C22.4699664,13.242643 22.8972389,13.3108647 23.2088889,13.5688889 L28.4622222,17.6733334 C28.8359618,17.9653411 28.983143,18.4623887 28.828653,18.9108111 C28.674163,19.3592335 28.2520665,19.6601541 27.7777778,19.6600001 L12.2222222,19.6600001 C11.6085725,19.6600001 11.1111111,19.1625386 11.1111111,18.5488889 C11.1111111,17.9352392 11.6085725,17.4377778 12.2222222,17.4377778 L24.5533334,17.4377778 L24.5533334,17.4377778 Z M15.4488889,24.1044445 L18.16,26.2222222 C18.4728059,26.4667506 18.6313961,26.8595842 18.5760312,27.2527463 C18.5206662,27.6459084 18.2597575,27.9796682 17.8915867,28.1283018 C17.5234159,28.2769354 17.103917,28.2178618 16.7911111,27.9733334 L11.5377778,23.8688889 C11.1637139,23.5766303 11.0166334,23.0790135 11.1717055,22.6303583 C11.3267776,22.1817031 11.749747,21.881117 12.2244445,21.8822162 L27.78,21.8822162 C28.3936498,21.8822162 28.8911111,22.3796836 28.8911111,22.9933334 C28.8911111,23.606983 28.3936498,24.1044445 27.78,24.1044445 L15.4488889,24.1044445 Z"
          id="形状"></path>


</svg>
