<svg t="1716540775190" class="icon" viewBox="0 0 1109 1024" version="1.1" xmlns="http://www.w3.org/2000/svg" p-id="102379" width="200" height="200"><path d="M1049.6 288.682667v-76.458667c0-65.706667-52.053333-139.093333-121.685333-139.093333H576.768l-14.506667-27.392A83.370667 83.370667 0 0 0 488.192 0.853333h-374.613333C51.029333 0.853333 0.256 53.077333 0.256 117.333333v713.130667c0 64.170667 50.773333 116.394667 113.322667 116.394667h881.578666c62.464 0 113.322667-52.224 113.322667-116.394667v-437.76c0-37.888-25.088-78.08-58.88-104.106667z m-121.685333-145.664c24.149333 0 51.797333 36.864 51.797333 69.12v48.384l-3.498667-0.085334H676.010667l-62.208-117.418666h314.026666z m110.592 687.445333c0 25.6-19.456 46.506667-43.349334 46.506667H113.578667c-23.893333 0-43.434667-20.906667-43.434667-46.506667V117.333333c0-25.6 19.456-46.506667 43.434667-46.506666h374.613333a13.653333 13.653333 0 0 1 12.202667 7.509333l123.733333 233.472a34.986667 34.986667 0 0 0 30.890667 18.602667h321.194666c25.002667 0 62.293333 37.290667 62.293334 62.293333v437.76z" fill="#2c2c2c" p-id="102380"></path></svg>
