<svg width="40px" height="37.7777778px" viewBox="0 0 40 37.7777778" version="1.1" xmlns="http://www.w3.org/2000/svg">
    <path d="M11.0466666,2.22222222 L4.44444446,2.22222222 C3.21714501,2.22222222 2.22222222,3.21714501 2.22222222,4.44444446 L2.22222222,33.3333334 C2.22222222,34.5606328 3.21714501,35.5555555 4.44444446,35.5555555 L35.5555555,35.5555555 C36.782855,35.5555555 37.7777778,34.5606328 37.7777778,33.3333334 L37.7777778,10.1066666 C37.7777778,8.8793672 36.782855,7.88444446 35.5555555,7.88444446 L18.3644445,7.88444446 C17.6432804,7.88467502 16.9481074,7.61516668 16.4155555,7.12888886 L11.0466666,2.22222222 Z M4.44444446,0 L11.6511111,0 C11.8173988,0.000486781818 11.9775016,0.0631012258 12.1,0.175555547 L17.9155555,5.48666668 C18.038054,5.599121 18.1981567,5.66173545 18.3644445,5.66222222 L35.5555555,5.66222222 C38.0101544,5.66222222 40,7.65206778 40,10.1066666 L40,33.3333334 C40,35.7879322 38.0101544,37.7777778 35.5555555,37.7777778 L4.44444446,37.7777778 C1.98984556,37.7777778 0,35.7879322 0,33.3333334 L0,4.44444446 C0,1.98984556 1.98984556,0 4.44444446,0 L4.44444446,0 Z"
          id="形状"></path>
    <path d="M24.5533334,15.4377778 L21.8422222,13.32 C21.5162206,13.0803646 21.346249,12.682463 21.3984991,12.2812498 C21.4507492,11.8800364 21.7169609,11.5389392 22.0934637,11.3907911 C22.4699664,11.242643 22.8972389,11.3108647 23.2088889,11.5688889 L28.4622222,15.6733334 C28.8359618,15.9653411 28.983143,16.4623887 28.828653,16.9108111 C28.674163,17.3592335 28.2520665,17.6601541 27.7777778,17.6600002 L12.2222222,17.6600002 C11.6085725,17.6600002 11.1111111,17.1625386 11.1111111,16.5488889 C11.1111111,15.9352392 11.6085725,15.4377778 12.2222222,15.4377778 L24.5533334,15.4377778 L24.5533334,15.4377778 Z M15.4488889,26.1044445 L18.16,28.2222222 C18.4728059,28.4667506 18.6313961,28.8595842 18.5760312,29.2527463 C18.5206662,29.6459084 18.2597575,29.9796682 17.8915867,30.1283018 C17.5234159,30.2769354 17.103917,30.2178618 16.7911111,29.9733334 L11.5377778,25.8688889 C11.1637139,25.5766303 11.0166334,25.0790135 11.1717055,24.6303583 C11.3267776,24.1817031 11.749747,23.881117 12.2244445,23.8822132 L27.78,23.8822132 C28.3936498,23.8822132 28.8911111,24.3796836 28.8911111,24.9933334 C28.8911111,25.606983 28.3936498,26.1044445 27.78,26.1044445 L15.4488889,26.1044445 Z"
          id="形状"></path>
</svg>
