<?xml version="1.0" encoding="UTF-8"?>
<svg width="40px" height="35px" viewBox="0 0 40 35" version="1.1" xmlns="http://www.w3.org/2000/svg"
>
    <title>file-manager</title>


    <path d="M37.8747979,10.388856 L37.8747979,7.62917318 C37.8747979,5.2575708 35.995996,2.60876817 33.4827135,2.60876817 L20.8085008,2.60876817 L20.2849003,1.62008718 C19.7661614,0.623236009 18.7352013,-0.00151630603 17.6114576,2.7639203e-06 L4.0902441,2.7639203e-06 C1.83260182,2.7639203e-06 0,1.88496742 0,4.20420974 L0,29.9437955 C0,32.2599578 1.83260182,34.1449197 4.0902441,34.1449197 L35.9097559,34.1449197 C38.1643182,34.1449197 40,32.2599578 40,29.9437955 L40,14.1433797 C40,12.7758583 39.0944791,11.3251769 37.8747979,10.3857759 L37.8747979,10.388856 Z M33.4827135,5.13129069 C34.3543544,5.13129069 35.3522754,6.46185202 35.3522754,7.62609319 L35.3522754,9.37245493 L35.2259952,9.36937491 L24.3905444,9.36937491 L22.1452222,5.13129069 L33.4796335,5.13129069 L33.4827135,5.13129069 Z M37.4743975,29.9437955 C37.4743975,30.8677964 36.7721568,31.6223972 35.9097559,31.6223972 L4.0902441,31.6223972 C3.22784325,31.6223972 2.52252252,30.8677964 2.52252252,29.9437955 L2.52252252,4.20420974 C2.52252252,3.28020882 3.22476322,2.52560796 4.0902441,2.52560796 L17.6114576,2.52560796 C17.7976913,2.52560796 17.9680929,2.63033625 18.0518981,2.79664835 L22.5179025,11.2235368 C22.7367136,11.6363892 23.1656107,11.8946753 23.6328636,11.8949775 L35.2259952,11.8949775 C36.1284361,11.8949775 37.4743975,13.2409388 37.4743975,14.1433797 L37.4743975,29.9437955 L37.4743975,29.9437955 Z"
          id="形状"></path>


</svg>
