<svg t="1716530340507" class="icon" viewBox="0 0 1024 1024" version="1.1" xmlns="http://www.w3.org/2000/svg" p-id="57549" width="200" height="200"><path d="M94.698667 149.333333l245.354666 1.28c7.104 0.042667 13.952 2.666667 19.413334 7.424l112.682666 98.432h457.301334c16.874667 0 30.549333 14.314667 30.549333 32v554.176c0 17.685333-13.674667 32-30.549333 32H94.549333C77.653333 874.666667 64 860.330667 64 842.666667V181.333333c0-17.728 13.76-32.085333 30.698667-32zM128 213.504v597.141333h768V320.469333H461.482667c-7.104 0-13.973333-2.645333-19.413334-7.424l-111.914666-98.496L128 213.482667zM394.666667 597.333333h256.512a32 32 0 0 1 31.104 39.530667l-0.789334 2.709333-32.426666 96a32 32 0 0 1-61.482667-17.493333l0.853333-2.986667 18.133334-53.76H394.666667a32 32 0 0 1-3.072-63.850666L394.666667 597.333333h256.512H394.666667z m42.666666-211.626666a32 32 0 0 1 20.949334 37.568l-0.853334 2.986666-18.154666 53.76h211.925333a32 32 0 0 1 3.072 63.850667l-3.072 0.128H394.666667a32 32 0 0 1-31.104-39.530667l0.789333-2.709333 32.426667-96a32 32 0 0 1 40.533333-20.053333z" fill="#2c2c2c" p-id="57550"></path></svg>
