<svg xmlns="http://www.w3.org/2000/svg" viewBox="0 0 24 24"><path fill="#646A73" d="M3 3a2 2 0 0 1 2-2h10.5a1 1 0 0 1 .743.331l4.5 5A1 1 0 0 1 21 7v6a1 1 0 1 1-2 0V7.384L15.055 3H5v18h6a1 1 0 1 1 0 2H5a2 2 0 0 1-2-2V3Z" clip-rule="evenodd" fill-rule="evenodd"/><path fill-opacity=".2" fill="#000" d="M3 3a2 2 0 0 1 2-2h10.5a1 1 0 0 1 .743.331l4.5 5A1 1 0 0 1 21 7v6a1 1 0 1 1-2 0V7.384L15.055 3H5v18h6a1 1 0 1 1 0 2H5a2 2 0 0 1-2-2V3Z" clip-rule="evenodd" fill-rule="evenodd"/><path fill="#646A73" d="M13 16a1 1 0 0 1 1-1h6a1 1 0 1 1 0 2h-6a1 1 0 0 1-1-1Z" clip-rule="evenodd" fill-rule="evenodd"/><path fill-opacity=".2" fill="#000" d="M13 16a1 1 0 0 1 1-1h6a1 1 0 1 1 0 2h-6a1 1 0 0 1-1-1Z" clip-rule="evenodd" fill-rule="evenodd"/><path fill="#646A73" d="M13 19a1 1 0 0 1 1-1h6a1 1 0 1 1 0 2h-6a1 1 0 0 1-1-1Z" clip-rule="evenodd" fill-rule="evenodd"/><path fill-opacity=".2" fill="#000" d="M13 19a1 1 0 0 1 1-1h6a1 1 0 1 1 0 2h-6a1 1 0 0 1-1-1Z" clip-rule="evenodd" fill-rule="evenodd"/><path fill="#646A73" d="M13 22a1 1 0 0 1 1-1h6a1 1 0 1 1 0 2h-6a1 1 0 0 1-1-1Z" clip-rule="evenodd" fill-rule="evenodd"/><path fill-opacity=".2" fill="#000" d="M13 22a1 1 0 0 1 1-1h6a1 1 0 1 1 0 2h-6a1 1 0 0 1-1-1Z" clip-rule="evenodd" fill-rule="evenodd"/><path fill="#646A73" d="M15 1a1 1 0 0 1 1 1v4h4a1 1 0 1 1 0 2h-5a1 1 0 0 1-1-1V2a1 1 0 0 1 1-1Z" clip-rule="evenodd" fill-rule="evenodd"/><path fill-opacity=".2" fill="#000" d="M15 1a1 1 0 0 1 1 1v4h4a1 1 0 1 1 0 2h-5a1 1 0 0 1-1-1V2a1 1 0 0 1 1-1Z" clip-rule="evenodd" fill-rule="evenodd"/></svg>