<svg t="1716540225224" class="icon" viewBox="0 0 1024 1024" version="1.1" xmlns="http://www.w3.org/2000/svg" p-id="97212" width="200" height="200"><path d="M282.794667 113.777778H113.777778a56.888889 56.888889 0 0 0-56.888889 56.888889v739.555555a56.888889 56.888889 0 0 0 56.888889 56.888889h796.444444a56.888889 56.888889 0 0 0 56.888889-56.888889V315.619556a56.888889 56.888889 0 0 0-56.888889-56.888889H470.129778a73.955556 73.955556 0 0 1-49.891556-19.342223L282.794667 113.777778zM113.777778 56.888889h184.490666a17.066667 17.066667 0 0 1 11.491556 4.494222l148.878222 135.964445a17.066667 17.066667 0 0 0 11.491556 4.494222H910.222222a113.777778 113.777778 0 0 1 113.777778 113.777778V910.222222a113.777778 113.777778 0 0 1-113.777778 113.777778H113.777778a113.777778 113.777778 0 0 1-113.777778-113.777778V170.666667a113.777778 113.777778 0 0 1 113.777778-113.777778z" fill="#2c2c2c" p-id="97213"></path><path d="M628.565333 503.296l-69.404444-54.215111a28.444444 28.444444 0 1 1 34.986667-44.828445l134.485333 105.073778a28.444444 28.444444 0 0 1-17.521778 50.858667h-398.222222a28.444444 28.444444 0 1 1 0-56.888889h315.676444zM395.491556 673.962667l69.404444 54.215111a28.444444 28.444444 0 1 1-35.043556 44.828444l-134.485333-105.073778a28.444444 28.444444 0 0 1 17.578667-50.858666h398.222222a28.444444 28.444444 0 1 1 0 56.888889H395.491556z" fill="#2c2c2c" p-id="97214"></path></svg>
