<svg width="40" height="35" xmlns="http://www.w3.org/2000/svg"><path d="M37.875 10.389v-2.76c0-2.371-1.879-5.02-4.392-5.02H20.809l-.524-.989A3.01 3.01 0 0 0 17.61 0H4.091C1.832 0 0 1.885 0 4.204v25.74c0 2.316 1.833 4.2 4.09 4.2h31.82c2.254 0 4.09-1.884 4.09-4.2v-15.8c0-1.368-.906-2.819-2.125-3.758v.003zM33.483 5.13c.871 0 1.87 1.33 1.87 2.495v1.746l-.127-.003H24.391l-2.246-4.238H33.483zm3.991 24.813c0 .924-.702 1.678-1.564 1.678H4.09c-.862 0-1.567-.754-1.567-1.678V4.204c0-.924.702-1.678 1.567-1.678h13.521c.187 0 .357.104.44.27l4.467 8.428c.219.412.648.67 1.115.671h11.593c.902 0 2.248 1.346 2.248 2.248v15.8z"/></svg>