<svg t="1716531798029" class="icon" viewBox="0 0 1024 1024" version="1.1" xmlns="http://www.w3.org/2000/svg" p-id="86140" width="200" height="200"><path d="M941.727 367.821C922.939 345.692 894.551 333 863.841 333h-28.565c0.353-1.935 0.547-4.074 0.547-6.11 0-53.343-43.6-96.89-97.19-96.89H468.235c-1.074 0-2.147 0.202-3.216 0.307-0.532-0.875-1.104-1.65-1.714-2.472l-83.04-111.64C374.04 107.814 364.216 103 353.776 103H162.564C108.974 103 65 146.422 65 200.011v610.81c-4 27.439 2.004 54.295 18.063 74.742C100.75 908.084 128.97 921 160.159 921h617.78c29.093 0 58.091-10.999 81.652-30.972 23.582-19.99 39.171-46.813 43.893-75.523l59.937-364.33c4.974-30.239-2.934-60.256-21.694-82.354zM162.564 169h174.619l72.34 97.277c12.118 18.929 33.084 30.112 55.217 30.11 1.661 0 3.331-0.387 5.002-0.387h268.89c17.198 0 31.19 13.939 31.19 30.89 0 2.037 0.194 4.176 0.547 6.11H287.598c-59.409 0-117.148 45.146-131.208 102.776L131 539.035V200.011C131 182.815 145.367 169 162.564 169z m735.732 270.462l-59.937 364.331C833.873 831.071 805.64 855 777.939 855h-617.78c-10.957 0-19.836-3.623-25.002-10.202-4.091-5.209-5.814-12.247-5.057-20.233a32.892 32.892 0 0 0 1.189-6.818l89.406-366.324C227.508 423.497 258.771 399 287.598 399h576.243c11.465 0 21.257 4.097 27.572 11.536 6.288 7.407 8.733 17.68 6.883 28.926z" p-id="86141" fill="#2c2c2c"></path></svg>
