<svg width="40" height="49" xmlns="http://www.w3.org/2000/svg"><path d="M0 4.444A4.444 4.444 0 0 1 4.444 0h23.334c.63 0 1.23.268 1.65.736l10 11.11c.368.409.572.938.572 1.487v13.334a2.222 2.222 0 0 1-4.444 0v-12.48l-8.767-9.743H4.444v40h13.334a2.222 2.222 0 0 1 0 4.445H4.444A4.444 4.444 0 0 1 0 44.444v-40z" fill="currentColor"/><path d="M0 4.444A4.444 4.444 0 0 1 4.444 0h23.334c.63 0 1.23.268 1.65.736l10 11.11c.368.409.572.938.572 1.487v13.334a2.222 2.222 0 0 1-4.444 0v-12.48l-8.767-9.743H4.444v40h13.334a2.222 2.222 0 0 1 0 4.445H4.444A4.444 4.444 0 0 1 0 44.444v-40z" fill-opacity=".2" fill="currentColor"/><path d="M22.222 33.333c0-1.227.995-2.222 2.222-2.222h13.334a2.222 2.222 0 0 1 0 4.445H24.444a2.222 2.222 0 0 1-2.222-2.223z" fill="currentColor"/><path d="M22.222 33.333c0-1.227.995-2.222 2.222-2.222h13.334a2.222 2.222 0 0 1 0 4.445H24.444a2.222 2.222 0 0 1-2.222-2.223z" fill-opacity=".2" fill="currentColor"/><path d="M22.222 40c0-1.227.995-2.222 2.222-2.222h13.334a2.222 2.222 0 0 1 0 4.444H24.444A2.222 2.222 0 0 1 22.222 40z" fill="currentColor"/><path d="M22.222 40c0-1.227.995-2.222 2.222-2.222h13.334a2.222 2.222 0 0 1 0 4.444H24.444A2.222 2.222 0 0 1 22.222 40z" fill-opacity=".2" fill="currentColor"/><path d="M22.222 46.667c0-1.228.995-2.223 2.222-2.223h13.334a2.222 2.222 0 0 1 0 4.445H24.444a2.222 2.222 0 0 1-2.222-2.222z" fill="currentColor"/><path d="M22.222 46.667c0-1.228.995-2.223 2.222-2.223h13.334a2.222 2.222 0 0 1 0 4.445H24.444a2.222 2.222 0 0 1-2.222-2.222z" fill-opacity=".2" fill="currentColor"/><path d="M26.667 0c1.227 0 2.222.995 2.222 2.222v8.89h8.889a2.222 2.222 0 0 1 0 4.444H26.667a2.222 2.222 0 0 1-2.223-2.223V2.223C24.444.994 25.44 0 26.667 0z" fill="currentColor"/><path d="M26.667 0c1.227 0 2.222.995 2.222 2.222v8.89h8.889a2.222 2.222 0 0 1 0 4.444H26.667a2.222 2.222 0 0 1-2.223-2.223V2.223C24.444.994 25.44 0 26.667 0z" fill-opacity=".2" fill="currentColor"/></svg>