<svg width="40" height="37.778" xmlns="http://www.w3.org/2000/svg"><path d="M11.047 2.222H4.444a2.222 2.222 0 0 0-2.222 2.222v28.89c0 1.227.995 2.222 2.222 2.222h31.112a2.222 2.222 0 0 0 2.222-2.223V10.107a2.222 2.222 0 0 0-2.222-2.223H18.364c-.72 0-1.416-.269-1.948-.755l-5.37-4.907zM4.444 0h7.207c.166 0 .327.063.449.176l5.816 5.31a.667.667 0 0 0 .448.176h17.192A4.444 4.444 0 0 1 40 10.107v23.226a4.444 4.444 0 0 1-4.444 4.445H4.444A4.444 4.444 0 0 1 0 33.333V4.444A4.444 4.444 0 0 1 4.444 0z"/><path d="M24.553 15.438l-2.71-2.118a1.111 1.111 0 1 1 1.366-1.751l5.253 4.104a1.111 1.111 0 0 1-.684 1.987H12.222a1.111 1.111 0 0 1 0-2.222h12.331zM15.45 26.104l2.711 2.118a1.111 1.111 0 1 1-1.369 1.751l-5.253-4.104a1.111 1.111 0 0 1 .686-1.987H27.78a1.111 1.111 0 0 1 0 2.222H15.449z"/></svg>