<?xml version="1.0" standalone="no"?><!DOCTYPE svg PUBLIC "-//W3C//DTD SVG 1.1//EN" "http://www.w3.org/Graphics/SVG/1.1/DTD/svg11.dtd"><svg t="1712647403772" class="icon" viewBox="0 0 1024 1024" version="1.1" xmlns="http://www.w3.org/2000/svg" p-id="17195" xmlns:xlink="http://www.w3.org/1999/xlink" width="200" height="200"><path d="M558.72 1015.04a32.64 32.64 0 0 1-32.64-32.64V334.08a32.64 32.64 0 0 1 8.32-21.12l213.12-241.28h-640L320 312.32a35.2 35.2 0 0 1 8.32 21.76v374.4l69.76 69.12a32.64 32.64 0 1 1-46.08 46.08l-78.08-78.72a35.2 35.2 0 0 1-9.6-23.04V346.24L11.52 64A33.28 33.28 0 0 1 5.76 25.6 33.92 33.92 0 0 1 35.84 6.4h784.64a33.28 33.28 0 0 1 29.44 19.2 33.28 33.28 0 0 1-5.12 38.4l-256 286.08v635.52a32.64 32.64 0 0 1-30.08 29.44z" fill="#2c2c2c" p-id="17196"></path><path d="M970.88 504.96h-280.96a32.64 32.64 0 1 1 0-64h280.96a32.64 32.64 0 1 1 0 64zM970.88 709.76h-280.96a32.64 32.64 0 0 1 0-64h280.96a32.64 32.64 0 0 1 0 64zM970.88 914.56h-280.96a32.64 32.64 0 0 1 0-64h280.96a32.64 32.64 0 0 1 0 64z" fill="#2c2c2c" p-id="17197"></path></svg>