<svg width="40" height="41" xmlns="http://www.w3.org/2000/svg"><path d="M22.092 40.03c-.716 0-1.296-.58-1.296-1.295v-25.73c.006-.31.123-.607.33-.838l8.459-9.576h-25.4l8.432 9.55c.205.242.322.547.33.864v14.86l2.769 2.742a1.295 1.295 0 1 1-1.829 1.83l-3.099-3.125a1.397 1.397 0 0 1-.38-.914v-14.91L.373 2.286A1.32 1.32 0 0 1 .146.762C.367.302.829.007 1.339 0H32.48c.503.01.956.306 1.169.762a1.32 1.32 0 0 1-.204 1.524L23.285 13.64v25.222a1.295 1.295 0 0 1-1.193 1.169z"/><path d="M38.45 19.787H27.298a1.295 1.295 0 1 1 0-2.54h11.15a1.295 1.295 0 1 1 0 2.54zm0 8.128H27.298a1.295 1.295 0 0 1 0-2.54h11.15a1.295 1.295 0 0 1 0 2.54zm0 8.128H27.298a1.295 1.295 0 0 1 0-2.54h11.15a1.295 1.295 0 0 1 0 2.54z"/></svg>