<svg width="40" height="41" xmlns="http://www.w3.org/2000/svg"><path d="M26.287 7.446c-.32 0-.587-.1-.805-.3a2.689 2.689 0 0 1-.544-.7 3.608 3.608 0 0 1-.326-.821 2.894 2.894 0 0 1-.11-.7V0h.088c.26 0 .508.027.74.08.232.053.515.18.848.38.334.2.74.48 1.219.841.479.36 1.08.834 1.806 1.422.784.64 1.407 1.18 1.872 1.62.464.44.82.815 1.066 1.121.246.307.399.568.457.781.058.214.087.4.087.56v.641h-6.398zm13.535 18.856c.087.213.146.48.174.8.03.32-.115.628-.435.921-.145.134-.275.26-.391.38-.117.12-.218.22-.305.3-.094.09-.196.17-.305.241l-3.7-3.363c.201-.155.397-.315.589-.48.176-.153.357-.3.543-.44.349-.294.726-.42 1.132-.38.406.04.74.126 1.001.259.29.134.602.367.936.701.333.333.587.687.761 1.06zM24.46 30.025c.638 0 1.174-.16 1.61-.48l-8.444 8.086H5.614c-.55 0-1.153-.147-1.806-.44A7.686 7.686 0 0 1 1.98 36.03a6.691 6.691 0 0 1-1.414-1.662C.189 33.741 0 33.094 0 32.427V5.164c0-.56.138-1.147.413-1.761A5.764 5.764 0 0 1 1.545 1.74 6.824 6.824 0 0 1 3.177.501 3.933 3.933 0 0 1 5.093 0H21.76v5.004c0 .507.087 1.054.26 1.641a5.23 5.23 0 0 0 .806 1.622c.363.494.835.907 1.415 1.24.58.335 1.276.501 2.089.501h6.354V23.26l-5.963 5.685c.32-.427.48-.894.48-1.401 0-.694-.27-1.288-.806-1.782-.537-.493-1.182-.74-1.937-.74H8.14c-.754 0-1.393.247-1.915.74-.522.494-.783 1.088-.783 1.782s.26 1.28.783 1.761c.522.48 1.16.72 1.915.72h16.32zM8.139 15.012c-.755 0-1.393.247-1.915.741-.523.494-.784 1.087-.784 1.782 0 .693.261 1.28.784 1.76.522.481 1.16.722 1.915.722h16.32c.755 0 1.4-.24 1.937-.721.537-.48.805-1.068.805-1.761 0-.695-.268-1.288-.805-1.782s-1.182-.74-1.937-.74H8.14zM24.546 35.07l.566-.52 1.088-1.001c.482-.444.96-.891 1.436-1.341.52-.491 1.041-.978 1.567-1.461a611.236 611.236 0 0 1 4.222-3.844l3.656 3.363-4.222 3.883-1.567 1.441-1.436 1.322c-.345.316-.686.636-1.023.96-.275.267-.428.414-.457.44-.145.107-.304.22-.479.341-.174.12-.348.22-.522.3-.174.08-.442.18-.805.3a26.142 26.142 0 0 1-2.198.621c-.348.08-.61.133-.783.16-.348.053-.58.013-.696-.12-.117-.133-.146-.36-.087-.68.028-.16.087-.401.174-.721.087-.32.188-.647.304-.98l.326-.942c.102-.293.182-.493.24-.6a3.18 3.18 0 0 1 .696-.92z"/></svg>