<?xml version="1.0" encoding="UTF-8"?>
<svg width="40px" height="44px" viewBox="0 0 40 44" version="1.1" xmlns="http://www.w3.org/2000/svg"
>
    <path d="M36.9156745,0 L3.0843255,0 C1.38286855,0.00474415516 0.00474417909,1.3828685 0,3.08432545 L0,40.096231 C0,41.79261 1.38794646,43.1805564 3.0843255,43.1805564 L36.9156745,43.1805564 C38.6120535,43.1805564 40,41.79261 40,40.096231 L40,3.08432545 C40,1.38794646 38.6120535,0 36.9156745,0 L36.9156745,0 Z M36.9156745,40.091296 L36.9107396,40.096231 L3.08926038,40.096231 L3.0843255,40.091296 L3.0843255,3.08926038 L3.08926038,3.08432545 L36.9107396,3.08432545 L36.9156745,3.08926038 L36.9156745,40.091296 Z"
          id="形状"></path>
    <path d="M13.932515,5.73931283 C13.5377213,5.73931283 13.1429277,5.88859419 12.8431312,6.19332551 L10.3904756,8.64598114 L9.43680219,7.69107397 C9.04672132,7.30187464 8.47863636,7.15034528 7.94653941,7.29356556 C7.41444246,7.43678584 6.99917172,7.85299718 6.85715565,8.38541679 C6.71513958,8.9178364 6.8679538,9.48557709 7.25803468,9.87477641 L8.21170813,10.8284498 L9.30109186,11.9178336 C9.90281226,12.5193137 10.878139,12.5193137 11.4798594,11.9178336 L12.5692431,10.8284498 L15.0218987,8.37579424 C15.463035,7.93436394 15.5952015,7.27084708 15.3568817,6.69407537 C15.1185619,6.11730366 14.5565825,5.74060512 13.932515,5.73931283 L13.932515,5.73931283 Z M31.1319475,7.51341683 L20.0481155,7.51341683 C19.195608,7.51341683 18.5059528,8.20183827 18.5059528,9.05557953 C18.5059528,9.90808708 19.1956079,10.5977423 20.0481155,10.5977423 L31.1331812,10.5977423 C31.984455,10.5977423 32.6753439,9.90808713 32.6753439,9.05557953 C32.6753439,8.20183823 31.984455,7.51341683 31.1331812,7.51341683 L31.1319475,7.51341683 Z M15.0218987,15.9274567 C14.4201783,15.3259765 13.4448516,15.3259765 12.8431312,15.9274567 L10.3904756,18.3801123 L9.43680219,17.4264388 C9.04672132,17.0372395 8.47863636,16.8857102 7.94653941,17.0289304 C7.41444246,17.1721507 6.99917172,17.588362 6.85715565,18.1207817 C6.71513958,18.6532013 6.8679538,19.220942 7.25803468,19.6101413 L8.21170813,20.5638147 L9.30109186,21.6531985 C9.90281226,22.2546786 10.878139,22.2546786 11.4798594,21.6531985 L12.5692431,20.5638147 L15.0218987,18.1111591 C15.6246248,17.5080276 15.6246248,16.5305882 15.0218987,15.9274567 L15.0218987,15.9274567 Z M31.1331812,17.247548 L20.0481155,17.247548 C19.195608,17.247548 18.5059528,17.9384369 18.5059528,18.7897107 C18.5059528,19.643452 19.1956079,20.3318734 20.0481155,20.3318734 L31.1331812,20.3318734 C31.984455,20.3318734 32.6753439,19.643452 32.6753439,18.7897107 C32.6753439,17.9384368 31.984455,17.247548 31.1331812,17.247548 L31.1331812,17.247548 Z"
          id="形状"></path>
</svg>
