<svg t="1712573744011" class="icon" viewBox="0 0 1024 1024" version="1.1" xmlns="http://www.w3.org/2000/svg" p-id="22617" width="200" height="200"><path d="M903.111111 14.222222H123.107556A71.310222 71.310222 0 0 0 51.996444 85.333333v853.333334c0 39.111111 32 71.111111 71.111112 71.111111H903.111111c39.111111 0 71.111111-32 71.111111-71.111111V85.333333c0-39.111111-32-71.111111-71.111111-71.111111z m0 924.330667l-0.113778 0.113778H123.221333l-0.113777-0.113778V85.447111L123.221333 85.333333h779.776l0.113778 0.113778v853.105778z" fill="#2c2c2c" fill-opacity=".65" p-id="22618"></path><path d="M373.219556 146.545778c-9.102222 0-18.204444 3.441778-25.116445 10.467555L291.555556 213.560889l-21.987556-22.016a35.527111 35.527111 0 1 0-50.232889 50.346667l21.987556 21.987555 25.116444 25.116445a35.527111 35.527111 0 0 0 50.232889 0l25.116444-25.116445 56.547556-56.547555a35.612444 35.612444 0 0 0-25.116444-60.785778zM769.763556 187.448889h-255.544889c-19.655111 0-35.555556 15.872-35.555556 35.555555 0 19.655111 15.900444 35.555556 35.555556 35.555556h255.573333c19.626667 0 35.555556-15.900444 35.555556-35.555556 0-19.683556-15.928889-35.555556-35.555556-35.555555z m-371.427556 193.991111a35.527111 35.527111 0 0 0-50.232889 0L291.555556 437.987556l-21.987556-21.987556a35.527111 35.527111 0 1 0-50.232889 50.346667l21.987556 21.987555 25.116444 25.116445a35.527111 35.527111 0 0 0 50.232889 0l25.116444-25.116445 56.547556-56.547555a35.612444 35.612444 0 0 0 0-50.346667z m371.456 30.435556h-255.573333c-19.655111 0-35.555556 15.928889-35.555556 35.555555 0 19.683556 15.900444 35.555556 35.555556 35.555556h255.573333c19.626667 0 35.555556-15.872 35.555556-35.555556 0-19.626667-15.928889-35.555556-35.555556-35.555555z" fill="#2c2c2c" fill-opacity=".65" p-id="22619"></path></svg>
