<svg width="40" height="44" xmlns="http://www.w3.org/2000/svg"><path d="M36.916 0H3.084A3.093 3.093 0 0 0 0 3.084v37.012a3.093 3.093 0 0 0 3.084 3.085h33.832A3.093 3.093 0 0 0 40 40.096V3.084A3.093 3.093 0 0 0 36.916 0zm0 40.091l-.005.005H3.089l-.005-.005V3.09l.005-.005h33.822l.005.005v37.002z"/><path d="M13.933 5.74c-.395 0-.79.149-1.09.453L10.39 8.646l-.953-.955a1.542 1.542 0 1 0-2.179 2.184l.954.953 1.09 1.09a1.54 1.54 0 0 0 2.178 0l1.09-1.09 2.452-2.452a1.545 1.545 0 0 0-1.09-2.637zm17.199 1.773H20.048a1.541 1.541 0 1 0 0 3.084h11.085a1.542 1.542 0 1 0 0-3.084h-.001zm-16.11 8.414a1.54 1.54 0 0 0-2.179 0L10.39 18.38l-.953-.954a1.542 1.542 0 0 0-2.179 2.184l.954.954 1.09 1.09a1.54 1.54 0 0 0 2.178 0l1.09-1.09 2.452-2.453a1.545 1.545 0 0 0 0-2.184zm16.111 1.32H20.048a1.542 1.542 0 1 0 0 3.085h11.085a1.541 1.541 0 1 0 0-3.084z"/></svg>