<svg width="40" height="37" xmlns="http://www.w3.org/2000/svg"><path d="M18.667 18.333c0-1.472-.521-2.729-1.563-3.77C16.063 13.52 14.806 13 13.334 13c-1.473 0-2.73.52-3.772 1.562C8.521 15.604 8 16.862 8 18.333c0 1.473.52 2.73 1.562 3.771 1.042 1.042 2.3 1.563 3.771 1.563 1.473 0 2.73-.521 3.771-1.563 1.042-1.042 1.563-2.298 1.563-3.77zm16 10.667c0-.722-.264-1.347-.792-1.875s-1.153-.792-1.875-.792-1.347.264-1.875.792-.792 1.153-.792 1.875c0 .736.26 1.365.782 1.885.52.521 1.149.782 1.885.782a2.57 2.57 0 0 0 1.885-.782c.521-.52.782-1.149.782-1.885zm0-21.333c0-.723-.264-1.348-.792-1.875C33.347 5.264 32.722 5 32 5s-1.347.264-1.875.792c-.528.527-.792 1.152-.792 1.875 0 .736.26 1.364.782 1.885.52.52 1.149.781 1.885.781a2.57 2.57 0 0 0 1.885-.78c.521-.522.782-1.15.782-1.886zm-8 8.77v3.855a.678.678 0 0 1-.146.406c-.097.132-.209.205-.334.219l-3.229.5A10.268 10.268 0 0 1 22.292 23a39.197 39.197 0 0 0 1.875 2.396.723.723 0 0 1 .145.416.535.535 0 0 1-.145.396c-.32.417-.893 1.039-1.72 1.865-.825.826-1.37 1.24-1.634 1.24a.751.751 0 0 1-.438-.146l-2.396-1.875a9.446 9.446 0 0 1-1.604.645c-.153 1.5-.313 2.577-.48 3.23-.096.333-.305.5-.624.5h-3.875a.635.635 0 0 1-.417-.157.537.537 0 0 1-.208-.364l-.48-3.188a9.137 9.137 0 0 1-1.562-.645l-2.458 1.854c-.097.097-.236.145-.417.145a.69.69 0 0 1-.437-.166c-2-1.847-3-2.959-3-3.334 0-.125.048-.256.146-.395.138-.195.423-.563.854-1.105.43-.541.757-.965.979-1.27-.32-.611-.563-1.18-.73-1.709l-3.166-.5a.514.514 0 0 1-.354-.198A.62.62 0 0 1 0 20.23v-3.854c0-.139.049-.274.146-.406.097-.132.208-.205.333-.219l3.23-.5c.152-.486.374-1.014.666-1.583A39.197 39.197 0 0 0 2.5 11.27a.795.795 0 0 1-.146-.417.61.61 0 0 1 .146-.416c.306-.417.875-1.035 1.708-1.855.834-.82 1.382-1.229 1.646-1.229.153 0 .299.049.438.146l2.396 1.875c.472-.25 1.006-.472 1.604-.667.152-1.5.312-2.57.479-3.208.097-.333.305-.5.625-.5h3.875c.153 0 .291.052.416.156a.537.537 0 0 1 .209.365l.479 3.187c.472.14.993.355 1.563.646L20.395 7.5a.61.61 0 0 1 .416-.146.69.69 0 0 1 .438.167c2 1.847 3 2.958 3 3.333a.698.698 0 0 1-.146.396c-.166.222-.458.597-.875 1.125-.416.528-.729.944-.937 1.25.32.667.555 1.236.708 1.708l3.167.48c.139.027.257.1.354.218a.62.62 0 0 1 .146.407zM40 27.543v2.916c0 .223-1.035.438-3.104.646a6.074 6.074 0 0 1-.625 1.084c.708 1.569 1.062 2.527 1.062 2.874 0 .056-.027.105-.083.146-1.694.986-2.556 1.48-2.583 1.48-.111 0-.43-.327-.959-.98-.527-.652-.889-1.125-1.083-1.416a6.882 6.882 0 0 1-.625.041c-.139 0-.347-.014-.625-.041-.194.291-.556.764-1.083 1.416-.528.653-.848.98-.959.98-.027 0-.889-.494-2.583-1.48-.056-.041-.083-.09-.083-.145 0-.348.354-1.306 1.062-2.876a6.074 6.074 0 0 1-.625-1.083c-2.07-.208-3.104-.423-3.104-.646v-2.916c0-.223 1.035-.438 3.104-.646.18-.403.39-.764.625-1.084-.708-1.569-1.062-2.527-1.062-2.875 0-.055.027-.104.083-.145.056-.028.299-.167.73-.417.43-.25.84-.486 1.228-.708.39-.223.598-.334.625-.334.111 0 .43.323.959.97.527.645.889 1.114 1.083 1.405.278-.027.486-.041.625-.041s.347.014.625.041c.708-.986 1.347-1.764 1.917-2.333l.125-.042c.055 0 .916.486 2.583 1.459.056.041.083.09.083.145 0 .348-.354 1.306-1.062 2.875.236.32.444.681.625 1.084 2.07.208 3.104.423 3.104.646zm0-21.334v2.917c0 .222-1.035.437-3.104.646a6.074 6.074 0 0 1-.625 1.083c.708 1.57 1.062 2.528 1.062 2.875 0 .056-.027.104-.083.146-1.694.986-2.556 1.48-2.583 1.48-.111 0-.43-.327-.959-.98-.527-.653-.889-1.125-1.083-1.417A6.882 6.882 0 0 1 32 13c-.139 0-.347-.014-.625-.042-.194.292-.556.764-1.083 1.417-.528.653-.848.98-.959.98-.027 0-.889-.494-2.583-1.48-.056-.042-.083-.09-.083-.146 0-.347.354-1.305 1.062-2.875a6.074 6.074 0 0 1-.625-1.083C25.034 9.562 24 9.347 24 9.125V6.208c0-.222 1.035-.437 3.104-.646.18-.402.39-.763.625-1.083-.708-1.57-1.062-2.528-1.062-2.875 0-.055.027-.104.083-.146.056-.027.299-.166.73-.416.43-.25.84-.486 1.228-.709.39-.222.598-.333.625-.333.111 0 .43.323.959.969.527.646.889 1.114 1.083 1.406.278-.028.486-.042.625-.042s.347.014.625.042c.708-.986 1.347-1.764 1.917-2.333L34.667 0c.055 0 .916.486 2.583 1.458.056.042.083.09.083.146 0 .347-.354 1.306-1.062 2.875.236.32.444.68.625 1.084 2.07.208 3.104.423 3.104.645z"/></svg>