<svg width="40" height="36" xmlns="http://www.w3.org/2000/svg"><path d="M14.8 14.1h24c.22 0 .4-.18.4-.4v-2.8c0-.22-.18-.4-.4-.4h-24c-.22 0-.4.18-.4.4v2.8c0 .22.18.4.4.4zm-.4 10.2c0 .22.18.4.4.4h24c.22 0 .4-.18.4-.4v-2.8c0-.22-.18-.4-.4-.4h-24c-.22 0-.4.18-.4.4v2.8zM39.6 0H.4C.18 0 0 .18 0 .4v2.8c0 .22.18.4.4.4h39.2c.22 0 .4-.18.4-.4V.4c0-.22-.18-.4-.4-.4zm0 31.6H.4c-.22 0-.4.18-.4.4v2.8c0 .22.18.4.4.4h39.2c.22 0 .4-.18.4-.4V32c0-.22-.18-.4-.4-.4zM1.52 24.105l7.815-6.155a.442.442 0 0 0 0-.695l-7.815-6.16a.444.444 0 0 0-.72.345v12.315a.445.445 0 0 0 .72.35z"/></svg>