<?xml version="1.0" encoding="UTF-8"?>
<svg width="42px" height="75px" viewBox="0 0 42 75" version="1.1" xmlns="http://www.w3.org/2000/svg"
>
    <title>help</title>


    <path d="M20,0 C8.77862595,0 0,8.77862595 0,20 L6.10687023,20 C6.10687023,12.0610687 12.0610687,6.10687023 20,6.10687023 C27.6335878,6.10687023 33.8931298,12.3664122 33.8931298,20 C33.8931298,26.4885496 29.8473282,30 21.4503817,36.6412214 L20.610687,37.3282443 C18.3206107,39.1603053 16.870229,42.2900763 16.870229,45.4198473 L16.870229,61.0687023 L22.9770992,61.0687023 L22.9770992,45.4198473 C22.9770992,44.1984733 23.5877863,42.7480916 24.4274809,42.1374046 L25.2671756,41.4503817 C33.5114504,34.8854962 40,29.6946565 40,20 C40,9.00763359 31.0687023,0 20,0 Z M16.870229,67.1755725 L22.9770992,67.1755725 L22.9770992,73.2824427 L16.870229,73.2824427 L16.870229,67.1755725 Z"
          id="形状"></path>


</svg>
