<svg t="1705571985818" class="icon" viewBox="0 0 1028 1024" version="1.1" xmlns="http://www.w3.org/2000/svg" p-id="19018" width="13" height="13"><path d="M983.678752 314.585575c-25.849513-60.781287-62.777388-115.474464-109.785575-162.482651s-101.701365-83.936062-162.482651-109.785575C648.433528 15.569591 581.663938 1.996101 512.998051 1.996101c-68.665887 0-135.435478 13.573489-198.412476 40.321248-60.781287 25.849513-115.474464 62.777388-162.482651 109.785575s-83.936062 101.701365-109.785575 162.482651C15.569591 377.562573 1.996101 444.332164 1.996101 512.998051c0 68.665887 13.573489 135.435478 40.321248 198.412475 25.849513 60.781287 62.777388 115.474464 109.785575 162.482651s101.701365 83.936062 162.482651 109.785575c62.976998 26.747758 129.746589 40.321248 198.412476 40.321248 68.665887 0 135.435478-13.573489 198.412475-40.321248 60.781287-25.849513 115.474464-62.777388 162.482651-109.785575s83.936062-101.701365 109.785575-162.482651c26.747758-62.976998 40.321248-129.746589 40.321248-198.412475 0-68.665887-13.573489-135.435478-40.321248-198.412476zM673.684211 894.752437c-51.00039 21.6577-105.094737 32.636257-160.68616 32.636257s-109.68577-10.978558-160.68616-32.636257c-49.403509-21.058869-93.816764-51.100195-131.9423-89.125926-38.125536-38.125536-68.067057-82.438986-89.125926-131.9423-21.6577-51.00039-32.636257-105.094737-32.636258-160.68616s10.978558-109.68577 32.636258-160.68616c21.058869-49.403509 51.100195-93.816764 89.125926-131.9423 38.125536-38.125536 82.438986-68.067057 131.9423-89.125926 51.00039-21.6577 105.094737-32.636257 160.68616-32.636258s109.68577 10.978558 160.68616 32.636258c49.403509 21.058869 93.816764 51.100195 131.9423 89.125926 38.125536 38.125536 68.067057 82.438986 89.125926 131.9423 21.6577 51.00039 32.636257 105.094737 32.636257 160.68616s-10.978558 109.68577-32.636257 160.68616c-21.058869 49.403509-51.100195 93.816764-89.125926 131.9423-38.125536 38.025731-82.538791 68.067057-131.9423 89.125926z" p-id="19019" fill="#080606"></path><path d="M476.868616 808.820273h74.554386c8.283821 0 14.97076-6.68694 14.97076-14.97076v-68.366472c0-8.283821-6.68694-14.97076-14.97076-14.97076h-74.554386c-8.283821 0-14.97076 6.68694-14.97076 14.97076v68.366472c0 8.283821 6.68694 14.97076 14.97076 14.97076zM687.557115 373.270955c-3.293567-51.299805-19.262378-90.922417-47.307602-117.869785-28.045224-26.947368-68.266667-41.119688-119.566472-42.217544h-0.998051c-58.585575 2.195712-104.096686 19.461988-135.235867 51.100195-31.039376 31.638207-47.906433 77.847953-50.102144 137.331774-0.299415 8.483431 6.487329 15.469786 14.97076 15.469785h65.272514c8.084211 0 14.77115-6.487329 14.970761-14.57154 1.896296-72.558285 30.440546-107.490058 90.024171-109.68577h1.297466c48.904483 2.095906 73.65614 26.947368 77.548538 77.947758 0 0.499025 0.099805 1.097856 0 1.596882-0.59883 26.548148-19.961014 59.0846-57.687329 96.810916-51.100195 48.904483-75.951657 93.118129-75.951657 135.036257v55.990643c0 8.283821 6.68694 14.97076 14.97076 14.970761h68.366472c8.283821 0 14.97076-6.68694 14.97076-14.970761v-65.272514c0-11.377778 7.8846-32.736062 45.211696-70.162963 52.497466-50.301754 79.145419-101.002729 79.145419-150.605848l0.099805-0.898246z" p-id="19020" fill="#080606"></path></svg>