<svg t="1715423626244" class="icon" viewBox="0 0 1024 1024" version="1.1" xmlns="http://www.w3.org/2000/svg" p-id="5009" width="24" height="32"><path d="M512 128c-117.6 0-209.6 92-209.6 209.6h64C366.4 254.4 428.8 192 512 192c80 0 145.6 65.6 145.6 145.6 0 68-42.4 104.8-130.4 174.4l-8.8 7.2c-24 19.2-39.2 52-39.2 84.8V768h64V604c0-12.8 6.4-28 15.2-34.4l8.8-7.2c86.4-68.8 154.4-123.2 154.4-224.8C721.6 222.4 628 128 512 128zM479.2 832h64v64h-64z" p-id="5010"  stroke="#000" stroke-width="32" stroke-linecap="round"></path></svg>