<svg t="1716532026891" class="icon" viewBox="0 0 1024 1024" version="1.1" xmlns="http://www.w3.org/2000/svg" p-id="91145" width="200" height="200"><path d="M480 192c-17.7 0-32 14.3-32 32l0 320c0 17.7 14.3 32 32 32l256 0c17.7 0 32-14.3 32-32s-14.3-32-32-32L512 512l0-288C512 206.3 497.7 192 480 192z" p-id="91146" fill="#2c2c2c"></path><path d="M983.8 312.7c-25.8-61-62.7-115.7-109.7-162.7-47-47-101.8-83.9-162.7-109.7-63.1-26.7-130.2-40.2-199.3-40.2-105.3 0-206.5 31.7-292.6 91.8C177.9 120.7 141 155.5 109.7 195.2c-17.1 21.7-32.4 44.7-45.7 68.7l0-104c0-17.7-14.3-32-32-32s-32 14.3-32 32l0 192c0 17.7 14.3 32 32 32l160 0c17.7 0 32-14.3 32-32s-14.3-32-32-32l-84.9 0c73.5-154.4 232.3-256 404.9-256 247 0 448 201 448 448s-201 448-448 448c-224.8 0-415.8-167.9-444.3-390.4-2.2-17.5-18.3-29.9-35.8-27.7-17.5 2.2-29.9 18.3-27.7 35.8 15.7 122.5 75.5 235.3 168.3 317.6 93.7 83 214.2 128.7 339.5 128.7 69.1 0 136.2-13.5 199.3-40.2 61-25.8 115.7-62.7 162.7-109.7 47-47 83.9-101.8 109.7-162.7 26.7-63.1 40.2-130.2 40.2-199.3S1010.5 375.8 983.8 312.7z" p-id="91147" fill="#2c2c2c"></path></svg>
