<svg width="40" height="40" xmlns="http://www.w3.org/2000/svg"><path d="M18.752 7.497c-.692 0-1.25.558-1.25 1.25v12.501c0 .692.558 1.25 1.25 1.25h10c.692 0 1.25-.558 1.25-1.25 0-.691-.558-1.25-1.25-1.25h-8.75V8.747c0-.692-.559-1.25-1.25-1.25z"/><path d="M38.433 12.212a19.924 19.924 0 0 0-4.285-6.356 19.967 19.967 0 0 0-6.356-4.286A19.875 19.875 0 0 0 20.006 0a19.872 19.872 0 0 0-11.43 3.586 19.844 19.844 0 0 0-4.29 4.036A20.01 20.01 0 0 0 2.5 10.306V6.243c0-.692-.558-1.25-1.25-1.25C.56 4.993 0 5.55 0 6.243v7.5c0 .692.559 1.25 1.25 1.25H7.5c.692 0 1.25-.558 1.25-1.25 0-.69-.558-1.25-1.25-1.25H4.185c2.871-6.031 9.075-10 15.818-10 9.65 0 17.502 7.852 17.502 17.501 0 9.65-7.853 17.502-17.502 17.502-8.782 0-16.244-6.56-17.357-15.252a1.252 1.252 0 0 0-1.399-1.082 1.252 1.252 0 0 0-1.082 1.399A19.986 19.986 0 0 0 6.74 34.968a19.98 19.98 0 0 0 13.263 5.028 19.924 19.924 0 0 0 14.142-5.856 19.967 19.967 0 0 0 4.286-6.356A19.875 19.875 0 0 0 40 19.998c0-2.7-.523-5.32-1.567-7.786z"/></svg>