<?xml version="1.0" standalone="no"?><!DOCTYPE svg PUBLIC "-//W3C//DTD SVG 1.1//EN" "http://www.w3.org/Graphics/SVG/1.1/DTD/svg11.dtd"><svg t="1584947144629" class="icon" viewBox="0 0 1024 1024" version="1.1" xmlns="http://www.w3.org/2000/svg" p-id="7953" xmlns:xlink="http://www.w3.org/1999/xlink" width="200" height="200"><defs><style type="text/css"></style></defs><path d="M950.857143 512q0 89.142857-34.857143 170.285714t-93.714286 140-140 93.714286-170.285714 34.857143q-98.285714 0-186.857143-41.428571t-150.857143-116.857143q-4-5.714286-3.714286-12.857143t4.857143-11.714286l78.285714-78.857143q5.714286-5.142857 14.285714-5.142857 9.142857 1.142857 13.142857 6.857143 41.714286 54.285714 102.285714 84t128.571429 29.714286q59.428571 0 113.428571-23.142857t93.428571-62.571429 62.571429-93.428571 23.142857-113.428571-23.142857-113.428571-62.571429-93.428571-93.428571-62.571429-113.428571-23.142857q-56 0-107.428571 20.285714t-91.428571 58l78.285714 78.857143q17.714286 17.142857 8 39.428571-9.714286 22.857143-33.714286 22.857143l-256 0q-14.857143 0-25.714286-10.857143t-10.857143-25.714286l0-256q0-24 22.857143-33.714286 22.285714-9.714286 39.428571 8l74.285714 73.714286q61.142857-57.714286 139.714286-89.428571t162.571429-31.714286q89.142857 0 170.285714 34.857143t140 93.714286 93.714286 140 34.857143 170.285714zm-365.714286-164.571429l0 256q0 8-5.142857 13.142857t-13.142857 5.142857l-182.857143 0q-8 0-13.142857-5.142857t-5.142857-13.142857l0-36.571429q0-8 5.142857-13.142857t13.142857-5.142857l128 0 0-201.142857q0-8 5.142857-13.142857t13.142857-5.142857l36.571429 0q8 0 13.142857 5.142857t5.142857 13.142857z" p-id="7954"></path></svg>