<?xml version="1.0" standalone="no"?><!DOCTYPE svg PUBLIC "-//W3C//DTD SVG 1.1//EN" "http://www.w3.org/Graphics/SVG/1.1/DTD/svg11.dtd"><svg t="1685091038802" class="icon" viewBox="0 0 1024 1024" version="1.1" xmlns="http://www.w3.org/2000/svg" p-id="1805" xmlns:xlink="http://www.w3.org/1999/xlink" width="200" height="200"><path d="M511.99936 0c5.247993 0 10.495987 0.085333 15.74398 0.256L511.99936 0a517.588686 517.588686 0 0 1 33.066625 1.066665l1.194666 0.085334C813.054984 18.77331 1023.99872 240.767699 1023.99872 511.99936c0 171.690452-84.479894 323.626262-214.186399 416.511479l10.367987-7.594657a513.706025 513.706025 0 0 1-143.957153 76.159905A507.818032 507.818032 0 0 1 511.99936 1023.99872C229.247713 1023.99872 0 794.751007 0 511.99936c0-136.533163 53.4186-260.565008 140.501158-352.340893l3.370662-3.498662 3.370663-3.413329-6.741325 6.911991a515.199356 515.199356 0 0 1 139.349159-104.106536l2.303997-1.194666A510.036696 510.036696 0 0 1 511.828694 0H511.99936z m167.125124 119.295851l-5.247993 7.765324c-31.359961 48.213273-43.647945 101.759873-53.6746 121.173181-19.02931 36.821287-59.733259 43.989278-102.911871 54.485266-43.135946 10.495987-57.855928 148.821147-25.173302 180.053108 21.759973 20.821307 8.703989 39.253284-39.253284 55.338597-54.783932-60.927924-88.447889-95.658547-100.949207-104.234536-18.77331-12.842651-96.511879-54.101266-107.861199-76.117238s0-95.701214-14.079982-135.679831a50.346604 50.346604 0 0 0-12.671984-18.51731A425.044802 425.044802 0 0 0 85.333227 511.99936c0 235.647705 191.018428 426.666133 426.666133 426.666133 11.775985 0 23.423971-0.469333 34.943956-1.407998 7.67999-45.994609 11.690652-86.143892 3.626662-104.021203-25.343968-56.149263-47.061275-119.167851-72.277243-158.719802-25.173302-39.551951 5.205327-59.946592 60.031925-120.575849 54.826598-60.586591 94.591882-41.727948 153.471809 9.301322 58.83726 50.986603 79.7439 15.957313 121.770514 24.831969 24.06397 5.077327 31.061295 100.863874 24.746636 198.783751A424.874136 424.874136 0 0 0 938.665493 511.99936c0-176.341113-106.9652-327.67959-259.541009-392.703509zM511.99936 85.333227c-81.919898 0-159.9998 23.125304-226.90105 65.194585 11.221319 12.885317 19.669309 27.093299 25.343969 43.178613 8.661323 24.533303 11.605319 49.493271 12.586651 83.882561 0.170666 6.442659 0.256 11.178653 0.383999 22.399972l0.256 15.829314c1.791998 1.279998 3.754662 2.559997 5.802659 3.967995 4.479994 2.986663 9.471988 6.186659 15.018648 9.685321 6.186659 3.839995 35.242623 21.205307 49.237272 29.909296 12.373318-66.303917 47.573274-125.994509 103.423871-139.562492 3.327996-0.853332 6.826658-1.663998 13.141316-3.157329 19.541309-4.693327 28.757297-7.381324 34.64529-10.069321 4.863994-13.866649 28.159965-72.021243 44.799944-101.589207 2.133331-3.839995 4.351995-7.637324 6.613326-11.349319A429.311463 429.311463 0 0 0 511.99936 85.333227z m231.167711 785.364351a951.465477 951.465477 0 0 0 11.989318-156.71447c-0.085333-13.525316-0.554666-26.026634-1.322665-37.119954-40.618616 0.341333-76.799904-13.48265-117.930519-49.151939a277.67432 277.67432 0 0 0-28.586631-22.442638 133.333167 133.333167 0 0 0-5.717326 5.887992c-6.271992 6.954658-26.4533 28.543964-37.717286 40.831949 8.959989 16.767979 17.919978 36.095955 28.159965 60.330592 4.778661 11.093319 21.503973 51.498602 20.522641 49.194605 6.143992 14.719982 11.050653 26.111967 15.786647 36.607954 14.719982 32.554626 16.426646 64.042587 7.93599 122.197181a423.67947 423.67947 0 0 0 106.879866-49.621272z" fill="#191919" p-id="1806"></path></svg>