<svg t="1730113499097" class="icon" viewBox="0 0 1024 1024" version="1.1" xmlns="http://www.w3.org/2000/svg" p-id="1649"
     width="200" height="200">
    <path d="M512 0C229.234286 0 0 229.234286 0 512s229.234286 512 512 512 512-229.234286 512-512S794.765714 0 512 0zM109.714286 512a400.514286 400.514286 0 0 1 81.68-243.017143l563.622857 563.622857A400.514286 400.514286 0 0 1 512 914.285714C289.828571 914.285714 109.714286 734.171429 109.714286 512z m722.891428 243.017143L268.982857 191.394286A400.514286 400.514286 0 0 1 512 109.714286c222.171429 0 402.285714 180.114286 402.285714 402.285714a400.514286 400.514286 0 0 1-81.68 243.017143z"
          p-id="1650"></path>
</svg>
