<svg width="40" height="34" xmlns="http://www.w3.org/2000/svg"><path d="M26.64 18.337h8.23a6.298 6.298 0 0 1-.067-.207 6.299 6.299 0 0 0-.066-.207l-5.52-12.916H10.78L5.26 17.923c-.018.036-.04.105-.067.207a1.243 1.243 0 0 1-.066.207h8.23l2.473 5h8.333l2.477-5zm13.36.78V31.67c0 .451-.164.842-.493 1.173-.33.331-.72.496-1.174.494H1.667a1.61 1.61 0 0 1-1.174-.494A1.586 1.586 0 0 1 0 31.67V19.117c0-1.076.217-2.144.65-3.204L6.847 1.537c.173-.434.49-.798.95-1.094C8.257.148 8.712 0 9.163 0H30.83c.451 0 .907.148 1.367.443.46.296.776.66.95 1.094l6.196 14.376c.434 1.06.65 2.128.65 3.204H40z"/></svg>