<?xml version="1.0" encoding="UTF-8"?>
<svg width="40px" height="34px" viewBox="0 0 40 34" version="1.1" xmlns="http://www.w3.org/2000/svg"
>
    <path d="M26.6400147,18.3366465 L34.8700057,18.3366465 C34.8522279,18.2855354 34.8300057,18.2166466 34.8033391,18.1299801 C34.7766724,18.0433135 34.7544502,17.9744247 34.7366725,17.9233136 L29.2166786,5.00666122 L10.7800322,5.00666122 L5.26003832,17.9233136 C5.24226056,17.9588692 5.22003836,18.027758 5.19337173,18.1299801 C5.16670511,18.2322022 5.14448291,18.301091 5.12670515,18.3366465 L13.3566961,18.3366465 L15.8300267,23.336641 L24.1633508,23.336641 L26.6400147,18.3366465 Z M40,19.1166456 L40,31.6699651 C40,32.1210757 39.8355557,32.5121864 39.5066672,32.8432972 C39.1777787,33.1744079 38.786668,33.3388522 38.3333351,33.3366522 L1.66670886,33.3366522 C1.21559824,33.3366522 0.824487557,33.1721857 0.493376802,32.8432972 C0.162266047,32.5144086 -0.00217821887,32.123298 2.17829574e-05,31.6699651 L2.17829574e-05,19.1166456 C2.17829574e-05,18.0410912 0.216710431,16.9733146 0.650043283,15.9133158 L6.8467031,1.53666497 C7.02003625,1.10333212 7.33670256,0.738888075 7.79670204,0.443332845 C8.25670152,0.147777615 8.71225657,0 9.16336719,0 L30.83001,0 C31.2811206,0 31.7366756,0.147777615 32.1966751,0.443332845 C32.6566746,0.738888075 32.9733409,1.10333212 33.146674,1.53666497 L39.3433339,15.9133158 C39.7766667,16.9733146 39.9933331,18.0410912 39.9933331,19.1166456 L40,19.1166456 Z"
          id="形状"></path>
</svg>
