<svg width="40px" height="40px" viewBox="0 0 40 40" version="1.1" xmlns="http://www.w3.org/2000/svg"
>
    <path d="M20,40 C8.955,40 0,31.045 0,20 C0,8.955 8.955,0 20,0 C31.045,0 40,8.955 40,20 C40,31.045 31.045,40 20,40 Z M20,36.6666667 C29.205,36.6666667 36.6666667,29.205 36.6666667,20 C36.6666667,10.795 29.205,3.33333332 20,3.33333332 C10.795,3.33333332 3.33333332,10.795 3.33333332,20 C3.33333332,29.205 10.795,36.6666667 20,36.6666667 Z M18.3333333,18.3333333 C18.3333333,17.4128587 19.0795254,16.6666666 20,16.6666666 C20.9204746,16.6666666 21.6666667,17.4128587 21.6666667,18.3333333 L21.6666667,30 C21.6666667,30.9204746 20.9204746,31.6666666 20,31.6666666 C19.0795254,31.6666666 18.3333333,30.9204746 18.3333333,30 L18.3333333,18.3333333 L18.3333333,18.3333333 Z M19.8333333,13 C18.5446689,13 17.5,11.9553311 17.5,10.6666667 C17.5,9.37800224 18.5446689,8.33333332 19.8333333,8.33333332 C21.1219977,8.33333332 22.1666667,9.37800224 22.1666667,10.6666667 C22.1666667,11.9553311 21.1219977,13 19.8333333,13 L19.8333333,13 Z"
          id="形状"></path>
</svg>
