<?xml version="1.0" encoding="UTF-8"?>
<svg width="40px" height="39px" viewBox="0 0 40 39" version="1.1" xmlns="http://www.w3.org/2000/svg"
>
    <title>key</title>


    <path d="M37.3489926,0.587559194 C38.1284112,1.36721323 38.1284112,2.63103249 37.3489926,3.41068652 L35.2885489,5.47312678 L39.4114328,9.56606243 C39.7881771,9.94079198 40,10.4502451 40,10.9816192 C40,11.5129933 39.7881771,12.0224464 39.4114328,12.397176 L33.0883464,18.686321 C32.3096155,19.4604321 31.0519361,19.4604321 30.2732053,18.686321 L26.1623006,14.5973784 L21.4823781,19.277301 C23.6152508,22.1715193 24.3174871,25.8780927 23.3910837,29.3519123 L21.4624126,28.8368014 L23.3910837,29.3519123 C22.2848312,33.4789026 19.0518761,36.6966186 14.9197052,37.7833598 C10.7861618,38.8768446 6.38324714,37.6819308 3.36964043,34.64877 L3.353668,34.6327976 C-1.17408159,29.9784403 -1.10906436,22.5459904 3.49941644,17.9715547 C7.54410603,13.9575986 13.8570428,13.3496861 18.5933645,16.5180634 L34.5258652,0.58556264 C34.9003554,0.210655638 35.4085233,0 35.9384272,0 C36.4683311,0 36.976499,0.210655638 37.3509891,0.58556264 L37.3489926,0.587559194 Z M17.5012495,20.7567475 C14.3837135,17.7174001 9.40484743,17.7396152 6.31455754,20.8066613 C3.26067509,23.8361035 3.21437298,28.7592638 6.21073674,31.8456083 C8.21897421,33.8596593 11.1479195,34.6516157 13.8974695,33.9240209 C16.6437428,33.2030319 18.7931506,31.065815 19.5297483,28.323687 C20.2503535,25.6201128 19.4775598,22.7373491 17.5012495,20.7567475 L17.5012495,20.7567475 Z M29.0892488,11.882065 L31.6767827,14.4576197 L35.1707522,10.9836158 L32.5812217,8.40806112 L29.0912453,11.882065 L29.0892488,11.882065 Z"
          id="形状" fill="#646A73"></path>
    <path d="M37.3489926,0.587559194 C38.1284112,1.36721323 38.1284112,2.63103249 37.3489926,3.41068652 L35.2885489,5.47312678 L39.4114328,9.56606243 C39.7881771,9.94079198 40,10.4502451 40,10.9816192 C40,11.5129933 39.7881771,12.0224464 39.4114328,12.397176 L33.0883464,18.686321 C32.3096155,19.4604321 31.0519361,19.4604321 30.2732053,18.686321 L26.1623006,14.5973784 L21.4823781,19.277301 C23.6152508,22.1715193 24.3174871,25.8780927 23.3910837,29.3519123 L21.4624126,28.8368014 L23.3910837,29.3519123 C22.2848312,33.4789026 19.0518761,36.6966186 14.9197052,37.7833598 C10.7861618,38.8768446 6.38324714,37.6819308 3.36964043,34.64877 L3.353668,34.6327976 C-1.17408159,29.9784403 -1.10906436,22.5459904 3.49941644,17.9715547 C7.54410603,13.9575986 13.8570428,13.3496861 18.5933645,16.5180634 L34.5258652,0.58556264 C34.9003554,0.210655638 35.4085233,0 35.9384272,0 C36.4683311,0 36.976499,0.210655638 37.3509891,0.58556264 L37.3489926,0.587559194 Z M17.5012495,20.7567475 C14.3837135,17.7174001 9.40484743,17.7396152 6.31455754,20.8066613 C3.26067509,23.8361035 3.21437298,28.7592638 6.21073674,31.8456083 C8.21897421,33.8596593 11.1479195,34.6516157 13.8974695,33.9240209 C16.6437428,33.2030319 18.7931506,31.065815 19.5297483,28.323687 C20.2503535,25.6201128 19.4775598,22.7373491 17.5012495,20.7567475 L17.5012495,20.7567475 Z M29.0892488,11.882065 L31.6767827,14.4576197 L35.1707522,10.9836158 L32.5812217,8.40806112 L29.0912453,11.882065 L29.0892488,11.882065 Z"
          id="形状" fill-opacity="0.2" fill="#000000"></path>


</svg>
