<svg width="40" height="39" xmlns="http://www.w3.org/2000/svg"><path d="M37.349.588c.78.78.78 2.043 0 2.823l-2.06 2.062 4.122 4.093a1.997 1.997 0 0 1 0 2.831l-6.323 6.29a1.997 1.997 0 0 1-2.815 0l-4.11-4.09-4.68 4.68a11.84 11.84 0 0 1 1.908 10.075l-1.929-.515 1.93.515a11.905 11.905 0 0 1-8.472 8.431A11.967 11.967 0 0 1 3.37 34.65l-.016-.016c-4.528-4.655-4.463-12.087.145-16.661a11.975 11.975 0 0 1 15.094-1.454L34.526.586a1.997 1.997 0 0 1 2.825 0l-.002.002zM17.501 20.757a7.976 7.976 0 0 0-11.186.05 7.848 7.848 0 0 0-.104 11.039 7.974 7.974 0 0 0 7.686 2.078 7.912 7.912 0 0 0 5.633-5.6 7.85 7.85 0 0 0-2.029-7.567zm11.588-8.875l2.588 2.576 3.494-3.474-2.59-2.576-3.49 3.474h-.002z" fill="currentColor"/><path d="M37.349.588c.78.78.78 2.043 0 2.823l-2.06 2.062 4.122 4.093a1.997 1.997 0 0 1 0 2.831l-6.323 6.29a1.997 1.997 0 0 1-2.815 0l-4.11-4.09-4.68 4.68a11.84 11.84 0 0 1 1.908 10.075l-1.929-.515 1.93.515a11.905 11.905 0 0 1-8.472 8.431A11.967 11.967 0 0 1 3.37 34.65l-.016-.016c-4.528-4.655-4.463-12.087.145-16.661a11.975 11.975 0 0 1 15.094-1.454L34.526.586a1.997 1.997 0 0 1 2.825 0l-.002.002zM17.501 20.757a7.976 7.976 0 0 0-11.186.05 7.848 7.848 0 0 0-.104 11.039 7.974 7.974 0 0 0 7.686 2.078 7.912 7.912 0 0 0 5.633-5.6 7.85 7.85 0 0 0-2.029-7.567zm11.588-8.875l2.588 2.576 3.494-3.474-2.59-2.576-3.49 3.474h-.002z" fill-opacity=".2" fill="currentColor"/></svg>