<svg xmlns="http://www.w3.org/2000/svg" viewBox="0 0 24 24"><path fill="#646A73" d="M20.707 2.793a1 1 0 0 1 0 1.414L19.675 5.24 21.74 7.29a1 1 0 0 1 0 1.418l-3.167 3.15a1 1 0 0 1-1.41 0l-2.059-2.048-2.344 2.344a5.93 5.93 0 0 1 .956 5.046l-.966-.258.966.258a5.963 5.963 0 0 1-4.243 4.223 5.994 5.994 0 0 1-5.785-1.57l-.008-.008a5.931 5.931 0 0 1 .073-8.345 5.998 5.998 0 0 1 7.56-.728l7.98-7.98a1 1 0 0 1 1.415 0Zm-9.941 10.102a3.995 3.995 0 0 0-5.603.025 3.931 3.931 0 0 0-.052 5.529 3.994 3.994 0 0 0 3.85 1.041 3.963 3.963 0 0 0 2.821-2.805 3.932 3.932 0 0 0-1.016-3.79ZM16.57 8.45l1.296 1.29L19.616 8l-1.297-1.29-1.748 1.74Z" clip-rule="evenodd" fill-rule="evenodd"/><path fill-opacity=".2" fill="#000" d="M20.707 2.793a1 1 0 0 1 0 1.414L19.675 5.24 21.74 7.29a1 1 0 0 1 0 1.418l-3.167 3.15a1 1 0 0 1-1.41 0l-2.059-2.048-2.344 2.344a5.93 5.93 0 0 1 .956 5.046l-.966-.258.966.258a5.963 5.963 0 0 1-4.243 4.223 5.994 5.994 0 0 1-5.785-1.57l-.008-.008a5.931 5.931 0 0 1 .073-8.345 5.998 5.998 0 0 1 7.56-.728l7.98-7.98a1 1 0 0 1 1.415 0Zm-9.941 10.102a3.995 3.995 0 0 0-5.603.025 3.931 3.931 0 0 0-.052 5.529 3.994 3.994 0 0 0 3.85 1.041 3.963 3.963 0 0 0 2.821-2.805 3.932 3.932 0 0 0-1.016-3.79ZM16.57 8.45l1.296 1.29L19.616 8l-1.297-1.29-1.748 1.74Z" clip-rule="evenodd" fill-rule="evenodd"/></svg>