<!-- <svg xmlns="http://www.w3.org/2000/svg" viewBox="0 0 24 24"><path stroke-linejoin="round" stroke-linecap="round" stroke-width="2" stroke="#646A73" d="M13 18H3a1 1 0 0 1-1-1V4a1 1 0 0 1 1-1h18a1 1 0 0 1 1 1v13a1 1 0 0 1-1 1h-4"/><path stroke-linejoin="round" stroke-linecap="round" stroke-width="2" stroke-opacity=".2" stroke="#000" d="M13 18H3a1 1 0 0 1-1-1V4a1 1 0 0 1 1-1h18a1 1 0 0 1 1 1v13a1 1 0 0 1-1 1h-4"/><path stroke-linejoin="round" stroke-linecap="round" stroke-width="2" stroke="#646A73" d="M6 7h12"/><path stroke-linejoin="round" stroke-linecap="round" stroke-width="2" stroke-opacity=".2" stroke="#000" d="M6 7h12"/><path stroke-linejoin="round" stroke-linecap="round" stroke-width="2" stroke="#646A73" d="M6 10.5h3"/><path stroke-linejoin="round" stroke-linecap="round" stroke-width="2" stroke-opacity=".2" stroke="#000" d="M6 10.5h3"/><path stroke-linejoin="round" stroke-linecap="round" stroke-width="2" stroke="#646A73" d="M6 14h2"/><path stroke-linejoin="round" stroke-linecap="round" stroke-width="2" stroke-opacity=".2" stroke="#000" d="M6 14h2"/><path stroke-width="2" stroke="#646A73" d="M15 16.5a3 3 0 1 0 0-6 3 3 0 0 0 0 6Z"/><path stroke-width="2" stroke-opacity=".2" stroke="#000" d="M15 16.5a3 3 0 1 0 0-6 3 3 0 0 0 0 6Z"/><path stroke-linejoin="round" stroke-linecap="round" stroke-width="2" stroke="#646A73" d="m15 20 2 1v-5.264s-.57.764-2 .764c-1.43 0-2-.75-2-.75V21l2-1Z"/><path stroke-linejoin="round" stroke-linecap="round" stroke-width="2" stroke-opacity=".2" stroke="#000" d="m15 20 2 1v-5.264s-.57.764-2 .764c-1.43 0-2-.75-2-.75V21l2-1Z"/></svg> -->

<svg t="1676622059205" class="icon" viewBox="0 0 1169 1024" version="1.1" xmlns="http://www.w3.org/2000/svg" p-id="19169" width="200" height="200"><path d="M1143.167174 331.771389L914.130282 48.118294A125.781637 125.781637 0 0 0 816.329175 0.002241H354.519672a122.008562 122.008562 0 0 0-97.801107 48.116053L27.681673 331.771389a125.183922 125.183922 0 0 0 6.201292 164.035393l463.229077 488.407818 6.201292 6.163935a127.836282 127.836282 0 0 0 85.435879 33.28525h3.735718a131.833501 131.833501 0 0 0 87.901453-39.449185l453.142637-487.175031a127.313282 127.313282 0 0 0 9.899653-165.26818z m-69.334933 107.289831l-453.142636 487.175031a40.308401 40.308401 0 0 1-29.885747 12.32787 53.532844 53.532844 0 0 1-29.885747-9.862296L95.410247 437.828433a41.092902 41.092902 0 0 1-2.465574-54.279988l226.571318-283.653095a45.575764 45.575764 0 0 1 33.434679-16.026231H814.760173a45.575764 45.575764 0 0 1 33.43468 16.026231l229.036892 283.653095a44.604477 44.604477 0 0 1-3.735718 55.475418z" p-id="19170" fill="#000000"></path><path d="M806.392164 416.871053l-216.671664 229.410464-222.872957-234.341612a44.268263 44.268263 0 0 0-60.668067-2.465575 43.296976 43.296976 0 0 0-2.465574 57.978349l224.143102 235.5744 3.735718 3.735718a85.54795 85.54795 0 0 0 118.870558-3.735718l216.671665-234.304255a40.868759 40.868759 0 0 0-2.465574-57.978349 42.811332 42.811332 0 0 0-58.277207 6.126578z" p-id="19171" fill="#000000"></path></svg>