<svg width="40" height="36" xmlns="http://www.w3.org/2000/svg"><path d="M39.108 11.35l-7.836-9.704A4.304 4.304 0 0 0 27.926 0h-15.8a4.174 4.174 0 0 0-3.345 1.646L.945 11.351a4.283 4.283 0 0 0 .212 5.611l15.848 16.71.212.21a4.374 4.374 0 0 0 2.923 1.14h.128a4.51 4.51 0 0 0 3.007-1.35l15.503-16.667a4.356 4.356 0 0 0 .339-5.654h-.009zm-2.372 3.671L21.233 31.688c-.267.277-.638.43-1.022.422a1.831 1.831 0 0 1-1.023-.337L3.262 14.979a1.406 1.406 0 0 1-.084-1.857l7.751-9.704a1.56 1.56 0 0 1 1.144-.549h15.8a1.56 1.56 0 0 1 1.143.549l7.836 9.704a1.526 1.526 0 0 1-.128 1.898l.012.001z"/><path d="M27.586 14.262l-7.412 7.849-7.625-8.018a1.514 1.514 0 0 0-2.076-.084 1.481 1.481 0 0 0-.084 1.983l7.668 8.06.128.128a2.927 2.927 0 0 0 4.067-.128l7.412-8.016a1.398 1.398 0 0 0-.084-1.984 1.465 1.465 0 0 0-1.994.21z"/></svg>