<svg xmlns="http://www.w3.org/2000/svg" viewBox="0 0 24 24"><path fill="#646A73" d="M8 3a1 1 0 0 1 1-1h8a1 1 0 0 1 1 1v3a1 1 0 0 1-1 1H9a1 1 0 0 1-1-1V3Zm2 1v1h6V4h-6Z" clip-rule="evenodd" fill-rule="evenodd"/><path fill-opacity=".2" fill="#000" d="M8 3a1 1 0 0 1 1-1h8a1 1 0 0 1 1 1v3a1 1 0 0 1-1 1H9a1 1 0 0 1-1-1V3Zm2 1v1h6V4h-6Z" clip-rule="evenodd" fill-rule="evenodd"/><path fill="#646A73" d="M8 10.5a1 1 0 0 1 1-1h10a1 1 0 0 1 1 1v3a1 1 0 0 1-1 1H9a1 1 0 0 1-1-1v-3Zm2 1v1h8v-1h-8Z" clip-rule="evenodd" fill-rule="evenodd"/><path fill-opacity=".2" fill="#000" d="M8 10.5a1 1 0 0 1 1-1h10a1 1 0 0 1 1 1v3a1 1 0 0 1-1 1H9a1 1 0 0 1-1-1v-3Zm2 1v1h8v-1h-8Z" clip-rule="evenodd" fill-rule="evenodd"/><path fill="#646A73" d="M8 18a1 1 0 0 1 1-1h13a1 1 0 0 1 1 1v3a1 1 0 0 1-1 1H9a1 1 0 0 1-1-1v-3Zm2 1v1h11v-1H10Z" clip-rule="evenodd" fill-rule="evenodd"/><path fill-opacity=".2" fill="#000" d="M8 18a1 1 0 0 1 1-1h13a1 1 0 0 1 1 1v3a1 1 0 0 1-1 1H9a1 1 0 0 1-1-1v-3Zm2 1v1h11v-1H10Z" clip-rule="evenodd" fill-rule="evenodd"/><path fill="#646A73" d="M2 4.5a2 2 0 1 1 4 0 2 2 0 0 1-4 0Z" clip-rule="evenodd" fill-rule="evenodd"/><path fill-opacity=".2" fill="#000" d="M2 4.5a2 2 0 1 1 4 0 2 2 0 0 1-4 0Z" clip-rule="evenodd" fill-rule="evenodd"/><path fill="#646A73" d="M2 12a2 2 0 1 1 4 0 2 2 0 0 1-4 0Z" clip-rule="evenodd" fill-rule="evenodd"/><path fill-opacity=".2" fill="#000" d="M2 12a2 2 0 1 1 4 0 2 2 0 0 1-4 0Z" clip-rule="evenodd" fill-rule="evenodd"/><path fill="#646A73" d="M2 19.5a2 2 0 1 1 4 0 2 2 0 0 1-4 0Z" clip-rule="evenodd" fill-rule="evenodd"/><path fill-opacity=".2" fill="#000" d="M2 19.5a2 2 0 1 1 4 0 2 2 0 0 1-4 0Z" clip-rule="evenodd" fill-rule="evenodd"/></svg>