<svg width="40" height="39" xmlns="http://www.w3.org/2000/svg"><path d="M11.429 1.905C11.429.853 12.28 0 13.333 0h15.238c1.052 0 1.905.853 1.905 1.905v5.714a1.905 1.905 0 0 1-1.905 1.905H13.333a1.905 1.905 0 0 1-1.904-1.905V1.905zm3.81 1.905v1.904h11.428V3.81H15.238z" fill="currentColor"/><path d="M11.429 1.905C11.429.853 12.28 0 13.333 0h15.238c1.052 0 1.905.853 1.905 1.905v5.714a1.905 1.905 0 0 1-1.905 1.905H13.333a1.905 1.905 0 0 1-1.904-1.905V1.905zm3.81 1.905v1.904h11.428V3.81H15.238z" fill-opacity=".2" fill="currentColor"/><path d="M11.429 16.19c0-1.051.852-1.904 1.904-1.904h19.048c1.052 0 1.905.853 1.905 1.904v5.715a1.905 1.905 0 0 1-1.905 1.905H13.333a1.905 1.905 0 0 1-1.904-1.905V16.19zm3.81 1.905V20h15.237v-1.905H15.238z" fill="currentColor"/><path d="M11.429 16.19c0-1.051.852-1.904 1.904-1.904h19.048c1.052 0 1.905.853 1.905 1.904v5.715a1.905 1.905 0 0 1-1.905 1.905H13.333a1.905 1.905 0 0 1-1.904-1.905V16.19zm3.81 1.905V20h15.237v-1.905H15.238z" fill-opacity=".2" fill="currentColor"/><path d="M11.429 30.476c0-1.052.852-1.905 1.904-1.905h24.762c1.052 0 1.905.853 1.905 1.905v5.714a1.905 1.905 0 0 1-1.905 1.905H13.333a1.905 1.905 0 0 1-1.904-1.905v-5.714zm3.81 1.905v1.905H36.19V32.38H15.238z" fill="currentColor"/><path d="M11.429 30.476c0-1.052.852-1.905 1.904-1.905h24.762c1.052 0 1.905.853 1.905 1.905v5.714a1.905 1.905 0 0 1-1.905 1.905H13.333a1.905 1.905 0 0 1-1.904-1.905v-5.714zm3.81 1.905v1.905H36.19V32.38H15.238z" fill-opacity=".2" fill="currentColor"/><path d="M0 4.762a3.81 3.81 0 1 1 7.619 0 3.81 3.81 0 0 1-7.619 0z" fill="currentColor"/><path d="M0 4.762a3.81 3.81 0 1 1 7.619 0 3.81 3.81 0 0 1-7.619 0z" fill-opacity=".2" fill="currentColor"/><path d="M0 19.048a3.81 3.81 0 1 1 7.619 0 3.81 3.81 0 0 1-7.619 0z" fill="currentColor"/><path d="M0 19.048a3.81 3.81 0 1 1 7.619 0 3.81 3.81 0 0 1-7.619 0z" fill-opacity=".2" fill="currentColor"/><path d="M0 33.333a3.81 3.81 0 1 1 7.619 0 3.81 3.81 0 0 1-7.619 0z" fill="currentColor"/><path d="M0 33.333a3.81 3.81 0 1 1 7.619 0 3.81 3.81 0 0 1-7.619 0z" fill-opacity=".2" fill="currentColor"/></svg>