<?xml version="1.0" encoding="UTF-8"?>
<svg width="40px" height="39px" viewBox="0 0 40 39" version="1.1" xmlns="http://www.w3.org/2000/svg" xmlns:xlink="http://www.w3.org/1999/xlink">
    <title>list</title>
    <g id="jumpserver" stroke="none" stroke-width="1" fill="none" fill-rule="evenodd">
        <g id="list">
            <path d="M11.4285714,1.9047619 C11.4285714,0.852790953 12.2813624,0 13.3333333,0 L28.5714286,0 C29.6233995,0 30.4761905,0.852790953 30.4761905,1.9047619 L30.4761905,7.61904762 C30.4761905,8.67101857 29.6233995,9.52380952 28.5714286,9.52380952 L13.3333333,9.52380952 C12.2813624,9.52380952 11.4285714,8.67101857 11.4285714,7.61904762 L11.4285714,1.9047619 Z M15.2380952,3.80952381 L15.2380952,5.71428571 L26.6666667,5.71428571 L26.6666667,3.80952381 L15.2380952,3.80952381 Z" id="形状" fill="#646A73"></path>
            <path d="M11.4285714,1.9047619 C11.4285714,0.852790953 12.2813624,0 13.3333333,0 L28.5714286,0 C29.6233995,0 30.4761905,0.852790953 30.4761905,1.9047619 L30.4761905,7.61904762 C30.4761905,8.67101857 29.6233995,9.52380952 28.5714286,9.52380952 L13.3333333,9.52380952 C12.2813624,9.52380952 11.4285714,8.67101857 11.4285714,7.61904762 L11.4285714,1.9047619 Z M15.2380952,3.80952381 L15.2380952,5.71428571 L26.6666667,5.71428571 L26.6666667,3.80952381 L15.2380952,3.80952381 Z" id="形状" fill-opacity="0.2" fill="#000000"></path>
            <path d="M11.4285714,16.1904762 C11.4285714,15.1385052 12.2813624,14.2857143 13.3333333,14.2857143 L32.3809524,14.2857143 C33.4329233,14.2857143 34.2857143,15.1385052 34.2857143,16.1904762 L34.2857143,21.9047619 C34.2857143,22.9567329 33.4329233,23.8095238 32.3809524,23.8095238 L13.3333333,23.8095238 C12.2813624,23.8095238 11.4285714,22.9567329 11.4285714,21.9047619 L11.4285714,16.1904762 Z M15.2380952,18.0952381 L15.2380952,20 L30.4761905,20 L30.4761905,18.0952381 L15.2380952,18.0952381 Z" id="形状" fill="#646A73"></path>
            <path d="M11.4285714,16.1904762 C11.4285714,15.1385052 12.2813624,14.2857143 13.3333333,14.2857143 L32.3809524,14.2857143 C33.4329233,14.2857143 34.2857143,15.1385052 34.2857143,16.1904762 L34.2857143,21.9047619 C34.2857143,22.9567329 33.4329233,23.8095238 32.3809524,23.8095238 L13.3333333,23.8095238 C12.2813624,23.8095238 11.4285714,22.9567329 11.4285714,21.9047619 L11.4285714,16.1904762 Z M15.2380952,18.0952381 L15.2380952,20 L30.4761905,20 L30.4761905,18.0952381 L15.2380952,18.0952381 Z" id="形状" fill-opacity="0.2" fill="#000000"></path>
            <path d="M11.4285714,30.4761905 C11.4285714,29.4242195 12.2813624,28.5714286 13.3333333,28.5714286 L38.0952381,28.5714286 C39.147209,28.5714286 40,29.4242195 40,30.4761905 L40,36.1904762 C40,37.2424471 39.147209,38.0952381 38.0952381,38.0952381 L13.3333333,38.0952381 C12.2813624,38.0952381 11.4285714,37.2424471 11.4285714,36.1904762 L11.4285714,30.4761905 Z M15.2380952,32.3809524 L15.2380952,34.2857143 L36.1904762,34.2857143 L36.1904762,32.3809524 L15.2380952,32.3809524 Z" id="形状" fill="#646A73"></path>
            <path d="M11.4285714,30.4761905 C11.4285714,29.4242195 12.2813624,28.5714286 13.3333333,28.5714286 L38.0952381,28.5714286 C39.147209,28.5714286 40,29.4242195 40,30.4761905 L40,36.1904762 C40,37.2424471 39.147209,38.0952381 38.0952381,38.0952381 L13.3333333,38.0952381 C12.2813624,38.0952381 11.4285714,37.2424471 11.4285714,36.1904762 L11.4285714,30.4761905 Z M15.2380952,32.3809524 L15.2380952,34.2857143 L36.1904762,34.2857143 L36.1904762,32.3809524 L15.2380952,32.3809524 Z" id="形状" fill-opacity="0.2" fill="#000000"></path>
            <path d="M0,4.76190476 C0,2.65796286 1.70558191,0.952380952 3.80952381,0.952380952 C5.91346571,0.952380952 7.61904762,2.65796286 7.61904762,4.76190476 C7.61904762,6.86584667 5.91346571,8.57142857 3.80952381,8.57142857 C1.70558191,8.57142857 0,6.86584667 0,4.76190476 L0,4.76190476 Z" id="路径" fill="#646A73"></path>
            <path d="M0,4.76190476 C0,2.65796286 1.70558191,0.952380952 3.80952381,0.952380952 C5.91346571,0.952380952 7.61904762,2.65796286 7.61904762,4.76190476 C7.61904762,6.86584667 5.91346571,8.57142857 3.80952381,8.57142857 C1.70558191,8.57142857 0,6.86584667 0,4.76190476 L0,4.76190476 Z" id="路径" fill-opacity="0.2" fill="#000000"></path>
            <path d="M0,19.047619 C0,16.9436771 1.70558191,15.2380952 3.80952381,15.2380952 C5.91346571,15.2380952 7.61904762,16.9436771 7.61904762,19.047619 C7.61904762,21.151561 5.91346571,22.8571429 3.80952381,22.8571429 C1.70558191,22.8571429 0,21.151561 0,19.047619 Z" id="路径" fill="#646A73"></path>
            <path d="M0,19.047619 C0,16.9436771 1.70558191,15.2380952 3.80952381,15.2380952 C5.91346571,15.2380952 7.61904762,16.9436771 7.61904762,19.047619 C7.61904762,21.151561 5.91346571,22.8571429 3.80952381,22.8571429 C1.70558191,22.8571429 0,21.151561 0,19.047619 Z" id="路径" fill-opacity="0.2" fill="#000000"></path>
            <path d="M0,33.3333333 C0,31.2293914 1.70558191,29.5238095 3.80952381,29.5238095 C5.91346571,29.5238095 7.61904762,31.2293914 7.61904762,33.3333333 C7.61904762,35.4372752 5.91346571,37.1428571 3.80952381,37.1428571 C1.70558191,37.1428571 0,35.4372752 0,33.3333333 Z" id="路径" fill="#646A73"></path>
            <path d="M0,33.3333333 C0,31.2293914 1.70558191,29.5238095 3.80952381,29.5238095 C5.91346571,29.5238095 7.61904762,31.2293914 7.61904762,33.3333333 C7.61904762,35.4372752 5.91346571,37.1428571 3.80952381,37.1428571 C1.70558191,37.1428571 0,35.4372752 0,33.3333333 Z" id="路径" fill-opacity="0.2" fill="#000000"></path>
        </g>
    </g>
</svg>