<svg t="1705572472151" class="icon" viewBox="0 0 1024 1024" version="1.1" xmlns="http://www.w3.org/2000/svg" p-id="27270" width="13" height="13"><path d="M896.64 63.872v132.224c0 137.216-88.64 260.48-197.76 327.296 109.12 66.752 197.76 189.056 197.76 326.336V960h28.8a32 32 0 0 1 0 64H99.136a32 32 0 1 1 0-64h28.416v-110.272c0-137.28 92.8-259.584 201.856-326.4C220.16 456.576 127.488 333.376 127.488 196.16V63.872h-31.616A31.872 31.872 0 0 1 63.936 32 32 32 0 0 1 96 0h832.128a32 32 0 0 1 0 63.872h-31.36z m-703.04 0v132.224c0 135.424 117.824 253.312 243.84 286.336a39.68 39.68 0 0 1 15.936 8.384 43.712 43.712 0 0 1-1.344 66.176 42.24 42.24 0 0 1-16.064 7.68c-125.248 33.6-242.368 150.08-242.368 285.056V960h638.272v-110.272c0-135.488-119.808-252.352-245.76-285.44a43.712 43.712 0 0 1-22.784-15.872 42.56 42.56 0 0 1-7.424-18.24c-2.368-23.04 10.24-42.56 30.08-47.68 126.08-33.088 245.888-150.976 245.888-286.4V63.872H193.6zM511.872 458.24a107.264 107.264 0 0 0-14.848-16l-2.88-2.496-2.304-2.048-2.56-1.728a104.448 104.448 0 0 0-35.2-16.768c-65.28-17.088-113.664-67.392-135.744-135.936h387.264C683.52 351.744 634.88 402.048 569.408 419.2c-23.552 6.144-43.52 20.288-57.6 38.976z m-17.472 146.24l2.944-2.368c2.112-1.92 3.776-3.456 5.376-5.12l2.112-2.24 2.944-3.456 2.944-3.712s1.024-1.472 1.024-1.6l6.016 9.152 2.56 1.408 0.832 0.768a82.752 82.752 0 0 0 29.248 19.392l3.136 1.088c1.408 0.512 2.816 0.96 4.288 1.344 72.96 20.48 117.568 80.96 117.568 177.024v18.56H348.608v-18.56c0-95.36 43.776-155.52 115.648-176.64 8.704-2.176 16.96-5.888 24.576-11.008l1.664-0.896 3.84-3.136z" fill="#000000" p-id="27271"></path></svg>