<svg width="40" height="40" xmlns="http://www.w3.org/2000/svg"><g fill="currentColor" fill-rule="nonzero"><path d="M36.234 40H3.84C1.729 40 .014 38.045 0 35.624V4.376C.014 1.955 1.729 0 3.84 0H14.95c1.113-.004 2.172.55 2.899 1.517l2.263 2.918c.23.343.59.539.966.525l15.078-.175c2.111 0 3.826 1.955 3.84 4.376V35.42c.041 1.184-.335 2.336-1.043 3.198-.708.862-1.688 1.36-2.72 1.383zM3.84 2.917a1.19 1.19 0 0 0-.916.417c-.244.275-.381.65-.381 1.042v31.248c0 .392.137.767.381 1.042.244.274.574.424.916.417h32.394a1.19 1.19 0 0 0 .915-.417c.244-.275.382-.65.382-1.042V9.365c-.014-.81-.59-1.458-1.297-1.458l-15.053.175c-1.135-.033-2.202-.629-2.924-1.634L16.019 3.53c-.25-.387-.647-.615-1.068-.613H3.84z"/><path d="M19.63 34.136c-.71.002-1.394-.312-1.907-.876l-7.628-8.752a1.73 1.73 0 0 1-.23-1.488c.2-.555.673-.914 1.196-.905h3.407l.127-6.127c0-2.417 1.708-4.376 3.814-4.376h2.797c1.016-.031 2.001.404 2.736 1.21.735.804 1.16 1.913 1.18 3.079v6.127h3.89c.542.004 1.022.403 1.195.992.182.562.052 1.195-.33 1.604l-8.493 8.753c-.479.5-1.107.771-1.754.759zm-5.543-9.19l5.441 6.243 6.153-6.244h-.559c-.697.001-1.364-.326-1.844-.905-.481-.58-.734-1.36-.699-2.158v-5.835c0-.806-.569-1.46-1.271-1.46h-2.899c-.702 0-1.271.654-1.271 1.46v5.835c.037.825-.233 1.629-.741 2.213-.51.584-1.21.893-1.929.85h-.381z"/></g></svg>