<svg xmlns="http://www.w3.org/2000/svg" viewBox="0 0 24 24"><path fill="#646A73" d="M6.5 8v-.5C6.5 4.46 8.963 2 12 2s5.5 2.46 5.5 5.5V8H21c.552 0 1 .45 1 1v12c0 .55-.448 1-1 1H3c-.553 0-1-.45-1-1V9c0-.55.447-1 1-1h3.5Zm9-.5C15.5 5.565 13.933 4 12 4a3.499 3.499 0 0 0-3.5 3.5V8h7v-.5ZM4 10v10h16V10H4Zm8 8a3.001 3.001 0 0 1 0-6 3.001 3.001 0 0 1 0 6Zm0-2c.553 0 1-.45 1-1s-.447-1-1-1c-.553 0-1 .45-1 1s.447 1 1 1Z" clip-rule="evenodd" fill-rule="evenodd"/><path fill-opacity=".2" fill="#000" d="M6.5 8v-.5C6.5 4.46 8.963 2 12 2s5.5 2.46 5.5 5.5V8H21c.552 0 1 .45 1 1v12c0 .55-.448 1-1 1H3c-.553 0-1-.45-1-1V9c0-.55.447-1 1-1h3.5Zm9-.5C15.5 5.565 13.933 4 12 4a3.499 3.499 0 0 0-3.5 3.5V8h7v-.5ZM4 10v10h16V10H4Zm8 8a3.001 3.001 0 0 1 0-6 3.001 3.001 0 0 1 0 6Zm0-2c.553 0 1-.45 1-1s-.447-1-1-1c-.553 0-1 .45-1 1s.447 1 1 1Z" clip-rule="evenodd" fill-rule="evenodd"/></svg>