<svg width="40" height="40" xmlns="http://www.w3.org/2000/svg"><path d="M9 12v-1C9 4.92 13.926 0 20 0s11 4.92 11 11v1h7c1.104 0 2 .9 2 2v24c0 1.1-.896 2-2 2H2c-1.106 0-2-.9-2-2V14c0-1.1.894-2 2-2h7zm18-1c0-3.87-3.134-7-7-7a6.998 6.998 0 0 0-7 7v1h14v-1zM4 16v20h32V16H4zm16 16a6.002 6.002 0 0 1 0-12 6.002 6.002 0 0 1 0 12zm0-4c1.106 0 2-.9 2-2s-.894-2-2-2c-1.106 0-2 .9-2 2s.894 2 2 2z" fill="currentColor"/><path d="M9 12v-1C9 4.92 13.926 0 20 0s11 4.92 11 11v1h7c1.104 0 2 .9 2 2v24c0 1.1-.896 2-2 2H2c-1.106 0-2-.9-2-2V14c0-1.1.894-2 2-2h7zm18-1c0-3.87-3.134-7-7-7a6.998 6.998 0 0 0-7 7v1h14v-1zM4 16v20h32V16H4zm16 16a6.002 6.002 0 0 1 0-12 6.002 6.002 0 0 1 0 12zm0-4c1.106 0 2-.9 2-2s-.894-2-2-2c-1.106 0-2 .9-2 2s.894 2 2 2z" fill-opacity=".2" fill="currentColor"/></svg>