<svg width="40" height="48" xmlns="http://www.w3.org/2000/svg"><path d="M0 4.324A4.324 4.324 0 0 1 4.324 0h30.27a4.324 4.324 0 0 1 4.325 4.324v19.46a2.162 2.162 0 0 1-4.324 0V4.324H4.325v38.92h15.134a2.162 2.162 0 0 1 0 4.324H4.324A4.324 4.324 0 0 1 0 43.243V4.324z" fill="currentColor"/><path d="M0 4.324A4.324 4.324 0 0 1 4.324 0h30.27a4.324 4.324 0 0 1 4.325 4.324v19.46a2.162 2.162 0 0 1-4.324 0V4.324H4.325v38.92h15.134a2.162 2.162 0 0 1 0 4.324H4.324A4.324 4.324 0 0 1 0 43.243V4.324z" fill-opacity=".2" fill="currentColor"/><path d="M8.649 15.135c0-1.194.968-2.162 2.162-2.162h17.297a2.162 2.162 0 1 1 0 4.324H10.811a2.162 2.162 0 0 1-2.162-2.162z" fill="currentColor"/><path d="M8.649 15.135c0-1.194.968-2.162 2.162-2.162h17.297a2.162 2.162 0 1 1 0 4.324H10.811a2.162 2.162 0 0 1-2.162-2.162z" fill-opacity=".2" fill="currentColor"/><path d="M8.649 23.784c0-1.194.968-2.162 2.162-2.162h8.648a2.162 2.162 0 0 1 0 4.324h-8.648a2.162 2.162 0 0 1-2.162-2.162z" fill="currentColor"/><path d="M8.649 23.784c0-1.194.968-2.162 2.162-2.162h8.648a2.162 2.162 0 0 1 0 4.324h-8.648a2.162 2.162 0 0 1-2.162-2.162z" fill-opacity=".2" fill="currentColor"/><path d="M30.9 26.039l-.63 2.07-.629-2.07c.41-.125.848-.125 1.258 0zm-.63 19.366c-1.124 1.847-1.124 1.847-1.126 1.845h-.002l-.005-.002-.01-.007-.03-.02c-.132-.083-.26-.17-.388-.259a16.79 16.79 0 0 1-.986-.744 20.592 20.592 0 0 1-2.908-2.901c-2.114-2.578-4.274-6.506-4.274-11.75 0-.665.268-1.167.467-1.457.205-.296.443-.523.63-.679a7.188 7.188 0 0 1 1.229-.8c.832-.44 1.881-.877 2.85-1.247a65.016 65.016 0 0 1 3.827-1.315l.069-.021.026-.01.631 2.07.63-2.07.028.01.067.021.25.078a71.65 71.65 0 0 1 3.579 1.237c.97.37 2.017.806 2.85 1.25.404.216.851.482 1.228.797.188.156.426.383.629.68.2.287.469.79.469 1.457 0 5.243-2.16 9.171-4.275 11.749a20.592 20.592 0 0 1-2.908 2.901c-.44.358-.898.693-1.373 1.004l-.03.02-.01.006h-.005v.002c-.002 0-.004 0-1.129-1.845zm0 0l-1.126 1.845a2.165 2.165 0 0 0 2.253 0l-1.127-1.845zm0-2.691a16.346 16.346 0 0 1-2.112-2.141c-1.542-1.881-3.049-4.577-3.265-8.119l.01-.006c.587-.314 1.432-.67 2.353-1.023.996-.377 2-.727 3.014-1.05 1.013.326 2.018.676 3.014 1.05.921.352 1.767.71 2.355 1.023l.009.006c-.217 3.542-1.722 6.24-3.265 8.121a16.23 16.23 0 0 1-2.113 2.139z" fill="currentColor"/><path d="M30.9 26.039l-.63 2.07-.629-2.07c.41-.125.848-.125 1.258 0zm-.63 19.366c-1.124 1.847-1.124 1.847-1.126 1.845h-.002l-.005-.002-.01-.007-.03-.02c-.132-.083-.26-.17-.388-.259a16.79 16.79 0 0 1-.986-.744 20.592 20.592 0 0 1-2.908-2.901c-2.114-2.578-4.274-6.506-4.274-11.75 0-.665.268-1.167.467-1.457.205-.296.443-.523.63-.679a7.188 7.188 0 0 1 1.229-.8c.832-.44 1.881-.877 2.85-1.247a65.016 65.016 0 0 1 3.827-1.315l.069-.021.026-.01.631 2.07.63-2.07.028.01.067.021.25.078a71.65 71.65 0 0 1 3.579 1.237c.97.37 2.017.806 2.85 1.25.404.216.851.482 1.228.797.188.156.426.383.629.68.2.287.469.79.469 1.457 0 5.243-2.16 9.171-4.275 11.749a20.592 20.592 0 0 1-2.908 2.901c-.44.358-.898.693-1.373 1.004l-.03.02-.01.006h-.005v.002c-.002 0-.004 0-1.129-1.845zm0 0l-1.126 1.845a2.165 2.165 0 0 0 2.253 0l-1.127-1.845zm0-2.691a16.346 16.346 0 0 1-2.112-2.141c-1.542-1.881-3.049-4.577-3.265-8.119l.01-.006c.587-.314 1.432-.67 2.353-1.023.996-.377 2-.727 3.014-1.05 1.013.326 2.018.676 3.014 1.05.921.352 1.767.71 2.355 1.023l.009.006c-.217 3.542-1.722 6.24-3.265 8.121a16.23 16.23 0 0 1-2.113 2.139z" fill-opacity=".2" fill="currentColor"/></svg>