<svg xmlns="http://www.w3.org/2000/svg" viewBox="0 0 24 24"><path fill="#646A73" d="M3 3a2 2 0 0 1 2-2h14a2 2 0 0 1 2 2v9a1 1 0 1 1-2 0V3H5v18h7a1 1 0 1 1 0 2H5a2 2 0 0 1-2-2V3Z" clip-rule="evenodd" fill-rule="evenodd"/><path fill-opacity=".2" fill="#000" d="M3 3a2 2 0 0 1 2-2h14a2 2 0 0 1 2 2v9a1 1 0 1 1-2 0V3H5v18h7a1 1 0 1 1 0 2H5a2 2 0 0 1-2-2V3Z" clip-rule="evenodd" fill-rule="evenodd"/><path fill="#646A73" d="M7 8a1 1 0 0 1 1-1h8a1 1 0 1 1 0 2H8a1 1 0 0 1-1-1Z" clip-rule="evenodd" fill-rule="evenodd"/><path fill-opacity=".2" fill="#000" d="M7 8a1 1 0 0 1 1-1h8a1 1 0 1 1 0 2H8a1 1 0 0 1-1-1Z" clip-rule="evenodd" fill-rule="evenodd"/><path fill="#646A73" d="M7 12a1 1 0 0 1 1-1h4a1 1 0 1 1 0 2H8a1 1 0 0 1-1-1Z" clip-rule="evenodd" fill-rule="evenodd"/><path fill-opacity=".2" fill="#000" d="M7 12a1 1 0 0 1 1-1h4a1 1 0 1 1 0 2H8a1 1 0 0 1-1-1Z" clip-rule="evenodd" fill-rule="evenodd"/><path fill="#646A73" d="M17.291 13.043 17 14l-.291-.957a1 1 0 0 1 .582 0ZM17 22c-.52.854-.52.854-.521.853h-.001l-.002-.001-.005-.003-.014-.009a4.897 4.897 0 0 1-.179-.12 7.765 7.765 0 0 1-.456-.344 9.524 9.524 0 0 1-1.345-1.342c-.978-1.192-1.977-3.009-1.977-5.434 0-.308.124-.54.216-.674.095-.137.205-.242.292-.314.174-.146.38-.27.568-.37.385-.204.87-.406 1.318-.577a30.07 30.07 0 0 1 1.77-.608l.032-.01.012-.004L17 14l.291-.957.013.004.031.01.116.036a33.138 33.138 0 0 1 1.655.572c.449.171.933.373 1.318.578.187.1.394.223.568.369.087.072.197.177.291.314.093.133.217.366.217.674 0 2.425-.999 4.242-1.977 5.434a9.524 9.524 0 0 1-1.345 1.342 7.765 7.765 0 0 1-.635.464l-.014.009-.005.003h-.002v.001c-.001 0-.002 0-.522-.853Zm0 0-.521.853c.32.195.723.195 1.042 0L17 22Zm0-1.245a7.56 7.56 0 0 1-.977-.99c-.713-.87-1.41-2.117-1.51-3.755l.005-.003c.271-.145.662-.31 1.088-.473A28.054 28.054 0 0 1 17 15.048a31.728 31.728 0 0 1 1.394.486c.426.163.817.328 1.089.473l.004.003c-.1 1.638-.796 2.886-1.51 3.756-.35.427-.7.757-.977.989Zm2.707-4.61a.015.015 0 0 1 0-.001Zm-5.414 0v-.001Z" clip-rule="evenodd" fill-rule="evenodd"/><path fill-opacity=".2" fill="#000" d="M17.291 13.043 17 14l-.291-.957a1 1 0 0 1 .582 0ZM17 22c-.52.854-.52.854-.521.853h-.001l-.002-.001-.005-.003-.014-.009a4.897 4.897 0 0 1-.179-.12 7.765 7.765 0 0 1-.456-.344 9.524 9.524 0 0 1-1.345-1.342c-.978-1.192-1.977-3.009-1.977-5.434 0-.308.124-.54.216-.674.095-.137.205-.242.292-.314.174-.146.38-.27.568-.37.385-.204.87-.406 1.318-.577a30.07 30.07 0 0 1 1.77-.608l.032-.01.012-.004L17 14l.291-.957.013.004.031.01.116.036a33.138 33.138 0 0 1 1.655.572c.449.171.933.373 1.318.578.187.1.394.223.568.369.087.072.197.177.291.314.093.133.217.366.217.674 0 2.425-.999 4.242-1.977 5.434a9.524 9.524 0 0 1-1.345 1.342 7.765 7.765 0 0 1-.635.464l-.014.009-.005.003h-.002v.001c-.001 0-.002 0-.522-.853Zm0 0-.521.853c.32.195.723.195 1.042 0L17 22Zm0-1.245a7.56 7.56 0 0 1-.977-.99c-.713-.87-1.41-2.117-1.51-3.755l.005-.003c.271-.145.662-.31 1.088-.473A28.054 28.054 0 0 1 17 15.048a31.728 31.728 0 0 1 1.394.486c.426.163.817.328 1.089.473l.004.003c-.1 1.638-.796 2.886-1.51 3.756-.35.427-.7.757-.977.989Zm2.707-4.61a.015.015 0 0 1 0-.001Zm-5.414 0v-.001Z" clip-rule="evenodd" fill-rule="evenodd"/></svg>