<svg t="1712647226025" class="icon" viewBox="0 0 1024 1024" version="1.1" xmlns="http://www.w3.org/2000/svg" p-id="13381" width="200" height="200"><path d="M511.338 421.875l-221.281 238.02 64.44 60 110.79-119.221v336.521h92.16v-336.47l110.795 119.17 64.432-60z" fill="#040000" p-id="13382"></path><path d="M882.262 86.803H141.739C63.463 86.803 0.007 150.259 0.007 228.535v566.929c0 78.276 63.456 141.732 141.732 141.732h157.663v-80H141.739c-34.039 0-61.732-27.693-61.732-61.732V228.536c0-34.04 27.693-61.732 61.732-61.732h740.522c34.04 0 61.732 27.693 61.732 61.732v566.929c0 34.039-27.692 61.732-61.732 61.732H724.6v80h157.662c78.276 0 141.732-63.456 141.732-141.732V228.536c0-78.277-63.456-141.733-141.732-141.733z" fill="#040000" p-id="13383"></path></svg>
