<svg width="40" height="34" xmlns="http://www.w3.org/2000/svg"><path d="M19.974 13.089l-8.644 9.298 2.517 2.343 4.328-4.657V33.22h3.6V20.075l4.328 4.655 2.517-2.343z"/><path d="M34.464 0H5.536A5.536 5.536 0 0 0 0 5.536v22.146a5.537 5.537 0 0 0 5.536 5.537h6.16v-3.125h-6.16a2.414 2.414 0 0 1-2.411-2.412V5.537a2.414 2.414 0 0 1 2.411-2.412h28.927a2.414 2.414 0 0 1 2.412 2.412v22.145a2.414 2.414 0 0 1-2.412 2.412h-6.158v3.125h6.159A5.536 5.536 0 0 0 40 27.682V5.537A5.537 5.537 0 0 0 34.464 0z"/></svg>