<svg width="40" height="40" xmlns="http://www.w3.org/2000/svg"><path d="M0 2a2 2 0 0 1 2-2h17.992a2 2 0 1 1 0 4H4v32h16a2 2 0 1 1 0 4H2a2 2 0 0 1-2-2V2z" fill="currentColor"/><path d="M0 2a2 2 0 0 1 2-2h17.992a2 2 0 1 1 0 4H4v32h16a2 2 0 1 1 0 4H2a2 2 0 0 1-2-2V2z" fill-opacity=".2" fill="currentColor"/><path d="M27.586 9.586a2 2 0 0 1 2.828 0l9 9a2 2 0 0 1 0 2.828l-9 9a2 2 0 0 1-2.828-2.828L35.172 20l-7.586-7.586a2 2 0 0 1 0-2.828z" fill="currentColor"/><path d="M27.586 9.586a2 2 0 0 1 2.828 0l9 9a2 2 0 0 1 0 2.828l-9 9a2 2 0 0 1-2.828-2.828L35.172 20l-7.586-7.586a2 2 0 0 1 0-2.828z" fill-opacity=".2" fill="currentColor"/><path d="M10 19.992a2 2 0 0 1 2-2h26a2 2 0 1 1 0 4H12a2 2 0 0 1-2-2z" fill="currentColor"/><path d="M10 19.992a2 2 0 0 1 2-2h26a2 2 0 1 1 0 4H12a2 2 0 0 1-2-2z" fill-opacity=".2" fill="currentColor"/></svg>