<svg xmlns="http://www.w3.org/2000/svg" viewBox="0 0 24 24"><path fill="#646A73" d="M2 3a1 1 0 0 1 1-1h8.996a1 1 0 1 1 0 2H4v16h8a1 1 0 1 1 0 2H3a1 1 0 0 1-1-1V3Z" clip-rule="evenodd" fill-rule="evenodd"/><path fill-opacity=".2" fill="#000" d="M2 3a1 1 0 0 1 1-1h8.996a1 1 0 1 1 0 2H4v16h8a1 1 0 1 1 0 2H3a1 1 0 0 1-1-1V3Z" clip-rule="evenodd" fill-rule="evenodd"/><path fill="#646A73" d="M15.793 6.793a1 1 0 0 1 1.414 0l4.5 4.5a1 1 0 0 1 0 1.414l-4.5 4.5a1 1 0 0 1-1.414-1.414L19.586 12l-3.793-3.793a1 1 0 0 1 0-1.414Z" clip-rule="evenodd" fill-rule="evenodd"/><path fill-opacity=".2" fill="#000" d="M15.793 6.793a1 1 0 0 1 1.414 0l4.5 4.5a1 1 0 0 1 0 1.414l-4.5 4.5a1 1 0 0 1-1.414-1.414L19.586 12l-3.793-3.793a1 1 0 0 1 0-1.414Z" clip-rule="evenodd" fill-rule="evenodd"/><path fill="#646A73" d="M7 11.996a1 1 0 0 1 1-1h13a1 1 0 0 1 0 2H8a1 1 0 0 1-1-1Z" clip-rule="evenodd" fill-rule="evenodd"/><path fill-opacity=".2" fill="#000" d="M7 11.996a1 1 0 0 1 1-1h13a1 1 0 0 1 0 2H8a1 1 0 0 1-1-1Z" clip-rule="evenodd" fill-rule="evenodd"/></svg>