<svg width="40" height="40" xmlns="http://www.w3.org/2000/svg"><path d="M23.303 30.823a4.197 4.197 0 0 1-4.04-2.968l-1.689-5.435-5.435-1.688a4.197 4.197 0 0 1-2.915-3.368 4.183 4.183 0 0 1 1.731-4.103l4.695-3.319-.12-5.662A4.199 4.199 0 0 1 17.834.466a4.193 4.193 0 0 1 4.44.375l4.608 3.44 5.35-1.862a4.203 4.203 0 0 1 4.338 1.01 4.193 4.193 0 0 1 1.015 4.339l-1.847 5.445 3.42 4.512a4.204 4.204 0 0 1 .38 4.44 4.192 4.192 0 0 1-3.757 2.304h-.057l-5.749-.072-3.232 4.647a4.229 4.229 0 0 1-3.44 1.78zm.108-4.226h.02-.02zm-9.79-9.935l5.286 1.645a4.216 4.216 0 0 1 2.775 2.776l1.645 5.286 3.194-4.522c.799-1.135 2.083-1.784 3.498-1.784l5.536.072-3.31-4.435a4.222 4.222 0 0 1-.615-3.877l1.775-5.243-5.243 1.775a4.206 4.206 0 0 1-3.877-.616l-4.435-3.31.072 5.537a4.21 4.21 0 0 1-1.785 3.497l-4.517 3.199z"/><path d="M5.154 39.992c-1.323 0-2.64-.5-3.646-1.51a5.168 5.168 0 0 1 0-7.298L14.38 18.312a2.16 2.16 0 0 1 3.06 0 2.16 2.16 0 0 1 0 3.06L4.563 34.243a.836.836 0 1 0 1.183 1.183l12.983-12.983a2.16 2.16 0 0 1 3.06 0 2.16 2.16 0 0 1 0 3.06L8.8 38.485a5.142 5.142 0 0 1-3.646 1.506z"/></svg>