<svg width="40" height="49" xmlns="http://www.w3.org/2000/svg"><path d="M39.508 37.054l-3.374-4.942a1.414 1.414 0 0 1-.25-.8V16.566C35.882 7.416 28.772 0 20 0 11.227 0 4.117 7.418 4.117 16.568v14.744a1.429 1.429 0 0 1-.25.8L.491 37.054a2.862 2.862 0 0 0-.197 2.868c.456.919 1.364 1.494 2.355 1.494h34.705c.99 0 1.899-.577 2.355-1.494a2.872 2.872 0 0 0-.2-2.868zm-34.293.223l1.88-2.761c.65-.941.996-2.059.993-3.204V16.566c0-3.296 1.255-6.455 3.488-8.786 2.233-2.33 5.262-3.639 8.422-3.639 3.16 0 6.188 1.309 8.422 3.64 2.233 2.33 3.488 5.491 3.488 8.785v14.746a5.608 5.608 0 0 0 .993 3.204l1.88 2.76H5.215zM24.631 48.321h-7.94c-1.095 0-1.985-.926-1.985-2.071 0-1.143.89-2.072 1.985-2.072h7.942c1.098 0 1.985.929 1.985 2.072-.001 1.145-.89 2.071-1.987 2.071z"/></svg>