<!-- <svg xmlns="http://www.w3.org/2000/svg" viewBox="0 0 24 24"><path stroke-linejoin="round" stroke-linecap="round" stroke-width="2" stroke="#646A73" d="M12.5 18 10 20.5 7.5 18H2V3h20v7.5"/><path stroke-linejoin="round" stroke-linecap="round" stroke-width="2" stroke-opacity=".2" stroke="#000" d="M12.5 18 10 20.5 7.5 18H2V3h20v7.5"/><path stroke-linecap="round" stroke-width="2" stroke="#646A73" d="M11.5 12.5h1.001"/><path stroke-linecap="round" stroke-width="2" stroke-opacity=".2" stroke="#000" d="M11.5 12.5h1.001"/><path stroke-linecap="round" stroke-width="2" stroke="#646A73" d="M6.5 12.5h2"/><path stroke-linecap="round" stroke-width="2" stroke-opacity=".2" stroke="#000" d="M6.5 12.5h2"/><path stroke-linecap="round" stroke-width="2" stroke="#646A73" d="M16.5 8.5h1"/><path stroke-linecap="round" stroke-width="2" stroke-opacity=".2" stroke="#000" d="M16.5 8.5h1"/><path stroke-linecap="round" stroke-width="2" stroke="#646A73" d="M6.5 8.5h7"/><path stroke-linecap="round" stroke-width="2" stroke-opacity=".2" stroke="#000" d="M6.5 8.5h7"/><path stroke-linejoin="round" stroke-linecap="round" stroke-width="2" stroke="#646A73" d="M19 13v6"/><path stroke-linejoin="round" stroke-linecap="round" stroke-width="2" stroke-opacity=".2" stroke="#000" d="M19 13v6"/><path stroke-linejoin="round" stroke-linecap="round" stroke-width="2" stroke="#646A73" d="M16 16h6"/><path stroke-linejoin="round" stroke-linecap="round" stroke-width="2" stroke-opacity=".2" stroke="#000" d="M16 16h6"/></svg> -->

<!-- <svg t="1676620388815" class="icon" viewBox="0 0 1024 1024" version="1.1" xmlns="http://www.w3.org/2000/svg" p-id="12877" width="200" height="200"><path d="M289.349728 312.130739h472.444513v78.154708H289.349728zM289.349728 504.947549h264.715953v78.154708H289.349728z" fill="#333333" p-id="12878"></path><path d="M486.48965 1024V867.152685h-234.284825C149.924358 867.152685 66.7393 783.967626 66.7393 681.68716v-481.220234C66.7393 98.19642 149.924358 15.011362 252.204825 15.011362h546.754241c102.250584 0 185.435642 83.195019 185.435642 185.465525v481.220234c0 102.270506-83.195019 185.465525-185.435642 185.465525h-41.089494L486.48965 1024zM252.204825 93.16607c-59.178833 0-107.310817 48.131984-107.310817 107.310817v481.220234c0 59.178833 48.131984 107.310817 107.310817 107.310817h312.439533v99.551128l172.257121-99.551128h62.047626c59.148949 0 107.280934-48.131984 107.280934-107.310817v-481.220234c0-59.178833-48.131984-107.310817-107.280934-107.310817H252.204825z" fill="#333333" p-id="12879"></path></svg> -->

<svg t="1676624632343" class="icon" viewBox="0 0 1024 1024" version="1.1" xmlns="http://www.w3.org/2000/svg" p-id="61793" width="200" height="200"><path d="M875.554133 752.981333l-62.6688-91.784533a26.2656 26.2656 0 0 1-4.642133-14.848v-273.851733C808.209067 202.581333 676.181333 64.853333 513.262933 64.853333c-162.9184 0-294.946133 137.762133-294.946133 307.677867v273.8176a26.528427 26.528427 0 0 1-4.642133 14.848L150.971733 752.981333a53.15584 53.15584 0 0 0-3.652266 53.248c8.465067 17.066667 25.326933 27.7504 43.7248 27.7504h644.5056c18.397867 0 35.259733-10.717867 43.7248-27.7504a53.333333 53.333333 0 0 0-3.720534-53.248z m-636.859733 4.130134l34.9184-51.268267c12.0832-17.476267 18.500267-38.229333 18.432-59.4944v-273.851733c0-61.201067 23.313067-119.876267 64.785067-163.157334s97.723733-67.584 156.398933-67.584 114.926933 24.302933 156.398933 67.584c41.472 43.281067 64.785067 101.9904 64.785067 163.157334v273.851733c-0.068267 21.230933 6.3488 41.984 18.432 59.4944l34.9184 51.268267H238.6944z" p-id="61794" fill="#000000"></path><path d="M599.278933 962.218667h-147.456c-20.343467 0-36.864-17.2032-36.864-38.468267 0-21.230933 16.520533-38.468267 36.864-38.468267h147.490134c20.3776 0 36.864 17.237333 36.864 38.468267-0.034133 21.265067-16.520533 38.468267-36.898134 38.468267z" fill="#000000" p-id="61795"></path></svg>