<?xml version="1.0" encoding="UTF-8"?>
<svg width="41px" height="41px" viewBox="0 0 41 41" version="1.1" xmlns="http://www.w3.org/2000/svg" xmlns:xlink="http://www.w3.org/1999/xlink">
    <title>my-asset</title>
    <g id="jumpserver" stroke="none" stroke-width="1" fill="none" fill-rule="evenodd">
        <g id="my-asset" transform="translate(1, 0)">
            <path d="M12.6315789,2.10526336 L2.10526316,2.10526336 C0.942558421,2.10526336 0,3.04782178 0,4.21052652 L0,14.7368423 C0,15.899547 0.942558421,16.8421055 2.10526316,16.8421055 L12.6315789,16.8421055 C13.7942837,16.8421055 14.7368421,15.899547 14.7368421,14.7368423 L14.7368421,4.21052652 C14.7368421,3.04782178 13.7942837,2.10526336 12.6315789,2.10526336 Z" id="路径" stroke="#646A73" stroke-width="2" fill="#000000" fill-rule="nonzero" stroke-linejoin="round"></path>
            <path d="M12.6315789,2.10526336 L2.10526316,2.10526336 C0.942558421,2.10526336 0,3.04782178 0,4.21052652 L0,14.7368423 C0,15.899547 0.942558421,16.8421055 2.10526316,16.8421055 L12.6315789,16.8421055 C13.7942837,16.8421055 14.7368421,15.899547 14.7368421,14.7368423 L14.7368421,4.21052652 C14.7368421,3.04782178 13.7942837,2.10526336 12.6315789,2.10526336 Z" id="路径" stroke-opacity="0.2" stroke="#000000" stroke-width="2" fill="#000000" fill-rule="nonzero" stroke-linejoin="round"></path>
            <path d="M12.6315789,25.2631581 L2.10526316,25.2631581 C0.942558421,25.2631581 0,26.2057165 0,27.3684213 L0,37.894737 C0,39.0574418 0.942558421,40.0000002 2.10526316,40.0000002 L12.6315789,40.0000002 C13.7942837,40.0000002 14.7368421,39.0574418 14.7368421,37.894737 L14.7368421,27.3684213 C14.7368421,26.2057165 13.7942837,25.2631581 12.6315789,25.2631581 Z" id="路径" stroke="#646A73" stroke-width="2" fill="#000000" fill-rule="nonzero" stroke-linejoin="round"></path>
            <path d="M12.6315789,25.2631581 L2.10526316,25.2631581 C0.942558421,25.2631581 0,26.2057165 0,27.3684213 L0,37.894737 C0,39.0574418 0.942558421,40.0000002 2.10526316,40.0000002 L12.6315789,40.0000002 C13.7942837,40.0000002 14.7368421,39.0574418 14.7368421,37.894737 L14.7368421,27.3684213 C14.7368421,26.2057165 13.7942837,25.2631581 12.6315789,25.2631581 Z" id="路径" stroke-opacity="0.2" stroke="#000000" stroke-width="2" fill="#000000" fill-rule="nonzero" stroke-linejoin="round"></path>
            <path d="M35.7894737,25.2631581 L25.2631579,25.2631581 C24.1004532,25.2631581 23.1578947,26.2057165 23.1578947,27.3684213 L23.1578947,37.894737 C23.1578947,39.0574418 24.1004532,40.0000002 25.2631579,40.0000002 L35.7894737,40.0000002 C36.9521784,40.0000002 37.8947368,39.0574418 37.8947368,37.894737 L37.8947368,27.3684213 C37.8947368,26.2057165 36.9521784,25.2631581 35.7894737,25.2631581 Z" id="路径" stroke="#646A73" stroke-width="2" fill="#000000" fill-rule="nonzero" stroke-linejoin="round"></path>
            <path d="M35.7894737,25.2631581 L25.2631579,25.2631581 C24.1004532,25.2631581 23.1578947,26.2057165 23.1578947,27.3684213 L23.1578947,37.894737 C23.1578947,39.0574418 24.1004532,40.0000002 25.2631579,40.0000002 L35.7894737,40.0000002 C36.9521784,40.0000002 37.8947368,39.0574418 37.8947368,37.894737 L37.8947368,27.3684213 C37.8947368,26.2057165 36.9521784,25.2631581 35.7894737,25.2631581 Z" id="路径" stroke-opacity="0.2" stroke="#000000" stroke-width="2" fill="#000000" fill-rule="nonzero" stroke-linejoin="round"></path>
            <path d="M30.5263158,4.21052641 C27.6189726,4.21110787 25.2625765,6.56844648 25.2631578,9.47578967 C25.2637392,12.3831329 27.6210779,14.7395289 30.5284211,14.7389477 C33.4357642,14.7383662 35.7921603,12.3810276 35.7915791,9.47368441 C35.7909976,6.56634122 33.433659,4.20994516 30.5263158,4.21052641 Z M21.0526316,9.47368441 C21.0526316,6.08906298 22.8583055,2.96154378 25.7894736,1.26923305 C28.7206418,-0.423077683 32.3319898,-0.423077683 35.263158,1.26923305 C38.1943261,2.96154378 40,6.08906298 40,9.47368441 C40,14.7058556 35.758487,18.9473684 30.5263158,18.9473684 C25.2941446,18.9473684 21.0526316,14.7058556 21.0526316,9.47368441 L21.0526316,9.47368441 Z" id="形状" fill="#646A73"></path>
            <path d="M30.5263158,4.21052641 C27.6189726,4.21110787 25.2625765,6.56844648 25.2631578,9.47578967 C25.2637392,12.3831329 27.6210779,14.7395289 30.5284211,14.7389477 C33.4357642,14.7383662 35.7921603,12.3810276 35.7915791,9.47368441 C35.7909976,6.56634122 33.433659,4.20994516 30.5263158,4.21052641 Z M21.0526316,9.47368441 C21.0526316,6.08906298 22.8583055,2.96154378 25.7894736,1.26923305 C28.7206418,-0.423077683 32.3319898,-0.423077683 35.263158,1.26923305 C38.1943261,2.96154378 40,6.08906298 40,9.47368441 C40,14.7058556 35.758487,18.9473684 30.5263158,18.9473684 C25.2941446,18.9473684 21.0526316,14.7058556 21.0526316,9.47368441 L21.0526316,9.47368441 Z" id="形状" fill-opacity="0.2" fill="#000000"></path>
        </g>
    </g>
</svg>