<svg xmlns="http://www.w3.org/2000/svg" viewBox="0 0 24 24"><path stroke-linejoin="round" stroke-width="2" stroke="#646A73" d="M9 3H4a1 1 0 0 0-1 1v5a1 1 0 0 0 1 1h5a1 1 0 0 0 1-1V4a1 1 0 0 0-1-1Z"/><path stroke-linejoin="round" stroke-width="2" stroke-opacity=".2" stroke="#000" d="M9 3H4a1 1 0 0 0-1 1v5a1 1 0 0 0 1 1h5a1 1 0 0 0 1-1V4a1 1 0 0 0-1-1Z"/><path stroke-linejoin="round" stroke-width="2" stroke="#646A73" d="M9 14H4a1 1 0 0 0-1 1v5a1 1 0 0 0 1 1h5a1 1 0 0 0 1-1v-5a1 1 0 0 0-1-1Z"/><path stroke-linejoin="round" stroke-width="2" stroke-opacity=".2" stroke="#000" d="M9 14H4a1 1 0 0 0-1 1v5a1 1 0 0 0 1 1h5a1 1 0 0 0 1-1v-5a1 1 0 0 0-1-1Z"/><path stroke-linejoin="round" stroke-width="2" stroke="#646A73" d="M20 14h-5a1 1 0 0 0-1 1v5a1 1 0 0 0 1 1h5a1 1 0 0 0 1-1v-5a1 1 0 0 0-1-1Z"/><path stroke-linejoin="round" stroke-width="2" stroke-opacity=".2" stroke="#000" d="M20 14h-5a1 1 0 0 0-1 1v5a1 1 0 0 0 1 1h5a1 1 0 0 0 1-1v-5a1 1 0 0 0-1-1Z"/><path fill="#646A73" d="M17.5 4a2.5 2.5 0 1 0 .001 5.001A2.5 2.5 0 0 0 17.5 4ZM13 6.5a4.5 4.5 0 1 1 9 0 4.5 4.5 0 0 1-9 0Z" clip-rule="evenodd" fill-rule="evenodd"/><path fill-opacity=".2" fill="#000" d="M17.5 4a2.5 2.5 0 1 0 .001 5.001A2.5 2.5 0 0 0 17.5 4ZM13 6.5a4.5 4.5 0 1 1 9 0 4.5 4.5 0 0 1-9 0Z" clip-rule="evenodd" fill-rule="evenodd"/></svg>