<svg width="41" height="41" xmlns="http://www.w3.org/2000/svg"><path d="M12.632 2.105H2.105A2.105 2.105 0 0 0 0 4.211v10.526c0 1.163.943 2.105 2.105 2.105h10.527a2.105 2.105 0 0 0 2.105-2.105V4.21a2.105 2.105 0 0 0-2.105-2.106z" stroke="currentColor" stroke-width="2" fill="currentColor" stroke-linejoin="round"/><path d="M12.632 2.105H2.105A2.105 2.105 0 0 0 0 4.211v10.526c0 1.163.943 2.105 2.105 2.105h10.527a2.105 2.105 0 0 0 2.105-2.105V4.21a2.105 2.105 0 0 0-2.105-2.106z" stroke-opacity=".2" stroke="currentColor" stroke-width="2" fill="currentColor" stroke-linejoin="round"/><path d="M12.632 25.263H2.105A2.105 2.105 0 0 0 0 27.368v10.527C0 39.057.943 40 2.105 40h10.527a2.105 2.105 0 0 0 2.105-2.105V27.368a2.105 2.105 0 0 0-2.105-2.105z" stroke="currentColor" stroke-width="2" fill="currentColor" stroke-linejoin="round"/><path d="M12.632 25.263H2.105A2.105 2.105 0 0 0 0 27.368v10.527C0 39.057.943 40 2.105 40h10.527a2.105 2.105 0 0 0 2.105-2.105V27.368a2.105 2.105 0 0 0-2.105-2.105z" stroke-opacity=".2" stroke="currentColor" stroke-width="2" fill="currentColor" stroke-linejoin="round"/><path d="M35.79 25.263H25.262a2.105 2.105 0 0 0-2.105 2.105v10.527c0 1.162.942 2.105 2.105 2.105H35.79a2.105 2.105 0 0 0 2.106-2.105V27.368a2.105 2.105 0 0 0-2.106-2.105z" stroke="currentColor" stroke-width="2" fill="currentColor" stroke-linejoin="round"/><path d="M35.79 25.263H25.262a2.105 2.105 0 0 0-2.105 2.105v10.527c0 1.162.942 2.105 2.105 2.105H35.79a2.105 2.105 0 0 0 2.106-2.105V27.368a2.105 2.105 0 0 0-2.106-2.105z" stroke-opacity=".2" stroke="currentColor" stroke-width="2" fill="currentColor" stroke-linejoin="round"/><path d="M30.526 4.21a5.264 5.264 0 1 0 .002 10.529 5.264 5.264 0 0 0-.002-10.528zm-9.473 5.264a9.474 9.474 0 1 1 18.947 0 9.474 9.474 0 0 1-18.947 0z" fill="currentColor"/><path d="M30.526 4.21a5.264 5.264 0 1 0 .002 10.529 5.264 5.264 0 0 0-.002-10.528zm-9.473 5.264a9.474 9.474 0 1 1 18.947 0 9.474 9.474 0 0 1-18.947 0z" fill-opacity=".2" fill="currentColor"/></svg>