<svg xmlns="http://www.w3.org/2000/svg" viewBox="0 0 24 24"><path fill="#ffffff" d="m4.328 19.733-.31-.338a10.911 10.911 0 0 1-2.386-4.147l-.135-.436L3.545 12 1.497 9.188l.135-.436a10.91 10.91 0 0 1 2.385-4.147l.311-.339 3.442.376 1.398-3.186.448-.101A10.842 10.842 0 0 1 12 1.09c.809 0 1.607.089 2.384.264l.448.1 1.398 3.187 3.442-.376.31.34a10.91 10.91 0 0 1 2.386 4.146l.135.436L20.455 12l2.048 2.812-.135.436a10.91 10.91 0 0 1-2.385 4.147l-.311.338-3.442-.376-1.398 3.187-.448.101c-.777.175-1.575.264-2.384.264-.809 0-1.607-.089-2.384-.264l-.448-.1-1.398-3.188-3.442.377Zm3.485-2.21a1.488 1.488 0 0 1 1.525.882l1.12 2.554a9.05 9.05 0 0 0 3.084 0l1.12-2.554a1.488 1.488 0 0 1 1.524-.881l2.755.3c.665-.8 1.19-1.71 1.547-2.69l-1.644-2.258a1.488 1.488 0 0 1 0-1.752l1.644-2.258a9.092 9.092 0 0 0-1.547-2.69l-2.755.3a1.488 1.488 0 0 1-1.524-.881l-1.12-2.555a9.053 9.053 0 0 0-3.084 0l-1.12 2.555a1.488 1.488 0 0 1-1.525.881l-2.754-.3c-.665.8-1.19 1.71-1.548 2.69l1.645 2.258c.38.522.38 1.23 0 1.752l-1.644 2.258c.358.98.882 1.89 1.547 2.69l2.754-.3ZM12 16.546c-2.502 0-4.528-2.036-4.528-4.545 0-2.51 2.026-4.546 4.528-4.546S16.528 9.49 16.528 12c0 2.51-2.026 4.545-4.528 4.545Zm0-1.818c1.496 0 2.71-1.22 2.71-2.727A2.719 2.719 0 0 0 12 9.273 2.719 2.719 0 0 0 9.29 12 2.719 2.719 0 0 0 12 14.727Z" clip-rule="evenodd" fill-rule="evenodd"/><path fill-opacity=".2" fill="#ffffff" d="m4.328 19.733-.31-.338a10.911 10.911 0 0 1-2.386-4.147l-.135-.436L3.545 12 1.497 9.188l.135-.436a10.91 10.91 0 0 1 2.385-4.147l.311-.339 3.442.376 1.398-3.186.448-.101A10.842 10.842 0 0 1 12 1.09c.809 0 1.607.089 2.384.264l.448.1 1.398 3.187 3.442-.376.31.34a10.91 10.91 0 0 1 2.386 4.146l.135.436L20.455 12l2.048 2.812-.135.436a10.91 10.91 0 0 1-2.385 4.147l-.311.338-3.442-.376-1.398 3.187-.448.101c-.777.175-1.575.264-2.384.264-.809 0-1.607-.089-2.384-.264l-.448-.1-1.398-3.188-3.442.377Zm3.485-2.21a1.488 1.488 0 0 1 1.525.882l1.12 2.554a9.05 9.05 0 0 0 3.084 0l1.12-2.554a1.488 1.488 0 0 1 1.524-.881l2.755.3c.665-.8 1.19-1.71 1.547-2.69l-1.644-2.258a1.488 1.488 0 0 1 0-1.752l1.644-2.258a9.092 9.092 0 0 0-1.547-2.69l-2.755.3a1.488 1.488 0 0 1-1.524-.881l-1.12-2.555a9.053 9.053 0 0 0-3.084 0l-1.12 2.555a1.488 1.488 0 0 1-1.525.881l-2.754-.3c-.665.8-1.19 1.71-1.548 2.69l1.645 2.258c.38.522.38 1.23 0 1.752l-1.644 2.258c.358.98.882 1.89 1.547 2.69l2.754-.3ZM12 16.546c-2.502 0-4.528-2.036-4.528-4.545 0-2.51 2.026-4.546 4.528-4.546S16.528 9.49 16.528 12c0 2.51-2.026 4.545-4.528 4.545Zm0-1.818c1.496 0 2.71-1.22 2.71-2.727A2.719 2.719 0 0 0 12 9.273 2.719 2.719 0 0 0 9.29 12 2.719 2.719 0 0 0 12 14.727Z" clip-rule="evenodd" fill-rule="evenodd"/></svg>