<svg width="38" height="40" xmlns="http://www.w3.org/2000/svg"><path d="M4.93 32.469l-.54-.589a19.003 19.003 0 0 1-4.155-7.222L0 23.898l3.567-4.897L0 14.103l.235-.759A19 19 0 0 1 4.39 6.122l.541-.59 5.995.654L13.36.637l.78-.175A18.895 18.895 0 0 1 22.444.46l.78.174 2.435 5.55 5.995-.654.54.592a19 19 0 0 1 4.155 7.22l.235.76L33.017 19l3.567 4.897-.235.76a19 19 0 0 1-4.154 7.222l-.541.589-5.995-.655-2.435 5.55-.78.176c-1.353.305-2.743.46-4.152.46-1.409 0-2.799-.155-4.152-.46l-.78-.174-2.435-5.552-5.995.656v-.001zm6.07-3.85a2.592 2.592 0 0 1 2.656 1.537l1.95 4.448c1.778.307 3.594.307 5.372 0l1.95-4.448a2.592 2.592 0 0 1 2.654-1.535l4.798.523a15.787 15.787 0 0 0 2.695-4.685l-2.863-3.932a2.592 2.592 0 0 1 0-3.052l2.863-3.932a15.835 15.835 0 0 0-2.695-4.685l-4.798.522a2.592 2.592 0 0 1-2.654-1.534l-1.95-4.45a15.767 15.767 0 0 0-5.372 0l-1.95 4.45A2.592 2.592 0 0 1 11 9.38l-4.796-.522a15.83 15.83 0 0 0-2.696 4.685l2.865 3.932c.661.91.661 2.142 0 3.052l-2.864 3.932a15.825 15.825 0 0 0 2.695 4.685L11 28.621v-.001zm7.292-1.7c-4.357 0-7.886-3.547-7.886-7.916 0-4.372 3.529-7.918 7.886-7.918 4.358 0 7.886 3.544 7.886 7.916 0 4.371-3.528 7.915-7.886 7.915v.002zm0-3.167c2.605 0 4.72-2.125 4.72-4.75a4.736 4.736 0 0 0-4.72-4.75A4.735 4.735 0 0 0 13.572 19a4.735 4.735 0 0 0 4.72 4.75v.001z"/><path d="M4.93 32.469l-.54-.589a19.003 19.003 0 0 1-4.155-7.222L0 23.898l3.567-4.897L0 14.103l.235-.759A19 19 0 0 1 4.39 6.122l.541-.59 5.995.654L13.36.637l.78-.175A18.895 18.895 0 0 1 22.444.46l.78.174 2.435 5.55 5.995-.654.54.592a19 19 0 0 1 4.155 7.22l.235.76L33.017 19l3.567 4.897-.235.76a19 19 0 0 1-4.154 7.222l-.541.589-5.995-.655-2.435 5.55-.78.176c-1.353.305-2.743.46-4.152.46-1.409 0-2.799-.155-4.152-.46l-.78-.174-2.435-5.552-5.995.656v-.001zm6.07-3.85a2.592 2.592 0 0 1 2.656 1.537l1.95 4.448c1.778.307 3.594.307 5.372 0l1.95-4.448a2.592 2.592 0 0 1 2.654-1.535l4.798.523a15.787 15.787 0 0 0 2.695-4.685l-2.863-3.932a2.592 2.592 0 0 1 0-3.052l2.863-3.932a15.835 15.835 0 0 0-2.695-4.685l-4.798.522a2.592 2.592 0 0 1-2.654-1.534l-1.95-4.45a15.767 15.767 0 0 0-5.372 0l-1.95 4.45A2.592 2.592 0 0 1 11 9.38l-4.796-.522a15.83 15.83 0 0 0-2.696 4.685l2.865 3.932c.661.91.661 2.142 0 3.052l-2.864 3.932a15.825 15.825 0 0 0 2.695 4.685L11 28.621v-.001zm7.292-1.7c-4.357 0-7.886-3.547-7.886-7.916 0-4.372 3.529-7.918 7.886-7.918 4.358 0 7.886 3.544 7.886 7.916 0 4.371-3.528 7.915-7.886 7.915v.002zm0-3.167c2.605 0 4.72-2.125 4.72-4.75a4.736 4.736 0 0 0-4.72-4.75A4.735 4.735 0 0 0 13.572 19a4.735 4.735 0 0 0 4.72 4.75v.001z" fill-opacity=".2"/></svg>