<?xml version="1.0" encoding="UTF-8"?>
<svg width="40px" height="40px" viewBox="0 0 40 40" version="1.1" xmlns="http://www.w3.org/2000/svg"
>
    <title>nested</title>


    <path d="M0,2.8549103 C0,4.4314559 1.1189598,5.70950803 2.49984372,5.70950803 C3.88041508,5.70950803 4.99937488,4.4314559 4.99937488,2.8549103 C4.99937488,1.27867725 3.88041508,0.000625117209 2.49984372,0.000625117209 C1.11927236,0.000625117209 0,1.27867725 0,2.8549103 Z M10.0003126,0 L40,0 L40,5.70857036 L10.0003126,5.70857036 L10.0003126,0 Z M10.0003126,14.2742389 C10.0003126,15.8507845 11.1192724,17.1285241 12.5001563,17.1285241 C13.8807276,17.1285241 14.9996874,15.8507845 14.9996874,14.2742389 C14.9996874,13.2543602 14.5233481,12.311996 13.7500781,11.8019004 C12.9764956,11.2924298 12.0235044,11.2924298 11.2502344,11.8019004 C10.4766519,12.311996 10,13.2543602 10,14.2742389 L10.0003126,14.2742389 Z M20.0006251,11.4190161 L40,11.4190161 L40,17.127899 L20.0006251,17.127899 L20.0006251,11.4190161 Z M10.0003126,37.1113334 C10.0003126,38.6875664 11.1192724,39.9656186 12.5001563,39.9656186 C13.8807276,39.9656186 14.9996874,38.6875664 14.9996874,37.1113334 C14.9996874,35.5347878 13.8807276,34.2567356 12.5001563,34.2567356 C11.1195849,34.2567356 10.0003126,35.5347878 10.0003126,37.1113334 Z M20.0006251,34.2573608 L40,34.2573608 L40,39.9662437 L20.0006251,39.9662437 L20.0006251,34.2576733 L20.0006251,34.2573608 Z M20.0006251,25.6920048 C20.0006251,27.2685504 21.1195849,28.5466025 22.5004688,28.5466025 C23.8810402,28.5466025 25,27.2685504 25,25.6920048 C25,24.672126 24.5236607,23.7300744 23.7503907,23.2199787 C22.9768082,22.7101957 22.023817,22.7101957 21.250547,23.2199787 C20.4769644,23.7300744 20.0003126,24.672126 20.0003126,25.6923173 L20.0006251,25.6920048 Z M30.0009377,22.8383447 L40,22.8383447 L40,28.5472276 L30.0009377,28.5472276 L30.0009377,22.8383447 L30.0009377,22.8383447 Z"
          id="形状"></path>


</svg>
