<svg width="40" height="40" xmlns="http://www.w3.org/2000/svg"><path d="M0 2.855C0 4.43 1.119 5.71 2.5 5.71 3.88 5.71 5 4.43 5 2.855S3.88 0 2.5 0 0 1.279 0 2.855zM10 0h30v5.709H10V0zm0 14.274c0 1.577 1.12 2.855 2.5 2.855S15 15.85 15 14.274c0-1.02-.477-1.962-1.25-2.472a2.235 2.235 0 0 0-2.5 0c-.773.51-1.25 1.452-1.25 2.472zm10-2.855h20v5.709H20v-5.709zM10 37.111c0 1.577 1.12 2.855 2.5 2.855S15 38.688 15 37.11c0-1.576-1.12-2.854-2.5-2.854S10 35.535 10 37.11zm10-2.854h20v5.71H20v-5.71zm0-8.565c0 1.577 1.12 2.855 2.5 2.855 1.381 0 2.5-1.278 2.5-2.855 0-1.02-.476-1.962-1.25-2.472a2.234 2.234 0 0 0-2.5 0c-.773.51-1.25 1.452-1.25 2.472zm10-2.854h10v5.71H30v-5.71z"/></svg>