<svg width="40px" height="36px" viewBox="0 0 40 36" version="1.1" xmlns="http://www.w3.org/2000/svg"
>
    <g id="nav" stroke="none" stroke-width="1" fill="none" fill-rule="evenodd">
        <g id="编组" fill="#2C2C2C" fill-rule="nonzero">
            <path d="M39.5184707,15.1762497 C38.9863664,14.2562983 38.0741393,13.7049772 37.0985888,13.7137498 L34.3087251,13.7137498 L34.3087251,10.6199998 C34.3421381,7.71456558 32.2812764,5.32557051 29.6989502,5.27624991 L19.3494556,5.27624991 L12.1298083,0 L4.6101755,0 C2.02784931,0.0493205994 -0.0330123801,2.43831567 0.000400616465,5.3437499 L0.000400616465,33.8174995 C0.0328456322,35.0337025 0.918799731,36.0005471 2.00030296,36 L31.0988818,36 C32.2579248,36.0005366 33.3067275,35.2271541 33.7687514,34.0312495 L39.7684584,18.2024997 C40.1498854,17.2118994 40.0556235,16.0708043 39.5184707,15.1762497 Z M2.00030296,28.6424995 L2.00030296,5.3437499 C1.98149429,4.54404572 2.24595139,3.76871561 2.73544863,3.18846425 C3.22494587,2.6082129 3.89934938,2.27061512 4.6101755,2.24999993 L11.5398371,2.24999993 L18.7594845,7.52624989 L29.6989502,7.52624989 C30.4097763,7.54686508 31.0841798,7.88446285 31.573677,8.46471419 C32.0631743,9.04496554 32.3276314,9.82029564 32.3088227,10.6199998 L32.3088227,13.7137498 L8.99996109,13.7137498 C7.79333233,13.7127291 6.71132877,14.549632 6.28009396,15.8174997 L2.00030296,28.6424995 Z M37.9285483,17.3249997 L34.3087251,26.8649996 L31.9288413,33.1424995 C31.7849627,33.5134112 31.4585871,33.7523063 31.0988818,33.7499995 L2.41028295,33.8512495 L8.12000408,16.6387498 C8.2595245,16.2490292 8.59652713,15.994778 8.96996256,15.9974998 L37.0985888,15.9974998 C37.4037362,15.9909693 37.690574,16.1608157 37.8585517,16.4474997 C38.0057728,16.7103851 38.0318123,17.0368238 37.9285483,17.3249997 Z"
                  id="形状"></path>
        </g>
    </g>
</svg>
