<svg width="40" height="36" xmlns="http://www.w3.org/2000/svg"><path d="M39.518 15.176c-.532-.92-1.444-1.471-2.42-1.462h-2.79V10.62c.034-2.905-2.027-5.294-4.609-5.344h-10.35L12.13 0H4.61C2.028.05-.033 2.438 0 5.344v28.473C.033 35.034.92 36.001 2 36H31.1c1.159 0 2.208-.773 2.67-1.969l6-15.829a3.502 3.502 0 0 0-.25-3.026zM2 28.642V5.344c-.019-.8.246-1.575.735-2.156.49-.58 1.164-.917 1.875-.938h6.93l7.22 5.276h10.939c.71.02 1.385.358 1.875.939.49.58.754 1.355.735 2.155v3.094H9c-1.207-.001-2.289.836-2.72 2.103L2 28.642zM37.93 17.325l-3.62 9.54-2.38 6.277c-.144.371-.47.61-.83.608l-28.689.101L8.12 16.64c.14-.39.477-.644.85-.642h28.129a.867.867 0 0 1 .76.45c.147.263.173.59.07.878z" fill="currentColor" fill-rule="nonzero"/></svg>