<svg width="40" height="40" xmlns="http://www.w3.org/2000/svg"><path d="M31.91 12.341H18.086c-.808 0-1.463-.608-1.463-1.36 0-.75.655-1.359 1.463-1.359H31.91c.808 0 1.463.609 1.463 1.36 0 .75-.655 1.36-1.463 1.36zm1.463 7.665c0-.751-.655-1.36-1.463-1.36H18.086c-.808 0-1.463.609-1.463 1.36 0 .75.655 1.36 1.463 1.36H31.91c.808 0 1.463-.61 1.463-1.36zm0 9.024c0-.75-.655-1.36-1.463-1.36H18.086c-.808 0-1.463.61-1.463 1.36 0 .751.655 1.36 1.463 1.36H31.91c.808 0 1.463-.609 1.463-1.36zM8.153 10.982c0-.751-.654-1.36-1.463-1.36H1.463c-.808 0-1.463.609-1.463 1.36 0 .75.655 1.36 1.463 1.36H6.69c.809 0 1.464-.61 1.464-1.36zm0 18.048c0-.751-.654-1.36-1.463-1.36H1.463C.655 27.67 0 28.28 0 29.03c0 .75.655 1.36 1.463 1.36H6.69c.809 0 1.464-.61 1.464-1.36zm-5.426-2.72h2.926V13.7H2.727v12.61zM34.89 0H7.835C5.018 0 2.727 2.13 2.727 4.746v3.516h2.926V4.746c0-1.117.979-2.027 2.182-2.027h27.056c1.203 0 2.182.91 2.182 2.027v30.508c0 1.117-.978 2.027-2.182 2.027H7.835c-1.203 0-2.182-.91-2.182-2.027v-3.505H2.727v3.505C2.727 37.87 5.018 40 7.835 40h27.056C37.708 40 40 37.87 40 35.254V4.746C40 2.13 37.708 0 34.891 0z"/></svg>