<svg t="1716530875135" class="icon" viewBox="0 0 1024 1024" version="1.1" xmlns="http://www.w3.org/2000/svg" p-id="66105" width="200" height="200"><path d="M741.17 343H457.76c-16.57 0-30-13.43-30-30s13.43-30 30-30h283.4c16.57 0 30 13.43 30 30s-13.43 30-30 30z m30 169.13c0-16.57-13.43-30-30-30H457.76c-16.57 0-30 13.43-30 30s13.43 30 30 30h283.4c16.57 0 30-13.43 30-30z m0 199.13c0-16.57-13.43-30-30-30H457.76c-16.57 0-30 13.43-30 30s13.43 30 30 30h283.4c16.57 0 30-13.43 30-30zM254.14 313c0-16.57-13.43-30-30-30H116.98c-16.57 0-30 13.43-30 30s13.43 30 30 30h107.16c16.57 0 30-13.43 30-30z m0 398.25c0-16.57-13.43-30-30-30H116.98c-16.57 0-30 13.43-30 30s13.43 30 30 30h107.16c16.57 0 30-13.43 30-30z m-111.26-60h60V373h-60v278.25zM802.29 70.68H247.61c-57.75 0-104.73 46.98-104.73 104.73V253h60v-77.59c0-24.66 20.06-44.73 44.73-44.73h554.68c24.66 0 44.73 20.06 44.73 44.73v673.18c0 24.66-20.06 44.73-44.73 44.73H247.61c-24.66 0-44.73-20.06-44.73-44.73v-77.34h-60v77.34c0 57.75 46.98 104.73 104.73 104.73h554.68c57.75 0 104.73-46.98 104.73-104.73V175.41c0-57.75-46.98-104.73-104.73-104.73z" p-id="66106" fill="#2c2c2c"></path></svg>
