<?xml version="1.0" encoding="UTF-8"?>
<svg width="40px" height="44px" viewBox="0 0 40 44" version="1.1" xmlns="http://www.w3.org/2000/svg"
>
    <path d="M31.9101507,13.2832545 L18.085947,13.2832545 C17.2776938,13.2832545 16.6226038,12.6281645 16.6226038,11.8199112 C16.6226038,11.011658 17.2776938,10.356568 18.085947,10.356568 L31.9096629,10.356568 C32.7179162,10.356568 33.3730062,11.011658 33.3730062,11.8199112 C33.3730062,12.6281645 32.7179162,13.2832545 31.9096629,13.2832545 L31.9101507,13.2832545 Z M33.373494,21.5330959 C33.373494,20.7248427 32.718404,20.0697527 31.9101507,20.0697527 L18.085947,20.0697527 C17.2776938,20.0697527 16.6226038,20.7248427 16.6226038,21.5330959 C16.6226038,22.3413492 17.2776938,22.9964392 18.085947,22.9964392 L31.9096629,22.9964392 C32.7179162,22.9964392 33.3730062,22.3413492 33.3730062,21.5330959 L33.373494,21.5330959 Z M33.373494,31.2462807 C33.373494,30.4380274 32.718404,29.7829374 31.9101507,29.7829374 L18.085947,29.7829374 C17.2776938,29.7829374 16.6226038,30.4380274 16.6226038,31.2462807 C16.6226038,32.0545339 17.2776938,32.7096239 18.085947,32.7096239 L31.9096629,32.7096239 C32.7179162,32.7096239 33.3730062,32.0545339 33.3730062,31.2462807 L33.373494,31.2462807 Z M8.1537486,11.8199112 C8.1537486,11.011658 7.4986586,10.356568 6.69040535,10.356568 L1.46334325,10.356568 C0.655089996,10.356568 0,11.011658 0,11.8199112 C0,12.6281645 0.655089996,13.2832545 1.46334325,13.2832545 L6.69040535,13.2832545 C7.4986586,13.2832545 8.1537486,12.6281645 8.1537486,11.8199112 Z M8.1537486,31.2457929 C8.1537486,30.4375396 7.4986586,29.7824496 6.69040535,29.7824496 L1.46334325,29.7824496 C0.655089996,29.7824496 0,30.4375396 0,31.2457929 C0,32.0540461 0.655089996,32.7091361 1.46334325,32.7091361 L6.69040535,32.7091361 C7.4986586,32.7091361 8.1537486,32.0540461 8.1537486,31.2457929 Z M2.72669626,28.3191064 L5.65338276,28.3191064 L5.65338276,14.7465977 L2.72669626,14.7465977 L2.72669626,28.3191064 Z M34.8914687,0 L7.83522755,0 C5.01829179,0 2.72669626,2.29159553 2.72669626,5.10853129 L2.72669626,8.89322472 L5.65338276,8.89322472 L5.65338276,5.10853129 C5.65338276,3.90566314 6.63187162,2.9266865 7.83522755,2.9266865 L34.8914687,2.9266865 C36.0943369,2.9266865 37.0733135,3.90517536 37.0733135,5.10853129 L37.0733135,37.9449783 C37.0733135,39.1478464 36.0948246,40.1268231 34.8914687,40.1268231 L7.83522755,40.1268231 C6.6323594,40.1268231 5.65338276,39.1483342 5.65338276,37.9449783 L5.65338276,34.1724794 L2.72669626,34.1724794 L2.72669626,37.9449783 C2.72669626,40.7619141 5.01829179,43.0535096 7.83522755,43.0535096 L34.8914687,43.0535096 C37.7084045,43.0535096 40,40.7619141 40,37.9449783 L40,5.10853129 C40,2.29159553 37.7084045,0 34.8914687,0 L34.8914687,0 Z"
          id="形状"></path>
</svg>
