<svg width="128" height="122" xmlns="http://www.w3.org/2000/svg"><path d="M19.8 66.938h38.4V78.75h9.6V66.937h38.4V78.75h9.6V64.577c0-5.21-3.444-9.452-7.682-9.452H67.8v-15.75h8c3.534 0 6.4-3.527 6.4-7.875V7.875C82.2 3.527 79.334 0 75.8 0H50.2c-3.534 0-6.4 3.527-6.4 7.875V31.5c0 2.175.716 4.144 1.874 5.57 1.158 1.424 2.758 2.305 4.526 2.305h8v15.75H17.882c-4.238 0-7.682 4.24-7.682 9.452V78.75h9.6V66.937zm33.6-39.376v-15.75h19.2v15.75H53.4zm68.2 55.063h-19.2c-3.534 0-6.4 3.527-6.4 7.875v23.625c0 4.348 2.866 7.875 6.4 7.875h19.2c3.534 0 6.4-3.527 6.4-7.875V90.5c0-4.348-2.866-7.875-6.4-7.875zm-3.2 27.563h-12.8v-15.75h12.8v15.75zM73.6 82.624H54.4c-3.534 0-6.4 3.527-6.4 7.875v23.625c0 4.348 2.866 7.875 6.4 7.875h19.2c3.534 0 6.4-3.527 6.4-7.875V90.5c0-4.348-2.866-7.875-6.4-7.875zm-3.2 27.563H57.6v-15.75h12.8v15.75zM25.6 82.624H6.4c-3.534 0-6.4 3.527-6.4 7.875v23.625C0 118.473 2.866 122 6.4 122h19.2c3.534 0 6.4-3.527 6.4-7.875V90.5c0-4.348-2.866-7.875-6.4-7.875zm-3.2 27.563H9.6v-15.75h12.8v15.75z" fill="currentColor" fill-rule="nonzero"/></svg>