<svg xmlns="http://www.w3.org/2000/svg" viewBox="0 0 24 24"><path fill="#646A73" d="M13 7.5v9h-2v-9h2Z" clip-rule="evenodd" fill-rule="evenodd"/><path fill-opacity=".2" fill="#000" d="M13 7.5v9h-2v-9h2Z" clip-rule="evenodd" fill-rule="evenodd"/><path fill="#646A73" d="M4 3a1 1 0 0 1 1-1h14a1 1 0 0 1 1 1v4a1 1 0 0 1-1 1H5a1 1 0 0 1-1-1V3Zm2 1v2h12V4H6Z" clip-rule="evenodd" fill-rule="evenodd"/><path fill-opacity=".2" fill="#000" d="M4 3a1 1 0 0 1 1-1h14a1 1 0 0 1 1 1v4a1 1 0 0 1-1 1H5a1 1 0 0 1-1-1V3Zm2 1v2h12V4H6Z" clip-rule="evenodd" fill-rule="evenodd"/><path fill="#646A73" d="M5.914 11.451A1 1 0 0 1 6.75 11h10.486a1 1 0 0 1 .835.45l3.164 4.8-1.67 1.1L16.698 13H7.29l-2.854 4.349-1.672-1.098 3.15-4.8Z" clip-rule="evenodd" fill-rule="evenodd"/><path fill-opacity=".2" fill="#000" d="M5.914 11.451A1 1 0 0 1 6.75 11h10.486a1 1 0 0 1 .835.45l3.164 4.8-1.67 1.1L16.698 13H7.29l-2.854 4.349-1.672-1.098 3.15-4.8Z" clip-rule="evenodd" fill-rule="evenodd"/><path fill="#646A73" d="M1 16.5a1 1 0 0 1 1-1h4a1 1 0 0 1 1 1v4a1 1 0 0 1-1 1H2a1 1 0 0 1-1-1v-4Zm2 1v2h2v-2H3Z" clip-rule="evenodd" fill-rule="evenodd"/><path fill-opacity=".2" fill="#000" d="M1 16.5a1 1 0 0 1 1-1h4a1 1 0 0 1 1 1v4a1 1 0 0 1-1 1H2a1 1 0 0 1-1-1v-4Zm2 1v2h2v-2H3Z" clip-rule="evenodd" fill-rule="evenodd"/><path fill="#646A73" d="M9 16.5a1 1 0 0 1 1-1h4a1 1 0 0 1 1 1v4a1 1 0 0 1-1 1h-4a1 1 0 0 1-1-1v-4Zm2 1v2h2v-2h-2Z" clip-rule="evenodd" fill-rule="evenodd"/><path fill-opacity=".2" fill="#000" d="M9 16.5a1 1 0 0 1 1-1h4a1 1 0 0 1 1 1v4a1 1 0 0 1-1 1h-4a1 1 0 0 1-1-1v-4Zm2 1v2h2v-2h-2Z" clip-rule="evenodd" fill-rule="evenodd"/><path fill="#646A73" d="M17 16.5a1 1 0 0 1 1-1h4a1 1 0 0 1 1 1v4a1 1 0 0 1-1 1h-4a1 1 0 0 1-1-1v-4Zm2 1v2h2v-2h-2Z" clip-rule="evenodd" fill-rule="evenodd"/><path fill-opacity=".2" fill="#000" d="M17 16.5a1 1 0 0 1 1-1h4a1 1 0 0 1 1 1v4a1 1 0 0 1-1 1h-4a1 1 0 0 1-1-1v-4Zm2 1v2h2v-2h-2Z" clip-rule="evenodd" fill-rule="evenodd"/></svg>