<svg width="40" height="36" xmlns="http://www.w3.org/2000/svg"><path d="M21.818 10v16.364h-3.636V10z"/><path fill-opacity=".2" d="M21.818 10v16.364h-3.636V10z"/><path d="M5.455 1.818C5.455.814 6.269 0 7.273 0h25.454c1.004 0 1.818.814 1.818 1.818v7.273a1.818 1.818 0 0 1-1.818 1.818H7.273a1.818 1.818 0 0 1-1.818-1.818V1.818zM9.09 3.636v3.637h21.818V3.636H9.091z"/><path d="M5.455 1.818C5.455.814 6.269 0 7.273 0h25.454c1.004 0 1.818.814 1.818 1.818v7.273a1.818 1.818 0 0 1-1.818 1.818H7.273a1.818 1.818 0 0 1-1.818-1.818V1.818zM9.09 3.636v3.637h21.818V3.636H9.091z" fill-opacity=".2"/><path d="M8.935 17.184c.336-.512.907-.82 1.52-.82H29.52c.611 0 1.182.307 1.518.818l5.753 8.727-3.036 2L28.542 20H11.436l-5.189 7.907-3.04-1.996 5.728-8.727z"/><path d="M8.935 17.184c.336-.512.907-.82 1.52-.82H29.52c.611 0 1.182.307 1.518.818l5.753 8.727-3.036 2L28.542 20H11.436l-5.189 7.907-3.04-1.996 5.728-8.727z" fill-opacity=".2"/><path d="M0 26.364c0-1.005.814-1.819 1.818-1.819h7.273c1.004 0 1.818.814 1.818 1.819v7.272a1.818 1.818 0 0 1-1.818 1.819H1.818A1.818 1.818 0 0 1 0 33.636v-7.272zm3.636 1.818v3.636h3.637v-3.636H3.636z"/><path d="M0 26.364c0-1.005.814-1.819 1.818-1.819h7.273c1.004 0 1.818.814 1.818 1.819v7.272a1.818 1.818 0 0 1-1.818 1.819H1.818A1.818 1.818 0 0 1 0 33.636v-7.272zm3.636 1.818v3.636h3.637v-3.636H3.636z" fill-opacity=".2"/><path d="M14.545 26.364c0-1.005.814-1.819 1.819-1.819h7.272c1.005 0 1.819.814 1.819 1.819v7.272a1.818 1.818 0 0 1-1.819 1.819h-7.272a1.818 1.818 0 0 1-1.819-1.819v-7.272zm3.637 1.818v3.636h3.636v-3.636h-3.636z"/><path d="M14.545 26.364c0-1.005.814-1.819 1.819-1.819h7.272c1.005 0 1.819.814 1.819 1.819v7.272a1.818 1.818 0 0 1-1.819 1.819h-7.272a1.818 1.818 0 0 1-1.819-1.819v-7.272zm3.637 1.818v3.636h3.636v-3.636h-3.636z" fill-opacity=".2"/><path d="M29.09 26.364c0-1.005.815-1.819 1.82-1.819h7.272c1.004 0 1.818.814 1.818 1.819v7.272a1.818 1.818 0 0 1-1.818 1.819h-7.273a1.818 1.818 0 0 1-1.818-1.819v-7.272zm3.637 1.818v3.636h3.637v-3.636h-3.637z"/><path d="M29.09 26.364c0-1.005.815-1.819 1.82-1.819h7.272c1.004 0 1.818.814 1.818 1.819v7.272a1.818 1.818 0 0 1-1.818 1.819h-7.273a1.818 1.818 0 0 1-1.818-1.819v-7.272zm3.637 1.818v3.636h3.637v-3.636h-3.637z" fill-opacity=".2"/></svg>