<!-- <svg xmlns="http://www.w3.org/2000/svg" viewBox="0 0 24 24"><path stroke-linejoin="round" stroke-width="2" stroke="#646A73" d="m17 20.5 5-8.5-5-8.5H7L2 12l5 8.5h10Z"/><path stroke-linejoin="round" stroke-width="2" stroke-opacity=".2" stroke="#000" d="m17 20.5 5-8.5-5-8.5H7L2 12l5 8.5h10Z"/><path stroke-linejoin="round" stroke-width="2" stroke="#646A73" d="M12 14.5a2.5 2.5 0 1 0 0-5 2.5 2.5 0 0 0 0 5Z"/><path stroke-linejoin="round" stroke-width="2" stroke-opacity=".2" stroke="#000" d="M12 14.5a2.5 2.5 0 1 0 0-5 2.5 2.5 0 0 0 0 5Z"/></svg> -->

<!-- <svg t="1676621755868" class="icon" viewBox="0 0 1024 1024" version="1.1" xmlns="http://www.w3.org/2000/svg" p-id="6556" width="200" height="200"><path d="M944.48 552.458667l-182.357333 330.666666a73.792 73.792 0 0 1-64.565334 38.325334h-362.133333a73.792 73.792 0 0 1-64.565333-38.325334l-182.357334-330.666666a75.338667 75.338667 0 0 1 0-72.682667l182.357334-330.666667a73.792 73.792 0 0 1 64.565333-38.325333h362.133333a73.792 73.792 0 0 1 64.565334 38.325333l182.357333 330.666667a75.338667 75.338667 0 0 1 0 72.682667z m-55.989333-31.146667a10.773333 10.773333 0 0 0 0-10.378667l-182.037334-330.666666a10.517333 10.517333 0 0 0-9.205333-5.482667H335.733333a10.517333 10.517333 0 0 0-9.205333 5.482667l-182.037333 330.666666a10.773333 10.773333 0 0 0 0 10.378667l182.037333 330.666667a10.517333 10.517333 0 0 0 9.205333 5.472h361.514667a10.517333 10.517333 0 0 0 9.205333-5.472l182.037334-330.666667zM513.738667 682.666667c-94.261333 0-170.666667-76.405333-170.666667-170.666667s76.405333-170.666667 170.666667-170.666667c94.250667 0 170.666667 76.405333 170.666666 170.666667s-76.416 170.666667-170.666666 170.666667z m0-64c58.912 0 106.666667-47.754667 106.666666-106.666667s-47.754667-106.666667-106.666666-106.666667-106.666667 47.754667-106.666667 106.666667 47.754667 106.666667 106.666667 106.666667z" fill="#000000" p-id="6557"></path></svg> -->

<svg t="1676621805147" class="icon" viewBox="0 0 1024 1024" version="1.1" xmlns="http://www.w3.org/2000/svg" p-id="8446" width="300" height="300"><path d="M469.333333 60.693333a85.333333 85.333333 0 0 1 85.333334 0l326.826666 188.714667a85.333333 85.333333 0 0 1 42.666667 73.898667v377.386666a85.333333 85.333333 0 0 1-42.666667 73.898667L554.666667 963.306667a85.333333 85.333333 0 0 1-85.333334 0L142.506667 774.592a85.333333 85.333333 0 0 1-42.666667-73.898667v-377.386666a85.333333 85.333333 0 0 1 42.666667-73.898667z m42.666667 73.898667L185.173333 323.306667v377.386666L512 889.408l326.826667-188.714667v-377.386666L512 134.592zM512 341.333333a170.666667 170.666667 0 1 1 0 341.333334 170.666667 170.666667 0 0 1 0-341.333334z m0 85.333334a85.333333 85.333333 0 1 0 0 170.666666 85.333333 85.333333 0 0 0 0-170.666666z" fill="#000000" p-id="8447"></path></svg>