<svg width="40" height="35" xmlns="http://www.w3.org/2000/svg"><path d="M0 1.818C0 .814.814 0 1.818 0h36.364C39.186 0 40 .814 40 1.818v23.637a1.818 1.818 0 0 1-1.818 1.818H1.818A1.818 1.818 0 0 1 0 25.455V1.818zm3.636 1.818v20h32.728v-20H3.636z"/><path d="M0 1.818C0 .814.814 0 1.818 0h36.364C39.186 0 40 .814 40 1.818v23.637a1.818 1.818 0 0 1-1.818 1.818H1.818A1.818 1.818 0 0 1 0 25.455V1.818zm3.636 1.818v20h32.728v-20H3.636z" fill-opacity=".2"/><path d="M8.182 11.818a.91.91 0 0 1-.91-.909V9.091a.91.91 0 0 1 .91-.91H10a.91.91 0 0 1 .91.91v1.818a.91.91 0 0 1-.91.91H8.182z"/><path d="M8.182 11.818a.91.91 0 0 1-.91-.909V9.091a.91.91 0 0 1 .91-.91H10a.91.91 0 0 1 .91.91v1.818a.91.91 0 0 1-.91.91H8.182z" fill-opacity=".2"/><path d="M8.182 19.09a.91.91 0 0 1-.91-.908v-1.818a.91.91 0 0 1 .91-.91H10a.91.91 0 0 1 .91.91v1.818a.91.91 0 0 1-.91.909H8.182z"/><path d="M8.182 19.09a.91.91 0 0 1-.91-.908v-1.818a.91.91 0 0 1 .91-.91H10a.91.91 0 0 1 .91.91v1.818a.91.91 0 0 1-.91.909H8.182z" fill-opacity=".2"/><path d="M18.182 30.91v-5.455h3.636v5.454z"/><path fill-opacity=".2" d="M18.182 30.91v-5.455h3.636v5.454z"/><path d="M20 18.182a.91.91 0 0 1-.91.909h-5.454a.91.91 0 0 1-.909-.91v-1.817a.91.91 0 0 1 .91-.91h5.454a.91.91 0 0 1 .909.91v1.818z"/><path d="M20 18.182a.91.91 0 0 1-.91.909h-5.454a.91.91 0 0 1-.909-.91v-1.817a.91.91 0 0 1 .91-.91h5.454a.91.91 0 0 1 .909.91v1.818z" fill-opacity=".2"/><path d="M32.727 10.91a.91.91 0 0 1-.909.908H13.636a.91.91 0 0 1-.909-.909V9.091a.91.91 0 0 1 .91-.91h18.181a.91.91 0 0 1 .91.91v1.818z"/><path d="M32.727 10.91a.91.91 0 0 1-.909.908H13.636a.91.91 0 0 1-.909-.909V9.091a.91.91 0 0 1 .91-.91h18.181a.91.91 0 0 1 .91.91v1.818z" fill-opacity=".2"/><path d="M30.91 33.636a.91.91 0 0 1-.91.91H10a.91.91 0 0 1-.91-.91v-1.818a.91.91 0 0 1 .91-.909h20a.91.91 0 0 1 .91.91v1.817z"/><path d="M30.91 33.636a.91.91 0 0 1-.91.91H10a.91.91 0 0 1-.91-.91v-1.818a.91.91 0 0 1 .91-.909h20a.91.91 0 0 1 .91.91v1.817z" fill-opacity=".2"/></svg>