<?xml version="1.0" encoding="UTF-8"?>
<svg width="40px" height="35px" viewBox="0 0 40 35" version="1.1" xmlns="http://www.w3.org/2000/svg"
>
    <title>overview</title>


    <path d="M0,1.81818182 C0,0.814027728 0.814027728,0 1.81818182,0 L38.1818182,0 C39.1859723,0 40,0.814027728 40,1.81818182 L40,25.4545455 C40,26.4586995 39.1859723,27.2727273 38.1818182,27.2727273 L1.81818182,27.2727273 C0.814027728,27.2727273 0,26.4586995 0,25.4545455 L0,1.81818182 Z M3.63636364,3.63636364 L3.63636364,23.6363636 L36.3636364,23.6363636 L36.3636364,3.63636364 L3.63636364,3.63636364 Z"
          id="形状"></path>
    <path d="M0,1.81818182 C0,0.814027728 0.814027728,0 1.81818182,0 L38.1818182,0 C39.1859723,0 40,0.814027728 40,1.81818182 L40,25.4545455 C40,26.4586995 39.1859723,27.2727273 38.1818182,27.2727273 L1.81818182,27.2727273 C0.814027728,27.2727273 0,26.4586995 0,25.4545455 L0,1.81818182 Z M3.63636364,3.63636364 L3.63636364,23.6363636 L36.3636364,23.6363636 L36.3636364,3.63636364 L3.63636364,3.63636364 Z"
          id="形状" fill-opacity="0.2"></path>
    <path d="M8.18181818,11.8181818 C7.67974114,11.8181818 7.27272727,11.411168 7.27272727,10.9090909 L7.27272727,9.09090909 C7.27272727,8.58883205 7.67974114,8.18181818 8.18181818,8.18181818 L10,8.18181818 C10.502077,8.18181818 10.9090909,8.58883205 10.9090909,9.09090909 L10.9090909,10.9090909 C10.9090909,11.411168 10.502077,11.8181818 10,11.8181818 L8.18181818,11.8181818 Z"
          id="路径"></path>
    <path d="M8.18181818,11.8181818 C7.67974114,11.8181818 7.27272727,11.411168 7.27272727,10.9090909 L7.27272727,9.09090909 C7.27272727,8.58883205 7.67974114,8.18181818 8.18181818,8.18181818 L10,8.18181818 C10.502077,8.18181818 10.9090909,8.58883205 10.9090909,9.09090909 L10.9090909,10.9090909 C10.9090909,11.411168 10.502077,11.8181818 10,11.8181818 L8.18181818,11.8181818 Z"
          id="路径" fill-opacity="0.2"></path>
    <path d="M8.18181818,19.0909091 C7.67974114,19.0909091 7.27272727,18.6838952 7.27272727,18.1818182 L7.27272727,16.3636364 C7.27272727,15.8615593 7.67974114,15.4545455 8.18181818,15.4545455 L10,15.4545455 C10.502077,15.4545455 10.9090909,15.8615593 10.9090909,16.3636364 L10.9090909,18.1818182 C10.9090909,18.6838952 10.502077,19.0909091 10,19.0909091 L8.18181818,19.0909091 Z"
          id="路径"></path>
    <path d="M8.18181818,19.0909091 C7.67974114,19.0909091 7.27272727,18.6838952 7.27272727,18.1818182 L7.27272727,16.3636364 C7.27272727,15.8615593 7.67974114,15.4545455 8.18181818,15.4545455 L10,15.4545455 C10.502077,15.4545455 10.9090909,15.8615593 10.9090909,16.3636364 L10.9090909,18.1818182 C10.9090909,18.6838952 10.502077,19.0909091 10,19.0909091 L8.18181818,19.0909091 Z"
          id="路径" fill-opacity="0.2"></path>
    <polygon id="路径"
             points="18.1818182 30.9090909 18.1818182 25.4545455 21.8181818 25.4545455 21.8181818 30.9090909"></polygon>
    <polygon id="路径" fill-opacity="0.2"
             points="18.1818182 30.9090909 18.1818182 25.4545455 21.8181818 25.4545455 21.8181818 30.9090909"></polygon>
    <path d="M20,18.1818182 C20,18.6838952 19.5929861,19.0909091 19.0909091,19.0909091 L13.6363636,19.0909091 C13.1342866,19.0909091 12.7272727,18.6838952 12.7272727,18.1818182 L12.7272727,16.3636364 C12.7272727,15.8615593 13.1342866,15.4545455 13.6363636,15.4545455 L19.0909091,15.4545455 C19.5929861,15.4545455 20,15.8615593 20,16.3636364 L20,18.1818182 Z"
          id="路径"></path>
    <path d="M20,18.1818182 C20,18.6838952 19.5929861,19.0909091 19.0909091,19.0909091 L13.6363636,19.0909091 C13.1342866,19.0909091 12.7272727,18.6838952 12.7272727,18.1818182 L12.7272727,16.3636364 C12.7272727,15.8615593 13.1342866,15.4545455 13.6363636,15.4545455 L19.0909091,15.4545455 C19.5929861,15.4545455 20,15.8615593 20,16.3636364 L20,18.1818182 Z"
          id="路径" fill-opacity="0.2"></path>
    <path d="M32.7272727,10.9090909 C32.7272727,11.411168 32.3202589,11.8181818 31.8181818,11.8181818 L13.6363636,11.8181818 C13.1342866,11.8181818 12.7272727,11.411168 12.7272727,10.9090909 L12.7272727,9.09090909 C12.7272727,8.58883205 13.1342866,8.18181818 13.6363636,8.18181818 L31.8181818,8.18181818 C32.3202589,8.18181818 32.7272727,8.58883205 32.7272727,9.09090909 L32.7272727,10.9090909 Z"
          id="路径"></path>
    <path d="M32.7272727,10.9090909 C32.7272727,11.411168 32.3202589,11.8181818 31.8181818,11.8181818 L13.6363636,11.8181818 C13.1342866,11.8181818 12.7272727,11.411168 12.7272727,10.9090909 L12.7272727,9.09090909 C12.7272727,8.58883205 13.1342866,8.18181818 13.6363636,8.18181818 L31.8181818,8.18181818 C32.3202589,8.18181818 32.7272727,8.58883205 32.7272727,9.09090909 L32.7272727,10.9090909 Z"
          id="路径" fill-opacity="0.2"></path>
    <path d="M30.9090909,33.6363636 C30.9090909,34.1384407 30.502077,34.5454545 30,34.5454545 L10,34.5454545 C9.49792295,34.5454545 9.09090909,34.1384407 9.09090909,33.6363636 L9.09090909,31.8181818 C9.09090909,31.3161048 9.49792295,30.9090909 10,30.9090909 L30,30.9090909 C30.502077,30.9090909 30.9090909,31.3161048 30.9090909,31.8181818 L30.9090909,33.6363636 Z"
          id="路径"></path>
    <path d="M30.9090909,33.6363636 C30.9090909,34.1384407 30.502077,34.5454545 30,34.5454545 L10,34.5454545 C9.49792295,34.5454545 9.09090909,34.1384407 9.09090909,33.6363636 L9.09090909,31.8181818 C9.09090909,31.3161048 9.49792295,30.9090909 10,30.9090909 L30,30.9090909 C30.502077,30.9090909 30.9090909,31.3161048 30.9090909,31.8181818 L30.9090909,33.6363636 Z"
          id="路径" fill-opacity="0.2"></path>


</svg>
