<?xml version="1.0" encoding="UTF-8"?>
<svg width="40px" height="46px" viewBox="0 0 40 46" version="1.1" xmlns="http://www.w3.org/2000/svg"
>
    <path d="M35.3176303,13.9329051 L32.8336902,13.9329051 L32.8336902,12.8479657 C32.8336902,5.76730906 27.0663812,0 19.9857245,0 C12.9050678,0 7.13775874,5.76730906 7.13775874,12.8479657 L7.13775874,13.904354 L4.6538187,13.904354 C2.08422555,13.9329051 0,15.9885796 0,18.5581727 L0,41.0278373 C0,43.5974304 2.08422555,45.681656 4.6538187,45.681656 L35.3461813,45.681656 C37.9157744,45.681656 40,43.5974304 40,41.0278373 L40,18.5581727 C39.971449,15.9885796 37.8872234,13.9329051 35.3176303,13.9329051 Z M9.99286224,12.8479657 C9.99286224,7.33761599 14.4753747,2.8551035 19.9857245,2.8551035 C25.4960742,2.8551035 29.9785867,7.33761599 29.9785867,12.8479657 L29.9785867,13.904354 L9.99286224,13.904354 L9.99286224,12.8479657 Z M37.1163455,41.0278373 C37.1163455,42.0271235 36.3169165,42.8265525 35.3176303,42.8265525 L4.6538187,42.8265525 C3.65453248,42.8265525 2.8551035,42.0271235 2.8551035,41.0278373 L2.8551035,18.5581727 C2.8551035,17.5588865 3.65453248,16.7594575 4.6538187,16.7594575 L35.3461813,16.7594575 C36.3169165,16.7880086 37.1163455,17.5874375 37.1163455,18.5581727 L37.1163455,41.0278373 Z"
          id="形状"></path>
    <path d="M19.9857245,24.2683797 C19.1862955,24.2683797 18.5581727,24.8965025 18.5581727,25.6959315 L18.5581727,31.4061385 C18.5581727,32.2055675 19.1862955,32.8336902 19.9857245,32.8336902 C20.7851535,32.8336902 21.4132762,32.2055675 21.4132762,31.4061385 L21.4132762,25.6959315 C21.4132762,24.8965025 20.7851535,24.2683797 19.9857245,24.2683797 Z"
          id="路径"></path>
</svg>
