<?xml version="1.0" standalone="no"?><!DOCTYPE svg PUBLIC "-//W3C//DTD SVG 1.1//EN" "http://www.w3.org/Graphics/SVG/1.1/DTD/svg11.dtd"><svg t="1694426459089" class="icon" viewBox="0 0 1024 1024" version="1.1" xmlns="http://www.w3.org/2000/svg" p-id="8414" xmlns:xlink="http://www.w3.org/1999/xlink" width="200" height="200"><path d="M510.952965 0L78.178596 164.73347v286.887525a505.36878 505.36878 0 0 0 209.406953 408.343559l223.367416 164.035446 225.461486-164.035446a505.36878 505.36878 0 0 0 209.406953-408.343559V164.73347z m360.877983 451.620995a432.774369 432.774369 0 0 1-177.995911 349.011589L510.952965 934.653033l-182.184049-133.322426A431.378323 431.378323 0 0 1 147.980913 451.620995v-237.32788l360.877983-139.604635 360.877982 139.604635z" p-id="8415"></path><path d="M510.952965 258.966599a144.490798 144.490798 0 0 0-34.901159 284.095432V732.924335a32.109066 32.109066 0 0 0 34.901159 34.901159 32.109066 32.109066 0 0 0 36.297205-36.297205V677.082481h36.297206a32.109066 32.109066 0 0 0 36.297205-36.297205 32.109066 32.109066 0 0 0-36.297205-35.599182h-36.297206v-57.2379-4.886163a144.490798 144.490798 0 0 0-36.297205-284.095432z m69.802318 144.490797a69.802318 69.802318 0 1 1-69.802318-69.802318 69.802318 69.802318 0 0 1 72.594411 69.802318z" p-id="8416"></path></svg>