<svg width="40" height="46" xmlns="http://www.w3.org/2000/svg"><path d="M35.318 13.933h-2.484v-1.085C32.834 5.768 27.066 0 19.986 0 12.906 0 7.138 5.767 7.138 12.848v1.056H4.654C2.084 13.933 0 15.99 0 18.558v22.47a4.655 4.655 0 0 0 4.654 4.654h30.692A4.655 4.655 0 0 0 40 41.028v-22.47a4.673 4.673 0 0 0-4.682-4.625zM9.993 12.848c0-5.51 4.482-9.993 9.993-9.993 5.51 0 9.993 4.483 9.993 9.993v1.056H9.993v-1.056zm27.123 28.18c0 1-.8 1.799-1.798 1.799H4.654c-1 0-1.799-.8-1.799-1.8V18.559c0-1 .8-1.799 1.799-1.799h30.692c.97.029 1.77.828 1.77 1.8v22.469z"/><path d="M19.986 24.268c-.8 0-1.428.629-1.428 1.428v5.71c0 .8.628 1.428 1.428 1.428.8 0 1.427-.628 1.427-1.428v-5.71c0-.8-.628-1.428-1.427-1.428z"/></svg>