<svg width="40" height="48" xmlns="http://www.w3.org/2000/svg"><path d="M19.952 0L0 7.595V20.82a23.298 23.298 0 0 0 9.654 18.825l10.298 7.562 10.394-7.562A23.298 23.298 0 0 0 40 20.821V7.595L19.952 0zm16.637 20.82a19.952 19.952 0 0 1-8.206 16.09l-8.431 6.18-8.4-6.147A19.887 19.887 0 0 1 3.219 20.82V9.879l16.637-6.436L36.492 9.88l.097 10.942z"/><path d="M19.952 11.939a6.661 6.661 0 0 0-1.61 13.097v8.753a1.48 1.48 0 0 0 1.61 1.61 1.48 1.48 0 0 0 1.673-1.674v-2.51h1.673a1.48 1.48 0 0 0 1.674-1.674 1.48 1.48 0 0 0-1.674-1.64h-1.673v-2.865a6.661 6.661 0 0 0-1.673-13.097zM23.17 18.6a3.218 3.218 0 1 1-3.218-3.218 3.218 3.218 0 0 1 3.346 3.218h-.128z"/></svg>