<svg xmlns="http://www.w3.org/2000/svg" viewBox="0 0 24 24"><path fill="#646A73" d="M11.724.54a1 1 0 0 1 .56 0l8.996 2.628a1 1 0 0 1 .72.96v5.389c0 6.095-3.9 11.505-9.683 13.432a1 1 0 0 1-.632 0A14.16 14.16 0 0 1 2 9.514V4.128a1 1 0 0 1 .72-.96L11.724.54ZM4 4.878v4.636a12.16 12.16 0 0 0 8.001 11.427A12.158 12.158 0 0 0 20 9.517v-4.64l-7.996-2.335L4 4.878Z" clip-rule="evenodd" fill-rule="evenodd"/><path fill-opacity=".2" fill="#000" d="M11.724.54a1 1 0 0 1 .56 0l8.996 2.628a1 1 0 0 1 .72.96v5.389c0 6.095-3.9 11.505-9.683 13.432a1 1 0 0 1-.632 0A14.16 14.16 0 0 1 2 9.514V4.128a1 1 0 0 1 .72-.96L11.724.54ZM4 4.878v4.636a12.16 12.16 0 0 0 8.001 11.427A12.158 12.158 0 0 0 20 9.517v-4.64l-7.996-2.335L4 4.878Z" clip-rule="evenodd" fill-rule="evenodd"/><path fill="#646A73" d="M8.5 10a3.5 3.5 0 1 1 6.057 2.39l.435 3.486A1 1 0 0 1 14 17h-4a1 1 0 0 1-.992-1.124l.435-3.486A3.49 3.49 0 0 1 8.5 10ZM12 8.5a1.5 1.5 0 0 0-.9 2.7 1 1 0 0 1 .392.924L11.132 15h1.735l-.359-2.876a1 1 0 0 1 .392-.924 1.5 1.5 0 0 0-.9-2.7Z" clip-rule="evenodd" fill-rule="evenodd"/><path fill-opacity=".2" fill="#000" d="M8.5 10a3.5 3.5 0 1 1 6.057 2.39l.435 3.486A1 1 0 0 1 14 17h-4a1 1 0 0 1-.992-1.124l.435-3.486A3.49 3.49 0 0 1 8.5 10ZM12 8.5a1.5 1.5 0 0 0-.9 2.7 1 1 0 0 1 .392.924L11.132 15h1.735l-.359-2.876a1 1 0 0 1 .392-.924 1.5 1.5 0 0 0-.9-2.7Z" clip-rule="evenodd" fill-rule="evenodd"/></svg>