<svg width="40" height="38" xmlns="http://www.w3.org/2000/svg"><path d="M16.364 18.185A9.093 9.093 0 1 1 16.367 0a9.093 9.093 0 0 1-.003 18.185zm0-3.636a5.455 5.455 0 1 0 0-10.909 5.455 5.455 0 0 0 0 10.91zM0 30.913c0-6.025 4.884-10.91 10.91-10.91h10.908c6.025 0 10.91 4.885 10.91 10.91v4.616a1.821 1.821 0 0 1-1.819 1.818H1.82c-1 0-1.819-.814-1.819-1.818v-4.616zm29.09 0a7.273 7.273 0 0 0-7.272-7.273H10.91a7.273 7.273 0 0 0-7.273 7.273v2.798h25.455v-2.798zM30 12.73h9.09a.91.91 0 0 1 .91.909v1.818a.91.91 0 0 1-.91.91H30a.91.91 0 0 1-.91-.91V13.64a.91.91 0 0 1 .91-.91zm5.455 7.273h3.636a.91.91 0 0 1 .909.909v1.818a.91.91 0 0 1-.91.909h-3.635a.91.91 0 0 1-.91-.91v-1.817a.91.91 0 0 1 .91-.91z" fill="currentColor"/><path d="M16.364 18.185A9.093 9.093 0 1 1 16.367 0a9.093 9.093 0 0 1-.003 18.185zm0-3.636a5.455 5.455 0 1 0 0-10.909 5.455 5.455 0 0 0 0 10.91zM0 30.913c0-6.025 4.884-10.91 10.91-10.91h10.908c6.025 0 10.91 4.885 10.91 10.91v4.616a1.821 1.821 0 0 1-1.819 1.818H1.82c-1 0-1.819-.814-1.819-1.818v-4.616zm29.09 0a7.273 7.273 0 0 0-7.272-7.273H10.91a7.273 7.273 0 0 0-7.273 7.273v2.798h25.455v-2.798zM30 12.73h9.09a.91.91 0 0 1 .91.909v1.818a.91.91 0 0 1-.91.91H30a.91.91 0 0 1-.91-.91V13.64a.91.91 0 0 1 .91-.91zm5.455 7.273h3.636a.91.91 0 0 1 .909.909v1.818a.91.91 0 0 1-.91.909h-3.635a.91.91 0 0 1-.91-.91v-1.817a.91.91 0 0 1 .91-.91z" fill-opacity=".2" fill="currentColor"/></svg>