<?xml version="1.0" encoding="UTF-8"?>
<svg width="40px" height="38px" viewBox="0 0 40 38" version="1.1" xmlns="http://www.w3.org/2000/svg"
>
    <title>personal</title>


    <path d="M16.3636364,18.1854551 C11.3418618,18.1844508 7.27172312,14.1126841 7.27272709,9.09090946 C7.27373143,4.06913486 11.3454981,-0.00100378263 16.3672727,1.85694324e-07 C21.3890473,0.00100452555 25.459186,4.07277122 25.458182,9.09454583 C25.4571777,14.1163204 21.385411,18.1864591 16.3636364,18.1854551 Z M16.3636364,14.5490913 C19.3760986,14.5490913 21.8181817,12.1070081 21.8181817,9.09454583 C21.8181817,6.08208359 19.3760986,3.64000037 16.3636364,3.64000037 C13.3511741,3.64000037 10.909091,6.08208359 10.909091,9.09454583 C10.909091,12.1070081 13.3511741,14.5490913 16.3636364,14.5490913 Z M0,30.9127276 C0,24.8878031 4.88416637,20.0036367 10.9090909,20.0036367 L21.8181818,20.0036367 C27.8431064,20.0036367 32.7272727,24.8878031 32.7272727,30.9127276 L32.7272727,35.5290913 C32.7272727,36.5327276 31.9090909,37.3472731 30.9090909,37.3472731 L1.81818182,37.3472731 C0.818181818,37.3472731 0,36.5327276 0,35.5290913 L0,30.9127276 Z M29.0909091,30.9127276 C29.0909091,26.8961113 25.8347982,23.6400004 21.8181818,23.6400004 L10.9090909,23.6400004 C6.89247455,23.6400004 3.63636364,26.8961113 3.63636364,30.9127276 L3.63636364,33.7109095 L29.0909091,33.7109095 L29.0909091,30.9127276 Z M30,12.7309095 L39.0909091,12.7309095 C39.5929861,12.7309095 40,13.1379233 40,13.6400004 L40,15.4581822 C40,15.9602592 39.5929861,16.3672731 39.0909091,16.3672731 L30,16.3672731 C29.497923,16.3672731 29.0909091,15.9602592 29.0909091,15.4581822 L29.0909091,13.6400004 C29.0909091,13.1379233 29.497923,12.7309095 30,12.7309095 Z M35.4545455,20.0036367 L39.0909091,20.0036367 C39.5929861,20.0036367 40,20.4106506 40,20.9127276 L40,22.7309095 C40,23.2329865 39.5929861,23.6400004 39.0909091,23.6400004 L35.4545455,23.6400004 C34.9524684,23.6400004 34.5454545,23.2329865 34.5454545,22.7309095 L34.5454545,20.9127276 C34.5454545,20.4106506 34.9524684,20.0036367 35.4545455,20.0036367 Z"
          id="形状" fill="#646A73"></path>
    <path d="M16.3636364,18.1854551 C11.3418618,18.1844508 7.27172312,14.1126841 7.27272709,9.09090946 C7.27373143,4.06913486 11.3454981,-0.00100378263 16.3672727,1.85694324e-07 C21.3890473,0.00100452555 25.459186,4.07277122 25.458182,9.09454583 C25.4571777,14.1163204 21.385411,18.1864591 16.3636364,18.1854551 Z M16.3636364,14.5490913 C19.3760986,14.5490913 21.8181817,12.1070081 21.8181817,9.09454583 C21.8181817,6.08208359 19.3760986,3.64000037 16.3636364,3.64000037 C13.3511741,3.64000037 10.909091,6.08208359 10.909091,9.09454583 C10.909091,12.1070081 13.3511741,14.5490913 16.3636364,14.5490913 Z M0,30.9127276 C0,24.8878031 4.88416637,20.0036367 10.9090909,20.0036367 L21.8181818,20.0036367 C27.8431064,20.0036367 32.7272727,24.8878031 32.7272727,30.9127276 L32.7272727,35.5290913 C32.7272727,36.5327276 31.9090909,37.3472731 30.9090909,37.3472731 L1.81818182,37.3472731 C0.818181818,37.3472731 0,36.5327276 0,35.5290913 L0,30.9127276 Z M29.0909091,30.9127276 C29.0909091,26.8961113 25.8347982,23.6400004 21.8181818,23.6400004 L10.9090909,23.6400004 C6.89247455,23.6400004 3.63636364,26.8961113 3.63636364,30.9127276 L3.63636364,33.7109095 L29.0909091,33.7109095 L29.0909091,30.9127276 Z M30,12.7309095 L39.0909091,12.7309095 C39.5929861,12.7309095 40,13.1379233 40,13.6400004 L40,15.4581822 C40,15.9602592 39.5929861,16.3672731 39.0909091,16.3672731 L30,16.3672731 C29.497923,16.3672731 29.0909091,15.9602592 29.0909091,15.4581822 L29.0909091,13.6400004 C29.0909091,13.1379233 29.497923,12.7309095 30,12.7309095 Z M35.4545455,20.0036367 L39.0909091,20.0036367 C39.5929861,20.0036367 40,20.4106506 40,20.9127276 L40,22.7309095 C40,23.2329865 39.5929861,23.6400004 39.0909091,23.6400004 L35.4545455,23.6400004 C34.9524684,23.6400004 34.5454545,23.2329865 34.5454545,22.7309095 L34.5454545,20.9127276 C34.5454545,20.4106506 34.9524684,20.0036367 35.4545455,20.0036367 Z"
          id="形状" fill-opacity="0.2" fill="#000000"></path>


</svg>
