<svg xmlns="http://www.w3.org/2000/svg" viewBox="0 0 24 24"><path fill="#646A73" d="M10 12a5 5 0 1 1 .002-10.002A5 5 0 0 1 10 12Zm0-2a3 3 0 0 0 0-6 3 3 0 0 0 0 6Zm-9 9a6 6 0 0 1 6-6h6a6 6 0 0 1 6 6v2.539c0 .552-.45 1-1 1H2c-.55 0-1-.448-1-1V19Zm16 0a4 4 0 0 0-4-4H7a4 4 0 0 0-4 4v1.539h14V19Zm.5-10h5a.5.5 0 0 1 .5.5v1a.5.5 0 0 1-.5.5h-5a.5.5 0 0 1-.5-.5v-1a.5.5 0 0 1 .5-.5Zm3 4h2a.5.5 0 0 1 .5.5v1a.5.5 0 0 1-.5.5h-2a.5.5 0 0 1-.5-.5v-1a.5.5 0 0 1 .5-.5Z" clip-rule="evenodd" fill-rule="evenodd"/><path fill-opacity=".2" fill="#000" d="M10 12a5 5 0 1 1 .002-10.002A5 5 0 0 1 10 12Zm0-2a3 3 0 0 0 0-6 3 3 0 0 0 0 6Zm-9 9a6 6 0 0 1 6-6h6a6 6 0 0 1 6 6v2.539c0 .552-.45 1-1 1H2c-.55 0-1-.448-1-1V19Zm16 0a4 4 0 0 0-4-4H7a4 4 0 0 0-4 4v1.539h14V19Zm.5-10h5a.5.5 0 0 1 .5.5v1a.5.5 0 0 1-.5.5h-5a.5.5 0 0 1-.5-.5v-1a.5.5 0 0 1 .5-.5Zm3 4h2a.5.5 0 0 1 .5.5v1a.5.5 0 0 1-.5.5h-2a.5.5 0 0 1-.5-.5v-1a.5.5 0 0 1 .5-.5Z" clip-rule="evenodd" fill-rule="evenodd"/></svg>