<svg t="1716521302395" class="icon" viewBox="0 0 1024 1024" version="1.1" xmlns="http://www.w3.org/2000/svg" p-id="25663" width="200" height="200"><path d="M927.68 272L542.08 49.28a60.032 60.032 0 0 0-60.032 0L96.32 272v445.376c0 21.44 11.392 41.216 30.016 51.968L512 992l385.664-222.72a60.032 60.032 0 0 0 30.08-51.904V272zM512 475.008L192.256 290.432 512 105.856l319.68 184.576L512 475.008z m32.064 55.488l319.68-184.576v369.088L544 899.52V530.56z m-64 0v369.024l-319.744-184.512V345.856L480 530.56z" fill="#2c2c2c" fill-opacity=".9" p-id="25664"></path></svg>
