<?xml version="1.0" encoding="UTF-8"?>
<svg width="40px" height="46px" viewBox="0 0 40 46" version="1.1" xmlns="http://www.w3.org/2000/svg"
>
    <path d="M39.9969209,11.1020496 L21.4456162,0.386939177 C20.5520184,-0.128979726 19.4510606,-0.128979726 18.5574629,0.386939177 L0,11.1020496 L0,32.5291915 C0,33.5606748 0.548071742,34.5121028 1.44407667,35.0293839 L19.9984605,45.7414154 L38.5528443,35.0263049 C39.4463597,34.5119014 39.9979012,33.5601989 40,32.5291915 L40,11.1020496 L39.9969209,11.1020496 Z M19.9984605,20.8688112 L4.61550304,11.9888174 L19.9984605,3.10882356 L35.3783388,11.9888174 L19.9984605,20.8688112 Z M21.5410669,23.5383517 L36.9209453,14.6583579 L36.9209453,32.4152665 L21.5379878,41.2921813 L21.5379878,23.5414307 L21.5410669,23.5383517 Z M18.4620122,23.5383517 L18.4620122,41.2921813 L3.07905473,32.4152665 L3.07905473,14.6552788 L18.4589331,23.5414307 L18.4620122,23.5383517 Z"
          id="形状"></path>
</svg>
