<?xml version="1.0" encoding="UTF-8"?>
<svg width="40px" height="44px" viewBox="0 0 40 44" version="1.1" xmlns="http://www.w3.org/2000/svg"
>
    <title>preference</title>


    <path d="M3.38586221,9.71337253 L3.27780278,9.58730318 L0,9.58730318 L0,5.0848268 L3.42188201,5.19288623 L3.42188201,5.01278721 C4.44421945,2.01509156 7.26050411,0 10.4277352,0 C13.5949664,0 16.411251,2.01509156 17.4335885,5.01278721 L17.5416479,5.12084664 L40,5.12084664 L40,9.53327346 L17.3975687,9.53327346 L17.3975687,9.71337253 C16.3931574,12.7296977 13.5708757,14.7645427 10.3917154,14.7645427 C7.21255522,14.7645427 4.3902735,12.7296977 3.38586221,9.71337253 Z M12.3529941,4.55893759 C11.8027835,4.17622859 11.1518354,3.96446683 10.481765,3.95020276 L10.4097253,3.95020276 C8.72869151,3.95055102 7.29964605,5.17801408 7.04564043,6.83974692 C6.79163482,8.50147975 7.78874354,10.0997947 9.39291243,10.6023055 C10.9970813,11.1048162 12.7278631,10.3610212 13.4673082,8.85135379 C14.2067533,7.34168636 13.7333986,5.51829067 12.3529941,4.55893759 L12.3529941,4.55893759 Z M19.9549752,23.7610988 L20.0630347,23.8871681 C21.0853721,26.8848637 23.9016568,28.8999553 27.0688879,28.8999553 C30.236119,28.8999553 33.0524037,26.8848637 34.0747411,23.8871681 L34.0747411,23.7070691 L40,23.7070691 L40,19.2946422 L34.2188203,19.2946422 L34.1107609,19.1685729 C33.0884235,16.1708773 30.2721388,14.1557858 27.1049077,14.1557858 C23.9376766,14.1557858 21.121392,16.1708773 20.0990545,19.1685729 L20.0990545,19.3486719 L0,19.2226026 L0,23.7610988 L19.9549752,23.7610988 Z M27.1589374,18.1239984 C28.5295543,18.1514916 29.7497595,18.998948 30.2541443,20.2736803 C30.7585292,21.5484127 30.4485362,23.0013364 29.4678073,23.9592077 C28.3765234,25.027769 26.7070861,25.2386179 25.3843916,24.4749406 C24.0616971,23.7112634 23.4096128,22.1600496 23.7894043,20.6806977 C24.1691958,19.2013458 25.4878695,18.1560813 27.0148582,18.1239984 L27.1589374,18.1239984 L27.1589374,18.1239984 Z M7.43809094,37.9348944 L7.54615037,38.0429538 C8.56848781,41.0406494 11.3847725,43.055741 14.5520036,43.055741 C17.7192347,43.055741 20.5355194,41.0406494 21.5578568,38.0429538 L21.5578568,37.8628548 L39.9819901,37.9529043 L39.9819901,33.4684378 L21.7019361,33.4684378 L21.6118866,33.3423685 C20.6074753,30.3260433 17.7851935,28.2911983 14.6060333,28.2911983 C11.4268731,28.2911983 8.60459138,30.3260433 7.60018009,33.3423685 L7.60018009,33.5224675 L0,33.3963982 L0,37.9348944 L7.43809094,37.9348944 Z M14.6420531,32.297794 C16.5120701,32.33738 17.9998024,33.8784263 17.9735503,35.7486781 C17.9472981,37.6189298 16.4168982,39.1176116 14.5465068,39.1046947 C12.6761155,39.0917777 11.1665603,37.572102 11.1661414,35.7016661 C11.1858866,33.8358412 12.7040841,32.3337093 14.5700135,32.3338138 L14.6420531,32.297794 Z"
          id="形状"></path>


</svg>
