<svg width="40" height="44" xmlns="http://www.w3.org/2000/svg"><path d="M3.386 9.713l-.108-.126H0V5.085l3.422.108v-.18a7.402 7.402 0 0 1 14.012 0l.108.108H40v4.412H17.398v.18a7.384 7.384 0 0 1-14.012 0zm8.967-5.154a3.404 3.404 0 0 0-1.871-.609h-.072a3.404 3.404 0 1 0 1.943.609zm7.602 19.202l.108.126a7.402 7.402 0 0 0 14.012 0v-.18H40v-4.412h-5.781l-.108-.126a7.402 7.402 0 0 0-14.012 0v.18L0 19.223v4.538h19.955zm7.204-5.637a3.402 3.402 0 0 1 2.309 5.835 3.404 3.404 0 1 1-2.453-5.835h.144zm-19.72 19.81l.107.109a7.402 7.402 0 0 0 14.012 0v-.18l18.424.09v-4.485h-18.28l-.09-.126a7.384 7.384 0 0 0-14.012 0v.18L0 33.396v4.539h7.438zm7.203-5.636a3.404 3.404 0 1 1-3.476 3.404 3.404 3.404 0 0 1 3.404-3.368l.072-.036z"/></svg>