<?xml version="1.0" standalone="no"?><!DOCTYPE svg PUBLIC "-//W3C//DTD SVG 1.1//EN" "http://www.w3.org/Graphics/SVG/1.1/DTD/svg11.dtd"><svg t="1697615639399" class="icon" viewBox="0 0 1024 1024" version="1.1" xmlns="http://www.w3.org/2000/svg" p-id="7535" xmlns:xlink="http://www.w3.org/1999/xlink" width="200" height="200"><path d="M122.88 232.106667l-2.56-2.986667H42.666667v-106.666667l81.066666 2.56v-4.266666a175.36 175.36 0 0 1 331.946667 0l2.56 2.56h532.053333v104.533333H454.826667v4.266667a174.933333 174.933333 0 0 1-331.946667 0z m212.437333-122.112A80.64 80.64 0 0 0 290.986667 95.573333h-1.706667a80.64 80.64 0 1 0 46.037333 14.421334zM515.413333 564.906667l2.56 2.986666a175.36 175.36 0 0 0 331.946667 0v-4.266666h140.373333v-104.533334H853.333333l-2.56-2.986666a175.36 175.36 0 0 0-331.946666 0v4.266666L42.666667 457.386667v107.52h472.746666z m170.666667-133.546667a80.597333 80.597333 0 0 1 54.698667 138.24A80.64 80.64 0 1 1 682.666667 431.36h3.413333z m-467.2 469.333333l2.56 2.56a175.36 175.36 0 0 0 331.946667 0v-4.266666l436.48 2.133333v-106.24H556.8l-2.133333-2.986667a174.933333 174.933333 0 0 0-331.946667 0v4.266667L42.666667 793.173333v107.52h176.213333z m170.666667-133.546666a80.64 80.64 0 1 1-82.346667 80.64A80.64 80.64 0 0 1 387.84 768l1.706667-0.853333z" fill="#515151" p-id="7536"></path></svg>