<svg width="40" height="35" xmlns="http://www.w3.org/2000/svg"><path d="M25.001 22.499v-3.75a5 5 0 0 0-10 0v3.75a2.502 2.502 0 0 0-2.5 2.5v7.5a2.502 2.502 0 0 0 2.5 2.5h10a2.502 2.502 0 0 0 2.5-2.5v-7.5a2.502 2.502 0 0 0-2.5-2.5zm-7.5-3.75a2.5 2.5 0 0 1 5 0v3.75h-5v-3.75zm-2.5 13.75v-7.5h10l.001 7.5h-10z"/><path d="M32.287 10.143A12.508 12.508 0 0 0 22.364.227a12.502 12.502 0 0 0-14.65 9.916A9.377 9.377 0 0 0 9.365 28.75h.637v-2.5H9.37a6.877 6.877 0 0 1-1.212-13.645l1.687-.306.324-1.681a10.012 10.012 0 0 1 19.663 0l.324 1.681 1.686.306a6.877 6.877 0 0 1-1.206 13.645H30v2.5h.635a9.377 9.377 0 0 0 1.65-18.606h.001z"/></svg>