<svg xmlns="http://www.w3.org/2000/svg" xmlns:xlink="http://www.w3.org/1999/xlink" viewBox="0 0 32 32"><path d="M22.5 13c-4.7 0-8.5 3.8-8.5 8.5s3.8 8.5 8.5 8.5s8.5-3.8 8.5-8.5s-3.8-8.5-8.5-8.5zm6.5 8h-3c0-2-.3-4-.9-5.5c2.1 1 3.7 3 3.9 5.5zm-6.5 7c-.4-.2-1.3-1.8-1.5-5h2.9c-.2 3.2-1 4.8-1.4 5zM21 21c.1-3.8 1.1-5.8 1.4-6c.4.2 1.4 2.2 1.5 6H21zm-1.1-5.5c-.6 1.5-.8 3.5-.9 5.5h-3c.2-2.5 1.8-4.5 3.9-5.5zM16.2 23H19c.1 1.6.4 3.2.9 4.5c-1.8-.8-3.2-2.5-3.7-4.5zm8.9 4.5c.5-1.3.8-2.8.9-4.5h2.9c-.6 2-2 3.7-3.8 4.5z" fill="currentColor"></path><path d="M25.8 10c-.9-4.6-5-8-9.8-8c-4.8 0-8.9 3.4-9.8 8.1c-3.5.7-6.2 3.7-6.2 7.4C0 21.6 3.4 25 7.5 25H11v-2H7.5c-3 0-5.5-2.5-5.5-5.5c0-2.9 2.2-5.3 5.1-5.5H8v-.9c.5-4 3.9-7.1 8-7.1c3.7 0 6.8 2.6 7.7 6h2.1z" fill="currentColor"></path></svg>
