<svg width="40" height="37" xmlns="http://www.w3.org/2000/svg"><path d="M29.032 14.194A10.959 10.959 0 0 0 18.065 25.16 10.959 10.959 0 0 0 29.032 36.13 10.959 10.959 0 0 0 40 25.161a10.959 10.959 0 0 0-10.968-10.967zm8.387 10.322h-3.87c0-2.58-.388-5.161-1.162-7.097 2.71 1.29 4.774 3.871 5.032 7.097zm-8.387 9.032c-.516-.258-1.677-2.322-1.935-6.451h3.742c-.258 4.129-1.29 6.193-1.807 6.451zm-1.935-9.032c.129-4.903 1.42-7.484 1.806-7.742.516.258 1.807 2.839 1.936 7.742h-3.742zm-1.42-7.097c-.774 1.936-1.032 4.516-1.16 7.097h-3.872c.258-3.226 2.323-5.806 5.032-7.097zm-4.774 9.678h3.613c.13 2.064.516 4.129 1.161 5.806-2.322-1.032-4.129-3.226-4.774-5.806zm11.484 5.806c.645-1.677 1.032-3.613 1.161-5.806h3.742c-.774 2.58-2.58 4.774-4.903 5.806z"/><path d="M33.29 10.323C32.13 4.387 26.84 0 20.645 0A12.862 12.862 0 0 0 8 10.452c-4.516.903-8 4.774-8 9.548 0 5.29 4.387 9.677 9.677 9.677h4.517v-2.58H9.677c-3.87 0-7.096-3.226-7.096-7.097 0-3.742 2.838-6.839 6.58-7.097h1.162v-1.161c.645-5.161 5.032-9.161 10.322-9.161 4.774 0 8.774 3.354 9.936 7.742h2.71z"/></svg>