<svg t="1712572674247" class="icon" viewBox="0 0 1024 1024" version="1.1" xmlns="http://www.w3.org/2000/svg" p-id="9050" width="200" height="200"><path d="M871.122 166.136c-5.531 0.219-11.055 1.26-16.501 3.051L180.978 389.614c-22.851 7.454-38.932 27.816-40.868 51.731-1.936 23.916 10.566 46.538 31.866 57.577l282.245 146.656 146.606 282.4c10.36 19.85 30.69 32.022 52.766 32.022 1.645 0 3.172-0.058 4.915-0.156 23.915-2.032 44.275-18.067 51.731-40.918L930.82 245.439c7.165-21.785 1.581-45.391-14.589-61.56-12.126-12.128-28.516-18.402-45.109-17.743z m-9.363 71.75L651.835 879.041 523.542 631.974l118.566-118.568c13.534-13.534 13.534-35.508 0-49.041-13.533-13.533-35.455-13.533-48.988 0L476.724 580.812 220.707 447.811l641.052-209.925z" fill="#2c2c2c" p-id="9051"></path><path d="M91.679 224.091c-5.37-16.301 3.492-33.867 19.792-39.236l279.218-91.97c16.301-5.368 33.867 3.493 39.236 19.793 5.369 16.301-3.493 33.867-19.793 39.236l-279.218 91.969c-16.3 5.369-33.866-3.492-39.235-19.792z" fill="#2c2c2c" p-id="9052"></path><path d="M116.031 330.272c-5.369-16.3 3.493-33.866 19.793-39.235l123.784-40.773c16.3-5.369 33.866 3.493 39.235 19.793s-3.492 33.867-19.792 39.235l-123.784 40.773c-16.301 5.369-33.867-3.493-39.236-19.793z" fill="#2c2c2c" p-id="9053"></path><path d="M358.236 708.439c0-19.858 16.098-35.955 35.955-35.955 19.858 0 35.955 16.097 35.955 35.955 0 19.857-16.097 35.955-35.955 35.955-19.857 0-35.955-16.098-35.955-35.955z" fill="#2c2c2c" p-id="9054"></path><path d="M296.251 780.349c0-19.857 16.097-35.955 35.955-35.955 19.857 0 35.955 16.098 35.955 35.955s-16.098 35.955-35.955 35.955c-19.858 0-35.955-16.098-35.955-35.955z" fill="#2c2c2c" p-id="9055"></path><path d="M224.341 852.259c0-19.857 16.097-35.955 35.955-35.955 19.857 0 35.955 16.098 35.955 35.955s-16.098 35.955-35.955 35.955c-19.858 0-35.955-16.098-35.955-35.955z" fill="#2c2c2c" p-id="9056"></path></svg>
