<svg class="icon" viewBox="0 0 1024 1024" xmlns="http://www.w3.org/2000/svg" width="200" height="200"><path d="M339.2 648c16 6.4 25.6 24 19.2 40-6.4 16-24 25.6-40 19.2L24 606.4c-27.2-9.6-28.8-46.4-4.8-59.2L976 51.2c24-12.8 51.2 8 46.4 33.6L875.2 862.4c-3.2 19.2-24 30.4-41.6 24l-304-105.6c-16-6.4-25.6-24-19.2-40s24-25.6 40-19.2l268.8 92.8 128-676.8-832 433.6 224 76.8z"/><path d="M462.4 792v152c0 17.6-14.4 32-32 32s-32-14.4-32-32V792c0-59.2 12.8-107.2 38.4-139.2L950.4 91.2c11.2-12.8 32-14.4 44.8-1.6 12.8 11.2 14.4 32 1.6 44.8l-512 558.4c-14.4 20.8-22.4 54.4-22.4 99.2z"/></svg>