<svg width="40" height="42" xmlns="http://www.w3.org/2000/svg"><path d="M37.024 3.547c-.262.01-.524.06-.782.144L4.308 14.141a2.817 2.817 0 0 0-.427 5.182l13.38 6.952 6.95 13.388a2.817 2.817 0 0 0 2.734 1.51 2.826 2.826 0 0 0 2.453-1.94L39.854 7.306a2.848 2.848 0 0 0-.691-2.918 2.863 2.863 0 0 0-2.139-.841zm-.443 3.401l-9.952 30.395-6.082-11.713 5.62-5.62a1.645 1.645 0 0 0 0-2.325 1.642 1.642 0 0 0-2.321 0l-5.518 5.52L6.19 16.9l30.39-9.952zM.074 6.294a1.473 1.473 0 0 1 .939-1.86L14.249.074a1.473 1.473 0 0 1 .922 2.799L1.934 7.233a1.473 1.473 0 0 1-1.86-.939zM1.229 11.328a1.473 1.473 0 0 1 .938-1.86l5.868-1.933a1.473 1.473 0 0 1 .922 2.798l-5.868 1.933a1.473 1.473 0 0 1-1.86-.938z"/><path d="M12.71 29.255a1.704 1.704 0 1 1 3.41 0 1.704 1.704 0 0 1-3.41 0zM9.772 32.664a1.704 1.704 0 1 1 3.41 0 1.704 1.704 0 0 1-3.41 0zM6.363 36.073a1.704 1.704 0 1 1 3.41 0 1.704 1.704 0 0 1-3.41 0z"/></svg>