<!-- <svg t="1668760056876" class="icon" viewBox="0 0 1024 1024" version="1.1" xmlns="http://www.w3.org/2000/svg" p-id="6883" width="490" height="490"><path d="M514.048 54.272q95.232 0 178.688 36.352t145.92 98.304 98.304 145.408 35.84 178.688-35.84 178.176-98.304 145.408-145.92 98.304-178.688 35.84-178.176-35.84-145.408-98.304-98.304-145.408-35.84-178.176 35.84-178.688 98.304-145.408 145.408-98.304 178.176-36.352zM515.072 826.368q26.624 0 44.544-17.92t17.92-43.52q0-26.624-17.92-44.544t-44.544-17.92-44.544 17.92-17.92 44.544q0 25.6 17.92 43.52t44.544 17.92zM567.296 574.464q-1.024-16.384 20.48-34.816t48.128-40.96 49.152-50.688 24.576-65.024q2.048-39.936-8.192-74.752t-33.792-59.904-60.928-39.936-87.552-14.848q-62.464 0-103.936 22.016t-67.072 53.248-35.84 64.512-9.216 55.808q1.024 26.624 16.896 38.912t34.304 12.8 33.792-10.24 15.36-31.232q0-12.288 7.68-30.208t20.992-34.304 32.256-27.648 42.496-11.264q46.08 0 73.728 23.04t25.6 57.856q0 17.408-10.24 32.256t-26.112 28.672-33.792 27.648-33.792 28.672-26.624 32.256-11.776 37.888l1.024 38.912q0 15.36 14.336 29.184t37.888 14.848q23.552-1.024 37.376-15.36t12.8-32.768l0-24.576z" p-id="6884" fill="#ffffff"></path></svg> -->

<svg xmlns="http://www.w3.org/2000/svg" viewBox="0 0 24 24">
<path fill="#ffffff" d="M12 21a9 9 0 1 0 0-18 9 9 0 0 0 0 18Zm0 2C5.925 23 1 18.075 1 12S5.925 1 12 1s11 4.925 11 11-4.925 11-11 11Zm-.5-7h1a.5.5 0 0 1 .5.5v1a.5.5 0 0 1-.5.5h-1a.5.5 0 0 1-.5-.5v-1a.5.5 0 0 1 .5-.5ZM8.05 9.282c.013-.112.026-.205.039-.28.195-1.085.689-1.883 1.481-2.394.62-.405 1.383-.608 2.288-.608 1.189 0 2.176.288 2.962.864.787.575 1.18 1.428 1.18 2.558 0 .693-.17 1.277-.513 1.752-.2.287-.584.655-1.152 1.103l-.56.44c-.305.24-.507.52-.607.84-.027.087-.051.249-.072.486a.5.5 0 0 1-.498.457h-1.12a.5.5 0 0 1-.498-.546c.065-.696.134-1.136.207-1.321.137-.344.49-.74 1.058-1.188l.575-.455c.19-.144 1.166-.831 1.166-1.44 0-.608-.106-.832-.412-1.166-.305-.333-.993-.44-1.614-.44-.61 0-1.131.161-1.386.572-.118.19-.215.393-.284.6a2.097 2.097 0 0 0-.073.307.5.5 0 0 1-.493.415H8.547a.5.5 0 0 1-.497-.556Z" clip-rule="evenodd" fill-rule="evenodd"/>
<path fill="#ffffff" d="M12 21a9 9 0 1 0 0-18 9 9 0 0 0 0 18Zm0 2C5.925 23 1 18.075 1 12S5.925 1 12 1s11 4.925 11 11-4.925 11-11 11Zm-.5-7h1a.5.5 0 0 1 .5.5v1a.5.5 0 0 1-.5.5h-1a.5.5 0 0 1-.5-.5v-1a.5.5 0 0 1 .5-.5ZM8.05 9.282c.013-.112.026-.205.039-.28.195-1.085.689-1.883 1.481-2.394.62-.405 1.383-.608 2.288-.608 1.189 0 2.176.288 2.962.864.787.575 1.18 1.428 1.18 2.558 0 .693-.17 1.277-.513 1.752-.2.287-.584.655-1.152 1.103l-.56.44c-.305.24-.507.52-.607.84-.027.087-.051.249-.072.486a.5.5 0 0 1-.498.457h-1.12a.5.5 0 0 1-.498-.546c.065-.696.134-1.136.207-1.321.137-.344.49-.74 1.058-1.188l.575-.455c.19-.144 1.166-.831 1.166-1.44 0-.608-.106-.832-.412-1.166-.305-.333-.993-.44-1.614-.44-.61 0-1.131.161-1.386.572-.118.19-.215.393-.284.6a2.097 2.097 0 0 0-.073.307.5.5 0 0 1-.493.415H8.547a.5.5 0 0 1-.497-.556Z" clip-rule="evenodd" fill-rule="evenodd"/>
</svg>