<?xml version="1.0" encoding="UTF-8"?>
<svg width="40px" height="40px" viewBox="0 0 40 40" version="1.1" xmlns="http://www.w3.org/2000/svg"
>
    <title>question-mark</title>
    <path d="M19,34.5454546 C24.5538561,34.5454546 29.6858307,31.5825078 32.4627588,26.7727274 C35.2396867,21.9629469 35.2396867,16.0370531 32.4627588,11.2272726 C29.6858307,6.41749225 24.5538561,3.45454546 19,3.45454546 C10.4144826,3.45454546 3.45454578,10.4144826 3.45454578,19 C3.45454578,27.5855174 10.4144826,34.5454546 19,34.5454546 L19,34.5454546 Z M19,38 C8.50681818,38 0,29.4931818 0,19 C0,8.50681818 8.50681818,0 19,0 C29.4931818,0 38,8.50681818 38,19 C38,29.4931818 29.4931818,38 19,38 Z M18.1363636,25.9090909 L19.8636364,25.9090909 C20.3406096,25.9090909 20.7272727,26.295754 20.7272727,26.7727273 L20.7272727,28.5 C20.7272727,28.9769732 20.3406096,29.3636364 19.8636364,29.3636364 L18.1363636,29.3636364 C17.6593904,29.3636364 17.2727273,28.9769732 17.2727273,28.5 L17.2727273,26.7727273 C17.2727273,26.295754 17.6593904,25.9090909 18.1363636,25.9090909 Z M12.1772727,14.3052727 C12.1997273,14.1118182 12.2221818,13.9511818 12.2446364,13.8216364 C12.5814546,11.9475454 13.4347273,10.5691818 14.8027273,9.68654542 C15.8736364,8.987 17.1915454,8.63636364 18.7547273,8.63636364 C20.8084546,8.63636364 22.5132727,9.13381818 23.8709091,10.1287273 C25.2302727,11.1219091 25.9090909,12.5952727 25.9090909,14.5470909 C25.9090909,15.7440909 25.6154546,16.7528182 25.023,17.5732727 C24.6775454,18.069 24.0142727,18.7046364 23.0331818,19.4784546 L22.0659091,20.2384546 C21.5390909,20.653 21.1901818,21.1366364 21.0174546,21.6893636 C20.9708182,21.8396364 20.9293636,22.1194546 20.8930909,22.5288182 C20.8545555,22.9752445 20.4809956,23.3181819 20.0329091,23.3181819 L18.0983636,23.3181819 C17.8554587,23.3181819 17.6237588,23.2160036 17.4600691,23.0365364 C17.2963793,22.8570693 17.2158345,22.6169657 17.2381818,22.3750909 C17.3504546,21.1729091 17.4696364,20.4129091 17.5957273,20.0933636 C17.8323636,19.4991818 18.4420909,18.8151818 19.4231818,18.0413636 L20.4163636,17.2554546 C20.7445454,17.0067273 22.4303636,15.8200909 22.4303636,14.7681818 C22.4303636,13.718 22.2472727,13.3310909 21.7187273,12.7541818 C21.1919091,12.179 20.0035454,11.9941818 18.9309091,11.9941818 C17.8772727,11.9941818 16.9773636,12.2722727 16.5369091,12.9821818 C16.3330909,13.3103636 16.1655454,13.661 16.0463636,14.0185454 C15.9910747,14.1918853 15.9489251,14.3691446 15.9202727,14.5488182 C15.8487867,14.9632037 15.4892336,15.2658702 15.0687273,15.2656364 L13.0357273,15.2656364 C12.7897903,15.2657082 12.5554879,15.1609236 12.3915852,14.9775636 C12.2276826,14.7942036 12.1497277,14.5496623 12.1772727,14.3052727 Z"
          id="形状"></path>
    <path d="M19,34.5454546 C24.5538561,34.5454546 29.6858307,31.5825078 32.4627588,26.7727274 C35.2396867,21.9629469 35.2396867,16.0370531 32.4627588,11.2272726 C29.6858307,6.41749225 24.5538561,3.45454546 19,3.45454546 C10.4144826,3.45454546 3.45454578,10.4144826 3.45454578,19 C3.45454578,27.5855174 10.4144826,34.5454546 19,34.5454546 L19,34.5454546 Z M19,38 C8.50681818,38 0,29.4931818 0,19 C0,8.50681818 8.50681818,0 19,0 C29.4931818,0 38,8.50681818 38,19 C38,29.4931818 29.4931818,38 19,38 Z M18.1363636,25.9090909 L19.8636364,25.9090909 C20.3406096,25.9090909 20.7272727,26.295754 20.7272727,26.7727273 L20.7272727,28.5 C20.7272727,28.9769732 20.3406096,29.3636364 19.8636364,29.3636364 L18.1363636,29.3636364 C17.6593904,29.3636364 17.2727273,28.9769732 17.2727273,28.5 L17.2727273,26.7727273 C17.2727273,26.295754 17.6593904,25.9090909 18.1363636,25.9090909 Z M12.1772727,14.3052727 C12.1997273,14.1118182 12.2221818,13.9511818 12.2446364,13.8216364 C12.5814546,11.9475454 13.4347273,10.5691818 14.8027273,9.68654542 C15.8736364,8.987 17.1915454,8.63636364 18.7547273,8.63636364 C20.8084546,8.63636364 22.5132727,9.13381818 23.8709091,10.1287273 C25.2302727,11.1219091 25.9090909,12.5952727 25.9090909,14.5470909 C25.9090909,15.7440909 25.6154546,16.7528182 25.023,17.5732727 C24.6775454,18.069 24.0142727,18.7046364 23.0331818,19.4784546 L22.0659091,20.2384546 C21.5390909,20.653 21.1901818,21.1366364 21.0174546,21.6893636 C20.9708182,21.8396364 20.9293636,22.1194546 20.8930909,22.5288182 C20.8545555,22.9752445 20.4809956,23.3181819 20.0329091,23.3181819 L18.0983636,23.3181819 C17.8554587,23.3181819 17.6237588,23.2160036 17.4600691,23.0365364 C17.2963793,22.8570693 17.2158345,22.6169657 17.2381818,22.3750909 C17.3504546,21.1729091 17.4696364,20.4129091 17.5957273,20.0933636 C17.8323636,19.4991818 18.4420909,18.8151818 19.4231818,18.0413636 L20.4163636,17.2554546 C20.7445454,17.0067273 22.4303636,15.8200909 22.4303636,14.7681818 C22.4303636,13.718 22.2472727,13.3310909 21.7187273,12.7541818 C21.1919091,12.179 20.0035454,11.9941818 18.9309091,11.9941818 C17.8772727,11.9941818 16.9773636,12.2722727 16.5369091,12.9821818 C16.3330909,13.3103636 16.1655454,13.661 16.0463636,14.0185454 C15.9910747,14.1918853 15.9489251,14.3691446 15.9202727,14.5488182 C15.8487867,14.9632037 15.4892336,15.2658702 15.0687273,15.2656364 L13.0357273,15.2656364 C12.7897903,15.2657082 12.5554879,15.1609236 12.3915852,14.9775636 C12.2276826,14.7942036 12.1497277,14.5496623 12.1772727,14.3052727 Z"
          id="形状"></path>
</svg>
