<?xml version="1.0" encoding="UTF-8"?>
<svg width="40px" height="40px" viewBox="0 0 40 40" version="1.1" xmlns="http://www.w3.org/2000/svg"
>
    <title>question-mark</title>


    <path d="M20,36.3636364 C25.8461643,36.3636364 31.2482428,33.244745 34.171325,28.1818183 C37.0944071,23.1188915 37.0944071,16.8811085 34.171325,11.8181817 C31.2482428,6.755255 25.8461643,3.63636364 20,3.63636364 C10.9626133,3.63636364 3.63636398,10.9626133 3.63636398,20 C3.63636398,29.0373867 10.9626133,36.3636364 20,36.3636364 L20,36.3636364 Z M20,40 C8.95454545,40 0,31.0454545 0,20 C0,8.95454545 8.95454545,0 20,0 C31.0454545,0 40,8.95454545 40,20 C40,31.0454545 31.0454545,40 20,40 Z M19.0909091,27.2727273 L20.9090909,27.2727273 C21.411168,27.2727273 21.8181818,27.6797411 21.8181818,28.1818182 L21.8181818,30 C21.8181818,30.502077 21.411168,30.9090909 20.9090909,30.9090909 L19.0909091,30.9090909 C18.588832,30.9090909 18.1818182,30.502077 18.1818182,30 L18.1818182,28.1818182 C18.1818182,27.6797411 18.588832,27.2727273 19.0909091,27.2727273 Z M12.8181818,15.0581818 C12.8418182,14.8545455 12.8654545,14.6854545 12.8890909,14.5490909 C13.2436364,12.5763636 14.1418182,11.1254545 15.5818182,10.1963636 C16.7090909,9.46 18.0963636,9.09090909 19.7418182,9.09090909 C21.9036364,9.09090909 23.6981818,9.61454545 25.1272727,10.6618182 C26.5581818,11.7072727 27.2727273,13.2581818 27.2727273,15.3127273 C27.2727273,16.5727273 26.9636364,17.6345455 26.34,18.4981818 C25.9763636,19.02 25.2781818,19.6890909 24.2454545,20.5036364 L23.2272727,21.3036364 C22.6727273,21.74 22.3054545,22.2490909 22.1236364,22.8309091 C22.0745455,22.9890909 22.0309091,23.2836364 21.9927273,23.7145455 C21.9521637,24.1844679 21.5589427,24.5454546 21.0872727,24.5454546 L19.0509091,24.5454546 C18.7952197,24.5454546 18.5513251,24.4378985 18.3790201,24.2489857 C18.206715,24.0600729 18.1219311,23.8073323 18.1454545,23.5527273 C18.2636364,22.2872727 18.3890909,21.4872727 18.5218182,21.1509091 C18.7709091,20.5254545 19.4127273,19.8054545 20.4454545,18.9909091 L21.4909091,18.1636364 C21.8363636,17.9018182 23.6109091,16.6527273 23.6109091,15.5454545 C23.6109091,14.44 23.4181818,14.0327273 22.8618182,13.4254545 C22.3072727,12.82 21.0563636,12.6254545 19.9272727,12.6254545 C18.8181818,12.6254545 17.8709091,12.9181818 17.4072727,13.6654545 C17.1927273,14.0109091 17.0163636,14.38 16.8909091,14.7563636 C16.8327102,14.9388266 16.7883422,15.1254154 16.7581818,15.3145455 C16.6829334,15.7507407 16.3044564,16.069337 15.8618182,16.0690909 L13.7218182,16.0690909 C13.4629372,16.0691665 13.2163031,15.9588669 13.0437739,15.7658564 C12.8712448,15.5728459 12.7891871,15.315434 12.8181818,15.0581818 Z"
          id="形状"></path>
    <path d="M20,36.3636364 C25.8461643,36.3636364 31.2482428,33.244745 34.171325,28.1818183 C37.0944071,23.1188915 37.0944071,16.8811085 34.171325,11.8181817 C31.2482428,6.755255 25.8461643,3.63636364 20,3.63636364 C10.9626133,3.63636364 3.63636398,10.9626133 3.63636398,20 C3.63636398,29.0373867 10.9626133,36.3636364 20,36.3636364 L20,36.3636364 Z M20,40 C8.95454545,40 0,31.0454545 0,20 C0,8.95454545 8.95454545,0 20,0 C31.0454545,0 40,8.95454545 40,20 C40,31.0454545 31.0454545,40 20,40 Z M19.0909091,27.2727273 L20.9090909,27.2727273 C21.411168,27.2727273 21.8181818,27.6797411 21.8181818,28.1818182 L21.8181818,30 C21.8181818,30.502077 21.411168,30.9090909 20.9090909,30.9090909 L19.0909091,30.9090909 C18.588832,30.9090909 18.1818182,30.502077 18.1818182,30 L18.1818182,28.1818182 C18.1818182,27.6797411 18.588832,27.2727273 19.0909091,27.2727273 Z M12.8181818,15.0581818 C12.8418182,14.8545455 12.8654545,14.6854545 12.8890909,14.5490909 C13.2436364,12.5763636 14.1418182,11.1254545 15.5818182,10.1963636 C16.7090909,9.46 18.0963636,9.09090909 19.7418182,9.09090909 C21.9036364,9.09090909 23.6981818,9.61454545 25.1272727,10.6618182 C26.5581818,11.7072727 27.2727273,13.2581818 27.2727273,15.3127273 C27.2727273,16.5727273 26.9636364,17.6345455 26.34,18.4981818 C25.9763636,19.02 25.2781818,19.6890909 24.2454545,20.5036364 L23.2272727,21.3036364 C22.6727273,21.74 22.3054545,22.2490909 22.1236364,22.8309091 C22.0745455,22.9890909 22.0309091,23.2836364 21.9927273,23.7145455 C21.9521637,24.1844679 21.5589427,24.5454546 21.0872727,24.5454546 L19.0509091,24.5454546 C18.7952197,24.5454546 18.5513251,24.4378985 18.3790201,24.2489857 C18.206715,24.0600729 18.1219311,23.8073323 18.1454545,23.5527273 C18.2636364,22.2872727 18.3890909,21.4872727 18.5218182,21.1509091 C18.7709091,20.5254545 19.4127273,19.8054545 20.4454545,18.9909091 L21.4909091,18.1636364 C21.8363636,17.9018182 23.6109091,16.6527273 23.6109091,15.5454545 C23.6109091,14.44 23.4181818,14.0327273 22.8618182,13.4254545 C22.3072727,12.82 21.0563636,12.6254545 19.9272727,12.6254545 C18.8181818,12.6254545 17.8709091,12.9181818 17.4072727,13.6654545 C17.1927273,14.0109091 17.0163636,14.38 16.8909091,14.7563636 C16.8327102,14.9388266 16.7883422,15.1254154 16.7581818,15.3145455 C16.6829334,15.7507407 16.3044564,16.069337 15.8618182,16.0690909 L13.7218182,16.0690909 C13.4629372,16.0691665 13.2163031,15.9588669 13.0437739,15.7658564 C12.8712448,15.5728459 12.7891871,15.315434 12.8181818,15.0581818 Z"
          id="形状"></path>


</svg>
