<?xml version="1.0" encoding="UTF-8"?>
<svg width="40px" height="40px" viewBox="0 0 40 40" version="1.1" xmlns="http://www.w3.org/2000/svg" xmlns:xlink="http://www.w3.org/1999/xlink">
    <title>refresh</title>
    <g id="jumpserver" stroke="none" stroke-width="1" fill="none" fill-rule="evenodd">
        <g id="refresh" fill-rule="nonzero">
            <path d="M32.7663765,11.1115569 C28.6180118,5.15694244 20.9035042,2.86181736 14.1747916,5.58041812 C7.4460791,8.29901888 3.4910983,15.3089657 4.64348203,22.4740459 C5.79586576,29.6391261 11.7494055,35.0554525 18.9912206,35.5271268 C26.2330357,35.998801 32.8388492,31.4004909 34.9109069,24.4454252 L39.5044246,24.4454252 C37.435282,33.5325969 29.3640947,39.9863071 20.0443487,40.0057186 C10.7246028,40.0250426 2.62666182,33.6049342 0.519768442,24.5264409 C-1.58712493,15.4479476 2.85549867,6.11748483 11.2311779,2.03018282 C19.6068571,-2.0571192 29.6954699,0.182151305 35.5553772,7.42918695 L35.5553772,1.11115569 C35.5553772,0.497481348 36.0528586,0 36.6665329,0 L38.8888443,0 C39.5025187,0 40,0.497481348 40,1.11115569 L40,13.3338683 C40,14.561217 39.0050373,15.5561797 37.7776886,15.5561797 L25.554976,15.5561797 C24.9413017,15.5561797 24.4438203,15.0586983 24.4438203,14.445024 L24.4438203,12.2227126 C24.4438203,11.6090383 24.9413017,11.1115569 25.554976,11.1115569 L32.7663765,11.1115569 Z" id="路径" fill="#646A73"></path>
            <path d="M32.7663765,11.1115569 C28.6180118,5.15694244 20.9035042,2.86181736 14.1747916,5.58041812 C7.4460791,8.29901888 3.4910983,15.3089657 4.64348203,22.4740459 C5.79586576,29.6391261 11.7494055,35.0554525 18.9912206,35.5271268 C26.2330357,35.998801 32.8388492,31.4004909 34.9109069,24.4454252 L39.5044246,24.4454252 C37.435282,33.5325969 29.3640947,39.9863071 20.0443487,40.0057186 C10.7246028,40.0250426 2.62666182,33.6049342 0.519768442,24.5264409 C-1.58712493,15.4479476 2.85549867,6.11748483 11.2311779,2.03018282 C19.6068571,-2.0571192 29.6954699,0.182151305 35.5553772,7.42918695 L35.5553772,1.11115569 C35.5553772,0.497481348 36.0528586,0 36.6665329,0 L38.8888443,0 C39.5025187,0 40,0.497481348 40,1.11115569 L40,13.3338683 C40,14.561217 39.0050373,15.5561797 37.7776886,15.5561797 L25.554976,15.5561797 C24.9413017,15.5561797 24.4438203,15.0586983 24.4438203,14.445024 L24.4438203,12.2227126 C24.4438203,11.6090383 24.9413017,11.1115569 25.554976,11.1115569 L32.7663765,11.1115569 Z" id="路径" fill-opacity="0.2" fill="#000000"></path>
        </g>
    </g>
</svg>