<!-- <?xml version="1.0" encoding="UTF-8"?><svg width="32" height="32" viewBox="0 0 48 48" xmlns="http://www.w3.org/2000/svg"><path d="M24 4C16.268 4 10 10.268 10 18V38H38V18C38 10.268 31.732 4 24 4Z"/><path d="M10 38V18C10 10.268 16.268 4 24 4C31.732 4 38 10.268 38 18V38M4 38H44" stroke="#fff" stroke-width="4" stroke-linecap="round" stroke-linejoin="round"/><path d="M24 44C26.7614 44 29 41.7614 29 39V38H19V39C19 41.7614 21.2386 44 24 44Z" stroke="#fff" stroke-width="4" stroke-linecap="round" stroke-linejoin="round"/></svg> -->

<svg t="1676622566768" class="icon" viewBox="0 0 1024 1024" version="1.1" xmlns="http://www.w3.org/2000/svg" p-id="31041" width="200" height="200"><path d="M512 0c43.885714 0 73.142857 29.257143 73.142857 73.142857s-29.257143 73.142857-73.142857 73.142857-73.142857-29.257143-73.142857-73.142857 29.257143-73.142857 73.142857-73.142857z" fill="#000000" p-id="31042"></path><path d="M877.714286 877.714286H146.285714V438.857143c0-204.8 160.914286-365.714286 365.714286-365.714286s365.714286 160.914286 365.714286 365.714286v438.857143z m-658.285715-73.142857h585.142858V438.857143c0-160.914286-131.657143-292.571429-292.571429-292.571429S219.428571 277.942857 219.428571 438.857143v365.714286z" fill="#000000" p-id="31043"></path><path d="M36.571429 804.571429h950.857142c21.942857 0 36.571429 14.628571 36.571429 36.571428s-14.628571 36.571429-36.571429 36.571429H36.571429c-21.942857 0-36.571429-14.628571-36.571429-36.571429s14.628571-36.571429 36.571429-36.571428zM512 1024c58.514286 0 109.714286-21.942857 146.285714-73.142857H365.714286c36.571429 51.2 87.771429 73.142857 146.285714 73.142857z" fill="#000000" p-id="31044"></path></svg>