<?xml version="1.0" encoding="UTF-8"?>
<svg width="40px" height="40px" viewBox="0 0 40 40" version="1.1" xmlns="http://www.w3.org/2000/svg"
>

    <path d="M20,0 C21.7142857,0 22.8571429,1.14285715 22.8571429,2.85714285 C22.8571429,4.57142855 21.7142857,5.7142857 20,5.7142857 C18.2857143,5.7142857 17.1428571,4.57142855 17.1428571,2.85714285 C17.1428571,1.14285715 18.2857143,0 20,0 Z"
          id="路径"></path>
    <path d="M34.2857143,34.2857143 L5.7142857,34.2857143 L5.7142857,17.1428571 C5.7142857,9.14285715 12,2.85714285 20,2.85714285 C28,2.85714285 34.2857143,9.14285715 34.2857143,17.1428571 L34.2857143,34.2857143 Z M8.57142855,31.4285714 L31.4285714,31.4285714 L31.4285714,17.1428571 C31.4285714,10.8571429 26.2857143,5.7142857 20,5.7142857 C13.7142857,5.7142857 8.57142855,10.8571429 8.57142855,17.1428571 L8.57142855,31.4285714 Z"
          id="形状"></path>
    <path d="M1.42857145,31.4285714 L38.5714286,31.4285714 C39.4285714,31.4285714 40,32 40,32.8571429 C40,33.7142857 39.4285714,34.2857143 38.5714286,34.2857143 L1.42857145,34.2857143 C0.571428594,34.2857143 0,33.7142857 0,32.8571429 C0,32 0.571428555,31.4285714 1.42857145,31.4285714 Z M20,40 C22.2857143,40 24.2857143,39.1428571 25.7142857,37.1428571 L14.2857143,37.1428571 C15.7142857,39.1428571 17.7142857,40 20,40 Z"
          id="形状"></path>
</svg>
