<svg width="40" height="40" xmlns="http://www.w3.org/2000/svg"><path d="M19 0c1.629 0 2.714 1.086 2.714 2.714 0 1.629-1.085 2.715-2.714 2.715s-2.714-1.086-2.714-2.715C16.286 1.086 17.37 0 19 0z"/><path d="M32.571 32.571H5.43V16.286C5.429 8.686 11.4 2.714 19 2.714s13.571 5.972 13.571 13.572V32.57zM8.143 29.857h21.714V16.286c0-5.972-4.886-10.857-10.857-10.857-5.971 0-10.857 4.885-10.857 10.857v13.571z"/><path d="M1.357 29.857h35.286c.814 0 1.357.543 1.357 1.357 0 .815-.543 1.357-1.357 1.357H1.357C.543 32.571 0 32.03 0 31.214c0-.814.543-1.357 1.357-1.357zM19 38c2.171 0 4.071-.814 5.429-2.714H13.57C14.93 37.186 16.83 38 19 38z"/></svg>