<?xml version="1.0" encoding="UTF-8"?>
<svg width="40px" height="40px" viewBox="0 0 40 40" version="1.1" xmlns="http://www.w3.org/2000/svg"
>
    <title>remind</title>
    <path d="M19,0 C20.6285714,0 21.7142858,1.08571429 21.7142858,2.71428571 C21.7142858,4.34285712 20.6285714,5.42857141 19,5.42857141 C17.3714286,5.42857141 16.2857142,4.34285712 16.2857142,2.71428571 C16.2857142,1.08571429 17.3714286,0 19,0 Z"
          id="路径"></path>
    <path d="M32.5714286,32.5714286 L5.42857141,32.5714286 L5.42857141,16.2857142 C5.42857141,8.68571429 11.4,2.71428571 19,2.71428571 C26.6,2.71428571 32.5714286,8.68571429 32.5714286,16.2857142 L32.5714286,32.5714286 Z M8.14285712,29.8571428 L29.8571428,29.8571428 L29.8571428,16.2857142 C29.8571428,10.3142858 24.9714286,5.42857141 19,5.42857141 C13.0285714,5.42857141 8.14285712,10.3142858 8.14285712,16.2857142 L8.14285712,29.8571428 Z"
          id="形状"></path>
    <path d="M1.35714288,29.8571428 L36.6428572,29.8571428 C37.4571428,29.8571428 38,30.4 38,31.2142858 C38,32.0285714 37.4571428,32.5714286 36.6428572,32.5714286 L1.35714288,32.5714286 C0.542857164,32.5714286 0,32.0285714 0,31.2142858 C0,30.4 0.542857127,29.8571428 1.35714288,29.8571428 Z M19,38 C21.1714286,38 23.0714286,37.1857142 24.4285714,35.2857142 L13.5714286,35.2857142 C14.9285714,37.1857142 16.8285714,38 19,38 Z"
          id="形状"></path>
</svg>
