<!-- <svg t="1680591582590" class="icon" viewBox="0 0 1024 1024" version="1.1" xmlns="http://www.w3.org/2000/svg" p-id="5513" width="100" height="100"><path d="M697 471H327v80h370v-80z" fill="#323338" p-id="5514"></path><path d="M512.5 961C760.2 961 961 760.2 961 512.5S760.2 64 512.5 64 64 264.8 64 512.5 264.8 961 512.5 961z m0-88C313.401 873 152 711.599 152 512.5S313.401 152 512.5 152 873 313.401 873 512.5 711.599 873 512.5 873z" fill="#323338" p-id="5515"></path></svg> -->

<svg t="1680591706545" class="icon" viewBox="0 0 1024 1024" version="1.1" xmlns="http://www.w3.org/2000/svg" p-id="6566" width="200" height="200"><path d="M512 960A448 448 0 1 1 512 64a448 448 0 0 1 0 896z m0-96a352 352 0 1 0 0-704 352 352 0 0 0 0 704z" fill="#666666" p-id="6567"></path><path d="M256 448h512v128H256z" fill="#666666" p-id="6568"></path></svg>