<?xml version="1.0" encoding="UTF-8"?>
<svg width="40px" height="40px" viewBox="0 0 40 40" version="1.1" xmlns="http://www.w3.org/2000/svg"
>
    <path d="M20,40 C8.954305,40 0,31.045695 0,20 C0,8.954305 8.954305,0 20,0 C31.045695,0 40,8.954305 40,20 C40,31.045695 31.045695,40 20,40 Z M20,35.7142857 C28.6787604,35.7142857 35.7142857,28.6787604 35.7142857,20 C35.7142857,11.3212396 28.6787604,4.28571429 20,4.28571429 C11.3212396,4.28571429 4.28571429,11.3212396 4.28571429,20 C4.28571429,28.6787604 11.3212396,35.7142857 20,35.7142857 Z"
          id="形状"></path>
    <polygon id="路径"
             points="8.57142857 17.1428571 31.4285714 17.1428571 31.4285714 22.8571429 8.57142857 22.8571429"></polygon>
</svg>
