<?xml version="1.0" standalone="no"?><!DOCTYPE svg PUBLIC "-//W3C//DTD SVG 1.1//EN" "http://www.w3.org/Graphics/SVG/1.1/DTD/svg11.dtd"><svg t="1584946863169" class="icon" viewBox="0 0 1024 1024" version="1.1" xmlns="http://www.w3.org/2000/svg" p-id="1307" xmlns:xlink="http://www.w3.org/1999/xlink" width="200" height="200"><defs><style type="text/css"></style></defs><path d="M859.392004 256q0-22.820571-16.018286-38.838857t-38.838857-16.018286-38.838857 16.018286-16.018286 38.838857 16.018286 38.838857 38.838857 16.018286 38.838857-16.018286 16.018286-38.838857zM987.392004 91.428571q0 142.262857-43.154286 245.979429t-144.822857 205.970286q-46.299429 45.714286-111.396571 100.571429l-11.410286 216.576q-1.170286 9.142857-9.142857 14.848l-219.428571 128q-4.022857 2.267429-9.142857 2.267429-6.875429 0-13.165714-5.12l-36.571429-36.571429q-7.460571-7.972571-4.534857-18.285714l48.566857-157.696-160.548571-160.548571-157.696 48.566857q-1.682286 0.585143-5.12 0.585143-7.972571 0-13.165714-5.12l-36.571429-36.571429q-9.728-10.825143-2.852571-22.308571l128-219.428571q5.705143-7.972571 14.848-9.142857l216.576-11.410286q54.857143-65.170286 100.571429-111.396571 107.446857-106.861714 204.580571-147.456t246.272-40.594286q7.972571 0 13.677714 5.412571t5.705143 12.873143z" p-id="1308"></path></svg>