<svg width="40" height="40" xmlns="http://www.w3.org/2000/svg"><path d="M34.51 7.839c0-.652-.23-1.207-.687-1.665a2.267 2.267 0 0 0-1.665-.687c-.652 0-1.207.23-1.665.687a2.267 2.267 0 0 0-.687 1.665c0 .652.23 1.207.687 1.665a2.267 2.267 0 0 0 1.665.687c.652 0 1.207-.23 1.665-.687a2.267 2.267 0 0 0 .687-1.665zM39.997.784c0 4.066-.617 7.58-1.85 10.545-1.233 2.964-3.303 5.907-6.209 8.83-1.323 1.306-2.915 2.743-4.775 4.31l-.49 9.285a.899.899 0 0 1-.391.637l-9.407 5.487a.784.784 0 0 1-.392.097.883.883 0 0 1-.564-.22l-1.568-1.567a.772.772 0 0 1-.194-.784l2.082-6.76-6.883-6.883-6.76 2.082a.714.714 0 0 1-.22.025.77.77 0 0 1-.564-.22L.244 24.082c-.278-.31-.318-.628-.122-.956l5.487-9.407a.899.899 0 0 1 .637-.392l9.284-.49c1.568-1.862 3.005-3.453 4.312-4.774 3.07-3.055 5.994-5.162 8.77-6.322C31.388.58 34.907 0 39.169 0c.228 0 .423.077.586.232A.735.735 0 0 1 40 .784h-.003z"/></svg>