<svg width="40" height="36" xmlns="http://www.w3.org/2000/svg"><path d="M39.747 9.112l-3.29-5.569C34.685 1.013 32.407 0 27.85 0h-3.29c-.506 0-.76.253-1.012.506l-.76 1.772-2.784 3.29-2.53-3.037-.76-1.519c0-.506-.506-.759-1.013-.759H12.16c-4.05 0-6.834 1.266-8.858 4.05L.263 9.112c-.506 1.012-.253 2.277.507 2.784l4.05 3.543c.758.506 1.518.76 2.277.506h.253l.253-.253v14.68c0 3.037 2.278 5.315 5.315 5.315h13.668c3.037 0 5.315-2.278 5.315-5.315V15.439h1.265c.507 0 1.266-.253 1.772-.506l4.05-3.29c1.012-.254 1.265-1.519.759-2.531zm-6.074 4.302h-.507l-.759-.506h-.506c-.253 0-.506-.253-.76-.253-.506.253-1.012.76-1.012 1.519v16.198c0 1.772-1.518 3.037-3.037 3.037h-13.92c-1.772 0-3.038-1.518-3.038-3.037V14.174c-.253 0-.253 0-.253-.254 0-.506-.506-1.012-1.265-1.012-.507 0-1.013.253-1.013.253l-1.265.76h-.253l-4.05-3.544 3.037-4.809c1.266-1.772 3.037-3.037 6.834-3.037h3.037l.506 1.012s0 .253.253.253L18.74 7.34c.759.76 2.024.76 2.53 0l3.038-3.544s0-.253.253-.253l.506-1.012h2.784c4.303 0 5.568.76 6.58 2.531l3.291 5.315-4.05 3.037z"/></svg>