<svg t="1671772969164" class="icon" viewBox="0 0 1024 1024" version="1.1" xmlns="http://www.w3.org/2000/svg" p-id="5674" width="200" height="200"><path d="M597.333333 85.333333v202.752a10.666667 10.666667 0 0 1-8.234666 10.410667l-2.432 0.256h-256a10.666667 10.666667 0 0 1-10.368-8.192L320 288.085333V85.333333H597.333333z m139.050667 513.706667a10.666667 10.666667 0 0 1 10.666667 10.666667l-0.042667 307.626666H277.290667l0.042666-307.626666a10.666667 10.666667 0 0 1 10.666667-10.666667h448.384zM667.136 85.333333c11.776 0 23.168 3.882667 32.426667 10.965334L923.733333 288c10.538667 10.069333 14.933333 24.234667 14.933334 38.826667v494.506666a96 96 0 0 1-96 96h-31.658667v-307.626666a74.666667 74.666667 0 0 0-74.666667-74.666667H288A74.666667 74.666667 0 0 0 213.333333 609.706667l-0.042666 307.626666H181.333333A96 96 0 0 1 85.333333 821.333333v-640A96 96 0 0 1 181.333333 85.333333H256v202.752a74.666667 74.666667 0 0 0 68.522667 74.453334l6.144 0.213333h256a74.666667 74.666667 0 0 0 74.410666-68.522667l0.256-6.144V85.333333h5.802667z" fill="#888888" p-id="5675"></path></svg>