<svg width="40" height="40" xmlns="http://www.w3.org/2000/svg"><path d="M37.333 36V11.76a1.35 1.35 0 0 0-.4-.947l-7.826-7.76a1.307 1.307 0 0 0-.934-.386h-1.506v6.666c0 2.2-1.8 4-4 4H9.333c-2.2 0-4-1.8-4-4V2.667H4c-.733 0-1.333.6-1.333 1.333v32c0 .733.6 1.333 1.333 1.333h2.667v-12c0-2.2 1.8-4 4-4h18.666c2.2 0 4 1.8 4 4v12H36c.735 0 1.333-.6 1.333-1.333zm-6.666 1.333v-12c0-.733-.599-1.333-1.334-1.333H10.667c-.734 0-1.334.6-1.334 1.333v12h21.334zM8 2.667v6.666c0 .734.6 1.334 1.333 1.334h13.334c.734 0 1.333-.6 1.333-1.334V2.667H8zM38.813 8.92A4.002 4.002 0 0 1 40 11.76V36c0 2.2-1.8 4-4 4H4c-2.2 0-4-1.8-4-4V4c0-2.2 1.8-4 4-4h24.173c1.068 0 2.068.413 2.814 1.16l7.826 7.76zM20 9.333A1.333 1.333 0 0 1 18.667 8V5.333a1.333 1.333 0 1 1 2.666 0V8c0 .736-.597 1.333-1.333 1.333z"/></svg>