<svg t="1705571586044" class="icon" viewBox="0 0 1024 1024" version="1.1" xmlns="http://www.w3.org/2000/svg" p-id="17569" width="13" height="13"><path d="M925.248 356.928l-258.176-258.176a64 64 0 0 0-45.248-18.752H144a64 64 0 0 0-64 64v736a64 64 0 0 0 64 64h736a64 64 0 0 0 64-64V402.176a64 64 0 0 0-18.752-45.248zM288 144h192V256H288V144z m448 736H288V736h448v144z m144 0H800V704a32 32 0 0 0-32-32H256a32 32 0 0 0-32 32v176H144v-736H224V288a32 32 0 0 0 32 32h256a32 32 0 0 0 32-32V144h77.824l258.176 258.176V880z" p-id="17570"></path></svg>