<?xml version="1.0" encoding="UTF-8"?>
<svg width="40px" height="39px" viewBox="0 0 40 39" version="1.1" xmlns="http://www.w3.org/2000/svg"
>
    <title>save</title>


    <path d="M24,8.8817842e-16 L24,9.50399999 C24.000544,9.7366622 23.8405349,9.9389535 23.614,9.99200001 L23.5,10.004 L11.5,10.004 C11.2686763,10.0038344 11.0676671,9.84501227 11.014,9.62000001 L11,9.50399999 L11,8.8817842e-16 L24,8.8817842e-16 Z M30.518,24.08 C30.7941424,24.08 31.018,24.3038576 31.018,24.58 L31.016,39 L8.99800002,39 L8.99999999,24.58 C8.99999999,24.3038576 9.22385762,24.08 9.50000001,24.08 L30.518,24.08 Z M27.272,0 C27.824,0 28.358,0.182000015 28.792,0.514000031 L39.3,9.5 C39.794,9.97199999 40,10.636 40,11.32 L40,34.5 C40,36.9852813 37.9852814,39 35.5,39 L34.016,39 L34.016,24.58 C34.016,22.6470034 32.4489966,21.08 30.516,21.08 L9.5,21.08 C7.56700338,21.08 6,22.6470034 6,24.58 L5.99800003,39 L4.5,39 C2.01471862,39 -1.33226763e-15,36.9852813 -1.33226763e-15,34.5 L-1.33226763e-15,4.5 C-1.33226763e-15,2.01471862 2.01471862,0 4.5,0 L8,0 L8,9.50399999 C7.99902691,11.326053 9.39612568,12.8440713 11.212,12.994 L11.5,13.004 L23.5,13.004 C25.3212849,13.003932 26.8381343,11.6071085 26.988,9.79199999 L27,9.50399999 L27,0 L27.272,0 Z"
          id="形状"></path>


</svg>
