<svg width="184" height="184" xmlns="http://www.w3.org/2000/svg"><path d="M91.667 183.341C41.04 183.341 0 142.301 0 91.675a91.917 91.917 0 0 1 20.833-58.042 15.792 15.792 0 0 1 11.292-5.792 16.333 16.333 0 0 1 12.208 4.709L97.542 85.8a8.333 8.333 0 0 1-11.75 11.75L33.083 44.883a75 75 0 0 0-16.416 46.792 75 75 0 0 0 79.166 75c38.114-2.329 68.505-32.72 70.834-70.834a75 75 0 0 0-75-79.166 77 77 0 0 0-19.459 2.541 8.333 8.333 0 0 1-4.166-16.083 91.667 91.667 0 0 1 115.291 93.458c-2.804 46.7-40.05 83.946-86.75 86.75h-4.916z"/></svg>