<svg width="40" height="40" xmlns="http://www.w3.org/2000/svg"><path d="M29.255 31.928a17.886 17.886 0 0 1-11.294 3.995C8.041 35.923 0 27.88 0 17.96S8.042 0 17.961 0c9.92 0 17.962 8.042 17.962 17.961a17.886 17.886 0 0 1-3.995 11.294l7.795 7.795a.945.945 0 0 1 0 1.337l-1.336 1.336a.945.945 0 0 1-1.337 0l-7.795-7.795zm2.887-13.967c0-7.831-6.35-14.18-14.18-14.18-7.832 0-14.18 6.349-14.18 14.18 0 7.832 6.348 14.18 14.18 14.18 7.83 0 14.18-6.348 14.18-14.18z" fill="currentColor"/><path d="M29.255 31.928a17.886 17.886 0 0 1-11.294 3.995C8.041 35.923 0 27.88 0 17.96S8.042 0 17.961 0c9.92 0 17.962 8.042 17.962 17.961a17.886 17.886 0 0 1-3.995 11.294l7.795 7.795a.945.945 0 0 1 0 1.337l-1.336 1.336a.945.945 0 0 1-1.337 0l-7.795-7.795zm2.887-13.967c0-7.831-6.35-14.18-14.18-14.18-7.832 0-14.18 6.349-14.18 14.18 0 7.832 6.348 14.18 14.18 14.18 7.83 0 14.18-6.348 14.18-14.18z" fill-opacity=".2" fill="currentColor"/></svg>