<svg xmlns="http://www.w3.org/2000/svg" viewBox="0 0 24 24"><path fill="#646A73" d="M16.473 17.887A9.46 9.46 0 0 1 10.5 20a9.5 9.5 0 1 1 9.5-9.5 9.46 9.46 0 0 1-2.113 5.973l4.123 4.123a.5.5 0 0 1 0 .707l-.707.707a.5.5 0 0 1-.707 0l-4.123-4.123ZM18 10.5a7.5 7.5 0 1 0-15 0 7.5 7.5 0 0 0 15 0Z"/><path fill-opacity=".2" fill="#000" d="M16.473 17.887A9.46 9.46 0 0 1 10.5 20a9.5 9.5 0 1 1 9.5-9.5 9.46 9.46 0 0 1-2.113 5.973l4.123 4.123a.5.5 0 0 1 0 .707l-.707.707a.5.5 0 0 1-.707 0l-4.123-4.123ZM18 10.5a7.5 7.5 0 1 0-15 0 7.5 7.5 0 0 0 15 0Z"/></svg>