<?xml version="1.0" encoding="UTF-8"?>
<svg width="40px" height="40px" viewBox="0 0 40 40" version="1.1" xmlns="http://www.w3.org/2000/svg"
>
    <path d="M29.2545139,31.9279375 C26.0612572,34.5180589 22.0731135,35.9288989 17.9614737,35.9229473 C8.04162568,35.9229473 0,27.8813217 0,17.9614737 C0,8.04162568 8.04162568,0 17.9614737,0 C27.8813217,0 35.9229473,8.04162568 35.9229473,17.9614737 C35.9288989,22.0731135 34.5180589,26.0612572 31.9279375,29.2545139 L39.723217,37.0497935 C40.092261,37.4189489 40.092261,38.0173499 39.723217,38.3865053 L38.3865053,39.723217 C38.0173499,40.092261 37.4189489,40.092261 37.0497935,39.723217 L29.2545139,31.9279375 L29.2545139,31.9279375 Z M32.1415845,17.9614737 C32.1415845,10.1300147 25.7929326,3.78136288 17.9614737,3.78136288 C10.1300147,3.78136288 3.78136288,10.1300147 3.78136288,17.9614737 C3.78136288,25.7929326 10.1300147,32.1415845 17.9614737,32.1415845 C25.7929326,32.1415845 32.1415845,25.7929326 32.1415845,17.9614737 Z"
          id="形状" fill="#646A73"></path>
    <path d="M29.2545139,31.9279375 C26.0612572,34.5180589 22.0731135,35.9288989 17.9614737,35.9229473 C8.04162568,35.9229473 0,27.8813217 0,17.9614737 C0,8.04162568 8.04162568,0 17.9614737,0 C27.8813217,0 35.9229473,8.04162568 35.9229473,17.9614737 C35.9288989,22.0731135 34.5180589,26.0612572 31.9279375,29.2545139 L39.723217,37.0497935 C40.092261,37.4189489 40.092261,38.0173499 39.723217,38.3865053 L38.3865053,39.723217 C38.0173499,40.092261 37.4189489,40.092261 37.0497935,39.723217 L29.2545139,31.9279375 L29.2545139,31.9279375 Z M32.1415845,17.9614737 C32.1415845,10.1300147 25.7929326,3.78136288 17.9614737,3.78136288 C10.1300147,3.78136288 3.78136288,10.1300147 3.78136288,17.9614737 C3.78136288,25.7929326 10.1300147,32.1415845 17.9614737,32.1415845 C25.7929326,32.1415845 32.1415845,25.7929326 32.1415845,17.9614737 Z"
          id="形状" fill-opacity="0.2" fill="#000000"></path>
</svg>
