<!-- <svg xmlns="http://www.w3.org/2000/svg" viewBox="0 0 24 24"><path stroke-linejoin="round" stroke-width="2" stroke="#646A73" d="M3 4.628 12.004 2 21 4.628v5.389c0 2.841-.912 5.523-2.5 7.716a13.14 13.14 0 0 1-6.499 4.767A13.16 13.16 0 0 1 3 10.014V4.628Z"/><path stroke-linejoin="round" stroke-width="2" stroke-opacity=".2" stroke="#000" d="M3 4.628 12.004 2 21 4.628v5.389c0 2.841-.912 5.523-2.5 7.716a13.14 13.14 0 0 1-6.499 4.767A13.16 13.16 0 0 1 3 10.014V4.628Z"/><path stroke-linejoin="round" stroke-linecap="round" stroke-width="2" stroke="#646A73" d="M7.5 11.5 11 15l6-6"/><path stroke-linejoin="round" stroke-linecap="round" stroke-width="2" stroke-opacity=".2" stroke="#000" d="M7.5 11.5 11 15l6-6"/></svg> -->

<!-- <svg t="1676619561847" class="icon" viewBox="0 0 1024 1024" version="1.1" xmlns="http://www.w3.org/2000/svg" p-id="9164" width="200" height="200"><path d="M867.584 160.192c-149.632-16.928-262.208-57.408-334.592-120.352l-19.04-16.544-20.544 14.656C379.968 118.944 267.776 160 160 160H128v448c0 137.344 121.088 261.92 370.208 380.864l13.088 6.24 13.344-5.728C771.072 883.52 896 755.232 896 608V163.424l-28.416-3.232zM832 608c0 116.8-107.392 223.36-319.328 316.8C299.872 821.024 192 714.464 192 608V222.976c104.672-6.784 211.584-46.688 318.496-118.944C587.232 162.528 695.168 201.536 832 220.256V608z" p-id="9165"></path><path d="M359.776 468.672a32 32 0 1 0-47.968 42.4l121.792 137.824c12.608 14.24 30.176 21.568 47.904 21.568a64.384 64.384 0 0 0 49.696-23.52l197.6-242.72a32 32 0 0 0-49.632-40.416l-197.6 242.688-121.792-137.824z" p-id="9166"></path></svg> -->

<svg t="1676619614635" class="icon" viewBox="0 0 1024 1024" version="1.1" xmlns="http://www.w3.org/2000/svg" p-id="2333" width="200" height="200"><path d="M511.710974 0.199328c86.608205 0 166.937564 9.986355 239.054591 26.660179 25.384476 5.860256 47.988321 12.188934 67.562373 18.537544 11.11256 3.607845 19.235194 6.528006 24.178539 8.491391 50.988214 17.451204 89.508434 73.801353 89.508434 129.354188v459.751034c0 51.825393-30.008896 114.05573-70.253307 144.612779L589.957351 993.951239c-44.171181 33.537009-112.241841 33.61674-156.502721 0L161.660344 787.606443c-40.074982-30.427486-70.253307-92.966782-70.253307-144.612779v-459.751034c0-55.911626 38.420556-112.500968 89.737661-129.443886 4.963278-1.963385 13.016147-4.863614 23.949311-8.401693a815.808427 815.808427 0 0 1 67.57234-18.537544C344.77341 10.175717 425.102769 0.199328 511.710974 0.199328z m0 76.422522c-80.54862 0-155.147287 9.278739-221.832615 24.696793-23.191863 5.351968-43.682826 11.082661-61.223729 16.773488a408.533593 408.533593 0 0 0-15.587483 5.351968c-2.461706 0.887012-3.996535 1.484997-4.584554 1.734158-0.976709 0.38869-1.963385 0.747482-2.969994 1.056441-19.195328 6.009752-37.683041 32.988856-37.68304 57.007932v459.751034c0 28.065444 19.255127 67.96103 40.045082 83.737875l271.804253 206.344796c16.932951 12.856684 47.200973 12.826785 64.094058 0L815.577206 726.731539c20.939452-15.906409 40.045082-55.503003 40.045082-83.737875v-459.751034c0-23.690184-18.657141-50.749019-38.211261-57.177362l-2.441773-0.887011c-1.524863-0.597985-3.049725-1.176038-4.584554-1.734158-4.34536-1.594627-9.557798-3.408516-15.587484-5.351968a744.136898 744.136898 0 0 0-61.223728-16.773488c-66.725193-15.418054-141.313894-24.696793-221.862514-24.696793z m164.007436 227.732737c14.919733-14.939666 39.108239-14.959599 54.037938-0.039866 14.9297 14.919733 14.949633 39.108239 0.039866 54.037938L475.443165 613.084432c-14.8998 14.919733-39.068373 14.959599-53.998073 0.079732L293.695499 485.94279A38.2292 38.2292 0 0 1 283.489883 448.937467a38.217241 38.217241 0 0 1 27.088734-27.198365c13.255341-3.53808 27.397693 0.298993 37.035223 10.056119l100.710692 100.292102 227.393878-227.732736z m0 0" fill="#646A73" p-id="2334"></path></svg>