<svg xmlns="http://www.w3.org/2000/svg" fill="none" viewBox="0 0 24 24"><path stroke-linejoin="round" stroke-width="2" stroke="#646A73" d="M3 4.628 12.004 2 21 4.628v5.389c0 2.841-.912 5.523-2.5 7.716a13.14 13.14 0 0 1-6.499 4.767A13.16 13.16 0 0 1 3 10.014V4.628Z"/><path stroke-linejoin="round" stroke-width="2" stroke-opacity=".2" stroke="#000" d="M3 4.628 12.004 2 21 4.628v5.389c0 2.841-.912 5.523-2.5 7.716a13.14 13.14 0 0 1-6.499 4.767A13.16 13.16 0 0 1 3 10.014V4.628Z"/><path stroke-linejoin="round" stroke-linecap="round" stroke-width="2" stroke="#646A73" d="M7.5 11.5 11 15l6-6"/><path stroke-linejoin="round" stroke-linecap="round" stroke-width="2" stroke-opacity=".2" stroke="#000" d="M7.5 11.5 11 15l6-6"/></svg>