<svg width="40" height="49" xmlns="http://www.w3.org/2000/svg"><path d="M20 0c4.121 0 7.944.475 11.375 1.269a38.65 38.65 0 0 1 3.215.882c.529.171.916.31 1.15.404C38.168 3.385 40 6.067 40 8.71v21.877c0 2.466-1.428 5.427-3.343 6.881l-12.934 9.82c-2.102 1.595-5.34 1.599-7.447 0l-12.933-9.82C1.436 36.021 0 33.045 0 30.588V8.71c0-2.66 1.828-5.353 4.27-6.16.236-.093.62-.23 1.14-.4a38.82 38.82 0 0 1 3.215-.881C12.056.475 15.88 0 20 0zm0 3.637c-3.833 0-7.383.441-10.556 1.175a34.995 34.995 0 0 0-2.913.798 19.44 19.44 0 0 0-.96.337 1.852 1.852 0 0 1-.141.05c-.914.286-1.793 1.57-1.793 2.713v21.877c0 1.336.916 3.234 1.905 3.985l12.934 9.819c.806.611 2.246.61 3.05 0l12.933-9.82c.997-.756 1.906-2.64 1.906-3.984V8.71c0-1.127-.888-2.415-1.818-2.72l-.117-.043a19.731 19.731 0 0 0-.96-.337 35.41 35.41 0 0 0-2.913-.798C27.382 4.078 23.833 3.637 20 3.637zm7.804 10.836a1.818 1.818 0 1 1 2.574 2.57l-12.104 12.12c-.709.71-1.859.713-2.57.005l-6.078-6.054a1.82 1.82 0 1 1 2.566-2.577l4.792 4.773 10.82-10.837z"/></svg>