<?xml version="1.0" encoding="UTF-8"?>
<svg width="200px" height="200px" viewBox="0 0 200 200" version="1.1" xmlns="http://www.w3.org/2000/svg" xmlns:xlink="http://www.w3.org/1999/xlink">
    <title>编组</title>
    <g id="页面-1" stroke="none" stroke-width="1" fill="none" fill-rule="evenodd">
        <g id="编组" fill="#272636" fill-rule="nonzero">
            <path d="M196.888904,59.872974 L154.191511,102.570368 C150.259952,106.501926 143.890605,106.501926 139.959046,102.570368 L97.2672057,59.872974 C93.3356471,55.9469684 93.3356471,49.5720682 97.2672057,45.6460625 L139.959046,2.94866895 C143.890605,-0.982889648 150.259952,-0.982889648 154.191511,2.94866895 L196.888904,45.6460625 C200.820463,49.5720682 200.820463,55.9469684 196.888904,59.872974 Z M147.155798,10.7062783 L105.024815,52.8372609 L147.155798,94.9682436 L189.28678,52.8372609 L147.155798,10.7062783 Z M72.1896365,199.993059 L11.1060979,199.993059 C4.96997871,199.993059 0,195.02308 0,188.886961 L0,127.803422 C0,121.672856 4.96997871,116.697324 11.1060979,116.697324 L72.1896365,116.697324 C78.3202027,116.697324 83.2957346,121.672856 83.2957346,127.803422 L83.2957346,188.886961 C83.2957346,195.02308 78.3202027,199.993059 72.1896365,199.993059 Z M72.1896365,127.803422 L11.1060979,127.803422 L11.1060979,188.886961 L72.1896365,188.886961 L72.1896365,127.803422 Z M72.1896365,100.038177 L11.1060979,100.038177 C4.96997871,100.038177 0,95.0681984 0,88.9320793 L0,27.8485406 C0,21.7179744 4.96997871,16.7424426 11.1060979,16.7424426 L72.1896365,16.7424426 C78.3202027,16.7424426 83.2957346,21.7179744 83.2957346,27.8485406 L83.2957346,88.9320793 C83.2957346,95.0681984 78.3202027,100.038177 72.1896365,100.038177 Z M72.1896365,27.8485406 L11.1060979,27.8485406 L11.1060979,88.9320793 L72.1896365,88.9320793 L72.1896365,27.8485406 Z M111.060979,116.697324 L172.144518,116.697324 C178.275084,116.697324 183.250616,121.672856 183.250616,127.803422 L183.250616,188.886961 C183.250616,195.02308 178.275084,199.993059 172.144518,199.993059 L111.060979,199.993059 C104.92486,199.993059 99.9548814,195.02308 99.9548814,188.886961 L99.9548814,127.803422 C99.9548814,121.672856 104.92486,116.697324 111.060979,116.697324 Z M111.060979,188.886961 L172.144518,188.886961 L172.144518,127.803422 L111.060979,127.803422 L111.060979,188.886961 Z" id="形状"></path>
        </g>
    </g>
</svg>