<svg width="200" height="200" xmlns="http://www.w3.org/2000/svg"><path d="M196.889 59.873l-42.697 42.697a10.061 10.061 0 0 1-14.233 0L97.267 59.873c-3.931-3.926-3.931-10.3 0-14.227L139.96 2.95a10.061 10.061 0 0 1 14.233 0l42.697 42.697c3.931 3.926 3.931 10.301 0 14.227zm-49.733-49.167l-42.131 42.131 42.13 42.131 42.132-42.13-42.131-42.132zM72.19 199.993H11.106C4.97 199.993 0 195.023 0 188.887v-61.084c0-6.13 4.97-11.106 11.106-11.106H72.19c6.13 0 11.106 4.976 11.106 11.106v61.084c0 6.136-4.976 11.106-11.106 11.106zm0-72.19H11.106v61.084H72.19v-61.084zm0-27.765H11.106C4.97 100.038 0 95.068 0 88.932V27.85c0-6.131 4.97-11.107 11.106-11.107H72.19c6.13 0 11.106 4.976 11.106 11.107v61.083c0 6.136-4.976 11.106-11.106 11.106zm0-72.19H11.106v61.084H72.19V27.85zm38.871 88.85h61.084c6.13 0 11.106 4.975 11.106 11.105v61.084c0 6.136-4.976 11.106-11.106 11.106H111.06c-6.136 0-11.106-4.97-11.106-11.106v-61.084c0-6.13 4.97-11.106 11.106-11.106zm0 72.189h61.084v-61.084H111.06v61.084z" fill="currentColor" fill-rule="nonzero"/></svg>