<svg width="40px" height="35px" viewBox="0 0 40 35" version="1.1" xmlns="http://www.w3.org/2000/svg"
>
    <g id="页面-3" stroke="none" stroke-width="1" fill="#646A73" fill-rule="evenodd">
        <g id="session" fill-rule="nonzero">
            <path d="M0,1.81818182 C0,0.814027728 0.814027728,0 1.81818182,0 L38.1818182,0 C39.1859723,0 40,0.814027728 40,1.81818182 L40,11.8181818 C40,12.8223359 39.1859723,13.6363636 38.1818182,13.6363636 C37.1776641,13.6363636 36.3636364,12.8223359 36.3636364,11.8181818 L36.3636364,3.63636364 L3.63636364,3.63636364 L3.63636364,27.2727273 L8.18181818,27.2727273 C9.18597227,27.2727273 10,28.086755 10,29.0909091 L10,30.6945455 L16.46,27.4654545 C16.712259,27.338949 16.9905249,27.272962 17.2727273,27.2727273 L21.3636364,27.2727273 C22.3677905,27.2727273 23.1818182,28.086755 23.1818182,29.0909091 C23.1818182,30.0950632 22.3677905,30.9090909 21.3636364,30.9090909 L17.7018182,30.9090909 L8.99454545,35.2618182 C8.43108644,35.5433796 7.76203784,35.5132462 7.22617151,35.1821719 C6.69030517,34.8510976 6.36397265,34.2662547 6.36363636,33.6363636 L6.36363636,30.9090909 L1.81818182,30.9090909 C0.814027728,30.9090909 0,30.0950632 0,29.0909091 L0,1.81818182 Z"
                  id="路径"></path>
            <path d="M0,1.81818182 C0,0.814027728 0.814027728,0 1.81818182,0 L38.1818182,0 C39.1859723,0 40,0.814027728 40,1.81818182 L40,11.8181818 C40,12.8223359 39.1859723,13.6363636 38.1818182,13.6363636 C37.1776641,13.6363636 36.3636364,12.8223359 36.3636364,11.8181818 L36.3636364,3.63636364 L3.63636364,3.63636364 L3.63636364,27.2727273 L8.18181818,27.2727273 C9.18597227,27.2727273 10,28.086755 10,29.0909091 L10,30.6945455 L16.46,27.4654545 C16.712259,27.338949 16.9905249,27.272962 17.2727273,27.2727273 L21.3636364,27.2727273 C22.3677905,27.2727273 23.1818182,28.086755 23.1818182,29.0909091 C23.1818182,30.0950632 22.3677905,30.9090909 21.3636364,30.9090909 L17.7018182,30.9090909 L8.99454545,35.2618182 C8.43108644,35.5433796 7.76203784,35.5132462 7.22617151,35.1821719 C6.69030517,34.8510976 6.36397265,34.2662547 6.36363636,33.6363636 L6.36363636,30.9090909 L1.81818182,30.9090909 C0.814027728,30.9090909 0,30.0950632 0,29.0909091 L0,1.81818182 Z"
                  id="路径" fill-opacity="0.2" fill="#000000"></path>
            <path d="M31.4381818,13.7145455 L30.9090909,15.4545455 L30.38,13.7145455 C30.724926,13.6096316 31.0932558,13.6096316 31.4381818,13.7145455 Z M30.9090909,30 C29.9636364,31.5527273 29.9636364,31.5527273 29.9618182,31.5511345 L29.96,31.5511345 L29.9563636,31.5490909 L29.9472727,31.5436364 L29.9218182,31.5272727 C29.811746,31.4569416 29.7032349,31.3841967 29.5963636,31.3090909 C29.3124227,31.1108449 29.035872,30.9022189 28.7672727,30.6836364 C27.8728279,29.9538491 27.0536009,29.1364494 26.3218182,28.2436364 C24.5436364,26.0763636 22.7272727,22.7727273 22.7272727,18.3636364 C22.7272727,17.8036364 22.9527273,17.3818182 23.12,17.1381818 C23.2927273,16.8890909 23.4927273,16.6981818 23.6509091,16.5672727 C23.9672727,16.3018182 24.3418182,16.0763636 24.6836364,15.8945455 C25.3836364,15.5236364 26.2654545,15.1563636 27.08,14.8454545 C28.1409977,14.4436684 29.2142446,14.075005 30.2981818,13.74 L30.3563636,13.7218182 L30.3781818,13.7145455 L30.9090909,15.4545455 L31.4381818,13.7145455 L31.4618182,13.7218182 L31.5181818,13.74 L31.7290909,13.8054545 C32.7411069,14.1255553 33.7444874,14.472343 34.7381818,14.8454545 C35.5545455,15.1563636 36.4345455,15.5236364 37.1345455,15.8963636 C37.4745455,16.0781818 37.8509091,16.3018182 38.1672727,16.5672727 C38.3254545,16.6981818 38.5254545,16.8890909 38.6963636,17.1381818 C38.8654545,17.38 39.0909091,17.8036364 39.0909091,18.3636364 C39.0909091,22.7727273 37.2745455,26.0763636 35.4963636,28.2436364 C34.7645809,29.1364494 33.9453539,29.9538491 33.0509091,30.6836364 C32.6805578,30.9841697 32.2952152,31.2657429 31.8963636,31.5272727 L31.8709091,31.5436364 L31.8618182,31.5490909 L31.8581818,31.5490909 L31.8581818,31.5511345 C31.8563636,31.5511345 31.8545455,31.5511345 30.9090909,30 L30.9090909,30 Z M30.9090909,30 L29.9618182,31.5509091 C30.5436364,31.9054545 31.2763636,31.9054545 31.8563636,31.5509091 L30.9090909,30 Z M30.9090909,27.7363636 C30.2629156,27.1922242 29.6682784,26.5896746 29.1327273,25.9363636 C27.8363636,24.3545455 26.5690909,22.0872727 26.3872727,19.1090909 C27.8660016,18.4553308 29.374978,17.8722482 30.9090909,17.3618182 C31.7606785,17.6366659 32.6057557,17.9312911 33.4436364,18.2454545 C34.2181818,18.54 34.9290909,18.84 35.4236364,19.1036364 L35.4309091,19.1090909 C35.2490909,22.0872727 33.9836364,24.3563636 32.6854545,25.9381818 C32.0490909,26.7145455 31.4127273,27.3145455 30.9090909,27.7363636 L30.9090909,27.7363636 Z"
                  id="形状"></path>
            <path d="M31.4381818,13.7145455 L30.9090909,15.4545455 L30.38,13.7145455 C30.724926,13.6096316 31.0932558,13.6096316 31.4381818,13.7145455 Z M30.9090909,30 C29.9636364,31.5527273 29.9636364,31.5527273 29.9618182,31.5511345 L29.96,31.5511345 L29.9563636,31.5490909 L29.9472727,31.5436364 L29.9218182,31.5272727 C29.811746,31.4569416 29.7032349,31.3841967 29.5963636,31.3090909 C29.3124227,31.1108449 29.035872,30.9022189 28.7672727,30.6836364 C27.8728279,29.9538491 27.0536009,29.1364494 26.3218182,28.2436364 C24.5436364,26.0763636 22.7272727,22.7727273 22.7272727,18.3636364 C22.7272727,17.8036364 22.9527273,17.3818182 23.12,17.1381818 C23.2927273,16.8890909 23.4927273,16.6981818 23.6509091,16.5672727 C23.9672727,16.3018182 24.3418182,16.0763636 24.6836364,15.8945455 C25.3836364,15.5236364 26.2654545,15.1563636 27.08,14.8454545 C28.1409977,14.4436684 29.2142446,14.075005 30.2981818,13.74 L30.3563636,13.7218182 L30.3781818,13.7145455 L30.9090909,15.4545455 L31.4381818,13.7145455 L31.4618182,13.7218182 L31.5181818,13.74 L31.7290909,13.8054545 C32.7411069,14.1255553 33.7444874,14.472343 34.7381818,14.8454545 C35.5545455,15.1563636 36.4345455,15.5236364 37.1345455,15.8963636 C37.4745455,16.0781818 37.8509091,16.3018182 38.1672727,16.5672727 C38.3254545,16.6981818 38.5254545,16.8890909 38.6963636,17.1381818 C38.8654545,17.38 39.0909091,17.8036364 39.0909091,18.3636364 C39.0909091,22.7727273 37.2745455,26.0763636 35.4963636,28.2436364 C34.7645809,29.1364494 33.9453539,29.9538491 33.0509091,30.6836364 C32.6805578,30.9841697 32.2952152,31.2657429 31.8963636,31.5272727 L31.8709091,31.5436364 L31.8618182,31.5490909 L31.8581818,31.5490909 L31.8581818,31.5511345 C31.8563636,31.5511345 31.8545455,31.5511345 30.9090909,30 L30.9090909,30 Z M30.9090909,30 L29.9618182,31.5509091 C30.5436364,31.9054545 31.2763636,31.9054545 31.8563636,31.5509091 L30.9090909,30 Z M30.9090909,27.7363636 C30.2629156,27.1922242 29.6682784,26.5896746 29.1327273,25.9363636 C27.8363636,24.3545455 26.5690909,22.0872727 26.3872727,19.1090909 C27.8660016,18.4553308 29.374978,17.8722482 30.9090909,17.3618182 C31.7606785,17.6366659 32.6057557,17.9312911 33.4436364,18.2454545 C34.2181818,18.54 34.9290909,18.84 35.4236364,19.1036364 L35.4309091,19.1090909 C35.2490909,22.0872727 33.9836364,24.3563636 32.6854545,25.9381818 C32.0490909,26.7145455 31.4127273,27.3145455 30.9090909,27.7363636 L30.9090909,27.7363636 Z"
                  id="形状" fill-opacity="0.2" fill="#000000"></path>
            <path d="M7.27272727,9.09090909 C7.27272727,8.086755 8.086755,7.27272727 9.09090909,7.27272727 L14.5454545,7.27272727 C15.5496086,7.27272727 16.3636364,8.086755 16.3636364,9.09090909 C16.3636364,10.0950632 15.5496086,10.9090909 14.5454545,10.9090909 L9.09090909,10.9090909 C8.086755,10.9090909 7.27272727,10.0950632 7.27272727,9.09090909 Z"
                  id="路径"></path>
            <path d="M7.27272727,9.09090909 C7.27272727,8.086755 8.086755,7.27272727 9.09090909,7.27272727 L14.5454545,7.27272727 C15.5496086,7.27272727 16.3636364,8.086755 16.3636364,9.09090909 C16.3636364,10.0950632 15.5496086,10.9090909 14.5454545,10.9090909 L9.09090909,10.9090909 C8.086755,10.9090909 7.27272727,10.0950632 7.27272727,9.09090909 Z"
                  id="路径" fill-opacity="0.2" fill="#000000"></path>
            <path d="M7.27272727,14.5454545 C7.27272727,13.5413005 8.086755,12.7272727 9.09090909,12.7272727 L20,12.7272727 C21.0041541,12.7272727 21.8181818,13.5413005 21.8181818,14.5454545 C21.8181818,15.5496086 21.0041541,16.3636364 20,16.3636364 L9.09090909,16.3636364 C8.086755,16.3636364 7.27272727,15.5496086 7.27272727,14.5454545 Z"
                  id="路径"></path>
            <path d="M7.27272727,14.5454545 C7.27272727,13.5413005 8.086755,12.7272727 9.09090909,12.7272727 L20,12.7272727 C21.0041541,12.7272727 21.8181818,13.5413005 21.8181818,14.5454545 C21.8181818,15.5496086 21.0041541,16.3636364 20,16.3636364 L9.09090909,16.3636364 C8.086755,16.3636364 7.27272727,15.5496086 7.27272727,14.5454545 Z"
                  id="路径" fill-opacity="0.2" fill="#000000"></path>
        </g>
    </g>
</svg>
