<svg width="40" height="40.002" xmlns="http://www.w3.org/2000/svg"><path d="M9.355 40.002a9.358 9.358 0 0 1-6.613-15.975l6.621-6.622a1.862 1.862 0 0 1 2.634 0l.013.014a1.862 1.862 0 0 1 .001 2.632l-6.627 6.637a5.614 5.614 0 1 0 7.939 7.928l6.627-6.614a1.862 1.862 0 0 1 2.631 0l.011.01a1.862 1.862 0 0 1 0 2.637l-6.619 6.61a9.297 9.297 0 0 1-6.618 2.743zm5.28-14.659a1.863 1.863 0 0 1 .002-2.63l7.958-7.958a1.862 1.862 0 0 1 2.633 0l.014.014c.727.727.728 1.905.002 2.632l-7.925 7.942a1.896 1.896 0 0 1-2.685 0zm13.243-2.647a1.862 1.862 0 0 1 .004-2.627l6.619-6.631a5.614 5.614 0 1 0-7.928-7.939l-6.637 6.625a1.863 1.863 0 0 1-2.632-.002l-.014-.013a1.862 1.862 0 0 1 0-2.634l6.622-6.618a9.357 9.357 0 1 1 13.231 13.231l-6.627 6.615a1.862 1.862 0 0 1-2.638-.007z"/></svg>