<svg width="40" height="40" xmlns="http://www.w3.org/2000/svg"><path d="M36.096 10.818c-1.01.363-2.04.444-3.088.195a5.345 5.345 0 0 1-3.817-7.06c.078-.216.038-.31-.161-.4-.8-.362-1.587-.755-2.396-1.095-.533-.223-1.095-.374-1.63-.552-1.033 2.127-2.654 3.343-5.002 3.343-2.358 0-3.985-1.22-5-3.328-1.49.407-2.922 1-4.264 1.767.768 2.21.487 4.224-1.185 5.89-1.668 1.66-3.683 1.95-5.883 1.172a18.45 18.45 0 0 0-1.765 4.264C4 16.026 5.217 17.634 5.23 19.97c.015 2.374-1.204 4.008-3.327 5.035a18.31 18.31 0 0 0 1.77 4.264c2.133-.75 4.092-.507 5.742 1.038 1.784 1.672 2.11 3.734 1.324 6.024 1.34.767 2.773 1.36 4.264 1.762 1.029-2.114 2.65-3.325 5-3.324 2.36.003 3.982 1.23 4.995 3.328a18.374 18.374 0 0 0 4.262-1.769c-.776-2.21-.482-4.214 1.172-5.876 1.665-1.67 3.68-1.954 5.895-1.185a18.198 18.198 0 0 0 1.764-4.263c-2.134-1.037-3.348-2.677-3.327-5.048.02-2.324 1.23-3.927 3.329-4.94a18.767 18.767 0 0 0-1.697-4.15c-.092-.166-.193-.086-.302-.048v.001zm3.837 3.696a1.905 1.905 0 0 1-1.01 2.216c-1.545.747-2.24 1.748-2.252 3.242-.013 1.53.68 2.553 2.254 3.317a1.905 1.905 0 0 1 1.007 2.212 20.103 20.103 0 0 1-1.95 4.708 1.905 1.905 0 0 1-2.279.856c-1.636-.568-2.85-.343-3.92.73-1.067 1.073-1.292 2.282-.723 3.902a1.905 1.905 0 0 1-.852 2.284c-1.48.846-3.06 1.5-4.703 1.95a1.905 1.905 0 0 1-2.222-1.008c-.746-1.548-1.763-2.248-3.28-2.25-1.515 0-2.527.693-3.285 2.252a1.905 1.905 0 0 1-2.202 1.008 19.97 19.97 0 0 1-4.714-1.945 1.905 1.905 0 0 1-.863-2.276c.582-1.695.33-2.934-.825-4.015-1.053-.987-2.236-1.184-3.81-.632a1.905 1.905 0 0 1-2.283-.85 20.215 20.215 0 0 1-1.952-4.708 1.905 1.905 0 0 1 1.006-2.219c1.566-.756 2.262-1.777 2.253-3.306-.01-1.502-.705-2.507-2.25-3.253a1.905 1.905 0 0 1-1.011-2.214A20.348 20.348 0 0 1 2.01 9.812a1.905 1.905 0 0 1 2.295-.859c1.611.57 2.826.345 3.904-.727 1.072-1.067 1.297-2.28.729-3.915-.3-.866.06-1.824.856-2.279 1.48-.844 3.06-1.5 4.705-1.95a1.905 1.905 0 0 1 2.219 1.012c.746 1.55 1.764 2.25 3.283 2.249 1.513 0 2.525-.697 3.288-2.27a1.905 1.905 0 0 1 2.316-.975c.113.037.223.073.415.133l.336.104c.4.129.705.236 1.013.366.453.19.808.351 1.564.707.45.211.643.3.88.408 1.118.505 1.579 1.644 1.168 2.783a3.441 3.441 0 0 0 2.467 4.56c.661.157 1.313.113 2.003-.135a2.025 2.025 0 0 1 .973-.159c.753.06 1.318.495 1.64 1.079a20.664 20.664 0 0 1 1.867 4.57h.002zM20.476 11.43a9.048 9.048 0 1 0 7.428 3.882.952.952 0 0 0-1.563 1.089 7.143 7.143 0 1 1-3.088-2.506.953.953 0 0 0 .74-1.755 9.022 9.022 0 0 0-3.517-.71z"/></svg>