<svg width="40" height="43" xmlns="http://www.w3.org/2000/svg"><path d="M20.008 15.366a5.237 5.237 0 0 0-3.734 1.548 5.257 5.257 0 0 0-1.548 3.734c0 1.41.552 2.733 1.548 3.733a5.257 5.257 0 0 0 3.734 1.548 5.257 5.257 0 0 0 3.733-1.548 5.257 5.257 0 0 0 1.548-3.733 5.257 5.257 0 0 0-1.548-3.734c-1-1-2.322-1.548-3.733-1.548z"/><path d="M39.468 26.482l-3.087-2.639a16.916 16.916 0 0 0 0-5.447l3.087-2.638a1.512 1.512 0 0 0 .44-1.662l-.043-.122a20.886 20.886 0 0 0-3.757-6.5l-.085-.099a1.516 1.516 0 0 0-1.657-.448L30.533 8.29a16.481 16.481 0 0 0-4.7-2.714l-.742-4.008c-.113-.618-.6-1.1-1.218-1.213l-.127-.023a21.27 21.27 0 0 0-7.495 0l-.128.023a1.513 1.513 0 0 0-1.218 1.213l-.745 4.027A16.682 16.682 0 0 0 9.492 8.3L5.63 6.927a1.51 1.51 0 0 0-1.657.448l-.085.1a21.048 21.048 0 0 0-3.757 6.499l-.043.122c-.212.59-.037 1.251.44 1.662l3.124 2.667a16.592 16.592 0 0 0-.217 2.69c0 .906.07 1.812.217 2.69L.538 26.472a1.512 1.512 0 0 0-.44 1.662l.043.122a20.94 20.94 0 0 0 3.757 6.5l.085.099a1.516 1.516 0 0 0 1.657.448L9.5 33.93a16.345 16.345 0 0 0 4.669 2.704l.746 4.026c.113.619.6 1.1 1.218 1.214l.127.023a21.158 21.158 0 0 0 7.495 0l.128-.023A1.513 1.513 0 0 0 25.1 40.66l.74-4.007a16.593 16.593 0 0 0 4.702-2.714l3.832 1.364a1.51 1.51 0 0 0 1.657-.448l.085-.1a21.048 21.048 0 0 0 3.757-6.499l.043-.122a1.523 1.523 0 0 0-.449-1.652zm-19.46 2.463a8.297 8.297 0 0 1-8.298-8.297 8.297 8.297 0 0 1 8.298-8.298 8.297 8.297 0 0 1 8.297 8.298 8.297 8.297 0 0 1-8.297 8.297z"/></svg>