<?xml version="1.0" standalone="no"?><!DOCTYPE svg PUBLIC "-//W3C//DTD SVG 1.1//EN" "http://www.w3.org/Graphics/SVG/1.1/DTD/svg11.dtd"><svg t="1645506884918" class="icon" viewBox="0 0 1024 1024" version="1.1" xmlns="http://www.w3.org/2000/svg" p-id="2221" xmlns:xlink="http://www.w3.org/1999/xlink" width="200" height="200"><defs><style type="text/css"></style></defs><path d="M872.554667 306.304c-22.613333 8.128-45.696 9.941333-69.162667 4.373333a119.722667 119.722667 0 0 1-85.504-158.144c1.749333-4.842667 0.853333-6.954667-3.605333-8.96-17.92-8.106667-35.541333-16.917333-53.674667-24.533333-11.925333-4.992-24.533333-8.384-36.501333-12.373333-23.146667 47.658667-59.456 74.88-112.064 74.88-52.821333 0-89.258667-27.306667-111.978667-74.538667a411.733333 411.733333 0 0 0-95.530667 39.573333c17.216 49.493333 10.922667 94.634667-26.538666 131.925334-37.376 37.205333-82.496 43.712-131.776 26.282666A413.290667 413.290667 0 0 0 106.666667 400.298667c46.933333 22.656 74.197333 58.666667 74.517333 110.997333 0.32 53.162667-26.986667 89.770667-74.538667 112.768a410.154667 410.154667 0 0 0 39.637334 95.530667c47.808-16.789333 91.669333-11.370667 128.64 23.253333 39.957333 37.44 47.274667 83.626667 29.653333 134.933333a404.949333 404.949333 0 0 0 95.530667 39.466667c23.04-47.36 59.349333-74.474667 111.978666-74.453333 52.885333 0.064 89.216 27.541333 111.893334 74.538666a411.584 411.584 0 0 0 95.488-39.616c-17.386667-49.493333-10.816-94.4 26.24-131.626666 37.290667-37.418667 82.432-43.776 132.053333-26.538667a407.637333 407.637333 0 0 0 39.509333-95.509333c-47.786667-23.210667-74.986667-59.946667-74.517333-113.066667 0.448-52.053333 27.562667-87.957333 74.56-110.656a420.394667 420.394667 0 0 0-38.016-92.970667c-2.048-3.712-4.309333-1.92-6.762667-1.066666z m85.952 82.794667a42.666667 42.666667 0 0 1-22.613334 49.642666c-34.602667 16.725333-50.176 39.146667-50.453333 72.618667-0.298667 34.282667 15.253333 57.194667 50.496 74.304a42.666667 42.666667 0 0 1 22.549333 49.536 450.304 450.304 0 0 1-43.669333 105.472 42.666667 42.666667 0 0 1-51.050667 19.178667c-36.650667-12.736-63.850667-7.68-87.808 16.362666-23.914667 24.021333-28.949333 51.093333-16.213333 87.381334a42.666667 42.666667 0 0 1-19.072 51.178666 454.229333 454.229333 0 0 1-105.344 43.690667 42.666667 42.666667 0 0 1-49.770667-22.592c-16.725333-34.688-39.509333-50.368-73.493333-50.389333-33.92-0.021333-56.597333 15.509333-73.578667 50.432a42.666667 42.666667 0 0 1-49.322666 22.570666 447.338667 447.338667 0 0 1-105.6-43.562666 42.666667 42.666667 0 0 1-19.328-50.986667c13.034667-37.973333 7.381333-65.728-18.474667-89.941333-23.594667-22.101333-50.090667-26.517333-85.333333-14.144a42.666667 42.666667 0 0 1-51.157334-19.050667 452.821333 452.821333 0 0 1-43.733333-105.450667 42.666667 42.666667 0 0 1 22.549333-49.706666c35.072-16.938667 50.666667-39.808 50.453334-74.069334-0.213333-33.642667-15.786667-56.149333-50.389334-72.853333A42.666667 42.666667 0 0 1 65.493333 389.12a455.808 455.808 0 0 1 43.541334-105.344 42.666667 42.666667 0 0 1 51.392-19.242667c36.096 12.778667 63.317333 7.722667 87.466666-16.298666 24-23.893333 29.034667-51.072 16.32-87.68a42.666667 42.666667 0 0 1 19.178667-51.050667 454.4 454.4 0 0 1 105.386667-43.669333 42.666667 42.666667 0 0 1 49.706666 22.656c16.725333 34.730667 39.509333 50.389333 73.536 50.368 33.898667 0 56.576-15.616 73.664-50.837334a42.666667 42.666667 0 0 1 51.882667-21.845333c2.517333 0.832 4.992 1.621333 9.28 2.965333l7.530667 2.346667c8.96 2.88 15.786667 5.290667 22.698666 8.192 10.154667 4.245333 18.090667 7.872 35.029334 15.829333 10.069333 4.736 14.4 6.741333 19.733333 9.152 25.024 11.306667 35.349333 36.821333 26.154667 62.336-16 44.352 9.344 91.221333 55.253333 102.144 14.805333 3.52 29.418667 2.538667 44.864-3.029333a33.28 33.28 0 0 1 4.48-1.621333c5.269333-1.621333 10.88-2.453333 17.322667-1.941334 16.853333 1.344 29.525333 11.093333 36.736 24.170667a462.890667 462.890667 0 0 1 41.813333 102.357333zM522.666667 320a202.666667 202.666667 0 1 0 166.4 86.954667 21.333333 21.333333 0 0 0-35.008 24.384 160 160 0 1 1-69.184-56.128 21.333333 21.333333 0 0 0 16.597333-39.317334A202.090667 202.090667 0 0 0 522.666667 320z" fill="#3D3D3D" p-id="2222"></path></svg>