<svg width="40" height="32" xmlns="http://www.w3.org/2000/svg"><path d="M23.344 25.196l8.589 6.09-1.482-7.59"/><path d="M36.513 2.366H28.79v3.487h5.982c.965 0 1.746.78 1.746 1.74v14.072c0 .964-.781 1.741-1.746 1.741H16.59c-.768 0-1.42-.495-1.651-1.183h-3.58v1.188a3.489 3.489 0 0 0 3.486 3.486h21.67A3.489 3.489 0 0 0 40 23.411V5.853a3.489 3.489 0 0 0-3.487-3.487z"/><path d="M21.679 0H3.522C1.576 0 0 1.563 0 3.491V15.46c0 1.928 1.576 3.49 3.522 3.49H21.68c1.946 0 3.522-1.562 3.522-3.49V3.49C25.196 1.562 23.62 0 21.679 0zm0 13.714c0 .965-.79 1.746-1.76 1.746H5.282a1.751 1.751 0 0 1-1.759-1.746V5.237c0-.965.79-1.746 1.76-1.746H19.92c.973 0 1.759.781 1.759 1.746v8.477z"/><path d="M14.929 17.246l-8.67 6.102 1.495-7.602"/></svg>