<svg xmlns="http://www.w3.org/2000/svg" fill="none" viewBox="0 0 24 24"><path stroke-linejoin="round" stroke-linecap="round" stroke-width="2" stroke="#646A73" d="M11.5 21.5h1M7 7.5v-5h14.5V11"/><path stroke-linejoin="round" stroke-linecap="round" stroke-width="2" stroke-opacity=".2" stroke="#000" d="M11.5 21.5h1M7 7.5v-5h14.5V11"/><path stroke-linejoin="round" stroke-width="2" stroke="#646A73" d="M2.5 7.5h9v14h-9v-14Z"/><path stroke-linejoin="round" stroke-width="2" stroke-opacity=".2" stroke="#000" d="M2.5 7.5h9v14h-9v-14Z"/><path stroke-linejoin="round" stroke-linecap="round" stroke-width="2" stroke="#646A73" d="M6.5 18.5h1"/><path stroke-linejoin="round" stroke-linecap="round" stroke-width="2" stroke-opacity=".2" stroke="#000" d="M6.5 18.5h1"/><path stroke-linejoin="round" stroke-linecap="round" stroke-width="2" stroke="#646A73" d="M14 5.5h1"/><path stroke-linejoin="round" stroke-linecap="round" stroke-width="2" stroke-opacity=".2" stroke="#000" d="M14 5.5h1"/><path stroke-width="2" stroke="#646A73" d="M18 19.5a2.5 2.5 0 1 0 0-5 2.5 2.5 0 0 0 0 5Z"/><path stroke-width="2" stroke-opacity=".2" stroke="#000" d="M18 19.5a2.5 2.5 0 1 0 0-5 2.5 2.5 0 0 0 0 5Z"/><path stroke-linejoin="round" stroke-linecap="round" stroke-width="2" stroke="#646A73" d="M18 13v1.5"/><path stroke-linejoin="round" stroke-linecap="round" stroke-width="2" stroke-opacity=".2" stroke="#000" d="M18 13v1.5"/><path stroke-linejoin="round" stroke-linecap="round" stroke-width="2" stroke="#646A73" d="M18 19.5V21"/><path stroke-linejoin="round" stroke-linecap="round" stroke-width="2" stroke-opacity=".2" stroke="#000" d="M18 19.5V21"/><path stroke-linejoin="round" stroke-linecap="round" stroke-width="2" stroke="#646A73" d="m20.914 14-1.06 1.06"/><path stroke-linejoin="round" stroke-linecap="round" stroke-width="2" stroke-opacity=".2" stroke="#000" d="m20.914 14-1.06 1.06"/><path stroke-linejoin="round" stroke-linecap="round" stroke-width="2" stroke="#646A73" d="m15.914 19-1.06 1.06"/><path stroke-linejoin="round" stroke-linecap="round" stroke-width="2" stroke-opacity=".2" stroke="#000" d="m15.914 19-1.06 1.06"/><path stroke-linejoin="round" stroke-linecap="round" stroke-width="2" stroke="#646A73" d="m15 14 1.06 1.06"/><path stroke-linejoin="round" stroke-linecap="round" stroke-width="2" stroke-opacity=".2" stroke="#000" d="m15 14 1.06 1.06"/><path stroke-linejoin="round" stroke-linecap="round" stroke-width="2" stroke="#646A73" d="m20 19 1.06 1.06"/><path stroke-linejoin="round" stroke-linecap="round" stroke-width="2" stroke-opacity=".2" stroke="#000" d="m20 19 1.06 1.06"/><path stroke-linejoin="round" stroke-linecap="round" stroke-width="2" stroke="#646A73" d="M14 17h1.5"/><path stroke-linejoin="round" stroke-linecap="round" stroke-width="2" stroke-opacity=".2" stroke="#000" d="M14 17h1.5"/><path stroke-linejoin="round" stroke-linecap="round" stroke-width="2" stroke="#646A73" d="M20.5 17H22"/><path stroke-linejoin="round" stroke-linecap="round" stroke-width="2" stroke-opacity=".2" stroke="#000" d="M20.5 17H22"/></svg>