<!-- <svg xmlns="http://www.w3.org/2000/svg" viewBox="0 0 24 24"><path stroke-linejoin="round" stroke-linecap="round" stroke-width="2" stroke="#646A73" d="M11.5 21.5h1M7 7.5v-5h14.5V11"/><path stroke-linejoin="round" stroke-linecap="round" stroke-width="2" stroke-opacity=".2" stroke="#000" d="M11.5 21.5h1M7 7.5v-5h14.5V11"/><path stroke-linejoin="round" stroke-width="2" stroke="#646A73" d="M2.5 7.5h9v14h-9v-14Z"/><path stroke-linejoin="round" stroke-width="2" stroke-opacity=".2" stroke="#000" d="M2.5 7.5h9v14h-9v-14Z"/><path stroke-linejoin="round" stroke-linecap="round" stroke-width="2" stroke="#646A73" d="M6.5 18.5h1"/><path stroke-linejoin="round" stroke-linecap="round" stroke-width="2" stroke-opacity=".2" stroke="#000" d="M6.5 18.5h1"/><path stroke-linejoin="round" stroke-linecap="round" stroke-width="2" stroke="#646A73" d="M14 5.5h1"/><path stroke-linejoin="round" stroke-linecap="round" stroke-width="2" stroke-opacity=".2" stroke="#000" d="M14 5.5h1"/><path stroke-width="2" stroke="#646A73" d="M18 19.5a2.5 2.5 0 1 0 0-5 2.5 2.5 0 0 0 0 5Z"/><path stroke-width="2" stroke-opacity=".2" stroke="#000" d="M18 19.5a2.5 2.5 0 1 0 0-5 2.5 2.5 0 0 0 0 5Z"/><path stroke-linejoin="round" stroke-linecap="round" stroke-width="2" stroke="#646A73" d="M18 13v1.5"/><path stroke-linejoin="round" stroke-linecap="round" stroke-width="2" stroke-opacity=".2" stroke="#000" d="M18 13v1.5"/><path stroke-linejoin="round" stroke-linecap="round" stroke-width="2" stroke="#646A73" d="M18 19.5V21"/><path stroke-linejoin="round" stroke-linecap="round" stroke-width="2" stroke-opacity=".2" stroke="#000" d="M18 19.5V21"/><path stroke-linejoin="round" stroke-linecap="round" stroke-width="2" stroke="#646A73" d="m20.914 14-1.06 1.06"/><path stroke-linejoin="round" stroke-linecap="round" stroke-width="2" stroke-opacity=".2" stroke="#000" d="m20.914 14-1.06 1.06"/><path stroke-linejoin="round" stroke-linecap="round" stroke-width="2" stroke="#646A73" d="m15.914 19-1.06 1.06"/><path stroke-linejoin="round" stroke-linecap="round" stroke-width="2" stroke-opacity=".2" stroke="#000" d="m15.914 19-1.06 1.06"/><path stroke-linejoin="round" stroke-linecap="round" stroke-width="2" stroke="#646A73" d="m15 14 1.06 1.06"/><path stroke-linejoin="round" stroke-linecap="round" stroke-width="2" stroke-opacity=".2" stroke="#000" d="m15 14 1.06 1.06"/><path stroke-linejoin="round" stroke-linecap="round" stroke-width="2" stroke="#646A73" d="m20 19 1.06 1.06"/><path stroke-linejoin="round" stroke-linecap="round" stroke-width="2" stroke-opacity=".2" stroke="#000" d="m20 19 1.06 1.06"/><path stroke-linejoin="round" stroke-linecap="round" stroke-width="2" stroke="#646A73" d="M14 17h1.5"/><path stroke-linejoin="round" stroke-linecap="round" stroke-width="2" stroke-opacity=".2" stroke="#000" d="M14 17h1.5"/><path stroke-linejoin="round" stroke-linecap="round" stroke-width="2" stroke="#646A73" d="M20.5 17H22"/><path stroke-linejoin="round" stroke-linecap="round" stroke-width="2" stroke-opacity=".2" stroke="#000" d="M20.5 17H22"/></svg> -->

<svg t="1676620535770" class="icon" viewBox="0 0 1024 1024" version="1.1" xmlns="http://www.w3.org/2000/svg" p-id="18400" width="400" height="400"><path d="M586.9 726l192.4 136.4-33.2-170" fill="#000000" p-id="18401"></path><path d="M881.9 214.6h-173v78.1h134c21.6 0 39.1 17.5 39.1 39v315.2c0 21.6-17.5 39-39.1 39H435.6c-17.2 0-31.8-11.1-37-26.5h-80.2V686c0 43.1 35 78.1 78.1 78.1h485.4c43.1 0 78.1-35 78.1-78.1V292.7c0-43.1-35-78.1-78.1-78.1z" fill="#000000" p-id="18402"></path><path d="M549.6 161.6H142.9c-43.6 0-78.9 35-78.9 78.2v268.1c0 43.2 35.3 78.2 78.9 78.2h406.7c43.6 0 78.9-35 78.9-78.2V239.8c-0.1-43.2-35.4-78.2-78.9-78.2z m0 307.2c0 21.6-17.7 39.1-39.4 39.1H182.3c-21.8 0-39.4-17.5-39.4-39.1V278.9c0-21.6 17.7-39.1 39.4-39.1h327.9c21.8 0 39.4 17.5 39.4 39.1v189.9z" fill="#000000" p-id="18403"></path><path d="M398.4 547.9L204.2 684.6l33.5-170.3" fill="#000000" p-id="18404"></path></svg>