<svg width="40" height="28" xmlns="http://www.w3.org/2000/svg"><path d="M39.91 26.683L27.437 12.791 39.888 1.23c.058.167.112.337.112.52v24.506c0 .152-.052.286-.09.426zM1.526.064C1.64.044 1.74 0 1.854 0H38.15c.114 0 .216.044.328.064L20.002 16.365 1.526.064zM.092 26.685c-.036-.14-.092-.274-.092-.428V1.75c0-.186.058-.354.114-.522l12.457 11.563L.092 26.685zm19.316-8.507a.947.947 0 0 0 .594.204c.212 0 .42-.066.59-.204l5.415-4.261 12.595 14.005c-.148.036-.292.088-.452.088H1.854c-.158 0-.302-.052-.448-.088L14 13.917l5.409 4.26z"/></svg>