<svg width="40" height="39.994" xmlns="http://www.w3.org/2000/svg"><path d="M3.543 23.89h6.342a.87.87 0 0 1 .686.331l3.957 5c.28.36.71.57 1.165.571h8.614c.457 0 .88-.208 1.165-.571l3.96-5a.863.863 0 0 1 .686-.331h6.334c.48 0 .874.391.874.874v10.67l-.012 1.512-34.631-.04-.009-12.142c0-.483.394-.874.874-.874m3.78-20.67h25.415c.409 0 .76.28.852.68l3.41 15.161a.869.869 0 0 1-.17.738.863.863 0 0 1-.683.328h-6.52a1.477 1.477 0 0 0-1.165.563l-3.9 4.931a.857.857 0 0 1-.686.331H16.12a.857.857 0 0 1-.683-.331l-3.894-4.931a1.486 1.486 0 0 0-1.171-.563H3.857a.877.877 0 0 1-.851-1.068l3.47-15.162a.869.869 0 0 1 .852-.677M39.954 19.3L35.17 1.111A1.48 1.48 0 0 0 33.735 0H6.328c-.675 0-1.265.454-1.44 1.106L.051 19.299a1.426 1.426 0 0 0-.051.385V38.51a1.49 1.49 0 0 0 1.486 1.485h37.026A1.494 1.494 0 0 0 40 38.51V19.68c0-.127-.017-.253-.049-.377"/></svg>