<svg xmlns="http://www.w3.org/2000/svg" viewBox="0 0 24 24"><path fill="#BBBFC4" d="M2.5 8.414a.5.5 0 0 0 .5.5h18.25c.904 0 1.344-1.104.688-1.726l-5.113-4.844a.5.5 0 0 0-.707.02l-.692.73a.5.5 0 0 0 .014.702l3.3 3.207H3a.5.5 0 0 0-.5.5v.91ZM2.75 15c-.904 0-1.344 1.104-.688 1.726l5.113 4.844a.501.501 0 0 0 .707-.02l.688-.725a.5.5 0 0 0-.02-.707L5.26 17H21a.5.5 0 0 0 .5-.5v-1a.5.5 0 0 0-.5-.5H2.75Z"/><path fill-opacity=".2" fill="#BBBFC4" d="M2.5 8.414a.5.5 0 0 0 .5.5h18.25c.904 0 1.344-1.104.688-1.726l-5.113-4.844a.5.5 0 0 0-.707.02l-.692.73a.5.5 0 0 0 .014.702l3.3 3.207H3a.5.5 0 0 0-.5.5v.91ZM2.75 15c-.904 0-1.344 1.104-.688 1.726l5.113 4.844a.501.501 0 0 0 .707-.02l.688-.725a.5.5 0 0 0-.02-.707L5.26 17H21a.5.5 0 0 0 .5-.5v-1a.5.5 0 0 0-.5-.5H2.75Z"/></svg>