<?xml version="1.0" encoding="UTF-8"?>
<svg width="40px" height="42px" viewBox="0 0 40 42" version="1.1" xmlns="http://www.w3.org/2000/svg"
>
    <title>system-setting</title>


    <path d="M5.39084071,35.5003335 L4.80053318,34.8567078 C2.72047262,32.5929972 1.16868241,29.8959 0.257069409,26.9599164 L0,26.1296774 L3.89983814,20.7750169 L0,15.4203563 L0.257069409,14.5901173 C1.16806349,11.6542781 2.71920237,8.95718258 4.79862896,6.69332593 L5.39084071,6.04779608 L11.9451585,6.76378199 L14.6072551,0.696943943 L15.4603447,0.504617941 C16.9502411,0.169022375 18.4727751,0 20,0 C21.5405122,0 23.0600781,0.169475601 24.5396553,0.502713723 L25.3927449,0.693135507 L28.0548415,6.76187777 L34.6091593,6.04589186 L35.1994668,6.69332593 C37.2793363,8.9564464 38.8311197,11.6528814 39.7429306,14.5882131 L40,15.4184521 L36.1001619,20.7750169 L40,26.1296774 L39.7429306,26.9599164 C38.8319365,29.8957556 37.2807976,32.5928512 35.201371,34.8567078 L34.6091593,35.5003335 L28.0548415,34.7843475 L25.3927449,40.8530898 L24.5396553,41.0454158 C23.0600781,41.3786539 21.5405122,41.5481293 20,41.5481293 C18.4594878,41.5481293 16.9399219,41.3786539 15.4603447,41.0454158 L14.6072551,40.854994 L11.9451585,34.7843475 L5.39084071,35.5022377 L5.39084071,35.5003335 Z M12.0270399,31.292012 C13.2580286,31.157127 14.4340093,31.837268 14.9309721,32.9715322 L17.0636961,37.8349045 C19.0068144,38.1708993 20.9931856,38.1708993 22.9363039,37.8349045 L25.0690279,32.9715322 C25.5663928,31.8387451 26.7412026,31.1596064 27.9710559,31.2939162 L33.217176,31.8651816 C34.4834809,30.3418073 35.4831953,28.6089691 36.163001,26.7428356 L33.0324669,22.4431117 C32.3083987,21.4489093 32.3083987,20.1011244 33.0324669,19.106922 L36.163001,14.8071982 C35.4818445,12.9435577 34.4853929,11.2108784 33.217176,9.68485216 L27.9710559,10.2561175 C26.7412026,10.3904273 25.5663928,9.71128861 25.0690279,8.57850159 L22.9363039,3.71322501 C20.993176,3.37734325 19.006824,3.37734325 17.0636961,3.71322501 L14.9309721,8.57850159 C14.4333907,9.71201792 13.2575566,10.391303 12.0270399,10.2561175 L6.78282396,9.68485216 C5.51651909,11.2082264 4.51680472,12.9410647 3.83509473,14.8071982 L6.96753309,19.106922 C7.69113587,20.1009238 7.69113587,21.44911 6.96753309,22.4431117 L3.83699895,26.7428356 C4.51870894,28.6089691 5.51651909,30.3418073 6.78282396,31.8651816 L12.0270399,31.2939162 L12.0270399,31.292012 Z M20,29.4315912 C15.235647,29.4315912 11.3777016,25.5546037 11.3777016,20.7769211 C11.3777016,15.9973343 15.235647,12.1203468 20,12.1203468 C24.764353,12.1203468 28.6222984,15.9954301 28.6222984,20.7750169 C28.6222984,25.5546037 24.764353,29.429687 20,29.429687 L20,29.4315912 Z M20,25.9697231 C22.8487099,25.9697231 25.1604589,23.6465774 25.1604589,20.7769211 C25.1649832,19.4037423 24.6238525,18.0849976 23.6560824,17.1107996 C22.6883124,16.1366015 21.3731788,15.5867526 20,15.5822148 C17.1412474,15.591665 14.8311428,17.9162611 14.8395467,20.7750169 C14.8311428,23.6337727 17.1412474,25.9583687 20,25.9678189 L20,25.9697231 Z"
          id="形状" fill="#646A73"></path>
    <path d="M5.39084071,35.5003335 L4.80053318,34.8567078 C2.72047262,32.5929972 1.16868241,29.8959 0.257069409,26.9599164 L0,26.1296774 L3.89983814,20.7750169 L0,15.4203563 L0.257069409,14.5901173 C1.16806349,11.6542781 2.71920237,8.95718258 4.79862896,6.69332593 L5.39084071,6.04779608 L11.9451585,6.76378199 L14.6072551,0.696943943 L15.4603447,0.504617941 C16.9502411,0.169022375 18.4727751,0 20,0 C21.5405122,0 23.0600781,0.169475601 24.5396553,0.502713723 L25.3927449,0.693135507 L28.0548415,6.76187777 L34.6091593,6.04589186 L35.1994668,6.69332593 C37.2793363,8.9564464 38.8311197,11.6528814 39.7429306,14.5882131 L40,15.4184521 L36.1001619,20.7750169 L40,26.1296774 L39.7429306,26.9599164 C38.8319365,29.8957556 37.2807976,32.5928512 35.201371,34.8567078 L34.6091593,35.5003335 L28.0548415,34.7843475 L25.3927449,40.8530898 L24.5396553,41.0454158 C23.0600781,41.3786539 21.5405122,41.5481293 20,41.5481293 C18.4594878,41.5481293 16.9399219,41.3786539 15.4603447,41.0454158 L14.6072551,40.854994 L11.9451585,34.7843475 L5.39084071,35.5022377 L5.39084071,35.5003335 Z M12.0270399,31.292012 C13.2580286,31.157127 14.4340093,31.837268 14.9309721,32.9715322 L17.0636961,37.8349045 C19.0068144,38.1708993 20.9931856,38.1708993 22.9363039,37.8349045 L25.0690279,32.9715322 C25.5663928,31.8387451 26.7412026,31.1596064 27.9710559,31.2939162 L33.217176,31.8651816 C34.4834809,30.3418073 35.4831953,28.6089691 36.163001,26.7428356 L33.0324669,22.4431117 C32.3083987,21.4489093 32.3083987,20.1011244 33.0324669,19.106922 L36.163001,14.8071982 C35.4818445,12.9435577 34.4853929,11.2108784 33.217176,9.68485216 L27.9710559,10.2561175 C26.7412026,10.3904273 25.5663928,9.71128861 25.0690279,8.57850159 L22.9363039,3.71322501 C20.993176,3.37734325 19.006824,3.37734325 17.0636961,3.71322501 L14.9309721,8.57850159 C14.4333907,9.71201792 13.2575566,10.391303 12.0270399,10.2561175 L6.78282396,9.68485216 C5.51651909,11.2082264 4.51680472,12.9410647 3.83509473,14.8071982 L6.96753309,19.106922 C7.69113587,20.1009238 7.69113587,21.44911 6.96753309,22.4431117 L3.83699895,26.7428356 C4.51870894,28.6089691 5.51651909,30.3418073 6.78282396,31.8651816 L12.0270399,31.2939162 L12.0270399,31.292012 Z M20,29.4315912 C15.235647,29.4315912 11.3777016,25.5546037 11.3777016,20.7769211 C11.3777016,15.9973343 15.235647,12.1203468 20,12.1203468 C24.764353,12.1203468 28.6222984,15.9954301 28.6222984,20.7750169 C28.6222984,25.5546037 24.764353,29.429687 20,29.429687 L20,29.4315912 Z M20,25.9697231 C22.8487099,25.9697231 25.1604589,23.6465774 25.1604589,20.7769211 C25.1649832,19.4037423 24.6238525,18.0849976 23.6560824,17.1107996 C22.6883124,16.1366015 21.3731788,15.5867526 20,15.5822148 C17.1412474,15.591665 14.8311428,17.9162611 14.8395467,20.7750169 C14.8311428,23.6337727 17.1412474,25.9583687 20,25.9678189 L20,25.9697231 Z"
          id="形状" fill-opacity="0.2" fill="#000000"></path>


</svg>
