<svg width="24px" height="24px" viewBox="0 0 24 24" version="1.1" xmlns="http://www.w3.org/2000/svg"
>
    <rect id="矩形备份-3" fill="#D8D8D8" opacity="0" x="0" y="0" width="24" height="24"></rect>
    <rect id="矩形备份-7" fill="#F9F9F9" opacity="0" x="1" y="1" width="22" height="22"></rect>
    <path d="M4.15526351,19.9879546 L3.83059437,19.6471507 C2.68656106,18.4485014 1.83307644,17.0203712 1.33168929,15.4657492 L1.19030112,15.0261323 L3.33521209,12.1908053 L1.19030112,9.35547833 L1.33168929,8.91586147 C1.83273604,7.36131585 2.68586242,5.93318654 3.82954705,4.73445997 L4.15526351,4.39264779 L7.76013829,4.77176691 L9.22429142,1.55933739 L9.6934907,1.45749954 C10.5129337,1.27979955 11.3503274,1.19030112 12.1903011,1.19030112 C13.0375828,1.19030112 13.8733441,1.28003953 14.6871115,1.45649125 L15.1563108,1.5573208 L16.6204639,4.77075861 L20.2253387,4.3916395 L20.5500079,4.73445997 C21.6939361,5.93279673 22.547417,7.36057629 23.0489129,8.91485319 L23.1903011,9.35447004 L21.0453902,12.1908053 L23.1903011,15.0261323 L23.0489129,15.4657492 C22.5478662,17.0202948 21.6947398,18.4484241 20.5510552,19.6471507 L20.2253387,19.9879546 L16.6204639,19.6088354 L15.1563108,22.8222733 L14.6871115,22.9241111 C13.8733441,23.1005628 13.0375828,23.1903011 12.1903011,23.1903011 C11.3430194,23.1903011 10.5072582,23.1005628 9.6934907,22.9241111 L9.22429142,22.8232815 L7.76013829,19.6088354 L4.15526351,19.9889629 L4.15526351,19.9879546 Z M7.80517306,17.7596215 C8.48221685,17.688199 9.12900623,18.048338 9.40233577,18.6489381 L10.575334,21.2241249 C11.644049,21.4020362 12.7365532,21.4020362 13.8052683,21.2241249 L14.9782665,18.6489381 C15.2518172,18.0491201 15.8979625,17.6895118 16.5743819,17.7606297 L19.4597479,18.0631184 C20.1562156,17.256482 20.7060585,16.3389331 21.0799517,15.3508035 L19.3581579,13.0740722 C18.9599204,12.5476357 18.9599204,11.833975 19.3581579,11.3075384 L21.0799517,9.0308072 C20.7053156,8.04399764 20.1572672,7.12653288 19.4597479,6.31849223 L16.5743819,6.62098088 C15.8979625,6.69209878 15.2518172,6.3324905 14.9782665,5.73267253 L13.8052683,3.15647749 C12.7365479,2.97862595 11.6440543,2.97862595 10.575334,3.15647749 L9.40233577,5.73267253 C9.128666,6.33287668 8.48195725,6.69256247 7.80517306,6.62098088 L4.9208543,6.31849223 C4.22438662,7.12512863 3.67454371,8.04267758 3.29960322,9.0308072 L5.02244432,11.3075384 C5.42042585,11.8338687 5.42042585,12.5477419 5.02244432,13.0740722 L3.30065054,15.3508035 C3.67559103,16.3389331 4.22438662,17.256482 4.9208543,18.0631184 L7.80517306,17.7606297 L7.80517306,17.7596215 Z M12.1903011,16.7745168 C9.56990697,16.7745168 7.448037,14.7216271 7.448037,12.1918136 C7.448037,9.66099187 9.56990697,7.60810221 12.1903011,7.60810221 C14.8106953,7.60810221 16.9325652,9.65998358 16.9325652,12.1908053 C16.9325652,14.7216271 14.8106953,16.7735085 12.1903011,16.7735085 L12.1903011,16.7745168 Z M12.1903011,14.9414355 C13.7570916,14.9414355 15.028569,13.711315 15.028569,12.1918136 C15.0310419,11.4647067 14.73342,10.7664229 14.2011464,10.2505789 C13.6688729,9.73473474 12.9455495,9.44358623 12.1903011,9.44118344 C10.6179872,9.44618738 9.34742966,10.6770759 9.35203923,12.1908053 C9.34742966,13.7045348 10.6179872,14.9354232 12.1903011,14.9404272 L12.1903011,14.9414355 Z"
          id="形状" fill="#000000" fill-rule="nonzero"
          transform="translate(12.1903, 12.1903) rotate(1) translate(-12.1903, -12.1903)"></path>
</svg>
