<svg width="24" height="24" xmlns="http://www.w3.org/2000/svg"><path d="M4.02 19.847l-.318-.347a10.91 10.91 0 0 1-2.426-4.224l-.134-.442 2.195-2.798L1.24 9.164l.15-.437A10.909 10.909 0 0 1 3.96 4.59l.332-.336 3.597.442 1.52-3.187.471-.093a11.784 11.784 0 0 1 4.993.086l.467.109 1.408 3.238 3.611-.316.319.348a10.909 10.909 0 0 1 2.425 4.224l.134.442-2.194 2.798 2.095 2.873-.149.437a10.909 10.909 0 0 1-2.57 4.137l-.332.335-3.598-.442-1.52 3.187-.47.094c-.817.162-1.655.237-2.502.223a11.774 11.774 0 0 1-2.491-.31l-.468-.11-1.408-3.239-3.61.318v-.001zm3.689-2.165c.678-.06 1.318.312 1.581.917l1.128 2.596a9.84 9.84 0 0 0 3.23.056l1.217-2.554a1.568 1.568 0 0 1 1.611-.86l2.88.352a9.062 9.062 0 0 0 1.667-2.684L19.342 13.2a1.455 1.455 0 0 1 .03-1.766l1.762-2.247a9.09 9.09 0 0 0-1.573-2.74l-2.89.252a1.568 1.568 0 0 1-1.58-.916l-1.128-2.596a9.843 9.843 0 0 0-3.23-.056L9.515 5.685c-.284.595-.937.944-1.612.86l-2.879-.352a9.087 9.087 0 0 0-1.668 2.683l1.683 2.307a1.456 1.456 0 0 1-.03 1.766l-1.762 2.246c.357.995.89 1.922 1.572 2.74l2.89-.252zm4.401-.908c-2.62-.046-4.705-2.136-4.661-4.665.044-2.53 2.201-4.546 4.821-4.5 2.62.046 4.706 2.134 4.662 4.665-.044 2.53-2.202 4.545-4.822 4.499zm.032-1.833c1.567.027 2.86-1.18 2.886-2.7a2.69 2.69 0 0 0-.793-1.955 2.904 2.904 0 0 0-1.997-.844c-1.572-.023-2.864 1.186-2.886 2.7-.03 1.513 1.218 2.766 2.79 2.798v.001z" fill="currentColor"/></svg>