<?xml version="1.0" encoding="UTF-8"?>
<svg width="40px" height="40px" viewBox="0 0 40 40" version="1.1" xmlns="http://www.w3.org/2000/svg"
>
    <path d="M0,0 L40,0 L40,9.72091134 L0,9.72091134 L0,0 Z M0,11.8811139 L11.999875,11.8811139 L11.999875,24.842329 L0,24.842329 L0,11.8811139 Z M0,27.0025315 L11.999875,27.0025315 L11.999875,39.9637466 L0,39.9637466 L0,27.0025315 Z M14.0000625,11.8811139 L25.9999375,11.8811139 L25.9999375,24.842329 L14.0000625,24.842329 L14.0000625,11.8811139 Z M14.0000625,27.0025315 L25.9999375,27.0025315 L25.9999375,39.9637466 L14.0000625,39.9637466 L14.0000625,27.0025315 Z M28.000125,11.8811139 L40,11.8811139 L40,24.842329 L28.000125,24.842329 L28.000125,11.8811139 Z M28.000125,27.0025315 L40,27.0025315 L40,39.9637466 L28.000125,39.9637466 L28.000125,27.0025315 Z"
          id="形状"></path>
    <path d="M0,0 L40,0 L40,9.72091134 L0,9.72091134 L0,0 Z M0,11.8811139 L11.999875,11.8811139 L11.999875,24.842329 L0,24.842329 L0,11.8811139 Z M0,27.0025315 L11.999875,27.0025315 L11.999875,39.9637466 L0,39.9637466 L0,27.0025315 Z M14.0000625,11.8811139 L25.9999375,11.8811139 L25.9999375,24.842329 L14.0000625,24.842329 L14.0000625,11.8811139 Z M14.0000625,27.0025315 L25.9999375,27.0025315 L25.9999375,39.9637466 L14.0000625,39.9637466 L14.0000625,27.0025315 Z M28.000125,11.8811139 L40,11.8811139 L40,24.842329 L28.000125,24.842329 L28.000125,11.8811139 Z M28.000125,27.0025315 L40,27.0025315 L40,39.9637466 L28.000125,39.9637466 L28.000125,27.0025315 Z"
          id="形状"></path>
</svg>
