<svg t="1707207537490" class="icon" viewBox="0 0 1024 1024" version="1.1" xmlns="http://www.w3.org/2000/svg" p-id="24290" width="200" height="200"><path d="M145.993144 233.170006a81.123224 81.123224 0 1 0 83.066295-80.637456A81.123224 81.123224 0 0 0 145.993144 233.170006z m794.230368 392.014622l-319.149451 314.777541h-4.857678l-272.029973-268.629599-261.828849-259.885778V84.039288a2.914607 2.914607 0 0 1 2.914606 0h319.635219l536.77343 539.688037z m82.09476-3.886142a35.946818 35.946818 0 0 0 0-3.886143 83.066295 83.066295 0 0 0-4.37191-19.430712 81.123224 81.123224 0 0 0-11.658428-21.859551 78.208617 78.208617 0 0 0-8.258052-9.715357L455.427238 16.517563a48.576781 48.576781 0 0 0-10.686891-8.743821A55.37753 55.37753 0 0 0 416.080046 0.001457H85.272167A84.523599 84.523599 0 0 0 0.262801 84.039288v340.037467a54.405995 54.405995 0 0 0 0 10.686892V437.192486a52.462923 52.462923 0 0 0 2.428839 7.286517 54.891762 54.891762 0 0 0 10.686892 15.058802L288.323112 728.653172l272.029973 268.629598a87.438206 87.438206 0 0 0 20.402248 15.058803 86.46667 86.46667 0 0 0 71.407868 3.400374 85.009367 85.009367 0 0 0 28.174533-18.459177l318.663683-315.263308 5.343446-5.829214 6.314982-8.258052 3.400374-5.829214 2.914607-5.829214v-2.914607a81.123224 81.123224 0 0 0 7.286517-32.060675z" fill="#5E5C5C" p-id="24291"></path></svg>
