<?xml version="1.0" encoding="UTF-8"?>
<svg width="40px" height="40px" viewBox="0 0 40 40" version="1.1" xmlns="http://www.w3.org/2000/svg" xmlns:xlink="http://www.w3.org/1999/xlink">
    <title>tag</title>
    <g id="jumpserver" stroke="none" stroke-width="1" fill="none" fill-rule="evenodd">
        <g id="tag" fill="#1E2330" fill-rule="nonzero">
            <path d="M35.2939994,0 L21.1759977,0 C19.9279907,0 18.7311962,0.496250704 17.8488553,1.37885817 L1.37785322,17.8498602 C-0.459284407,19.6875527 -0.459284407,22.6664525 1.37785322,24.504145 L15.495855,38.6221468 C16.4135251,39.5421699 17.6182612,40.0010049 18.8229974,40.0010049 C20.0277335,40.0010049 21.2324697,39.5421699 22.1501398,38.6221468 L38.6211418,22.1511447 C39.5037493,21.2688038 40,20.0720093 40,18.8240023 L40,4.70600058 C40,2.10694823 37.8930518,0 35.2939994,0 Z M35.2939994,18.8240023 L18.8229974,35.2950044 L4.70499563,21.1770026 L21.1759977,4.70600058 L35.2939994,4.70600058 L35.2939994,18.8240023 Z" id="形状"></path>
            <path d="M23.528998,12.9415016 C23.528998,14.8907909 25.1092091,16.471002 27.0584984,16.471002 C29.0077877,16.471002 30.5879988,14.8907909 30.5879988,12.9415016 C30.5879988,10.9922123 29.0077877,9.41200116 27.0584984,9.41200116 C25.1092091,9.41200116 23.528998,10.9922123 23.528998,12.9415016 Z" id="路径"></path>
        </g>
    </g>
</svg>