<svg t="1692600542234" class="icon" viewBox="0 0 1024 1024" version="1.1" xmlns="http://www.w3.org/2000/svg" p-id="12062" width="200" height="200"><path d="M831.825474 63.940169H191.939717C121.2479 63.940169 63.940169 121.2479 63.940169 191.939717v639.885757C63.940169 902.517291 121.2479 959.825022 191.939717 959.825022h639.885757c70.691817 0 127.999548-57.307731 127.999548-127.999548V191.939717C959.825022 121.2479 902.517291 63.940169 831.825474 63.940169zM895.884854 831.998871A63.835408 63.835408 0 0 1 831.912173 895.884854H192.087827c-17.112123 0-33.270563-6.574639-45.372232-18.67631S127.880338 849.110994 127.880338 831.998871V192.001129A64.236389 64.236389 0 0 1 192.087827 127.880338h639.824346A64.037705 64.037705 0 0 1 895.884854 192.001129v639.997742z" fill="" p-id="12063"></path><path d="M791.998335 351.851551h-255.999097a31.970084 31.970084 0 0 0 0 63.940169h255.999097a31.970084 31.970084 0 0 0 0-63.940169zM791.998335 607.973471h-255.999097a31.970084 31.970084 0 0 0 0 63.940169h255.999097a31.970084 31.970084 0 0 0 0-63.940169zM344.001722 527.997686c-61.855792 0-111.985607 50.144265-111.985607 111.985606s50.144265 111.985607 111.985607 111.985607 111.985607-50.144265 111.985606-111.985607-50.129815-111.985607-111.985606-111.985606z m33.982213 145.982269a48.045438 48.045438 0 1 1 14.088511-33.982213 47.745605 47.745605 0 0 1-14.088511 33.985826zM417.395643 297.394035L311.999125 402.78694 270.6078 361.392003a31.970084 31.970084 0 1 0-45.213286 45.213285l63.997968 64.001581a31.970084 31.970084 0 0 0 45.213286 0l127.999548-127.999549a31.970084 31.970084 0 0 0-45.209673-45.213285z" fill="" p-id="12064"></path></svg>
