<svg width="40" height="40" xmlns="http://www.w3.org/2000/svg"><path d="M34.322.253H13.84c-.81 0-1.622.812-1.622 1.623 0 .81.811 1.622 1.622 1.622h20.482c1.42 0 2.433 1.014 2.433 2.434v28.39c0 1.42-1.014 2.433-2.433 2.433H5.932c-1.42 0-2.434-1.014-2.434-2.433V13.435c0-.811-.811-1.623-1.622-1.623s-1.623.812-1.623 1.623v20.887C.253 37.364 2.89 40 5.932 40h28.39C37.364 40 40 37.364 40 34.322V5.932C40 2.687 37.364.253 34.322.253z"/><path d="M31.483 24.183c1.014 0 1.622-.812 1.622-1.623 0-.811-.811-1.622-1.622-1.622h-6.287c-.81 0-1.622.811-1.622 1.622s.811 1.623 1.622 1.623h6.287zm-14.804-5.07c.609.608 1.623.608 2.434 0a1.591 1.591 0 0 0 0-2.23L2.687.455a1.591 1.591 0 0 0-2.23 0 1.591 1.591 0 0 0 0 2.23l16.222 16.427zm-9.936 10.95c0 .812.81 1.623 1.622 1.623h23.118c1.014 0 1.622-.609 1.622-1.623 0-.81-.811-1.622-1.622-1.622H8.365c-.811 0-1.622.811-1.622 1.622z"/></svg>