<svg xmlns="http://www.w3.org/2000/svg" fill="none" viewBox="0 0 24 24"><path stroke-linejoin="round" stroke-linecap="round" stroke-width="2" stroke="#646A73" d="M8.5 3.5H5a1 1 0 0 0-1 1V21a1 1 0 0 0 1 1h14a1 1 0 0 0 1-1V4.5a1 1 0 0 0-1-1h-3.5"/><path stroke-linejoin="round" stroke-linecap="round" stroke-width="2" stroke-opacity=".2" stroke="#000" d="M8.5 3.5H5a1 1 0 0 0-1 1V21a1 1 0 0 0 1 1h14a1 1 0 0 0 1-1V4.5a1 1 0 0 0-1-1h-3.5"/><path stroke-linejoin="round" stroke-width="2" stroke="#646A73" d="M15.5 2h-7v3h7V2Z"/><path stroke-linejoin="round" stroke-width="2" stroke-opacity=".2" stroke="#000" d="M15.5 2h-7v3h7V2Z"/><path stroke-linejoin="round" stroke-linecap="round" stroke-width="2" stroke="#646A73" d="M8.5 9h7"/><path stroke-linejoin="round" stroke-linecap="round" stroke-width="2" stroke-opacity=".2" stroke="#000" d="M8.5 9h7"/><path stroke-linejoin="round" stroke-linecap="round" stroke-width="2" stroke="#646A73" d="M8.5 13h7"/><path stroke-linejoin="round" stroke-linecap="round" stroke-width="2" stroke-opacity=".2" stroke="#000" d="M8.5 13h7"/><path stroke-linejoin="round" stroke-linecap="round" stroke-width="2" stroke="#646A73" d="M8.5 17h3"/><path stroke-linejoin="round" stroke-linecap="round" stroke-width="2" stroke-opacity=".2" stroke="#000" d="M8.5 17h3"/></svg>