<svg width="40" height="42" xmlns="http://www.w3.org/2000/svg"><path d="M36.373 41.018H3.623C1.624 41.018 0 39.421 0 37.463V5.335c.005-1.959 1.62-3.55 3.622-3.55h5.981A3.628 3.628 0 0 1 12.723 0h14.558c1.336 0 2.489.724 3.12 1.785h5.953C38.36 1.78 39.99 3.37 40 5.335v32.128c-.01 1.963-1.63 3.55-3.627 3.555zM27.266 3.584l-14.552-.02.005.02v3.53l14.552.02-.005-3.55zm9.092 1.75l-5.455.015v1.765c.005 1.973-1.615 3.574-3.627 3.584H12.719c-2.001 0-3.627-1.611-3.627-3.584V5.35h-5.47l.015 32.114 32.736-.014-.015-32.114zM13.93 22.145l3.53 3.878 8.62-9.246a1.843 1.843 0 0 1 2.57-.111 1.758 1.758 0 0 1 .117 2.518l-9.98 10.703a1.854 1.854 0 0 1-1.34.579h-.015a1.84 1.84 0 0 1-1.346-.599l-4.867-5.344a1.759 1.759 0 0 1 .145-2.518 1.843 1.843 0 0 1 2.566.14z"/></svg>