<svg width="40" height="40" xmlns="http://www.w3.org/2000/svg"><path d="M34.285 0H5.715A5.715 5.715 0 0 0 0 5.715v28.57A5.715 5.715 0 0 0 5.715 40h28.57A5.715 5.715 0 0 0 40 34.285V5.715A5.715 5.715 0 0 0 34.285 0zm2.86 34.293a2.85 2.85 0 0 1-2.856 2.852H5.722a2.845 2.845 0 0 1-2.026-.834 2.835 2.835 0 0 1-.841-2.018V5.718a2.868 2.868 0 0 1 2.867-2.863h28.567a2.86 2.86 0 0 1 2.856 2.863v28.575z"/><path d="M32.507 12.855h-11.43a1.427 1.427 0 0 0 0 2.855h11.43a1.427 1.427 0 1 0 0-2.855zm0 11.435h-11.43a1.427 1.427 0 1 0 0 2.855h11.43a1.427 1.427 0 1 0 0-2.855zm-20.003-3.57a5 5 0 1 0 0 10 5 5 0 0 0 0-10zm1.518 6.517a2.145 2.145 0 1 1-3.033-3.035 2.145 2.145 0 0 1 3.033 3.036zm1.76-16.814l-4.707 4.706-1.848-1.848A1.427 1.427 0 0 0 7.21 15.3l2.857 2.857a1.427 1.427 0 0 0 2.019 0l5.715-5.715a1.427 1.427 0 0 0-2.019-2.019z"/></svg>