<svg t="1716531028502" class="icon" viewBox="0 0 1024 1024" version="1.1" xmlns="http://www.w3.org/2000/svg" p-id="73624" width="200" height="200"><path d="M918.019413 1020.586667H105.86112c-49.52064 0-89.82528-39.594667-89.82528-88.152747V135.703893c0.119467-48.564907 40.185173-88.03328 89.82528-88.03328h148.31616C269.847893 21.357227 298.431147 3.413333 331.564373 3.413333h360.987307c33.1264 0 61.719893 17.943893 77.387093 44.25728h147.59936c49.759573-0.119467 90.187093 39.348907 90.426027 88.03328v796.730027c-0.23552 48.68096-40.424107 88.03328-89.944747 88.152747z m-225.826133-928.3072l-360.864427-0.477867 0.119467 0.477867v87.555413l360.864427 0.484693-0.119467-88.040106z m225.467733 43.424426l-135.28064 0.354987v43.776c0.119467 48.919893-40.065707 88.630613-89.94816 88.869547H331.44832c-49.636693 0-89.951573-39.949653-89.951573-88.869547V136.05888H105.857707l0.3584 796.37504 811.803306-0.3584-0.3584-796.371627zM361.472 552.5504l87.552 96.167253 213.74976-229.297493c16.745813-18.059947 45.325653-19.26144 63.75424-2.75456a43.605333 43.605333 0 0 1 2.8672 62.440107l-247.466667 265.417386a45.974187 45.974187 0 0 1-33.252693 14.35648h-0.3584c-12.796587-0.12288-24.879787-5.505707-33.365333-14.83776l-120.695467-132.529493c-16.626347-18.176-14.9504-46.165333 3.587413-62.43328 18.5344-16.267947 47.121067-14.711467 63.627947 3.47136z" fill="#2c2c2c" p-id="73625"></path></svg>
