<?xml version="1.0" encoding="UTF-8"?>
<svg width="40px" height="42px" viewBox="0 0 40 42" version="1.1" xmlns="http://www.w3.org/2000/svg" xmlns:xlink="http://www.w3.org/1999/xlink">
    <title>task</title>
    <g id="jumpserver" stroke="none" stroke-width="1" fill="none" fill-rule="evenodd">
        <g id="task" fill="#2C2C2C" fill-rule="nonzero">
            <path d="M36.3729336,41.0180177 L3.62224883,41.0180177 C1.62530454,41.0180177 0,39.4213431 0,37.4632146 L0,5.33468225 C0.00481756585,3.37627836 1.62048698,1.7846967 3.62224883,1.7846967 L9.60317136,1.7846967 C10.2350966,0.723596398 11.3877304,0 12.7238441,0 L27.2808358,0 C28.6166742,0 29.769721,0.723596358 30.4015086,1.7846967 L36.3535258,1.7846967 C38.3601051,1.77987914 39.9903649,3.37146083 40,5.33468225 L40,37.4632146 C39.9905026,39.4262983 38.3698779,41.0132001 36.3729336,41.0180177 Z M27.2663831,3.5835708 L12.7143466,3.56430058 L12.7191642,3.5835708 L12.7191642,7.11428612 L27.2712007,7.13383161 L27.2663831,3.5835708 Z M36.358481,5.33468225 L30.9032222,5.34899727 L30.9032222,7.11428612 C30.9080398,9.08700496 29.2875528,10.6883594 27.2760182,10.6979946 L12.7191642,10.6979946 C10.71754,10.6979946 9.09182256,9.08700504 9.09182256,7.11428612 L9.09182256,5.34899727 L3.6221112,5.34899727 L3.63656386,37.4632146 L36.3729336,37.4487619 L36.358481,5.33468225 L36.358481,5.33468225 Z M13.929884,22.1442238 L17.4604617,26.0222158 L26.0800264,16.775681 C26.7553096,16.0474047 27.9078058,15.9989539 28.6509477,16.664602 C29.006009,16.9796882 29.2185909,17.4249466 29.2403662,17.8991551 C29.2621414,18.3733635 29.0912599,18.8362304 28.766569,19.1825302 L18.7873532,29.8856175 C18.4384251,30.2539518 17.9537868,30.463189 17.4464219,30.4645497 L17.4319693,30.4645497 C16.9159406,30.4595945 16.4286796,30.2425294 16.0864958,29.8662097 L11.2193914,24.5218923 C10.5489257,23.7889362 10.616509,22.6602525 11.3640555,22.0042394 C12.1114644,21.3482265 13.2642358,21.4109922 13.929884,22.1442238 Z" id="形状"></path>
        </g>
    </g>
</svg>