<!-- <svg xmlns="http://www.w3.org/2000/svg" fill="none" viewBox="0 0 24 24"><path stroke-linejoin="round" stroke-linecap="round" stroke-width="2" stroke="#646A73" d="M8.5 3.5H5a1 1 0 0 0-1 1V21a1 1 0 0 0 1 1h14a1 1 0 0 0 1-1V4.5a1 1 0 0 0-1-1h-3.5"/><path stroke-linejoin="round" stroke-linecap="round" stroke-width="2" stroke-opacity=".2" stroke="#000" d="M8.5 3.5H5a1 1 0 0 0-1 1V21a1 1 0 0 0 1 1h14a1 1 0 0 0 1-1V4.5a1 1 0 0 0-1-1h-3.5"/><path stroke-linejoin="round" stroke-width="2" stroke="#646A73" d="M15.5 2h-7v3h7V2Z"/><path stroke-linejoin="round" stroke-width="2" stroke-opacity=".2" stroke="#000" d="M15.5 2h-7v3h7V2Z"/><path stroke-linejoin="round" stroke-linecap="round" stroke-width="2" stroke="#646A73" d="M8.5 9h7"/><path stroke-linejoin="round" stroke-linecap="round" stroke-width="2" stroke-opacity=".2" stroke="#000" d="M8.5 9h7"/><path stroke-linejoin="round" stroke-linecap="round" stroke-width="2" stroke="#646A73" d="M8.5 13h7"/><path stroke-linejoin="round" stroke-linecap="round" stroke-width="2" stroke-opacity=".2" stroke="#000" d="M8.5 13h7"/><path stroke-linejoin="round" stroke-linecap="round" stroke-width="2" stroke="#646A73" d="M8.5 17h3"/><path stroke-linejoin="round" stroke-linecap="round" stroke-width="2" stroke-opacity=".2" stroke="#000" d="M8.5 17h3"/></svg> -->

<!-- <svg t="1676623030005" class="icon" viewBox="0 0 1024 1024" version="1.1" xmlns="http://www.w3.org/2000/svg" p-id="36222" width="200" height="200"><path d="M736 545.6H288c-18.56 0-33.6-15.04-33.6-33.6 0-18.56 15.04-33.6 33.6-33.6h448c18.56 0 33.6 15.04 33.6 33.6 0 18.56-15.04 33.6-33.6 33.6zM736 744.22H288c-18.56 0-33.6-15.04-33.6-33.6s15.04-33.6 33.6-33.6h448c18.56 0 33.6 15.04 33.6 33.6s-15.04 33.6-33.6 33.6zM736 346.96H288c-18.56 0-33.6-15.04-33.6-33.6s15.04-33.6 33.6-33.6h448c18.56 0 33.6 15.04 33.6 33.6 0 18.56-15.04 33.6-33.6 33.6z" fill="#000000" p-id="36223"></path><path d="M892.8 960H131.2c-18.56 0-33.6-15.04-33.6-33.6V97.6c0-18.56 15.04-33.6 33.6-33.6h761.6c18.56 0 33.6 15.04 33.6 33.6v828.8c0 18.56-15.04 33.6-33.6 33.6z m-728-67.2h694.4V131.2H164.8v761.6z" fill="#000000" p-id="36224"></path></svg> -->

<svg t="1676623249206" class="icon" viewBox="0 0 1024 1024" version="1.1" xmlns="http://www.w3.org/2000/svg" p-id="37900" width="200" height="200"><path d="M842.472727 60.509091H372.363636c-18.618182 0-37.236364 18.618182-37.236363 37.236364s18.618182 37.236364 37.236363 37.236363h470.109091c32.581818 0 55.854545 23.272727 55.854546 55.854546v651.636363c0 32.581818-23.272727 55.854545-55.854546 55.854546h-651.636363c-32.581818 0-55.854545-23.272727-55.854546-55.854546V363.054545c0-18.618182-18.618182-37.236364-37.236363-37.236363s-37.236364 18.618182-37.236364 37.236363v479.418182c0 69.818182 60.509091 130.327273 130.327273 130.327273h651.636363c69.818182 0 130.327273-60.509091 130.327273-130.327273v-651.636363c0-74.472727-60.509091-130.327273-130.327273-130.327273z" p-id="37901" fill="#000000"></path><path d="M777.309091 609.745455c23.272727 0 37.236364-18.618182 37.236364-37.236364s-18.618182-37.236364-37.236364-37.236364h-144.290909c-18.618182 0-37.236364 18.618182-37.236364 37.236364s18.618182 37.236364 37.236364 37.236364h144.290909zM437.527273 493.381818c13.963636 13.963636 37.236364 13.963636 55.854545 0 13.963636-13.963636 13.963636-37.236364 0-51.2l-377.018182-377.018182c-13.963636-13.963636-37.236364-13.963636-51.2 0s-13.963636 37.236364 0 51.2l372.363637 377.018182zM209.454545 744.727273c0 18.618182 18.618182 37.236364 37.236364 37.236363h530.618182c23.272727 0 37.236364-13.963636 37.236364-37.236363 0-18.618182-18.618182-37.236364-37.236364-37.236364h-530.618182c-18.618182 0-37.236364 18.618182-37.236364 37.236364z" p-id="37902" fill="#000000"></path></svg>