<svg xmlns="http://www.w3.org/2000/svg" fill="none" viewBox="0 0 24 24"><path fill="#646A73" d="M1.5 9.5a1 1 0 0 1 1-1h19a1 1 0 0 1 1 1v11a2 2 0 0 1-2 2h-17a2 2 0 0 1-2-2v-11Zm2 1v10h17v-10h-17Z" clip-rule="evenodd" fill-rule="evenodd"/><path fill-opacity=".2" fill="#000" d="M1.5 9.5a1 1 0 0 1 1-1h19a1 1 0 0 1 1 1v11a2 2 0 0 1-2 2h-17a2 2 0 0 1-2-2v-11Zm2 1v10h17v-10h-17Z" clip-rule="evenodd" fill-rule="evenodd"/><path fill="#646A73" d="M1.5 5a2 2 0 0 1 2-2h17a2 2 0 0 1 2 2v4.5a1 1 0 0 1-1 1h-19a1 1 0 0 1-1-1V5Zm19 0h-17v3.5h17V5Z" clip-rule="evenodd" fill-rule="evenodd"/><path fill-opacity=".2" fill="#000" d="M1.5 5a2 2 0 0 1 2-2h17a2 2 0 0 1 2 2v4.5a1 1 0 0 1-1 1h-19a1 1 0 0 1-1-1V5Zm19 0h-17v3.5h17V5Z" clip-rule="evenodd" fill-rule="evenodd"/><path fill="#646A73" d="M8 1.5a1 1 0 0 1 1 1v4a1 1 0 0 1-2 0v-4a1 1 0 0 1 1-1Z" clip-rule="evenodd" fill-rule="evenodd"/><path fill-opacity=".2" fill="#000" d="M8 1.5a1 1 0 0 1 1 1v4a1 1 0 0 1-2 0v-4a1 1 0 0 1 1-1Z" clip-rule="evenodd" fill-rule="evenodd"/><path fill="#646A73" d="M16 1.5a1 1 0 0 1 1 1v4a1 1 0 1 1-2 0v-4a1 1 0 0 1 1-1Z" clip-rule="evenodd" fill-rule="evenodd"/><path fill-opacity=".2" fill="#000" d="M16 1.5a1 1 0 0 1 1 1v4a1 1 0 1 1-2 0v-4a1 1 0 0 1 1-1Z" clip-rule="evenodd" fill-rule="evenodd"/><path fill="#646A73" d="M7.042 15.911a.555.555 0 0 0 .121.18l3.142 3.143.053.047a.557.557 0 0 0 .733-.047l5.5-5.5a.555.555 0 0 0 0-.785l-.786-.786a.554.554 0 0 0-.786 0l-4.32 4.321-1.965-1.964a.555.555 0 0 0-.786 0l-.785.786a.556.556 0 0 0-.12.605Z"/><path fill-opacity=".2" fill="#000" d="M7.042 15.911a.555.555 0 0 0 .121.18l3.142 3.143.053.047a.557.557 0 0 0 .733-.047l5.5-5.5a.555.555 0 0 0 0-.785l-.786-.786a.554.554 0 0 0-.786 0l-4.32 4.321-1.965-1.964a.555.555 0 0 0-.786 0l-.785.786a.556.556 0 0 0-.12.605Z"/></svg>