<?xml version="1.0" encoding="UTF-8"?>
<svg width="40px" height="40px" viewBox="0 0 40 40" version="1.1" xmlns="http://www.w3.org/2000/svg" xmlns:xlink="http://www.w3.org/1999/xlink">
    <title>template</title>
    <g id="jumpserver" stroke="none" stroke-width="1" fill="none" fill-rule="evenodd">
        <g id="template" fill="#2C2C2C" fill-rule="nonzero">
            <path d="M38.4,1.51394049e-15 L1.59999997,1.51394049e-15 C0.715454532,1.51394049e-15 1.51394049e-15,0.714545455 1.51394049e-15,1.59999997 L1.51394049e-15,38.4 C1.51394049e-15,39.2854546 0.714545455,40 1.59999997,40 L38.4,40 C39.2854546,40 40,39.2854545 40,38.4 L40,1.59999997 C40,0.715454532 39.2854545,1.51394049e-15 38.4,1.51394049e-15 Z M3.6,3.6 L10.4,3.6 L10.4,36.4 L3.6,36.4 L3.6,3.6 Z M36.4,36.4 L13.6,36.4 L13.6,13.6 L36.4,13.6 L36.4,36.4 Z M13.6,10.4 L13.6,3.6 L36.4,3.6 L36.4,10.4 L13.6,10.4 L13.6,10.4 Z" id="形状"></path>
        </g>
    </g>
</svg>