<svg width="40px" height="32.5845147px" viewBox="0 0 40 32.5845147" version="1.1" xmlns="http://www.w3.org/2000/svg"
>
    <path d="M36.742988,0 C38.5418103,0 40,1.45823337 40,3.257012 L40,29.3275027 C40,31.126325 38.5417666,32.5845147 36.742988,32.5845147 L3.257012,32.5845147 C1.45818975,32.5845147 0,31.1262814 0,29.3275027 L0,3.257012 C0,1.45818975 1.45823337,0 3.257012,0 L36.742988,0 Z M36.742988,2.7917121 L3.257012,2.7917121 C3.00004362,2.7917121 2.7917121,3.00004362 2.7917121,3.257012 L2.7917121,29.3275027 C2.7917121,29.5844711 3.00004362,29.7928026 3.257012,29.7928026 L36.742988,29.7928026 C36.9999564,29.7928026 37.2082879,29.5844711 37.2082879,29.3275027 L37.2082879,3.257012 C37.2082879,3.00004362 36.9999564,2.7917121 36.742988,2.7917121 Z M31.1624864,22.344602 C31.9333915,22.344602 32.5583424,22.9695529 32.5583424,23.740458 C32.5583424,24.5036423 31.9458233,25.123795 31.1856052,25.1361396 L31.1624864,25.1363141 L19.0697928,25.1363141 C18.2988877,25.1363141 17.6739368,24.5113631 17.6739368,23.740458 C17.6739368,22.9772737 18.2864558,22.357121 19.0466739,22.3447764 L19.0697928,22.344602 L31.1624864,22.344602 Z M9.7287241,9.63179935 L9.7463904,9.64667394 L16.2577972,15.2328462 C16.9006325,15.7842966 16.9070447,16.7745692 16.2770774,17.334831 L16.2577972,17.3516685 L9.7463904,22.9378408 C9.16126499,23.4397819 8.28004362,23.3723882 7.77810251,22.7872628 C7.28117775,22.2080262 7.34224646,21.3385387 7.91123228,20.8341549 L7.92868048,20.8189749 L13.2051472,16.2922574 L7.92863686,11.7655398 C7.3493566,11.2685714 7.27755725,10.3999128 7.76322792,9.81487459 L7.77805889,9.79725191 C8.27502726,9.21797165 9.14368593,9.14612868 9.72876772,9.63179935 L9.7287241,9.63179935 Z"
          id="形状"></path>
</svg>
