<!-- <?xml version="1.0" standalone="no"?><!DOCTYPE svg PUBLIC "-//W3C//DTD SVG 1.1//EN" "http://www.w3.org/Graphics/SVG/1.1/DTD/svg11.dtd"><svg t="1645509388374" class="icon" viewBox="0 0 1024 1024" version="1.1" xmlns="http://www.w3.org/2000/svg" p-id="3850" xmlns:xlink="http://www.w3.org/1999/xlink" width="200" height="200"><defs><style type="text/css"></style></defs><path d="M0 64l0 896 1024 0 0-896-1024 0zM960 896l-896 0 0-768 896 0 0 768zM896 192l-768 0 0 640 768 0 0-640zM448 512l-64 0 0 64-64 0 0 64-64 0 0-64 64 0 0-64 64 0 0-64-64 0 0-64-64 0 0-64 64 0 0 64 64 0 0 64 64 0 0 64zM704 640l-192 0 0-64 192 0 0 64z" p-id="3851"></path></svg> -->

<svg xmlns="http://www.w3.org/2000/svg" fill="none" viewBox="0 0 24 24"><path fill="#ffffff" d="M1 5a2 2 0 0 1 2-2h18a2 2 0 0 1 2 2v14a2 2 0 0 1-2 2H3a2 2 0 0 1-2-2V5Zm20 0H3v14h18V5Z" clip-rule="evenodd" fill-rule="evenodd"/><path fill-opacity=".2" fill="#ffffff" d="M1 5a2 2 0 0 1 2-2h18a2 2 0 0 1 2 2v14a2 2 0 0 1-2 2H3a2 2 0 0 1-2-2V5Zm20 0H3v14h18V5Z" clip-rule="evenodd" fill-rule="evenodd"/><path fill="#ffffff" d="M5.24 8.35a1 1 0 0 1 1.41-.11l3.5 3a1 1 0 0 1 0 1.52l-3.5 3a1 1 0 0 1-1.3-1.52L7.962 12 5.35 9.76a1 1 0 0 1-.108-1.41Z" clip-rule="evenodd" fill-rule="evenodd"/><path fill-opacity=".2" fill="#ffffff" d="M5.24 8.35a1 1 0 0 1 1.41-.11l3.5 3a1 1 0 0 1 0 1.52l-3.5 3a1 1 0 0 1-1.3-1.52L7.962 12 5.35 9.76a1 1 0 0 1-.108-1.41Z" clip-rule="evenodd" fill-rule="evenodd"/><path fill="#ffffff" d="M10.5 16a1 1 0 0 1 1-1H18a1 1 0 1 1 0 2h-6.5a1 1 0 0 1-1-1Z" clip-rule="evenodd" fill-rule="evenodd"/><path fill-opacity=".2" fill="#ffffff" d="M10.5 16a1 1 0 0 1 1-1H18a1 1 0 1 1 0 2h-6.5a1 1 0 0 1-1-1Z" clip-rule="evenodd" fill-rule="evenodd"/></svg>