<svg width="46" height="38" xmlns="http://www.w3.org/2000/svg"><path d="M40.594 0a3.598 3.598 0 0 1 3.599 3.598v28.804A3.598 3.598 0 0 1 40.594 36H3.598A3.598 3.598 0 0 1 0 32.402V3.598A3.598 3.598 0 0 1 3.598 0h36.996zm0 3.084H3.598a.514.514 0 0 0-.514.514v28.804c0 .283.23.514.514.514h36.996c.284 0 .514-.23.514-.514V3.598a.514.514 0 0 0-.514-.514zM34.43 24.687a1.542 1.542 0 0 1 .025 3.084H21.07a1.542 1.542 0 0 1-.026-3.084H34.43zM10.749 10.64l.019.017 7.194 6.172c.71.609.717 1.703.021 2.322l-.021.018-7.194 6.172a1.542 1.542 0 0 1-2.028-2.324l.02-.017L14.59 18l-5.83-5.001a1.542 1.542 0 0 1-.183-2.155l.016-.02c.55-.64 1.51-.72 2.156-.183z"/></svg>