<?xml version="1.0" encoding="UTF-8"?>
<svg width="46px" height="38px" viewBox="0 0 46 38" version="1.1" xmlns="http://www.w3.org/2000/svg"
>
    <title>terminal</title>
    <path d="M40.5943615,0 C42.581735,0 44.1927711,1.61108434 44.1927711,3.59840965 L44.1927711,32.4015904 C44.1927711,34.3889639 42.5816867,36 40.5943615,36 L3.59840965,36 C1.61103615,36 0,34.3889157 0,32.4015904 L0,3.59840965 C0,1.61103615 1.61108434,0 3.59840965,0 L40.5943615,0 Z M40.5943615,3.08433735 L3.59840965,3.08433735 C3.31450603,3.08433735 3.08433735,3.31450603 3.08433735,3.59840965 L3.08433735,32.4015904 C3.08433735,32.685494 3.31450603,32.9156627 3.59840965,32.9156627 L40.5943615,32.9156627 C40.8782651,32.9156627 41.1084338,32.685494 41.1084338,32.4015904 L41.1084338,3.59840965 C41.1084338,3.31450603 40.8782651,3.08433735 40.5943615,3.08433735 Z M34.4289157,24.686747 C35.2806265,24.686747 35.9710843,25.3772048 35.9710843,26.2289157 C35.9710843,27.0720964 35.2943614,27.757253 34.4544578,27.7708916 L34.4289157,27.7710844 L21.0686747,27.7710844 C20.2169639,27.7710844 19.5265061,27.0806265 19.5265061,26.2289157 C19.5265061,25.3857349 20.2032289,24.7005783 21.0431325,24.6869397 L21.0686747,24.686747 L34.4289157,24.686747 Z M10.7484819,10.6413976 L10.768,10.6578313 L17.9619278,16.8295421 C18.6721446,17.4387952 18.6792289,18.5328674 17.9832289,19.1518555 L17.9619278,19.1704579 L10.768,25.3421687 C10.1215422,25.8967229 9.14795181,25.8222651 8.5933976,25.1758072 C8.04438554,24.5358555 8.11185543,23.5752289 8.74048193,23.017976 L8.75975904,23.0012048 L14.5893012,18.0000001 L8.75971085,12.9987952 C8.11971085,12.4497349 8.04038555,11.4900241 8.57696386,10.8436627 L8.59334941,10.8241928 C9.14240964,10.1841928 10.1021205,10.1048193 10.7485301,10.6413976 L10.7484819,10.6413976 Z"
          id="形状"></path>
</svg>
