<?xml version="1.0" standalone="no"?><!DOCTYPE svg PUBLIC "-//W3C//DTD SVG 1.1//EN" "http://www.w3.org/Graphics/SVG/1.1/DTD/svg11.dtd">
<svg width="22" height="18" viewBox="0 0 22 18" fill="currentColor" xmlns="http://www.w3.org/2000/svg"><path d="M20 0H2C0.9 0 0 0.9 0 2V16C0 17.1 0.9 18 2 18H20C21.1 18 22 17.1 22 16V2C22 0.9 21.1 0 20 0ZM20 16.01H2V1.99H20V16.01Z"></path><path d="M6.87574 6H4.72426C4.45699 6 4.32314 6.32314 4.51213 6.51213L7.78787 9.78787C7.90503 9.90503 7.90503 10.095 7.78787 10.2121L4.51213 13.4879C4.32314 13.6769 4.45699 14 4.72426 14H6.87574C6.9553 14 7.03161 13.9684 7.08787 13.9121L10.7879 10.2121C10.905 10.095 10.905 9.90503 10.7879 9.78787L7.08787 6.08787C7.03161 6.03161 6.9553 6 6.87574 6Z"></path><path fill-rule="evenodd" clip-rule="evenodd" d="M4.51213 6.51213C4.32314 6.32314 4.45699 6 4.72426 6H6.87574C6.9553 6 7.03161 6.03161 7.08787 6.08787L10.7879 9.78787C10.905 9.90503 10.905 10.095 10.7879 10.2121L7.08787 13.9121C7.03161 13.9684 6.9553 14 6.87574 14H4.72426C4.45699 14 4.32314 13.6769 4.51213 13.4879L7.78787 10.2121C7.90503 10.095 7.90503 9.90503 7.78787 9.78787L4.51213 6.51213ZM6.41421 7L8.49497 9.08076C9.00266 9.58844 9.00266 10.4116 8.49497 10.9192L6.41421 13H6.58579L9.58579 10L6.58579 7H6.41421Z"></path><path d="M11 13.7V12.3C11 12.1343 11.1343 12 11.3 12H17.7C17.8657 12 18 12.1343 18 12.3V13.7C18 13.8657 17.8657 14 17.7 14H11.3C11.1343 14 11 13.8657 11 13.7Z"></path><path fill-rule="evenodd" clip-rule="evenodd" d="M11 12.3V13.7C11 13.8657 11.1343 14 11.3 14H17.7C17.8657 14 18 13.8657 18 13.7V12.3C18 12.1343 17.8657 12 17.7 12H11.3C11.1343 12 11 12.1343 11 12.3Z"></path></svg>