<?xml version="1.0" standalone="no"?><!DOCTYPE svg PUBLIC "-//W3C//DTD SVG 1.1//EN" "http://www.w3.org/Graphics/SVG/1.1/DTD/svg11.dtd"><svg t="1584946758552" class="icon" viewBox="0 0 1024 1024" version="1.1" xmlns="http://www.w3.org/2000/svg" p-id="1184" xmlns:xlink="http://www.w3.org/1999/xlink" width="200" height="200"><defs><style type="text/css"></style></defs><path d="M292.571429 713.142857l0 109.714286q0 22.857143-16 38.857143t-38.857143 16l-182.857143 0q-22.857143 0-38.857143-16t-16-38.857143l0-109.714286q0-22.857143 16-38.857143t38.857143-16l182.857143 0q22.857143 0 38.857143 16t16 38.857143zm0-292.571429l0 109.714286q0 22.857143-16 38.857143t-38.857143 16l-182.857143 0q-22.857143 0-38.857143-16t-16-38.857143l0-109.714286q0-22.857143 16-38.857143t38.857143-16l182.857143 0q22.857143 0 38.857143 16t16 38.857143zm365.714286 292.571429l0 109.714286q0 22.857143-16 38.857143t-38.857143 16l-182.857143 0q-22.857143 0-38.857143-16t-16-38.857143l0-109.714286q0-22.857143 16-38.857143t38.857143-16l182.857143 0q22.857143 0 38.857143 16t16 38.857143zm-365.714286-585.142857l0 109.714286q0 22.857143-16 38.857143t-38.857143 16l-182.857143 0q-22.857143 0-38.857143-16t-16-38.857143l0-109.714286q0-22.857143 16-38.857143t38.857143-16l182.857143 0q22.857143 0 38.857143 16t16 38.857143zm365.714286 292.571429l0 109.714286q0 22.857143-16 38.857143t-38.857143 16l-182.857143 0q-22.857143 0-38.857143-16t-16-38.857143l0-109.714286q0-22.857143 16-38.857143t38.857143-16l182.857143 0q22.857143 0 38.857143 16t16 38.857143zm365.714286 292.571429l0 109.714286q0 22.857143-16 38.857143t-38.857143 16l-182.857143 0q-22.857143 0-38.857143-16t-16-38.857143l0-109.714286q0-22.857143 16-38.857143t38.857143-16l182.857143 0q22.857143 0 38.857143 16t16 38.857143zm-365.714286-585.142857l0 109.714286q0 22.857143-16 38.857143t-38.857143 16l-182.857143 0q-22.857143 0-38.857143-16t-16-38.857143l0-109.714286q0-22.857143 16-38.857143t38.857143-16l182.857143 0q22.857143 0 38.857143 16t16 38.857143zm365.714286 292.571429l0 109.714286q0 22.857143-16 38.857143t-38.857143 16l-182.857143 0q-22.857143 0-38.857143-16t-16-38.857143l0-109.714286q0-22.857143 16-38.857143t38.857143-16l182.857143 0q22.857143 0 38.857143 16t16 38.857143zm0-292.571429l0 109.714286q0 22.857143-16 38.857143t-38.857143 16l-182.857143 0q-22.857143 0-38.857143-16t-16-38.857143l0-109.714286q0-22.857143 16-38.857143t38.857143-16l182.857143 0q22.857143 0 38.857143 16t16 38.857143z" p-id="1185"></path></svg>