<svg width="40" height="32" xmlns="http://www.w3.org/2000/svg"><path d="M11.429 25v4.286c0 .595-.209 1.1-.625 1.518a2.066 2.066 0 0 1-1.518.625H2.143a2.066 2.066 0 0 1-1.518-.625A2.066 2.066 0 0 1 0 29.286V25c0-.595.208-1.101.625-1.518a2.066 2.066 0 0 1 1.518-.625h7.143c.595 0 1.1.208 1.518.625.416.417.625.923.625 1.518zm0-11.429v4.286c0 .595-.209 1.101-.625 1.518A2.066 2.066 0 0 1 9.286 20H2.143a2.066 2.066 0 0 1-1.518-.625A2.066 2.066 0 0 1 0 17.857v-4.286c0-.595.208-1.1.625-1.517a2.066 2.066 0 0 1 1.518-.625h7.143c.595 0 1.1.208 1.518.625.416.416.625.922.625 1.517zM25.714 25v4.286c0 .595-.208 1.1-.625 1.518a2.066 2.066 0 0 1-1.518.625H16.43a2.066 2.066 0 0 1-1.518-.625 2.066 2.066 0 0 1-.625-1.518V25c0-.595.208-1.101.625-1.518a2.066 2.066 0 0 1 1.518-.625h7.142c.596 0 1.102.208 1.518.625.417.417.625.923.625 1.518zM11.43 2.143v4.286c0 .595-.209 1.1-.625 1.517a2.066 2.066 0 0 1-1.518.625H2.143a2.066 2.066 0 0 1-1.518-.625A2.066 2.066 0 0 1 0 6.43V2.143C0 1.548.208 1.042.625.625A2.066 2.066 0 0 1 2.143 0h7.143c.595 0 1.1.208 1.518.625.416.417.625.923.625 1.518zM25.714 13.57v4.286c0 .595-.208 1.101-.625 1.518a2.066 2.066 0 0 1-1.518.625H16.43a2.066 2.066 0 0 1-1.518-.625 2.066 2.066 0 0 1-.625-1.518v-4.286c0-.595.208-1.1.625-1.517a2.066 2.066 0 0 1 1.518-.625h7.142c.596 0 1.102.208 1.518.625.417.416.625.922.625 1.517zM40 25v4.286c0 .595-.208 1.1-.625 1.518a2.066 2.066 0 0 1-1.518.625h-7.143a2.066 2.066 0 0 1-1.518-.625 2.066 2.066 0 0 1-.625-1.518V25c0-.595.209-1.101.625-1.518a2.066 2.066 0 0 1 1.518-.625h7.143c.595 0 1.101.208 1.518.625.417.417.625.923.625 1.518zM25.714 2.143v4.286c0 .595-.208 1.1-.625 1.517a2.066 2.066 0 0 1-1.518.625H16.43a2.066 2.066 0 0 1-1.518-.625 2.066 2.066 0 0 1-.625-1.517V2.143c0-.595.208-1.101.625-1.518A2.066 2.066 0 0 1 16.429 0h7.142c.596 0 1.102.208 1.518.625.417.417.625.923.625 1.518zM40 13.57v4.286c0 .595-.208 1.101-.625 1.518a2.066 2.066 0 0 1-1.518.625h-7.143a2.066 2.066 0 0 1-1.518-.625 2.066 2.066 0 0 1-.625-1.518v-4.286c0-.595.209-1.1.625-1.517a2.066 2.066 0 0 1 1.518-.625h7.143c.595 0 1.101.208 1.518.625.417.416.625.922.625 1.517zm0-11.428v4.286c0 .595-.208 1.1-.625 1.517a2.066 2.066 0 0 1-1.518.625h-7.143a2.066 2.066 0 0 1-1.518-.625 2.066 2.066 0 0 1-.625-1.517V2.143c0-.595.209-1.101.625-1.518A2.066 2.066 0 0 1 30.714 0h7.143c.595 0 1.101.208 1.518.625.417.417.625.923.625 1.518z"/></svg>