<?xml version="1.0" encoding="UTF-8"?>
<svg width="40px" height="42px" viewBox="0 0 40 42" version="1.1" xmlns="http://www.w3.org/2000/svg" xmlns:xlink="http://www.w3.org/1999/xlink">
    <title>ticket-apply</title>
    <g id="jumpserver" stroke="none" stroke-width="1" fill="none" fill-rule="evenodd">
        <g id="ticket-apply" fill="#000000" fill-rule="nonzero">
            <path d="M23.7813639,38.7027705 C24.6034774,38.7027705 25.269932,39.3692252 25.269932,40.1913386 C25.269932,41.0134521 24.6034774,41.6799067 23.7813639,41.6799067 L4.46570429,41.6799067 C1.99936391,41.6799067 0,39.6805428 0,37.2142024 L0,4.46570429 C0,1.99936391 1.99936391,0 4.46570429,0 L29.7713619,0 C32.2377023,0 34.2370662,1.99936391 34.2370662,4.46570429 C34.2370662,5.28781775 33.5706116,5.95427239 32.7484981,5.95427239 C31.9263847,5.95427239 31.25993,5.28781775 31.25993,4.46570429 C31.25993,3.64359083 30.5934754,2.97713619 29.7713619,2.97713619 L4.46570429,2.97713619 C3.64359083,2.97713619 2.97713619,3.64359083 2.97713619,4.46570429 L2.97713619,37.2142024 C2.97713619,38.0363159 3.64359083,38.7027705 4.46570429,38.7027705 L23.7813639,38.7027705 Z M34.2370662,24.2711028 L34.2370662,31.0932104 C34.2370662,33.0774717 31.25993,33.0774717 31.25993,31.0932104 L31.25993,24.2711028 C31.25993,22.285353 34.2370662,22.285353 34.2370662,24.2711028 Z" id="形状"></path>
            <path d="M8.93140858,11.9085448 C8.10929512,11.9085448 7.44284049,11.2420901 7.44284049,10.4199767 C7.44284049,9.59786322 8.10929512,8.93140858 8.93140858,8.93140858 L19.3513853,8.93140858 C20.1734987,8.93140858 20.8399534,9.59786322 20.8399534,10.4199767 C20.8399534,11.2420901 20.1734987,11.9085448 19.3513853,11.9085448 L8.93140858,11.9085448 Z M8.93140858,19.3513853 C8.10929512,19.3513853 7.44284049,18.6849306 7.44284049,17.8628172 C7.44284049,17.0407037 8.10929512,16.3742491 8.93140858,16.3742491 L14.885681,16.3742491 C15.7077944,16.3742491 16.3742491,17.0407037 16.3742491,17.8628172 C16.3742491,18.6849306 15.7077944,19.3513853 14.885681,19.3513853 L8.93140858,19.3513853 Z M25.2788634,40.1258416 C25.2788634,40.9479551 24.6124088,41.6144097 23.7902953,41.6144097 C22.9681819,41.6144097 22.3017272,40.9479551 22.3017272,40.1258416 L22.3285215,34.2370662 C22.3285215,31.7707259 24.3278854,29.7713619 26.7942258,29.7713619 L32.7365896,29.8249504 C33.5587031,29.8249504 34.2251577,30.491405 34.2251577,31.3135185 C34.2251577,32.135632 33.5587031,32.8020866 32.7365896,32.8020866 L26.7942258,32.7484981 C25.9721123,32.7484981 25.3056577,33.4149528 25.3056577,34.2370662 L25.2788634,40.1258416 Z" id="形状"></path>
            <path d="M25.2089007,41.1053194 C24.8249309,41.4736008 24.2736524,41.6090613 23.7627265,41.4606743 C23.2518006,41.3122874 22.8588491,40.9025964 22.7318931,40.3859281 C22.604937,39.8692598 22.7632641,39.3241084 23.1472339,38.9558271 L31.5382923,30.908628 C31.919172,30.5253884 32.4778132,30.3786292 32.9978741,30.5251848 C33.517935,30.6717404 33.9177468,31.0885962 34.0424767,31.6143189 C34.1672067,32.1400416 33.9972675,32.6920732 33.5984705,33.0566317 L25.2089007,41.1053194 L25.2089007,41.1053194 Z M36.5115983,12.5843547 C36.8068901,12.3313882 36.9892285,11.9711971 37.0182813,11.5834533 C37.0473342,11.1957095 36.9207072,10.8123683 36.6664094,10.5182222 L36.647058,10.4944051 C36.111464,9.87859116 35.1798858,9.80887219 34.5585969,10.3381054 L14.5284246,27.3658359 L13.8213548,29.7773162 L16.5350144,29.5659395 L36.5115983,12.5843547 Z M38.9126586,8.56522083 C40.5188315,10.4139597 40.3229303,13.214547 38.4750196,14.8216725 L18.0965224,32.1471166 C17.8575964,32.3501747 17.5606505,32.4725997 17.2480385,32.4969301 L11.9011019,32.9107521 C11.4130972,32.9487308 10.9376091,32.7443704 10.6293383,32.3641598 C10.3210675,31.9839492 10.2194162,31.4764858 10.3574568,31.0068735 L11.7969022,26.100553 C11.8787732,25.8222108 12.0402005,25.573861 12.2613354,25.3860403 L32.6279241,8.07101622 C34.4921845,6.48368465 37.2869542,6.69350818 38.8933072,8.54140374 L38.9126586,8.56522083 L38.9126586,8.56522083 Z" id="形状"></path>
        </g>
    </g>
</svg>