<?xml version="1.0" encoding="UTF-8"?>
<svg width="40px" height="40px" viewBox="0 0 40 40" version="1.1" xmlns="http://www.w3.org/2000/svg" xmlns:xlink="http://www.w3.org/1999/xlink">
    <title>ticket</title>
    <g id="jumpserver" stroke="none" stroke-width="1" fill="none" fill-rule="evenodd">
        <g id="ticket" fill="#FFFFFF" fill-rule="nonzero">
            <path d="M9.91044776,12.8955224 L29.8507463,12.8955224 C30.6865672,12.8955224 31.2835821,12.2985075 31.2835821,11.4626866 C31.2835821,10.6268657 30.6865672,10.0298507 29.8507463,10.0298507 L9.91044776,10.0298507 C9.07462687,10.0298507 8.47761194,10.6268657 8.47761194,11.4626866 C8.47761194,12.2985075 9.19402985,12.8955224 9.91044776,12.8955224 L9.91044776,12.8955224 Z M29.9701493,18.6268657 L9.91044776,18.6268657 C9.07462687,18.6268657 8.47761194,19.2238806 8.47761194,20.0597015 C8.47761194,20.8955224 9.07462687,21.4925373 9.91044776,21.4925373 L29.8507463,21.4925373 C30.6865672,21.4925373 31.2835821,20.8955224 31.2835821,20.0597015 C31.2835821,19.2238806 30.6865672,18.6268657 29.9701493,18.6268657 L29.9701493,18.6268657 Z M29.9701493,27.1044776 L9.91044776,27.1044776 C9.07462687,27.1044776 8.47761194,27.7014925 8.47761194,28.5373134 C8.47761194,29.3731343 9.07462687,29.9701493 9.91044776,29.9701493 L29.8507463,29.9701493 C30.6865672,29.9701493 31.2835821,29.3731343 31.2835821,28.5373134 C31.2835821,27.8208955 30.6865672,27.1044776 29.9701493,27.1044776 Z M15.761194,4.29850746 L22.9253731,4.29850746 C24.119403,4.29850746 25.0746269,3.34328358 25.0746269,2.14925373 C25.0746269,0.955223881 24.119403,0 22.9253731,0 L15.761194,0 C14.5671642,0 13.6119403,0.955223881 13.6119403,2.14925373 C13.6119403,3.34328358 14.5671642,4.29850746 15.761194,4.29850746 Z" id="形状"></path>
            <path d="M34.1492537,1.43283582 L32.7164179,1.43283582 C31.880597,1.43283582 31.2835821,2.02985075 31.2835821,2.86567164 C31.2835821,3.70149254 31.880597,4.29850746 32.7164179,4.29850746 L34.1492537,4.29850746 C35.8208955,4.29850746 37.0149254,5.6119403 37.0149254,7.1641791 L37.0149254,34.2686567 C37.0149254,35.8208955 35.7014925,37.1343284 34.1492537,37.1343284 L5.6119403,37.1343284 C4.05970149,37.1343284 2.74626866,35.8208955 2.74626866,34.2686567 L2.74626866,7.1641791 C2.74626866,5.6119403 4.05970149,4.29850746 5.6119403,4.29850746 L7.04477612,4.29850746 C7.88059701,4.29850746 8.47761194,3.70149254 8.47761194,2.86567164 C8.47761194,2.02985075 7.88059701,1.43283582 7.04477612,1.43283582 L5.6119403,1.43283582 C2.50746269,1.43283582 0,4.05970149 0,7.1641791 L0,34.2686567 C0,37.3731343 2.50746269,40 5.73134328,40 L34.2686567,40 C37.3731343,40 40,37.4925373 40,34.2686567 L40,7.1641791 C39.880597,4.05970149 37.3731343,1.43283582 34.1492537,1.43283582 Z" id="路径"></path>
            <path d="M9.91044776,12.8955224 L29.8507463,12.8955224 C30.6865672,12.8955224 31.2835821,12.2985075 31.2835821,11.4626866 C31.2835821,10.6268657 30.6865672,10.0298507 29.8507463,10.0298507 L9.91044776,10.0298507 C9.07462687,10.0298507 8.47761194,10.6268657 8.47761194,11.4626866 C8.47761194,12.2985075 9.19402985,12.8955224 9.91044776,12.8955224 L9.91044776,12.8955224 Z M29.9701493,18.6268657 L9.91044776,18.6268657 C9.07462687,18.6268657 8.47761194,19.2238806 8.47761194,20.0597015 C8.47761194,20.8955224 9.07462687,21.4925373 9.91044776,21.4925373 L29.8507463,21.4925373 C30.6865672,21.4925373 31.2835821,20.8955224 31.2835821,20.0597015 C31.2835821,19.2238806 30.6865672,18.6268657 29.9701493,18.6268657 L29.9701493,18.6268657 Z M29.9701493,27.1044776 L9.91044776,27.1044776 C9.07462687,27.1044776 8.47761194,27.7014925 8.47761194,28.5373134 C8.47761194,29.3731343 9.07462687,29.9701493 9.91044776,29.9701493 L29.8507463,29.9701493 C30.6865672,29.9701493 31.2835821,29.3731343 31.2835821,28.5373134 C31.2835821,27.8208955 30.6865672,27.1044776 29.9701493,27.1044776 Z M15.761194,4.29850746 L22.9253731,4.29850746 C24.119403,4.29850746 25.0746269,3.34328358 25.0746269,2.14925373 C25.0746269,0.955223881 24.119403,0 22.9253731,0 L15.761194,0 C14.5671642,0 13.6119403,0.955223881 13.6119403,2.14925373 C13.6119403,3.34328358 14.5671642,4.29850746 15.761194,4.29850746 Z" id="形状"></path>
            <path d="M34.1492537,1.43283582 L32.7164179,1.43283582 C31.880597,1.43283582 31.2835821,2.02985075 31.2835821,2.86567164 C31.2835821,3.70149254 31.880597,4.29850746 32.7164179,4.29850746 L34.1492537,4.29850746 C35.8208955,4.29850746 37.0149254,5.6119403 37.0149254,7.1641791 L37.0149254,34.2686567 C37.0149254,35.8208955 35.7014925,37.1343284 34.1492537,37.1343284 L5.6119403,37.1343284 C4.05970149,37.1343284 2.74626866,35.8208955 2.74626866,34.2686567 L2.74626866,7.1641791 C2.74626866,5.6119403 4.05970149,4.29850746 5.6119403,4.29850746 L7.04477612,4.29850746 C7.88059701,4.29850746 8.47761194,3.70149254 8.47761194,2.86567164 C8.47761194,2.02985075 7.88059701,1.43283582 7.04477612,1.43283582 L5.6119403,1.43283582 C2.50746269,1.43283582 0,4.05970149 0,7.1641791 L0,34.2686567 C0,37.3731343 2.50746269,40 5.73134328,40 L34.2686567,40 C37.3731343,40 40,37.4925373 40,34.2686567 L40,7.1641791 C39.880597,4.05970149 37.3731343,1.43283582 34.1492537,1.43283582 Z" id="路径"></path>
        </g>
    </g>
</svg>