<svg xmlns="http://www.w3.org/2000/svg" viewBox="0 0 24 24"><path stroke-linejoin="round" stroke-linecap="round" stroke-width="2" stroke="#646A73" d="M20 13.5V3a1 1 0 0 0-1-1H5a1 1 0 0 0-1 1v18a1 1 0 0 0 1 1h3.5"/><path stroke-linejoin="round" stroke-linecap="round" stroke-width="2" stroke-opacity=".2" stroke="#000" d="M20 13.5V3a1 1 0 0 0-1-1H5a1 1 0 0 0-1 1v18a1 1 0 0 0 1 1h3.5"/><path stroke-linejoin="round" stroke-linecap="round" stroke-width="2" stroke="#646A73" d="M8.5 6h7"/><path stroke-linejoin="round" stroke-linecap="round" stroke-width="2" stroke-opacity=".2" stroke="#000" d="M8.5 6h7"/><path stroke-linejoin="round" stroke-linecap="round" stroke-width="2" stroke="#646A73" d="M8.5 10h7"/><path stroke-linejoin="round" stroke-linecap="round" stroke-width="2" stroke-opacity=".2" stroke="#000" d="M8.5 10h7"/><path stroke-linejoin="round" stroke-linecap="round" stroke-width="2" stroke="#646A73" d="M8.5 14h3"/><path stroke-linejoin="round" stroke-linecap="round" stroke-width="2" stroke-opacity=".2" stroke="#000" d="M8.5 14h3"/><path stroke-linejoin="round" stroke-linecap="round" stroke-miterlimit="2" stroke-width="2" stroke="#646A73" d="M20 22h-8v-1.714L13.5 19h5l1.5 1.286V22Z"/><path stroke-linejoin="round" stroke-linecap="round" stroke-miterlimit="2" stroke-width="2" stroke-opacity=".2" stroke="#000" d="M20 22h-8v-1.714L13.5 19h5l1.5 1.286V22Z"/><path stroke-width="2" stroke="#646A73" d="M16 15c-1.105 0-2 .955-2 2.133 0 .803.416 1.503 1.031 1.867h1.938c.615-.364 1.031-1.064 1.031-1.867C18 15.955 17.105 15 16 15Z"/><path stroke-width="2" stroke-opacity=".2" stroke="#000" d="M16 15c-1.105 0-2 .955-2 2.133 0 .803.416 1.503 1.031 1.867h1.938c.615-.364 1.031-1.064 1.031-1.867C18 15.955 17.105 15 16 15Z"/></svg>