<!-- <svg xmlns="http://www.w3.org/2000/svg" viewBox="0 0 24 24"><path stroke-linejoin="round" stroke-linecap="round" stroke-width="2" stroke="#646A73" d="M20 12.5V3a1 1 0 0 0-1-1H5a1 1 0 0 0-1 1v18a1 1 0 0 0 1 1h7.5"/><path stroke-linejoin="round" stroke-linecap="round" stroke-width="2" stroke-opacity=".2" stroke="#000" d="M20 12.5V3a1 1 0 0 0-1-1H5a1 1 0 0 0-1 1v18a1 1 0 0 0 1 1h7.5"/><path stroke-linejoin="round" stroke-linecap="round" stroke-width="2" stroke="#646A73" d="M8.5 6h7"/><path stroke-linejoin="round" stroke-linecap="round" stroke-width="2" stroke-opacity=".2" stroke="#000" d="M8.5 6h7"/><path stroke-linejoin="round" stroke-linecap="round" stroke-width="2" stroke="#646A73" d="M8.5 10h7"/><path stroke-linejoin="round" stroke-linecap="round" stroke-width="2" stroke-opacity=".2" stroke="#000" d="M8.5 10h7"/><path stroke-linejoin="round" stroke-linecap="round" stroke-width="2" stroke="#646A73" d="M8.5 14h3"/><path stroke-linejoin="round" stroke-linecap="round" stroke-width="2" stroke-opacity=".2" stroke="#000" d="M8.5 14h3"/><path stroke-linejoin="round" stroke-linecap="round" stroke-width="2" stroke="#646A73" d="M17.5 22v-6"/><path stroke-linejoin="round" stroke-linecap="round" stroke-width="2" stroke-opacity=".2" stroke="#000" d="M17.5 22v-6"/><path stroke-linejoin="round" stroke-linecap="round" stroke-width="2" stroke="#646A73" d="m15 17.5 2.5-2.5 2.5 2.5"/><path stroke-linejoin="round" stroke-linecap="round" stroke-width="2" stroke-opacity=".2" stroke="#000" d="m15 17.5 2.5-2.5 2.5 2.5"/></svg> -->

<svg t="1676618750825" class="icon" viewBox="0 0 1024 1024" version="1.1" xmlns="http://www.w3.org/2000/svg" p-id="2471" width="200" height="200"><path d="M607.232 896a32 32 0 1 1 0 64H192a96 96 0 0 1-96-96V160a96 96 0 0 1 96-96h544a96 96 0 0 1 96 96 32 32 0 0 1-64 0 32 32 0 0 0-32-32H192a32 32 0 0 0-32 32v704a32 32 0 0 0 32 32h415.232zM832 585.76v146.656c0 42.656-64 42.656-64 0v-146.656c0-42.688 64-42.688 64 0z" fill="#000000" p-id="2472"></path><path d="M288 320a32 32 0 1 1 0-64h224a32 32 0 0 1 0 64H288zM288 480a32 32 0 0 1 0-64h128a32 32 0 0 1 0 64H288zM639.424 926.592a32 32 0 1 1-64 0L576 800a96 96 0 0 1 96-96l127.744 1.152a32 32 0 1 1 0 64L672 768a32 32 0 0 0-32 32l-0.576 126.592z" fill="#000000" p-id="2473"></path><path d="M637.92 947.648a32 32 0 1 1-44.32-46.208l180.384-172.992a32 32 0 1 1 44.288 46.176l-180.352 173.024zM880.896 334.528a31.424 31.424 0 0 0 3.328-44.416l-0.416-0.512a32 32 0 0 0-44.896-3.36L408.32 652.288l-15.2 51.84 58.336-4.544 429.44-365.056z m51.616-86.4a95.36 95.36 0 0 1-9.408 134.496l-438.08 372.448a32 32 0 0 1-18.24 7.52l-114.944 8.896a32 32 0 0 1-33.184-40.928l30.944-105.472a32 32 0 0 1 9.984-15.36L797.408 237.504a96 96 0 0 1 134.688 10.112l0.416 0.512z" fill="#000000" p-id="2474"></path></svg>