<svg width="24" height="24" xmlns="http://www.w3.org/2000/svg"><path d="M4.772 20.235c-.83.001-1.627-.384-2.224-1.076-.6-.672-.94-1.612-.942-2.596.012-.988.35-1.929.942-2.615.61-.692 1.417-1.077 2.255-1.076h1.544c.427 0 .773-.415.773-.927 0-.513-.346-.928-.773-.928H4.803c-1.258-.055-2.48.507-3.386 1.556C.51 13.623-.001 15.07 0 16.581c.05 3.128 2.199 5.616 4.803 5.564V24l2.378-2.838L4.772 18.4v1.836zm8.819-1.836h-3.213c-1.279 0-2.316 1.245-2.316 2.782 0 1.536 1.037 2.782 2.316 2.782h3.213c1.28 0 2.316-1.246 2.316-2.782 0-1.537-1.037-2.782-2.316-2.782zm0 3.71h-3.213c-.426 0-.772-.416-.772-.928s.346-.927.772-.927h3.213c.426 0 .772.415.772.927s-.346.927-.772.927zM13.59 0h-3.213c-.622-.015-1.224.267-1.673.786-.45.518-.708 1.23-.72 1.977.012.748.27 1.459.72 1.977.449.519 1.05.801 1.673.786h3.213c.622.015 1.224-.267 1.673-.786.45-.518.708-1.23.72-1.977-.012-.748-.27-1.459-.72-1.977-.449-.519-1.05-.801-1.673-.786zm0 3.709h-3.213c-.429.01-.786-.394-.803-.909.004-.25.091-.49.242-.663a.722.722 0 0 1 .561-.264h3.213c.426 0 .772.415.772.927s-.346.927-.772.927V3.71zm0 5.49h-3.213c-1.279 0-2.316 1.245-2.316 2.782 0 1.536 1.037 2.782 2.316 2.782h3.213c1.28 0 2.316-1.246 2.316-2.782 0-1.537-1.037-2.782-2.316-2.782zm0 3.71h-3.213c-.429.01-.786-.395-.803-.91.017-.518.372-.927.803-.927h3.213c.429 0 .779.412.787.927-.024.498-.372.883-.787.872v.037zm5.606-11.073H17.56c-.427 0-.772.415-.772.927s.345.927.772.927h1.637c.838-.001 1.646.384 2.255 1.076.602.674.944 1.618.944 2.606 0 .988-.342 1.932-.944 2.606-.605.7-1.415 1.087-2.255 1.075V9.2l-2.41 2.763 2.41 2.764v-1.855c1.258.055 2.48-.506 3.386-1.556.906-1.05 1.418-2.496 1.417-4.008-.02-1.496-.54-2.919-1.444-3.948-.904-1.03-2.114-1.578-3.36-1.523z"/></svg>