<svg width="24" height="24" xmlns="http://www.w3.org/2000/svg"><path d="M4.365 1.509l.778.013c.455.008.774.343.766.802-.008.46-.339.783-.793.775l-.779-.014c-.843-.014-1.57.696-1.585 1.55l-.259 14.911c-.015.854.687 1.59 1.53 1.604l15.51.272c.844.015 1.57-.695 1.585-1.55l.26-14.911c.014-.854-.622-1.588-1.53-1.604l-.78-.013c-.454-.008-.772-.343-.764-.802.008-.46.338-.783.792-.775l.779.014c1.752.03 3.09 1.5 3.125 3.208l-.26 14.912c-.03 1.774-1.482 3.128-3.17 3.099l-15.51-.272c-1.752-.03-3.09-1.5-3.06-3.208L1.26 4.61c.03-1.708 1.417-3.13 3.105-3.1zm2.127 14.239l10.853.19c.388.007.704.404.697.795-.007.456-.336.777-.788.769l-10.789-.19c-.452-.007-.77-.339-.762-.795.008-.457.337-.777.79-.77zm.08-4.63l10.854.19c.388.007.705.338.697.795-.008.456-.337.777-.789.769l-10.788-.19c-.453-.007-.77-.339-.762-.795.008-.457.337-.777.789-.77zm.082-4.696l10.789.19c.452.007.77.34.762.796-.008.456-.337.776-.79.769l-10.788-.19a.79.79 0 0 1-.761-.796c.008-.456.336-.776.788-.769zM9.915 1l3.876.068a1.164 1.164 0 0 1 1.143 1.194 1.164 1.164 0 0 1-1.183 1.154l-3.877-.068a1.164 1.164 0 0 1-1.142-1.194A1.164 1.164 0 0 1 9.915 1z" fill="currentColor"/></svg>