<svg xmlns="http://www.w3.org/2000/svg" viewBox="0 0 24 24"><path fill="#646A73" d="M7.273 13.474a.556.556 0 0 0 .12.18l3.142 3.143.053.047a.557.557 0 0 0 .733-.047l5.5-5.5a.555.555 0 0 0 0-.785l-.786-.786a.555.555 0 0 0-.786 0l-4.32 4.321-1.965-1.964a.555.555 0 0 0-.785 0l-.786.786a.555.555 0 0 0-.12.605Z"/><path fill-opacity=".2" fill="#000" d="M7.273 13.474a.556.556 0 0 0 .12.18l3.142 3.143.053.047a.557.557 0 0 0 .733-.047l5.5-5.5a.555.555 0 0 0 0-.785l-.786-.786a.555.555 0 0 0-.786 0l-4.32 4.321-1.965-1.964a.555.555 0 0 0-.785 0l-.786.786a.555.555 0 0 0-.12.605Z"/><path fill="#646A73" d="M16 1H8c-.614 0-1 .387-1 1v1H4c-.686 0-1 .387-1 1v18c0 .614.314 1 1 1h16c.686 0 1-.387 1-1V4c0-.614-.314-1-1-1h-3v2h2v16H5V5h2v1c0 .613.386 1 1 1h8c.613 0 1-.387 1-1V2c0-.614-.387-1-1-1ZM9 5V3h6v2H9Z"/><path fill-opacity=".2" fill="#000" d="M16 1H8c-.614 0-1 .387-1 1v1H4c-.686 0-1 .387-1 1v18c0 .614.314 1 1 1h16c.686 0 1-.387 1-1V4c0-.614-.314-1-1-1h-3v2h2v16H5V5h2v1c0 .613.386 1 1 1h8c.613 0 1-.387 1-1V2c0-.614-.387-1-1-1ZM9 5V3h6v2H9Z"/></svg>