<!-- <svg xmlns="http://www.w3.org/2000/svg" viewBox="0 0 24 24"><path stroke-linejoin="round" stroke-linecap="round" stroke-width="2" stroke="#646A73" d="M20 13.5V3a1 1 0 0 0-1-1H5a1 1 0 0 0-1 1v18a1 1 0 0 0 1 1h3.5"/><path stroke-linejoin="round" stroke-linecap="round" stroke-width="2" stroke-opacity=".2" stroke="#000" d="M20 13.5V3a1 1 0 0 0-1-1H5a1 1 0 0 0-1 1v18a1 1 0 0 0 1 1h3.5"/><path stroke-linejoin="round" stroke-linecap="round" stroke-width="2" stroke="#646A73" d="M8.5 6h7"/><path stroke-linejoin="round" stroke-linecap="round" stroke-width="2" stroke-opacity=".2" stroke="#000" d="M8.5 6h7"/><path stroke-linejoin="round" stroke-linecap="round" stroke-width="2" stroke="#646A73" d="M8.5 10h7"/><path stroke-linejoin="round" stroke-linecap="round" stroke-width="2" stroke-opacity=".2" stroke="#000" d="M8.5 10h7"/><path stroke-linejoin="round" stroke-linecap="round" stroke-width="2" stroke="#646A73" d="M8.5 14h3"/><path stroke-linejoin="round" stroke-linecap="round" stroke-width="2" stroke-opacity=".2" stroke="#000" d="M8.5 14h3"/><path stroke-linejoin="round" stroke-linecap="round" stroke-miterlimit="2" stroke-width="2" stroke="#646A73" d="M20 22h-8v-1.714L13.5 19h5l1.5 1.286V22Z"/><path stroke-linejoin="round" stroke-linecap="round" stroke-miterlimit="2" stroke-width="2" stroke-opacity=".2" stroke="#000" d="M20 22h-8v-1.714L13.5 19h5l1.5 1.286V22Z"/><path stroke-width="2" stroke="#646A73" d="M16 15c-1.105 0-2 .955-2 2.133 0 .803.416 1.503 1.031 1.867h1.938c.615-.364 1.031-1.064 1.031-1.867C18 15.955 17.105 15 16 15Z"/><path stroke-width="2" stroke-opacity=".2" stroke="#000" d="M16 15c-1.105 0-2 .955-2 2.133 0 .803.416 1.503 1.031 1.867h1.938c.615-.364 1.031-1.064 1.031-1.867C18 15.955 17.105 15 16 15Z"/></svg> -->

<svg t="1676618961962" class="icon" viewBox="0 0 1024 1024" version="1.1" xmlns="http://www.w3.org/2000/svg" p-id="6131" width="400" height="400"><path d="M672.461063 566.615898 285.033243 566.615898c-14.136975 0-25.638937 11.499915-25.638937 25.63689 0 14.137998 11.501962 25.640983 25.638937 25.640983l387.42782 0c14.137998 0 25.640983-11.501962 25.640983-25.640983C698.102047 578.115813 686.600085 566.615898 672.461063 566.615898zM672.461063 713.572902 285.033243 713.572902c-14.136975 0-25.638937 11.499915-25.638937 25.63689 0 14.137998 11.501962 25.640983 25.638937 25.640983l387.42782 0c14.137998 0 25.640983-11.501962 25.640983-25.640983C698.102047 725.072817 686.600085 713.572902 672.461063 713.572902zM792.699542 352.860537c-14.137998 0-25.640983 11.501962-25.640983 25.63996l0 494.299873c0 0.130983 0 0.280386-0.001023 0.433882-0.899486 0.279363-2.665713 0.644683-5.764284 0.644683L198.001051 873.878934c-4.312212 0-7.564279-2.971681-7.564279-6.913457L190.436772 160.129001c0-4.493338 0.974188-8.28878 1.811252-9.821693l373.337917 0c14.136975 0 25.63996-11.501962 25.63996-25.63996 0-14.136975-11.501962-25.638937-25.63996-25.638937l-374.069581 0c-30.336936 0-52.357462 25.696242-52.357462 61.099566l0 706.836477c0 32.086789 26.396183 58.19133 58.84113 58.19133l563.293223 0c34.119075 0 57.042157-21.041222 57.042157-52.356438L818.335409 378.50152C818.336432 364.363522 806.836517 352.860537 792.699542 352.860537zM876.184955 109.410875c-10.002818-10.001795-26.218128-10.001795-36.220946 0L669.787164 279.589766l-76.03472-76.03472c-10.002818-10.001795-26.218128-10.001795-36.220946 0-10.000771 10.001795-10.000771 26.218128 0 36.220946l94.145194 94.145194c4.803399 4.803399 11.31879 7.501858 18.110473 7.501858s13.307074-2.698458 18.110473-7.501858l188.287317-188.288341C886.186749 135.629004 886.186749 119.41267 876.184955 109.410875zM485.42832 259.344676l-200.394053 0c-14.136975 0-25.638937 11.501962-25.638937 25.63996 0 14.136975 11.501962 25.637913 25.638937 25.637913l200.394053 0c14.137998 0 25.63996-11.500938 25.63996-25.637913C511.06828 270.846638 499.565295 259.344676 485.42832 259.344676zM672.461063 406.300656 285.033243 406.300656c-14.136975 0-25.638937 11.500938-25.638937 25.638937s11.501962 25.638937 25.638937 25.638937l387.42782 0c14.137998 0 25.640983-11.501962 25.640983-25.638937S686.600085 406.300656 672.461063 406.300656z" p-id="6132"></path></svg>