<svg width="37.5877465px" height="34.6405607px" viewBox="0 0 37.5877465 34.6405607" version="1.1"
     xmlns="http://www.w3.org/2000/svg">
    <path d="M9.23210969,10.9723436 L27.5933663,10.9723436 C28.3629998,10.9723436 28.912738,10.4643648 28.912738,9.75319437 C28.912738,9.04202395 28.3629998,8.53404501 27.5933663,8.53404501 L9.23210969,8.53404501 C8.46247619,8.53404501 7.91273797,9.04202395 7.91273797,9.75319437 C7.91273797,10.4643648 8.57242383,10.9723436 9.23210969,10.9723436 L9.23210969,10.9723436 Z M27.7033139,15.8489408 L9.23210969,15.8489408 C8.46247619,15.8489408 7.91273797,16.3569197 7.91273797,17.0680901 C7.91273797,17.7792605 8.46247619,18.2872394 9.23210969,18.2872394 L27.5933663,18.2872394 C28.3629998,18.2872394 28.912738,17.7792605 28.912738,17.0680901 C28.912738,16.3569197 28.3629998,15.8489408 27.7033139,15.8489408 L27.7033139,15.8489408 Z M27.7033139,23.0622408 L9.23210969,23.0622408 C8.46247619,23.0622408 7.91273797,23.5702196 7.91273797,24.2813901 C7.91273797,24.9925605 8.46247619,25.5005394 9.23210969,25.5005394 L27.5933663,25.5005394 C28.3629998,25.5005394 28.912738,24.9925605 28.912738,24.2813901 C28.912738,23.6718154 28.3629998,23.0622408 27.7033139,23.0622408 Z M14.6195442,3.65744788 L21.2164029,3.65744788 C22.3158793,3.65744788 23.1954605,2.84468168 23.1954605,1.82872394 C23.1954605,0.812766196 22.3158793,3.50628837e-14 21.2164029,3.50628837e-14 L14.6195442,3.50628837e-14 C13.5200678,3.50628837e-14 12.6404867,0.812766196 12.6404867,1.82872394 C12.6404867,2.84468168 13.5200678,3.65744788 14.6195442,3.65744788 Z"
          id="形状"></path>
    <path d="M31.5880597,0.943745191 L30.2626866,0.943745191 C29.4895522,0.943745191 28.9373134,1.45545193 28.9373134,2.17184134 C28.9373134,2.88823077 29.4895522,3.3999375 30.2626866,3.3999375 L31.5880597,3.3999375 C33.1343283,3.3999375 34.238806,4.52569231 34.238806,5.8561298 L34.238806,29.0876154 C34.238806,30.4180529 33.0238806,31.5438077 31.5880597,31.5438077 L5.19104478,31.5438077 C3.75522388,31.5438077 2.54029851,30.4180529 2.54029851,29.0876154 L2.54029851,5.8561298 C2.54029851,4.52569231 3.75522388,3.3999375 5.19104478,3.3999375 L6.51641791,3.3999375 C7.28955223,3.3999375 7.84179104,2.88823077 7.84179104,2.17184134 C7.84179104,1.45545193 7.28955223,0.943745191 6.51641791,0.943745191 L5.19104478,0.943745191 C2.31940299,0.943745191 -2.28983951e-15,3.1952548 -2.28983951e-15,5.8561298 L-2.28983951e-15,29.0876154 C-2.28983951e-15,31.7484904 2.31940299,34 5.30149253,34 L31.6985074,34 C34.5701492,34 37,31.8508317 37,29.0876154 L37,5.8561298 C36.8895522,3.1952548 34.5701492,0.943745191 31.5880597,0.943745191 Z"
          id="路径"></path>
    <path d="M9.23210969,10.9723436 L27.5933663,10.9723436 C28.3629998,10.9723436 28.912738,10.4643648 28.912738,9.75319437 C28.912738,9.04202395 28.3629998,8.53404501 27.5933663,8.53404501 L9.23210969,8.53404501 C8.46247619,8.53404501 7.91273797,9.04202395 7.91273797,9.75319437 C7.91273797,10.4643648 8.57242383,10.9723436 9.23210969,10.9723436 L9.23210969,10.9723436 Z M27.7033139,15.8489408 L9.23210969,15.8489408 C8.46247619,15.8489408 7.91273797,16.3569197 7.91273797,17.0680901 C7.91273797,17.7792605 8.46247619,18.2872394 9.23210969,18.2872394 L27.5933663,18.2872394 C28.3629998,18.2872394 28.912738,17.7792605 28.912738,17.0680901 C28.912738,16.3569197 28.3629998,15.8489408 27.7033139,15.8489408 L27.7033139,15.8489408 Z M27.7033139,23.0622408 L9.23210969,23.0622408 C8.46247619,23.0622408 7.91273797,23.5702196 7.91273797,24.2813901 C7.91273797,24.9925605 8.46247619,25.5005394 9.23210969,25.5005394 L27.5933663,25.5005394 C28.3629998,25.5005394 28.912738,24.9925605 28.912738,24.2813901 C28.912738,23.6718154 28.3629998,23.0622408 27.7033139,23.0622408 Z M14.6195442,3.65744788 L21.2164029,3.65744788 C22.3158793,3.65744788 23.1954605,2.84468168 23.1954605,1.82872394 C23.1954605,0.812766196 22.3158793,3.50628837e-14 21.2164029,3.50628837e-14 L14.6195442,3.50628837e-14 C13.5200678,3.50628837e-14 12.6404867,0.812766196 12.6404867,1.82872394 C12.6404867,2.84468168 13.5200678,3.65744788 14.6195442,3.65744788 Z"
          id="形状"></path>
    <path d="M31.5880597,0.943745191 L30.2626866,0.943745191 C29.4895522,0.943745191 28.9373134,1.45545193 28.9373134,2.17184134 C28.9373134,2.88823077 29.4895522,3.3999375 30.2626866,3.3999375 L31.5880597,3.3999375 C33.1343283,3.3999375 34.238806,4.52569231 34.238806,5.8561298 L34.238806,29.0876154 C34.238806,30.4180529 33.0238806,31.5438077 31.5880597,31.5438077 L5.19104478,31.5438077 C3.75522388,31.5438077 2.54029851,30.4180529 2.54029851,29.0876154 L2.54029851,5.8561298 C2.54029851,4.52569231 3.75522388,3.3999375 5.19104478,3.3999375 L6.51641791,3.3999375 C7.28955223,3.3999375 7.84179104,2.88823077 7.84179104,2.17184134 C7.84179104,1.45545193 7.28955223,0.943745191 6.51641791,0.943745191 L5.19104478,0.943745191 C2.31940299,0.943745191 -2.28983951e-15,3.1952548 -2.28983951e-15,5.8561298 L-2.28983951e-15,29.0876154 C-2.28983951e-15,31.7484904 2.31940299,34 5.30149253,34 L31.6985074,34 C34.5701492,34 37,31.8508317 37,29.0876154 L37,5.8561298 C36.8895522,3.1952548 34.5701492,0.943745191 31.5880597,0.943745191 Z"
          id="路径"></path>
</svg>
