<svg width="40" height="49" xmlns="http://www.w3.org/2000/svg"><path d="M9.496 27.72c.061.15.152.285.266.4l6.982 6.984.118.105a1.238 1.238 0 0 0 1.63-.105l12.221-12.222a1.233 1.233 0 0 0 0-1.744l-1.746-1.747a1.233 1.233 0 0 0-1.747 0l-9.6 9.602-4.367-4.364a1.233 1.233 0 0 0-1.744 0l-1.747 1.747a1.233 1.233 0 0 0-.266 1.344z" fill="currentColor"/><path d="M9.496 27.72c.061.15.152.285.266.4l6.982 6.984.118.105a1.238 1.238 0 0 0 1.63-.105l12.221-12.222a1.233 1.233 0 0 0 0-1.744l-1.746-1.747a1.233 1.233 0 0 0-1.747 0l-9.6 9.602-4.367-4.364a1.233 1.233 0 0 0-1.744 0l-1.747 1.747a1.233 1.233 0 0 0-.266 1.344z" fill-opacity=".2" fill="currentColor"/><path d="M28.889 0H11.11C9.747 0 8.89.86 8.89 2.222v2.222H2.222C.698 4.444 0 5.304 0 6.667v40c0 1.364.698 2.222 2.222 2.222h35.556c1.524 0 2.222-.86 2.222-2.222v-40c0-1.365-.698-2.223-2.222-2.223H31.11V8.89h4.445v35.555H4.444V8.89H8.89v2.222c0 1.362.858 2.222 2.222 2.222H28.89c1.362 0 2.222-.86 2.222-2.222V2.222C31.111.858 30.251 0 28.89 0zM13.333 8.889V4.444h13.334V8.89H13.333z" fill="currentColor"/><path d="M28.889 0H11.11C9.747 0 8.89.86 8.89 2.222v2.222H2.222C.698 4.444 0 5.304 0 6.667v40c0 1.364.698 2.222 2.222 2.222h35.556c1.524 0 2.222-.86 2.222-2.222v-40c0-1.365-.698-2.223-2.222-2.223H31.11V8.89h4.445v35.555H4.444V8.89H8.89v2.222c0 1.362.858 2.222 2.222 2.222H28.89c1.362 0 2.222-.86 2.222-2.222V2.222C31.111.858 30.251 0 28.89 0zM13.333 8.889V4.444h13.334V8.89H13.333z" fill-opacity=".2" fill="currentColor"/></svg>