<svg t="1675674616584" class="icon" viewBox="0 0 1024 1024" version="1.1" xmlns="http://www.w3.org/2000/svg" p-id="2486"
     width="200" height="200">
  <path
    d="M289.28 360.96H716.8c17.92 0 30.72-12.8 30.72-30.72s-12.8-30.72-30.72-30.72H289.28c-17.92 0-30.72 12.8-30.72 30.72s15.36 30.72 30.72 30.72zM719.36 483.84H289.28c-17.92 0-30.72 12.8-30.72 30.72s12.8 30.72 30.72 30.72H716.8c17.92 0 30.72-12.8 30.72-30.72s-12.8-30.72-28.16-30.72zM719.36 665.6H289.28c-17.92 0-30.72 12.8-30.72 30.72s12.8 30.72 30.72 30.72H716.8c17.92 0 30.72-12.8 30.72-30.72 0-15.36-12.8-30.72-28.16-30.72zM414.72 176.64h153.6c25.6 0 46.08-20.48 46.08-46.08s-20.48-46.08-46.08-46.08h-153.6c-25.6 0-46.08 20.48-46.08 46.08s20.48 46.08 46.08 46.08z"
    p-id="2487" fill="#ffffff"></path>
  <path
    d="M808.96 115.2h-30.72c-17.92 0-30.72 12.8-30.72 30.72s12.8 30.72 30.72 30.72h30.72C844.8 176.64 870.4 204.8 870.4 238.08V819.2c0 33.28-28.16 61.44-61.44 61.44H197.12c-33.28 0-61.44-28.16-61.44-61.44V238.08c0-33.28 28.16-61.44 61.44-61.44h30.72c17.92 0 30.72-12.8 30.72-30.72s-12.8-30.72-30.72-30.72H197.12C130.56 115.2 76.8 171.52 76.8 238.08V819.2c0 66.56 53.76 122.88 122.88 122.88h611.84c66.56 0 122.88-53.76 122.88-122.88V238.08c-2.56-66.56-56.32-122.88-125.44-122.88z"
    p-id="2488" fill="#ffffff"></path>
  <path
    d="M289.28 360.96H716.8c17.92 0 30.72-12.8 30.72-30.72s-12.8-30.72-30.72-30.72H289.28c-17.92 0-30.72 12.8-30.72 30.72s15.36 30.72 30.72 30.72zM719.36 483.84H289.28c-17.92 0-30.72 12.8-30.72 30.72s12.8 30.72 30.72 30.72H716.8c17.92 0 30.72-12.8 30.72-30.72s-12.8-30.72-28.16-30.72zM719.36 665.6H289.28c-17.92 0-30.72 12.8-30.72 30.72s12.8 30.72 30.72 30.72H716.8c17.92 0 30.72-12.8 30.72-30.72 0-15.36-12.8-30.72-28.16-30.72zM414.72 176.64h153.6c25.6 0 46.08-20.48 46.08-46.08s-20.48-46.08-46.08-46.08h-153.6c-25.6 0-46.08 20.48-46.08 46.08s20.48 46.08 46.08 46.08z"
    p-id="2489" fill="#ffffff"></path>
  <path
    d="M808.96 115.2h-30.72c-17.92 0-30.72 12.8-30.72 30.72s12.8 30.72 30.72 30.72h30.72C844.8 176.64 870.4 204.8 870.4 238.08V819.2c0 33.28-28.16 61.44-61.44 61.44H197.12c-33.28 0-61.44-28.16-61.44-61.44V238.08c0-33.28 28.16-61.44 61.44-61.44h30.72c17.92 0 30.72-12.8 30.72-30.72s-12.8-30.72-30.72-30.72H197.12C130.56 115.2 76.8 171.52 76.8 238.08V819.2c0 66.56 53.76 122.88 122.88 122.88h611.84c66.56 0 122.88-53.76 122.88-122.88V238.08c-2.56-66.56-56.32-122.88-125.44-122.88z"
    p-id="2490" fill="#ffffff"></path>
</svg>
