<!-- <svg xmlns="http://www.w3.org/2000/svg" viewBox="0 0 24 24">
  <path fill="#ffffff" d="M7.273 13.474a.556.556 0 0 0 .12.18l3.142 3.143.053.047a.557.557 0 0 0 .733-.047l5.5-5.5a.555.555 0 0 0 0-.785l-.786-.786a.555.555 0 0 0-.786 0l-4.32 4.321-1.965-1.964a.555.555 0 0 0-.785 0l-.786.786a.555.555 0 0 0-.12.605Z"/>
  <path fill="#ffffff" d="M7.273 13.474a.556.556 0 0 0 .12.18l3.142 3.143.053.047a.557.557 0 0 0 .733-.047l5.5-5.5a.555.555 0 0 0 0-.785l-.786-.786a.555.555 0 0 0-.786 0l-4.32 4.321-1.965-1.964a.555.555 0 0 0-.785 0l-.786.786a.555.555 0 0 0-.12.605Z"/>
  <path fill="#ffffff" d="M16 1H8c-.614 0-1 .387-1 1v1H4c-.686 0-1 .387-1 1v18c0 .614.314 1 1 1h16c.686 0 1-.387 1-1V4c0-.614-.314-1-1-1h-3v2h2v16H5V5h2v1c0 .613.386 1 1 1h8c.613 0 1-.387 1-1V2c0-.614-.387-1-1-1ZM9 5V3h6v2H9Z"/>
  <path fill="#ffffff" d="M16 1H8c-.614 0-1 .387-1 1v1H4c-.686 0-1 .387-1 1v18c0 .614.314 1 1 1h16c.686 0 1-.387 1-1V4c0-.614-.314-1-1-1h-3v2h2v16H5V5h2v1c0 .613.386 1 1 1h8c.613 0 1-.387 1-1V2c0-.614-.387-1-1-1ZM9 5V3h6v2H9Z"/></svg> -->

<svg t="1675650324713" viewBox="0 0 1024 1024" version="1.1" xmlns="http://www.w3.org/2000/svg" p-id="7878" width="200" height="200"><path d="M431.388444 875.804444h-215.608888c-36.522667 0-66.389333-31.516444-66.389334-70.030222V212.992c0-38.456889 29.866667-69.973333 66.332445-69.973333h491.121777c36.465778 0 66.332444 31.516444 66.332445 69.973333v311.978667c0 19.626667 19.569778 32.711111 38.172444 32.711111 18.602667 0 41.984-13.084444 41.984-32.711111v-328.248889c0-76.970667-59.733333-139.946667-132.721777-139.946667H189.610667C116.622222 56.718222 56.888889 119.694222 56.888889 196.664889v630.215111c0 76.970667 59.733333 140.003556 132.721778 140.003556h241.777777c18.602667 0 32.256-27.306667 32.256-46.933334s-13.653333-44.202667-32.256-44.202666z" fill="#ffffff" p-id="7879"></path><path d="M644.721778 284.444444H265.500444C244.224 284.444444 227.555556 303.217778 227.555556 327.111111s16.668444 42.666667 37.944888 42.666667h379.221334c21.276444 0 37.944889-18.773333 37.944889-42.666667S665.998222 284.444444 644.721778 284.444444zM682.666667 523.946667c0-23.893333-16.668444-42.666667-37.944889-42.666667H265.500444c-21.276444 0-37.944889 18.773333-37.944888 42.666667s16.668444 42.666667 37.944888 42.666666h379.221334c21.276444 0 37.944889-18.773333 37.944889-42.666666zM265.500444 678.229333c-21.276444 0-37.944889 18.773333-37.944888 42.666667s16.668444 42.666667 37.944888 42.666667h94.776889c21.276444 0 37.944889-18.773333 37.944889-42.666667s-16.668444-42.666667-37.944889-42.666667H265.500444zM957.041778 580.266667c-13.824-15.189333-45.966222-15.189333-59.733334 0l-252.017777 272.270222-116.622223-121.685333c-13.767111-15.189333-48.412444-13.312-63.146666 0-13.880889 15.189333-13.880889 50.744889 0 65.080888l139.548444 153.372445c20.423111 21.617778 42.211556 21.617778 56.718222 10.410667l295.253334-324.323556c13.084444-15.189333 13.767111-39.936 0-55.125333z" fill="#ffffff" p-id="7880"></path></svg>