<svg xmlns="http://www.w3.org/2000/svg" viewBox="0 0 24 24"><path stroke-linejoin="round" stroke-linecap="round" stroke-width="2" stroke="#646A73" d="M20 12.5V3a1 1 0 0 0-1-1H5a1 1 0 0 0-1 1v18a1 1 0 0 0 1 1h7.5"/><path stroke-linejoin="round" stroke-linecap="round" stroke-width="2" stroke-opacity=".2" stroke="#000" d="M20 12.5V3a1 1 0 0 0-1-1H5a1 1 0 0 0-1 1v18a1 1 0 0 0 1 1h7.5"/><path stroke-linejoin="round" stroke-linecap="round" stroke-width="2" stroke="#646A73" d="M8.5 6h7"/><path stroke-linejoin="round" stroke-linecap="round" stroke-width="2" stroke-opacity=".2" stroke="#000" d="M8.5 6h7"/><path stroke-linejoin="round" stroke-linecap="round" stroke-width="2" stroke="#646A73" d="M8.5 10h7"/><path stroke-linejoin="round" stroke-linecap="round" stroke-width="2" stroke-opacity=".2" stroke="#000" d="M8.5 10h7"/><path stroke-linejoin="round" stroke-linecap="round" stroke-width="2" stroke="#646A73" d="M8.5 14h3"/><path stroke-linejoin="round" stroke-linecap="round" stroke-width="2" stroke-opacity=".2" stroke="#000" d="M8.5 14h3"/><path stroke-linejoin="round" stroke-linecap="round" stroke-width="2" stroke="#646A73" d="M17.5 22v-6"/><path stroke-linejoin="round" stroke-linecap="round" stroke-width="2" stroke-opacity=".2" stroke="#000" d="M17.5 22v-6"/><path stroke-linejoin="round" stroke-linecap="round" stroke-width="2" stroke="#646A73" d="m15 17.5 2.5-2.5 2.5 2.5"/><path stroke-linejoin="round" stroke-linecap="round" stroke-width="2" stroke-opacity=".2" stroke="#000" d="m15 17.5 2.5-2.5 2.5 2.5"/></svg>