<?xml version="1.0" encoding="UTF-8"?>
<svg width="40px" height="40px" viewBox="0 0 40 40" version="1.1" xmlns="http://www.w3.org/2000/svg"
>
    <path d="M40,18.5714286 L24.6339286,18.5714286 L20,13.9375 L15.3660714,18.5714286 L2.85714286,18.5714286 L2.85714286,7.14285714 L10,7.14285714 L10,11.4285714 L38.5714286,11.4285714 L38.5714286,0 L10,0 L10,4.28571429 L0,4.28571429 L0,21.4285714 L15.3660714,21.4285714 L20,26.0625 L24.6339286,21.4285714 L37.1428571,21.4285714 L37.1428571,32.8571429 L31.4285714,32.8571429 L31.4285714,28.5714286 L2.85714286,28.5714286 L2.85714286,40 L31.4285714,40 L31.4285714,35.7142857 L40,35.7142857 L40,18.5714286 Z M12.8571429,2.85714286 L35.7142857,2.85714286 L35.7142857,8.57142857 L12.8571429,8.57142857 L12.8571429,2.85714286 Z M28.5714286,37.1428571 L5.71428571,37.1428571 L5.71428571,31.4285714 L28.5714286,31.4285714 L28.5714286,37.1428571 Z"
          id="形状"></path>
</svg>
