<svg width="22" height="23.599" xmlns="http://www.w3.org/2000/svg"><path d="M9.333 23.33a.897.897 0 0 0 .266-.651.893.893 0 0 0-.266-.651.865.865 0 0 0-.643-.273H2.86a.995.995 0 0 1-.735-.309 1.032 1.032 0 0 1-.305-.75V2.905c0-.294.102-.544.305-.752a.995.995 0 0 1 .735-.309h14.607c.286 0 .53.103.734.31.205.207.307.457.307.75v7.04c0 .254.089.47.266.65a.865.865 0 0 0 .643.273c.252 0 .467-.091.644-.273a.893.893 0 0 0 .265-.65v-7.04c0-.8-.278-1.484-.836-2.052A2.737 2.737 0 0 0 17.467 0H2.86C2.07 0 1.396.285.836.854A2.81 2.81 0 0 0 0 2.904v17.79c0 .8.279 1.484.836 2.052.56.568 1.235.853 2.024.853h5.83c.252 0 .466-.091.643-.273v.004z"/><path d="M21.172 13.707l-.066-.065a3.107 3.107 0 0 0-2.2-.916c-.774 0-1.414.421-2 1.009l-5.617 5.617.46 3.718 3.269.343a.793.793 0 0 0 .667-.22l5.39-5.39c1.157-1.158 1.273-2.918.097-4.096zm-6.243 8.314l-1.974-.175-.206-2.027 3.689-3.685 2.187 2.187-3.696 3.7zm5.185-5.183l-.513.51-2.185-2.186.458-.462c.307-.307.6-.6 1.033-.6.46 0 .896.182 1.227.513l.065.067c.638.638.535 1.54-.084 2.158h-.001zM4.618 5.272V7.09h11.565V5.272H4.618zm0 5.608v1.844h7.859V10.88H4.616h.002z"/></svg>