<?xml version="1.0" encoding="UTF-8"?>
<svg width="40px" height="45px" viewBox="0 0 40 45" version="1.1" xmlns="http://www.w3.org/2000/svg"
>
    <path d="M28.6518488,25.1213044 L7.83715117,25.1213044 C7.07763715,25.1213044 6.45969014,25.7391414 6.45969014,26.4986554 C6.45969014,27.2582244 7.07763715,27.8762264 7.83715117,27.8762264 L28.6518488,27.8762264 C29.4114178,27.8762264 30.0294198,27.2582793 30.0294198,26.4986554 C30.0294198,25.7391414 29.4114728,25.1213044 28.6518488,25.1213044 Z M28.6518488,33.0166218 L7.83715117,33.0166218 C7.07763715,33.0166218 6.45969014,33.6344588 6.45969014,34.3939728 C6.45969014,35.1535418 7.07763715,35.7715438 7.83715117,35.7715438 L28.6518488,35.7715438 C29.4114178,35.7715438 30.0294198,35.1535968 30.0294198,34.3939728 C30.0294198,33.6344588 29.4114728,33.0166218 28.6518488,33.0166218 Z M35.111704,13.6372214 C34.352135,13.6372214 33.734133,14.2551684 33.734133,15.0147374 L33.734133,41.5711742 C33.734133,41.5782113 33.734133,41.5862381 33.7340781,41.5944847 C33.6857529,41.6094936 33.5908617,41.6291205 33.4243899,41.6291205 L3.16131564,41.6291205 C2.92964051,41.6291205 2.75492205,41.4694658 2.75492205,41.2576925 L2.75492205,3.28265097 C2.75492205,3.04124478 2.80726065,2.83733331 2.85223221,2.75497701 L22.9099448,2.75497701 C23.6694589,2.75497701 24.2874608,2.13703001 24.2874608,1.37746103 C24.2874608,0.617947007 23.6695138,0 22.9099448,0 L2.8129233,0 C1.18306061,0 0,1.38053976 0,3.28259596 L0,41.2576376 C0,42.9815117 1.41814434,44.3839875 3.16126068,44.3839875 L33.4243898,44.3839875 C35.2574493,44.3839875 36.4890001,43.2535403 36.4890001,41.5711192 L36.4890001,15.0147924 C36.4890001,14.2552234 35.871218,13.6372214 35.111704,13.6372214 Z M39.5969875,0.557801578 C39.0595826,0.0204515777 38.1884093,0.0204515777 37.6510043,0.557801578 L28.5081927,9.70072314 L24.4232002,5.61573071 C23.8857953,5.07838071 23.014622,5.07838071 22.477217,5.61573071 C21.939922,6.15308071 21.939922,7.02430898 22.477217,7.56171394 L27.5352011,12.619698 C27.7932654,12.8777624 28.1433071,13.022738 28.5081927,13.022738 C28.8730783,13.022738 29.22312,12.8777624 29.4811843,12.619698 L39.5969875,2.50383982 C40.1343375,1.9663799 40.1343375,1.09515158 39.5969875,0.557801578 Z M18.6034481,8.61304846 L7.83720618,8.61304846 C7.07769216,8.61304846 6.45974515,9.23099547 6.45974515,9.99056445 C6.45974515,10.7500785 7.07769216,11.3679705 7.83720618,11.3679705 L18.6034481,11.3679705 C19.3630171,11.3679705 19.9809641,10.7500785 19.9809641,9.99056445 C19.9809641,9.23099547 19.3629621,8.61304846 18.6034481,8.61304846 Z M28.6518488,16.5083109 L7.83715117,16.5083109 C7.07763715,16.5083109 6.45969014,17.1262028 6.45969014,17.8857719 C6.45969014,18.6453409 7.07763715,19.2632329 7.83715117,19.2632329 L28.6518488,19.2632329 C29.4114178,19.2632329 30.0294198,18.6452859 30.0294198,17.8857719 C30.0294198,17.1262579 29.4114728,16.5083109 28.6518488,16.5083109 Z"
          id="形状"></path>
</svg>
