<!-- <svg t="1668760348316" class="icon" viewBox="0 0 1024 1024" version="1.1" xmlns="http://www.w3.org/2000/svg" p-id="13278" width="400" height="400"><path d="M537.6 780.8H275.456c-19.456 0-31.744-12.8-31.744-31.744 0-19.456 12.8-31.744 31.744-31.744h268.8c12.8-38.4 31.744-76.8 57.344-102.4H275.456c-19.456 0-31.744-12.8-31.744-31.744s12.8-31.744 31.744-31.744h435.2c19.456-6.144 38.4-6.144 51.2-6.144 51.2 0 96.256 19.456 134.144 44.544V230.4c0-64-51.2-115.2-115.2-115.2h-19.456v121.856c0 64-51.2 115.2-115.2 115.2H345.6C281.6 351.744 230.4 300.544 230.4 236.544V115.2h-31.744c-64 0-115.2 51.2-115.2 115.2v640c0 64 51.2 115.2 115.2 115.2h505.856c-90.112-18.944-160.768-102.4-166.912-204.8z" p-id="13279" fill="#ffffff"></path><path d="M345.6 294.4h301.056c31.744 0 57.344-25.6 57.344-57.344V115.2H588.8c-6.144-44.544-45.056-82.944-96.256-82.944-45.056 0-83.456 38.4-89.6 82.944H287.744v121.856c0 31.744 25.6 57.344 57.856 57.344z m556.544 365.056c-31.744-38.4-82.944-64-134.144-64h-31.744c-19.456 0-31.744 6.656-51.2 19.456-38.4 19.456-70.656 57.344-89.6 102.4-6.144 19.456-6.144 38.4-6.144 57.344v6.144c6.144 96.256 82.944 166.4 173.056 166.4 51.2 0 102.4-25.6 134.144-64 25.6-31.744 38.4-70.656 38.4-115.2 6.144-38.4-13.312-76.8-32.768-108.544z m-37.888 82.944l-102.4 102.4c-12.8 12.8-25.6 12.8-38.4 0l-64-64c-12.8-12.8-12.8-25.6 0-38.4s25.6-12.8 38.4 0l31.744 31.744 12.8 12.8 82.944-82.944c12.8-12.8 25.6-12.8 38.4 0s12.8 25.6 0.512 38.4z" p-id="13280" fill="#ffffff"></path></svg> -->

<svg xmlns="http://www.w3.org/2000/svg" viewBox="0 0 24 24">
  <path fill="#ffffff" d="M7.273 13.474a.556.556 0 0 0 .12.18l3.142 3.143.053.047a.557.557 0 0 0 .733-.047l5.5-5.5a.555.555 0 0 0 0-.785l-.786-.786a.555.555 0 0 0-.786 0l-4.32 4.321-1.965-1.964a.555.555 0 0 0-.785 0l-.786.786a.555.555 0 0 0-.12.605Z"/>
  <path fill="#ffffff" d="M7.273 13.474a.556.556 0 0 0 .12.18l3.142 3.143.053.047a.557.557 0 0 0 .733-.047l5.5-5.5a.555.555 0 0 0 0-.785l-.786-.786a.555.555 0 0 0-.786 0l-4.32 4.321-1.965-1.964a.555.555 0 0 0-.785 0l-.786.786a.555.555 0 0 0-.12.605Z"/>
  <path fill="#ffffff" d="M16 1H8c-.614 0-1 .387-1 1v1H4c-.686 0-1 .387-1 1v18c0 .614.314 1 1 1h16c.686 0 1-.387 1-1V4c0-.614-.314-1-1-1h-3v2h2v16H5V5h2v1c0 .613.386 1 1 1h8c.613 0 1-.387 1-1V2c0-.614-.387-1-1-1ZM9 5V3h6v2H9Z"/>
  <path fill="#ffffff" d="M16 1H8c-.614 0-1 .387-1 1v1H4c-.686 0-1 .387-1 1v18c0 .614.314 1 1 1h16c.686 0 1-.387 1-1V4c0-.614-.314-1-1-1h-3v2h2v16H5V5h2v1c0 .613.386 1 1 1h8c.613 0 1-.387 1-1V2c0-.614-.387-1-1-1ZM9 5V3h6v2H9Z"/></svg>
