<svg width="40" height="44" xmlns="http://www.w3.org/2000/svg"><path d="M35.112 13.52c-.76 0-1.378.612-1.378 1.365v26.35a1.08 1.08 0 0 1-.31.034H3.161c-.231 0-.406-.158-.406-.368V3.254c0-.24.052-.441.097-.523H22.91c.76 0 1.377-.612 1.377-1.365S23.67 0 22.91 0H2.813C1.183 0 0 1.369 0 3.254v37.647C0 42.61 1.418 44 3.161 44h30.263c1.833 0 3.065-1.12 3.065-2.789V14.885c0-.753-.618-1.366-1.377-1.366zM39.597.552a1.385 1.385 0 0 0-1.946 0l-9.143 9.064-4.085-4.05a1.385 1.385 0 0 0-1.946 0 1.356 1.356 0 0 0 0 1.93l5.058 5.014a1.382 1.382 0 0 0 1.946 0L39.597 2.482a1.356 1.356 0 0 0 0-1.929zm-20.994 15.96H7.837c-.76 0-1.377.612-1.377 1.365s.618 1.366 1.377 1.366h10.766c.76 0 1.378-.613 1.378-1.366 0-.753-.618-1.365-1.378-1.365zm10.049 11.81H7.837c-.76 0-1.377.612-1.377 1.365s.618 1.365 1.377 1.365h20.815c.76 0 1.377-.612 1.377-1.365s-.618-1.366-1.377-1.366z"/></svg>