<svg width="40" height="47" xmlns="http://www.w3.org/2000/svg"><path d="M.02 4.914A4.493 4.493 0 0 1 4.493 0h31.014a4.493 4.493 0 0 1 4.473 4.914l-3.02 32.202a4.493 4.493 0 0 1-2.59 3.662l-12.487 5.763a4.493 4.493 0 0 1-3.766 0L5.63 40.776a4.493 4.493 0 0 1-2.59-3.66L.02 4.914zm5.257 31.993L4.493 4.493l3.02 32.203L20 42.461l12.487-5.765 3.02-32.203H4.493" fill="currentColor"/><path d="M.02 4.914A4.493 4.493 0 0 1 4.493 0h31.014a4.493 4.493 0 0 1 4.473 4.914l-3.02 32.202a4.493 4.493 0 0 1-2.59 3.662l-12.487 5.763a4.493 4.493 0 0 1-3.766 0L5.63 40.776a4.493 4.493 0 0 1-2.59-3.66L.02 4.914zm5.257 31.993L4.493 4.493l3.02 32.203L20 42.461l12.487-5.765 3.02-32.203H4.493" fill-opacity=".2" fill="currentColor"/><path d="M9.56 9.735a2.247 2.247 0 0 1 1.673-.748h17.974a2.247 2.247 0 1 1 0 4.493H13.743l.624 5.617h13.717a2.247 2.247 0 0 1 2.238 2.45l-1.124 12.356a2.247 2.247 0 0 1-1.233 1.807l-6.74 3.37a2.247 2.247 0 0 1-2.01 0l-6.74-3.37a2.247 2.247 0 0 1-1.23-1.784l-.562-5.617a2.247 2.247 0 0 1 4.47-.45l.439 4.386 4.628 2.314 4.617-2.307.787-8.661H12.357a2.247 2.247 0 0 1-2.234-2L9 11.481c-.07-.635.133-1.27.56-1.746z" fill="currentColor"/><path d="M9.56 9.735a2.247 2.247 0 0 1 1.673-.748h17.974a2.247 2.247 0 1 1 0 4.493H13.743l.624 5.617h13.717a2.247 2.247 0 0 1 2.238 2.45l-1.124 12.356a2.247 2.247 0 0 1-1.233 1.807l-6.74 3.37a2.247 2.247 0 0 1-2.01 0l-6.74-3.37a2.247 2.247 0 0 1-1.23-1.784l-.562-5.617a2.247 2.247 0 0 1 4.47-.45l.439 4.386 4.628 2.314 4.617-2.307.787-8.661H12.357a2.247 2.247 0 0 1-2.234-2L9 11.481c-.07-.635.133-1.27.56-1.746z" fill-opacity=".2" fill="currentColor"/></svg>