<svg xmlns="http://www.w3.org/2000/svg" viewBox="0 0 24 24"><path fill="#646A73" d="M3.009 4.187A2 2 0 0 1 5 2h13.804a2 2 0 0 1 1.991 2.187L19.451 18.52a2 2 0 0 1-1.153 1.63l-5.558 2.565a2 2 0 0 1-1.676 0l-5.558-2.566a2 2 0 0 1-1.153-1.629L3.009 4.187Zm2.34 14.24L5 4l1.344 14.333 5.558 2.566 5.558-2.566L18.804 4H5" clip-rule="evenodd" fill-rule="evenodd"/><path fill-opacity=".2" fill="#000" d="M3.009 4.187A2 2 0 0 1 5 2h13.804a2 2 0 0 1 1.991 2.187L19.451 18.52a2 2 0 0 1-1.153 1.63l-5.558 2.565a2 2 0 0 1-1.676 0l-5.558-2.566a2 2 0 0 1-1.153-1.629L3.009 4.187Zm2.34 14.24L5 4l1.344 14.333 5.558 2.566 5.558-2.566L18.804 4H5" clip-rule="evenodd" fill-rule="evenodd"/><path fill="#646A73" d="M7.255 6.333A1 1 0 0 1 8 6h8a1 1 0 1 1 0 2H9.117l.278 2.5H15.5a1 1 0 0 1 .996 1.09l-.5 5.5a1 1 0 0 1-.549.804l-3 1.5a1 1 0 0 1-.894 0l-3-1.5a1 1 0 0 1-.548-.794l-.25-2.5a1 1 0 1 1 1.99-.2l.195 1.952 2.06 1.03 2.055-1.027.35-3.855H8.5a1 1 0 0 1-.994-.89l-.5-4.5a1 1 0 0 1 .249-.777Z" clip-rule="evenodd" fill-rule="evenodd"/><path fill-opacity=".2" fill="#000" d="M7.255 6.333A1 1 0 0 1 8 6h8a1 1 0 1 1 0 2H9.117l.278 2.5H15.5a1 1 0 0 1 .996 1.09l-.5 5.5a1 1 0 0 1-.549.804l-3 1.5a1 1 0 0 1-.894 0l-3-1.5a1 1 0 0 1-.548-.794l-.25-2.5a1 1 0 1 1 1.99-.2l.195 1.952 2.06 1.03 2.055-1.027.35-3.855H8.5a1 1 0 0 1-.994-.89l-.5-4.5a1 1 0 0 1 .249-.777Z" clip-rule="evenodd" fill-rule="evenodd"/></svg>