<svg xmlns="http://www.w3.org/2000/svg" viewBox="0 0 24 24"><g clip-path="url(#a)" stroke-linejoin="round" stroke-width="2" stroke="#646A73" data-follow-stroke="#646A73"><path stroke-linecap="round" d="m1.5 11.666 3.75 3.75a.758.758 0 0 0 1.071 0L9 12.739a.758.758 0 0 0 0-1.072l-3.75-3.75"/><path d="m8.464 17.56 2.679-2.68a.758.758 0 0 1 1.071 0l3.75 3.75a.758.758 0 0 1 0 1.072l-2.678 2.679a.758.758 0 0 1-1.072 0l-3.75-3.75a.758.758 0 0 1 0-1.072Z"/><path stroke-linecap="round" d="m6.054 12.47 5.357 5.357M22.685 12.75 18.935 9a.758.758 0 0 0-1.072 0l-2.678 2.679a.758.758 0 0 0 0 1.071l3.75 3.75"/><path d="m15.72 6.857-2.678 2.679a.758.758 0 0 1-1.072 0l-3.75-3.75a.758.758 0 0 1 0-1.072L10.9 2.036a.758.758 0 0 1 1.071 0l3.75 3.75a.758.758 0 0 1 0 1.071Z"/><path stroke-linecap="round" d="M18.131 11.946 12.774 6.59"/></g><defs><clipPath id="a"><path fill="#fff" d="M0 0h24v24H0z" data-follow-fill="#fff"/></clipPath></defs></svg>