<svg t="1692599903517" class="icon" viewBox="0 0 1170 1024" version="1.1" xmlns="http://www.w3.org/2000/svg" p-id="3540" width="200" height="200"><path d="M1170.285714 1024H0V329.142857h73.142857v621.714286h1024V329.142857h73.142857v694.857143z" p-id="3541" fill="#2c2c2c"></path><path d="M1170.285714 512H0V256a109.714286 109.714286 0 0 1 109.714286-109.714286h950.857143a109.714286 109.714286 0 0 1 109.714285 109.714286zM73.142857 438.857143h1024V256a36.571429 36.571429 0 0 0-36.571428-36.571429H109.714286a36.571429 36.571429 0 0 0-36.571429 36.571429z" p-id="3542" fill="#2c2c2c"></path><path d="M292.571429 365.714286h73.142857v219.428571H292.571429zM804.571429 365.714286h73.142857v219.428571h-73.142857zM438.857143 182.857143h-73.142857V0h438.857143v182.857143h-73.142858V73.142857h-292.571428v109.714286z" p-id="3543" fill="#2c2c2c"></path></svg>
