<!-- <svg xmlns="http://www.w3.org/2000/svg" viewBox="0 0 24 24"><g clip-path="url(#a)" stroke-linejoin="round" stroke-width="2" stroke="#646A73" data-follow-stroke="#646A73"><path stroke-linecap="round" d="m1.5 11.666 3.75 3.75a.758.758 0 0 0 1.071 0L9 12.739a.758.758 0 0 0 0-1.072l-3.75-3.75"/><path d="m8.464 17.56 2.679-2.68a.758.758 0 0 1 1.071 0l3.75 3.75a.758.758 0 0 1 0 1.072l-2.678 2.679a.758.758 0 0 1-1.072 0l-3.75-3.75a.758.758 0 0 1 0-1.072Z"/><path stroke-linecap="round" d="m6.054 12.47 5.357 5.357M22.685 12.75 18.935 9a.758.758 0 0 0-1.072 0l-2.678 2.679a.758.758 0 0 0 0 1.071l3.75 3.75"/><path d="m15.72 6.857-2.678 2.679a.758.758 0 0 1-1.072 0l-3.75-3.75a.758.758 0 0 1 0-1.072L10.9 2.036a.758.758 0 0 1 1.071 0l3.75 3.75a.758.758 0 0 1 0 1.071Z"/><path stroke-linecap="round" d="M18.131 11.946 12.774 6.59"/></g><defs><clipPath id="a"><path fill="#fff" d="M0 0h24v24H0z" data-follow-fill="#fff"/></clipPath></defs></svg> -->

<svg t="1676621647477" class="icon" viewBox="0 0 1024 1024" version="1.1" xmlns="http://www.w3.org/2000/svg" p-id="3494" width="120" height="120"><path d="M910.208254 96.740698H682.659048a17.073905 17.073905 0 0 0-16.616772 13.153992l-0.457133 3.908484v227.549207a17.142474 17.142474 0 0 0 13.153992 16.616771l3.919913 0.445705h227.549206a17.073905 17.073905 0 0 0 16.616772-13.153992l0.445705-3.908484V113.780317A17.073905 17.073905 0 0 0 914.116738 97.163545zM341.329524 665.608H113.780317a17.142474 17.142474 0 0 0-16.616772 13.153992l-0.399991 3.919912v227.549207a17.073905 17.073905 0 0 0 13.142564 16.616772l3.919913 0.445704h227.503493a17.073905 17.073905 0 0 0 16.616772-13.153992l0.445704-3.908484V682.681904a17.073905 17.073905 0 0 0-13.153992-16.616772zM910.208254 0.022857A113.780317 113.780317 0 0 1 1023.977143 113.780317v227.572064a113.780317 113.780317 0 0 1-113.768889 113.780317H844.781143v122.282985h65.427111a105.243365 105.243365 0 0 1 104.923373 97.014977l0.319992 8.228388v284.462222a48.364635 48.364635 0 0 1-96.340706 6.057007l-0.377135-6.057007V682.681904a8.548381 8.548381 0 0 0-5.828441-8.102676l-2.697083-0.434276H682.659048a8.548381 8.548381 0 0 0-8.102676 5.83987l-0.434277 2.697082v284.439366a48.353206 48.353206 0 0 1-96.329278 6.057007l-0.377134-6.057007V682.681904a105.243365 105.243365 0 0 1 97.014977-104.911944l8.228388-0.319992 65.415682-0.057142v-122.282985h-65.415682a113.780317 113.780317 0 0 1-113.780318-113.780317V113.780317A113.780317 113.780317 0 0 1 682.659048 0z m-511.988571 8.536952a48.364635 48.364635 0 0 1 47.998928 42.28477l0.377135 6.068436v284.439366a105.243365 105.243365 0 0 1-97.014978 104.923372l-8.228387 0.319993h-65.43854v122.282984h65.415683a113.780317 113.780317 0 0 1 113.780317 113.780318v227.572063A113.780317 113.780317 0 0 1 341.329524 1024H113.780317A113.780317 113.780317 0 0 1 0 910.231111V682.681904a113.780317 113.780317 0 0 1 113.780317-113.780317h65.415683v-122.282985H113.780317a105.243365 105.243365 0 0 1-104.923372-97.014977l-0.319993-8.228388V56.913015a48.353206 48.353206 0 0 1 96.329279-6.068436l0.377134 6.068436v284.439366a8.548381 8.548381 0 0 0 5.83987 8.102676l2.697082 0.434276h227.549207a8.548381 8.548381 0 0 0 8.102676-5.83987l0.434276-2.697082V56.913015a48.353206 48.353206 0 0 1 48.353207-48.353206z" fill="#000000" p-id="3495"></path></svg>