<?xml version="1.0" encoding="UTF-8"?>
<svg width="40px" height="35px" viewBox="0 0 40 35" version="1.1" xmlns="http://www.w3.org/2000/svg"
>
    <title>tools</title>


    <polygon id="路径" points="40 35 0 35 0 11.25 2.5 11.25 2.5 32.5 37.5 32.5 37.5 11.25 40 11.25"></polygon>
    <path d="M40,17.5 L0,17.5 L0,8.75 C0,6.67893218 1.67893219,4.99999999 3.75000001,4.99999999 L36.25,4.99999999 C38.3210678,4.99999999 40,6.6789322 40,8.75 L40,17.5 Z M2.5,15 L37.5,15 L37.5,8.75 C37.5,8.05964407 36.940356,7.49999999 36.25,7.49999999 L3.75000001,7.49999999 C3.05964407,7.49999999 2.5,8.05964406 2.5,8.75 L2.5,15 Z"
          id="形状"></path>
    <path d="M10,12.5 L12.5,12.5 L12.5,20 L10,20 L10,12.5 Z M27.5,12.5 L30,12.5 L30,20 L27.5,20 L27.5,12.5 Z M15,6.25000001 L12.5,6.25000001 L12.5,0 L27.5,0 L27.5,6.25000001 L25,6.25000001 L25,2.5 L15,2.5 L15,6.25000001 Z"
          id="形状"></path>


</svg>
