<svg width="40" height="40" xmlns="http://www.w3.org/2000/svg"><path d="M39.598 28.116c.268.308.402.667.402 1.077v9.236c0 .444-.134.812-.402 1.103-.268.29-.596.436-.983.436H30.57c-.358 0-.67-.146-.939-.436-.268-.29-.402-.659-.402-1.103v-9.236c0-.273.06-.53.179-.769.12-.24.283-.427.491-.564a1.2 1.2 0 0 1 .671-.206h3.04V21.55a1.2 1.2 0 0 0-.135-.565 1.115 1.115 0 0 0-.357-.41.848.848 0 0 0-.492-.154H21.229v7.234h3.04c.357 0 .67.154.938.462.268.308.402.667.402 1.077v9.236c0 .273-.06.53-.179.77-.119.239-.283.427-.492.564a1.2 1.2 0 0 1-.67.205h-8.045a1.2 1.2 0 0 1-.67-.205 1.586 1.586 0 0 1-.514-.565 1.55 1.55 0 0 1-.201-.77v-9.235c0-.41.134-.769.402-1.077.268-.308.596-.462.983-.462h2.995V20.42H7.374a.934.934 0 0 0-.737.334 1.17 1.17 0 0 0-.29.795v6.105h3.039c.387 0 .707.154.96.462.253.308.38.667.38 1.077v9.236c0 .444-.126.812-.38 1.103-.253.29-.573.436-.96.436H1.34c-.15 0-.291-.026-.425-.077a1.281 1.281 0 0 1-.648-.539 1.62 1.62 0 0 1-.2-.436A1.74 1.74 0 0 1 0 38.43v-9.236c0-.136.015-.273.045-.41.025-.126.07-.247.134-.36.06-.102.134-.204.223-.307.09-.103.179-.188.268-.256a.93.93 0 0 1 .313-.154c.12-.035.239-.052.358-.052H4.38V19.24c0-.308.097-.573.29-.795.194-.223.425-.334.693-.334h13.855v-5.746h-2.995c-.387 0-.715-.153-.983-.461a1.59 1.59 0 0 1-.402-1.078V1.59c0-.444.134-.82.402-1.128.268-.308.596-.462.983-.462h8.045c.239 0 .462.077.67.23.21.155.378.358.492.59.12.24.18.497.18.77v9.236c0 .41-.135.77-.403 1.077-.269.308-.581.462-.939.462H21.23v5.746h13.363c.298 0 .544.111.738.334.193.222.29.487.29.795v8.414h2.995c.387 0 .715.154.983.462z"/></svg>