<!-- <?xml version="1.0" encoding="UTF-8"?><svg width="24" height="24" viewBox="0 0 48 48" xmlns="http://www.w3.org/2000/svg"><mask id="icon-6e6df77f10b972" maskUnits="userSpaceOnUse" x="0" y="0" width="48" height="48" style="mask-type: alpha"><path d="M48 0H0V48H48V0Z" fill="#333"/></mask><g mask="url(#icon-6e6df77f10b972)"><path d="M6 24.0083V42H42V24" stroke="#333" stroke-width="4" stroke-linecap="round" stroke-linejoin="round"/><path d="M33 15L24 6L15 15" stroke="#333" stroke-width="4" stroke-linecap="round" stroke-linejoin="round"/><path d="M23.9917 32V6" stroke="#333" stroke-width="4" stroke-linecap="round" stroke-linejoin="round"/></g></svg> -->

<svg t="1676635836032" class="icon" viewBox="0 0 1024 1024" version="1.1" xmlns="http://www.w3.org/2000/svg" p-id="2432" width="200" height="200"><path d="M428.8 311.466667l53.333333-53.333334v347.733334c0 23.466667 19.2 42.666667 42.666667 42.666666s42.666667-19.2 42.666667-42.666666V258.133333l53.333333 53.333334c8.533333 8.533333 19.2 12.8 29.866667 12.8s21.333333-4.266667 29.866666-12.8c17.066667-17.066667 17.066667-42.666667 0-59.733334l-117.333333-117.333333c-21.333333-21.333333-59.733333-21.333333-81.066667 0l-115.2 115.2c-17.066667 17.066667-17.066667 42.666667 0 59.733333 17.066667 19.2 44.8 19.2 61.866667 2.133334z" p-id="2433" fill="#000000"></path><path d="M866.133333 565.333333c-23.466667 0-42.666667 19.2-42.666666 42.666667v170.666667c0 12.8-8.533333 21.333333-21.333334 21.333333h-554.666666c-12.8 0-21.333333-8.533333-21.333334-21.333333v-170.666667c0-23.466667-19.2-42.666667-42.666666-42.666667s-42.666667 19.2-42.666667 42.666667v170.666667c0 59.733333 46.933333 106.666667 106.666667 106.666666h554.666666c59.733333 0 106.666667-46.933333 106.666667-106.666666v-170.666667c0-23.466667-19.2-42.666667-42.666667-42.666667z" p-id="2434" fill="#000000"></path></svg>
