<?xml version="1.0" encoding="UTF-8"?>
<svg width="40px" height="40px" viewBox="0 0 40 40" version="1.1" xmlns="http://www.w3.org/2000/svg"
>
    <path d="M15,10.0555556 L17.7777778,7.27777775 L17.7777778,25.3888889 C17.7777778,26.6111111 18.7777778,27.6111111 20,27.6111111 C21.2222222,27.6111111 22.2222222,26.6111111 22.2222222,25.3888889 L22.2222222,7.27777775 L25,10.0555556 C25.4444444,10.5 26,10.7222222 26.5555556,10.7222222 C27.1111111,10.7222222 27.6666667,10.5 28.1111111,10.0555556 C29,9.16666665 29,7.83333332 28.1111111,6.94444441 L22,0.83333332 C20.8888889,-0.277777773 18.8888889,-0.277777773 17.7777778,0.83333332 L11.7777778,6.83333332 C10.8888889,7.72222223 10.8888889,9.05555556 11.7777778,9.94444441 C12.6666667,10.9444444 14.1111111,10.9444444 15,10.0555556 Z"
          id="路径"></path>
    <path d="M37.7777778,23.2777777 C36.5555555,23.2777777 35.5555555,24.2777777 35.5555556,25.5 L35.5555556,34.3888889 C35.5555556,35.0555556 35.1111111,35.5 34.4444444,35.5 L5.55555557,35.5 C4.88888891,35.5 4.44444448,35.0555556 4.44444443,34.3888889 L4.44444443,25.5 C4.44444443,24.2777777 3.44444443,23.2777777 2.22222224,23.2777777 C1,23.2777777 0,24.2777777 0,25.5 L0,34.3888889 C0,37.5 2.44444443,39.9444444 5.55555557,39.9444444 L34.4444444,39.9444444 C37.5555555,39.9444444 40,37.5 40,34.3888889 L40,25.5 C40,24.2777777 39,23.2777777 37.7777778,23.2777777 Z"
          id="路径"></path>
</svg>
