<svg width="24" height="24" xmlns="http://www.w3.org/2000/svg"><path d="M20.889 13.655c.611 0 1.111.5 1.111 1.113v4.45A2.753 2.753 0 0 1 19.222 22H4.778A2.753 2.753 0 0 1 2 19.218v-4.45c0-.612.5-1.113 1.111-1.113s1.111.5 1.111 1.113v4.45c0 .334.222.557.556.557h14.444c.334 0 .556-.223.556-.557v-4.45c0-.612.5-1.113 1.11-1.113zm-10-11.238c.555-.556 1.555-.556 2.111 0l3.056 3.06a1.077 1.077 0 0 1 0 1.558c-.223.222-.5.334-.778.334s-.556-.112-.778-.334l-1.389-1.391v9.068c0 .612-.5 1.113-1.111 1.113s-1.111-.5-1.111-1.113V5.644L9.5 7.034a1.094 1.094 0 0 1-1.611-.055 1.077 1.077 0 0 1 0-1.558z" fill="currentColor"/></svg>