<svg xmlns="http://www.w3.org/2000/svg" fill="none" viewBox="0 0 24 24"><path fill="#646A73" d="M2.997 20.673a1 1 0 0 0 .864.99l.136.01h16.676a1 1 0 0 0 .99-.865l.01-.135v-6.166a.5.5 0 0 0-.4-.49l-.1-.01h-1a.5.5 0 0 0-.49.4l-.01.1v5.166H4.997V6.278l4.503.001a.5.5 0 0 0 .5-.5v-1a.5.5 0 0 0-.5-.5H3.497a.5.5 0 0 0-.49.4l-.01.1v15.894Z"/><path fill-opacity=".2" fill="#000" d="M2.997 20.673a1 1 0 0 0 .864.99l.136.01h16.676a1 1 0 0 0 .99-.865l.01-.135v-6.166a.5.5 0 0 0-.4-.49l-.1-.01h-1a.5.5 0 0 0-.49.4l-.01.1v5.166H4.997V6.278l4.503.001a.5.5 0 0 0 .5-.5v-1a.5.5 0 0 0-.5-.5H3.497a.5.5 0 0 0-.49.4l-.01.1v15.894Z"/><path stroke-linejoin="round" stroke-linecap="round" stroke-width="2" stroke="#646A73" d="M16 13V4"/><path stroke-linejoin="round" stroke-linecap="round" stroke-width="2" stroke-opacity=".2" stroke="#000" d="M16 13V4"/><path stroke-linejoin="round" stroke-linecap="round" stroke-width="2" stroke="#646A73" d="m12 8 4-4 4 4"/><path stroke-linejoin="round" stroke-linecap="round" stroke-width="2" stroke-opacity=".2" stroke="#000" d="m12 8 4-4 4 4"/></svg>