<?xml version="1.0" encoding="UTF-8"?>
<svg width="42px" height="42px" viewBox="0 0 42 42" version="1.1" xmlns="http://www.w3.org/2000/svg" xmlns:xlink="http://www.w3.org/1999/xlink">
    <title>user</title>
    <g id="jumpserver" stroke="none" stroke-width="1" fill="none" fill-rule="evenodd">
        <g id="user" transform="translate(1, 1)" fill="#000000" fill-rule="nonzero" stroke="#979797">
            <path d="M19.5124244,20.0247548 C25.9778147,20.0247548 31.218939,15.5413155 31.218939,10.0122207 C31.218939,4.48187259 25.9778147,0 19.5124244,0 C13.0476608,0 7.80559647,4.48187259 7.80622317,10.0122207 C7.80622317,15.5413155 13.0476608,20.0247548 19.5127378,20.0247548 L19.5124244,20.0247548 Z M24.8788895,23.3632062 L15.1223639,23.3632062 C6.77090841,23.3632062 0,29.1530097 0,36.2952402 L0,37.1300097 C0,40.0491963 6.77090841,40.0520164 15.1223639,40.0520164 L24.8788895,40.0520164 C33.2294049,40.0520164 40,39.9442234 40,37.1300097 L40,36.2955535 C40,29.1530097 33.2300316,23.3632062 24.8788895,23.3632062 L24.8788895,23.3632062 Z" id="形状"></path>
        </g>
    </g>
</svg>