<svg t="1716519874100" class="icon" viewBox="0 0 1024 1024" version="1.1" xmlns="http://www.w3.org/2000/svg" p-id="1601" width="200" height="200"><path d="M772.016477 696.022177c-39.228443-39.229466-85.763292-68.49807-136.530536-86.546122 26.774807-13.283538 51.500954-30.976502 73.254398-52.729945 52.55189-52.550867 81.494059-122.422214 81.494059-196.74085s-28.941146-144.189983-81.494059-196.741873c-52.550867-52.550867-122.422214-81.493036-196.74085-81.493036s-144.189983 28.942169-196.741873 81.493036c-52.55189 52.550867-81.494059 122.422214-81.494059 196.741873s28.941146 144.189983 81.494059 196.74085c21.753443 21.753443 46.480614 39.446407 73.256444 52.729945-50.76929 18.049075-97.303116 47.316655-136.532583 86.546122-66.188468 66.187445-104.009865 153.166425-107.422591 246.208495l48.730864 0c3.387144-80.028685 36.140105-154.783249 93.129051-211.770148 55.771211-55.771211 128.557958-88.326675 206.650547-92.867084 6.27389 0.418532 12.582573 0.645706 18.929118 0.645706 6.345522 0 12.656251-0.227174 18.929118-0.645706 78.091566 4.54041 150.880359 37.095873 206.650547 92.867084 56.987922 56.986899 89.741907 131.741463 93.129051 211.770148l48.730864 0C876.027365 849.188602 838.204945 762.209622 772.016477 696.022177zM282.466792 360.004237c0-126.564557 102.96814-229.53372 229.53372-229.53372 126.564557 0 229.53372 102.969163 229.53372 229.53372 0 120.304993-93.040023 219.280192-210.942293 228.77545-6.170536-0.304945-12.369725-0.460488-18.591427-0.460488-6.222725 0-12.420891 0.155543-18.59245 0.460488C375.505791 579.284429 282.466792 480.30923 282.466792 360.004237z" fill="#272636" p-id="1602"></path></svg>
