<?xml version="1.0" encoding="UTF-8"?>
<svg width="40px" height="38px" viewBox="0 0 40 38" version="1.1" xmlns="http://www.w3.org/2000/svg"
>
    <title>users</title>


    <path d="M12.747259,18.1318526 C10.7692387,16.2637051 9.45055851,13.5164719 9.45055851,10.5494415 C9.45055851,4.7252535 14.175812,0 20,0 C25.824188,0 30.5494415,4.7252535 30.5494415,10.5494415 C30.5494415,13.5164719 29.3406342,16.2637051 27.252741,18.1318526 C34.7252793,20.8790858 40,27.8021568 40,35.8241107 C40,37.0329181 39.0109899,37.9120554 37.9120554,37.9120554 L2.08794464,37.9120554 C0.879137295,37.9120554 -9.36978627e-16,36.9230452 -9.36978627e-16,35.8241107 C-9.36978627e-16,27.6922839 5.27472075,20.8790858 12.747259,18.1318526 Z M35.7142894,33.7362176 C34.6153549,26.5933494 28.021954,20.9889586 20,20.9889586 C11.978046,20.9889586 5.3846451,26.5933494 4.28571061,33.7362176 L35.7142894,33.7362176 Z M20,16.8131724 C23.5164977,16.8131724 26.3736037,13.9560148 26.3736037,10.4395171 C26.3736037,6.92301947 23.5164977,4.0659134 20,4.0659134 C16.4835023,4.0659134 13.6263963,6.92307098 13.6263963,10.4395171 C13.6263963,13.9559633 16.4835023,16.8131724 20,16.8131724 Z"
          id="形状"></path>


</svg>
