<svg t="1716519974859" class="icon" viewBox="0 0 1024 1024" version="1.1" xmlns="http://www.w3.org/2000/svg" p-id="4301" width="200" height="200"><path d="M355.744 568.096a32.32 32.32 0 0 1-3.744 0.224c-141.536 0-256 112.192-256 250.24a32 32 0 0 1-64 0c0-132.768 83.776-246.144 202.112-292.224-56-40-92.384-104.864-92.384-178.176 0-121.728 100.416-220.16 224-220.16a32 32 0 1 1 0 64c-88.512 0-160 70.08-160 156.16s71.488 156.16 160 156.16a32 32 0 1 1 0 64c-3.36 0-6.688-0.064-9.984-0.224z m148.096 0.736a256 256 0 1 1 272.32 0C921.024 623.776 1024 763.872 1024 928a32 32 0 0 1-64 0c0-176.736-143.264-320-320-320s-320 143.264-320 320a32 32 0 0 1-64 0c0-164.16 102.976-304.224 247.84-359.168zM640 544a192 192 0 1 0 0-384 192 192 0 0 0 0 384z" p-id="4302"></path></svg>
