<?xml version="1.0" encoding="UTF-8"?>
<svg width="40px" height="41px" viewBox="0 0 40 41" version="1.1" xmlns="http://www.w3.org/2000/svg" xmlns:xlink="http://www.w3.org/1999/xlink">
    <title>user-o</title>
    <g id="jumpserver" stroke="none" stroke-width="1" fill="none" fill-rule="evenodd">
        <g id="user-o" fill="#333333" fill-rule="nonzero">
            <path d="M39.9553184,38.2921684 C39.2627528,30.18245 33.7222292,23.4578628 26.215713,21.0227132 C29.3657688,18.9896984 31.4434654,15.4821894 31.4434654,11.4385007 C31.4434654,5.11604816 26.3050764,0 19.9826238,0 C13.6378305,0 8.5217823,5.11604816 8.5217823,11.4385007 C8.5217823,15.4598486 10.5994787,18.9896984 13.7495346,21.0227132 C6.22067768,23.4578628 0.680153904,30.1601092 0.00992925406,38.2921684 C0.00992925406,38.4262132 -0.0124115676,38.5602582 0.00992925406,38.7389848 C0.076951719,39.453891 0.702494726,40.0347524 1.41740102,40.0347524 C2.2216706,40.0347524 2.8472136,39.3868686 2.8472136,38.6049398 C3.58446072,29.7803152 11.0016135,22.8770014 20.0049646,22.8770014 C29.0083158,22.8770014 36.3807868,29.7579744 37.1627156,38.6049398 C37.1627156,39.3868686 37.7882586,40.0347524 38.5925282,40.0347524 C39.3074346,40.0347524 39.9329776,39.453891 40,38.7389848 C39.9776592,38.5379174 39.9553184,38.4262132 39.9553184,38.2921684 Z M11.3590667,11.4385007 C11.3590667,6.7022465 15.2240288,2.85962518 19.960283,2.85962518 C24.6965372,2.85962518 28.5614994,6.67990568 28.5614994,11.4385007 C28.5614994,16.1970957 24.6965372,20.0173762 19.960283,20.0173762 C15.2240288,20.0173762 11.3590667,16.1747549 11.3590667,11.4385007 Z" id="形状"></path>
        </g>
    </g>
</svg>