<svg width="40" height="38" xmlns="http://www.w3.org/2000/svg"><path d="M12.747 18.132c-1.978-1.868-3.296-4.616-3.296-7.583C9.45 4.725 14.176 0 20 0s10.55 4.725 10.55 10.55c0 2.966-1.21 5.714-3.297 7.582C34.725 20.879 40 27.802 40 35.824a2.087 2.087 0 0 1-2.088 2.088H2.088A2.087 2.087 0 0 1 0 35.824c0-8.132 5.275-14.945 12.747-17.692zm22.967 15.604C34.615 26.593 28.022 20.99 20 20.99S5.385 26.593 4.286 33.736h31.428zM20 16.813a6.378 6.378 0 0 0 6.374-6.373A6.378 6.378 0 0 0 20 4.066a6.378 6.378 0 0 0-6.374 6.374A6.378 6.378 0 0 0 20 16.813z"/></svg>