<svg t="1717036645889" class="icon" viewBox="0 0 1024 1024" version="1.1" xmlns="http://www.w3.org/2000/svg" p-id="33003" width="200" height="200"><path d="M371.2 497.067c-38.4-36.267-64-89.6-64-147.2 0-113.067 91.733-204.8 204.8-204.8s204.8 91.733 204.8 204.8c0 57.6-23.467 110.933-64 147.2C797.867 550.4 900.267 684.8 900.267 840.533c0 23.467-19.2 40.534-40.534 40.534H164.267c-23.467 0-40.534-19.2-40.534-40.534 0-157.866 102.4-290.133 247.467-343.466zM817.067 800C795.733 661.333 667.733 552.533 512 552.533S228.267 661.333 206.933 800h610.134zM512 471.467c68.267 0 123.733-55.467 123.733-123.734S580.267 224 512 224s-123.733 55.467-123.733 123.733S443.733 471.467 512 471.467z" p-id="33004" fill="#2c2c2c"></path></svg>
