<svg width="40" height="41" xmlns="http://www.w3.org/2000/svg"><path d="M39.955 38.292c-.692-8.11-6.233-14.834-13.74-17.27 3.15-2.032 5.228-5.54 5.228-9.583C31.443 5.116 26.305 0 19.983 0 13.638 0 8.522 5.116 8.522 11.439c0 4.02 2.077 7.55 5.228 9.584C6.22 23.458.68 30.16.01 38.293c0 .133-.022.267 0 .446.067.715.692 1.296 1.407 1.296.805 0 1.43-.648 1.43-1.43.737-8.825 8.155-15.728 17.158-15.728 9.003 0 16.376 6.881 17.158 15.728 0 .782.625 1.43 1.43 1.43.714 0 1.34-.581 1.407-1.296-.022-.201-.045-.313-.045-.447zM11.36 11.44c0-4.737 3.865-8.58 8.601-8.58 4.737 0 8.601 3.82 8.601 8.58 0 4.758-3.864 8.578-8.6 8.578-4.737 0-8.602-3.842-8.602-8.578z"/></svg>