<svg width="40" height="34.999" xmlns="http://www.w3.org/2000/svg"><path d="M21.813 21.031c3.442-1.925 5.792-5.56 5.792-9.78C27.605 5.038 22.569.001 16.356 0 10.143 0 5.106 5.036 5.105 11.249c0 4.187 2.317 7.797 5.713 9.735C4.525 23.039 0 28.536 0 34.999h2.5c0-6.83 6.168-12.388 13.747-12.388C23.83 22.611 30 28.17 30 35h2.5c0-6.415-4.462-11.88-10.688-13.968zM7.604 11.25c0-4.825 3.925-8.75 8.747-8.75 4.823 0 8.753 3.925 8.753 8.75s-3.925 8.75-8.753 8.75a8.76 8.76 0 0 1-8.747-8.75zM40 27.499h-2.5a9.955 9.955 0 0 0-9.125-9.92 13.85 13.85 0 0 0 1.205-3.02 4.997 4.997 0 0 0-.86-9.39 13.675 13.675 0 0 0-1.677-2.623c.155-.01.3-.047.457-.047 4.135 0 7.5 3.365 7.5 7.5a7.488 7.488 0 0 1-2.862 5.89A12.525 12.525 0 0 1 40 27.499z"/></svg>