<svg width="20px" height="20.0173762px" viewBox="0 0 20 20.0173762" version="1.1" xmlns="http://www.w3.org/2000/svg">
    <path d="M19.9776592,19.1460842 C19.6313764,15.091225 16.8611146,11.7289314 13.1078565,10.5113566 C14.6828844,9.4948492 15.7217327,7.7410947 15.7217327,5.71925034 C15.7217327,2.55802408 13.1525382,0 9.9913119,0 C6.81891523,0 4.26089115,2.55802408 4.26089115,5.71925034 C4.26089115,7.72992429 5.29973936,9.4948492 6.87476728,10.5113566 C3.11033884,11.7289314 0.340076952,15.0800546 0.00496462703,19.1460842 C0.00496462703,19.2131066 -0.00620578379,19.2801291 0.00496462703,19.3694924 C0.0384758595,19.7269455 0.351247363,20.0173762 0.708700509,20.0173762 C1.1108353,20.0173762 1.4236068,19.6934343 1.4236068,19.3024699 C1.79223036,14.8901576 5.50080675,11.4385007 10.0024823,11.4385007 C14.5041579,11.4385007 18.1903934,14.8789872 18.5813578,19.3024699 C18.5813578,19.6934343 18.8941293,20.0173762 19.2962641,20.0173762 C19.6537173,20.0173762 19.9664888,19.7269455 20,19.3694924 C19.9888296,19.2689587 19.9776592,19.2131066 19.9776592,19.1460842 Z M5.67953333,5.71925034 C5.67953333,3.35112325 7.6120144,1.42981259 9.98014149,1.42981259 C12.3482686,1.42981259 14.2807497,3.33995284 14.2807497,5.71925034 C14.2807497,8.09854785 12.3482686,10.0086881 9.98014149,10.0086881 C7.6120144,10.0086881 5.67953333,8.08737744 5.67953333,5.71925034 Z"
          id="形状"></path>
</svg>
