<!-- <?xml version="1.0" standalone="no"?><!DOCTYPE svg PUBLIC "-//W3C//DTD SVG 1.1//EN" "http://www.w3.org/Graphics/SVG/1.1/DTD/svg11.dtd"><svg t="1584946536066" class="icon" viewBox="0 0 1098 1024" version="1.1" xmlns="http://www.w3.org/2000/svg" p-id="1157" xmlns:xlink="http://www.w3.org/1999/xlink" width="214.453125" height="200"><defs><style type="text/css"></style></defs><path d="M338.857143 512q-92.571429 2.857143-151.428571 73.142857l-76.571429 0q-46.857143 0-78.857143-23.142857t-32-67.714286q0-201.714286 70.857143-201.714286 3.428571 0 24.857143 12t55.714286 24.285714 68 12.285714q38.285714 0 76-13.142857-2.857143 21.142857-2.857143 37.714286 0 79.428571 46.285714 146.285714zm612 364q0 68.571429-41.714286 108.285714t-110.857143 39.714286l-499.428571 0q-69.142857 0-110.857143-39.714286t-41.714286-108.285714q0-30.285714 2-59.142857t8-62.285714 15.142857-62 24.571429-55.714286 35.428571-46.285714 48.857143-30.571429 63.714286-11.428571q5.714286 0 24.571429 12.285714t41.714286 27.428571 61.142857 27.428571 77.142857 12.285714 77.142857-12.285714 61.142857-27.428571 41.714286-27.428571 24.571429-12.285714q34.857143 0 63.714286 11.428571t48.857143 30.571429 35.428571 46.285714 24.571429 55.714286 15.142857 62 8 62.285714 2 59.142857zm-585.142857-729.714286q0 60.571429-42.857143 103.428571t-103.428571 42.857143-103.428571-42.857143-42.857143-103.428571 42.857143-103.428571 103.428571-42.857143 103.428571 42.857143 42.857143 103.428571zm402.285714 219.428571q0 90.857143-64.285714 155.142857t-155.142857 64.285714-155.142857-64.285714-64.285714-155.142857 64.285714-155.142857 155.142857-64.285714 155.142857 64.285714 64.285714 155.142857zm329.142857 128.571429q0 44.571429-32 67.714286t-78.857143 23.142857l-76.571429 0q-58.857143-70.285714-151.428571-73.142857 46.285714-66.857143 46.285714-146.285714 0-16.571429-2.857143-37.714286 37.714286 13.142857 76 13.142857 33.714286 0 68-12.285714t55.714286-24.285714 24.857143-12q70.857143 0 70.857143 201.714286zm-73.142857-348q0 60.571429-42.857143 103.428571t-103.428571 42.857143-103.428571-42.857143-42.857143-103.428571 42.857143-103.428571 103.428571-42.857143 103.428571 42.857143 42.857143 103.428571z" p-id="1158"></path></svg> -->

<svg xmlns="http://www.w3.org/2000/svg" viewBox="0 0 24 24"><path fill="#646A73" d="M8.5 5a2.5 2.5 0 1 0 .001 5.001A2.5 2.5 0 0 0 8.5 5ZM4 7.5a4.5 4.5 0 1 1 9 0 4.5 4.5 0 0 1-9 0ZM5.835 15C4.015 15 2.5 16.498 2.5 18.4V20h12v-1.6c0-1.901-1.515-3.4-3.335-3.4h-5.33ZM.5 18.4c0-2.982 2.39-5.4 5.335-5.4h5.33c2.945 0 5.335 2.418 5.335 5.4v2.7c0 .497-.4.9-.89.9H1.39a.896.896 0 0 1-.89-.9v-2.7ZM22.835 21h-4.47v-2H21.5v-.6c0-1.002-.845-1.9-2-1.9h-1.31a5.46 5.46 0 0 0-.985-2H19.5c2.21 0 4 1.746 4 3.9v1.95c0 .359-.3.65-.665.65ZM16.5 10c0-.553.45-1 1-1s1 .447 1 1c0 .553-.45 1-1 1s-1-.447-1-1Zm1-3a3.001 3.001 0 0 0 0 6 3.001 3.001 0 0 0 0-6Z" clip-rule="evenodd" fill-rule="evenodd"/><path fill-opacity=".2" fill="#000" d="M8.5 5a2.5 2.5 0 1 0 .001 5.001A2.5 2.5 0 0 0 8.5 5ZM4 7.5a4.5 4.5 0 1 1 9 0 4.5 4.5 0 0 1-9 0ZM5.835 15C4.015 15 2.5 16.498 2.5 18.4V20h12v-1.6c0-1.901-1.515-3.4-3.335-3.4h-5.33ZM.5 18.4c0-2.982 2.39-5.4 5.335-5.4h5.33c2.945 0 5.335 2.418 5.335 5.4v2.7c0 .497-.4.9-.89.9H1.39a.896.896 0 0 1-.89-.9v-2.7ZM22.835 21h-4.47v-2H21.5v-.6c0-1.002-.845-1.9-2-1.9h-1.31a5.46 5.46 0 0 0-.985-2H19.5c2.21 0 4 1.746 4 3.9v1.95c0 .359-.3.65-.665.65ZM16.5 10c0-.553.45-1 1-1s1 .447 1 1c0 .553-.45 1-1 1s-1-.447-1-1Zm1-3a3.001 3.001 0 0 0 0 6 3.001 3.001 0 0 0 0-6Z" clip-rule="evenodd" fill-rule="evenodd"/></svg>