<?xml version="1.0" encoding="UTF-8"?>
<svg width="40px" height="40px" viewBox="0 0 40 40" version="1.1" xmlns="http://www.w3.org/2000/svg"
>
    <path d="M0,39.9999994 C0,31.5842319 6.82232752,24.7619044 15.238095,24.7619044 C23.6538625,24.7619044 30.47619,31.5842319 30.47619,39.9999994 L26.6666663,39.9999994 C26.6662973,33.6884347 21.5496597,28.5720963 15.238095,28.5720963 C8.92653033,28.5720963 3.80989277,33.6884347 3.80952377,39.9999994 L0,39.9999994 L0,39.9999994 Z M15.238095,22.8571428 C12.2068429,22.8578163 9.2995496,21.6539546 7.15613066,19.5105356 C5.01271171,17.3671167 3.80884994,14.4598233 3.80952349,11.4285713 C3.80952349,5.11492055 8.92444432,0 15.238095,0 C21.5517457,0 26.6666663,5.11492055 26.6666663,11.4285713 C26.6666663,17.742222 21.5517457,22.8571428 15.238095,22.8571428 Z M15.238095,19.0476188 C19.4459787,19.0476188 22.8571425,15.636455 22.8571425,11.4285713 C22.8571425,7.22068753 19.4459787,3.80952377 15.238095,3.80952377 C11.0302113,3.80952377 7.6190475,7.22068753 7.6190475,11.4285713 C7.6190475,15.636455 11.0302113,19.0476188 15.238095,19.0476188 Z M31.0171424,26.1003171 C36.4853333,28.5626872 40.0011885,34.0029687 39.9999997,39.9999994 L36.1904756,39.9999994 C36.1919897,35.5017046 33.5546286,31.4209027 29.452698,29.5746027 L31.0171424,26.1003171 L31.0171424,26.1003171 Z M29.7066662,4.59682532 C33.6313111,6.21454893 36.1917954,10.0407329 36.1904761,14.2857141 C36.1917811,19.7030709 32.0616999,24.2274371 26.6666663,24.7187298 L26.6666663,20.8838092 C29.5622019,20.4670945 31.8478006,18.2113997 32.3026113,15.321603 C32.7574219,12.4318063 31.2751777,9.58310965 28.6476186,8.29714273 L29.7066662,4.59682532 L29.7066662,4.59682532 Z"
          id="形状"></path>
</svg>
