<svg width="40" height="33" xmlns="http://www.w3.org/2000/svg"><path d="M0 3.636A3.636 3.636 0 0 1 3.636 0h32.728A3.636 3.636 0 0 1 40 3.636v25.455a3.636 3.636 0 0 1-3.636 3.636H3.636A3.636 3.636 0 0 1 0 29.091V3.636zm36.364 0H3.636v25.455h32.728V3.636z" fill="currentColor"/><path d="M0 3.636A3.636 3.636 0 0 1 3.636 0h32.728A3.636 3.636 0 0 1 40 3.636v25.455a3.636 3.636 0 0 1-3.636 3.636H3.636A3.636 3.636 0 0 1 0 29.091V3.636zm36.364 0H3.636v25.455h32.728V3.636z" fill-opacity=".2" fill="currentColor"/><path d="M7.71 9.727a1.818 1.818 0 0 1 2.563-.2l6.363 5.455a1.818 1.818 0 0 1 0 2.763L10.273 23.2a1.818 1.818 0 0 1-2.364-2.764l4.75-4.072-4.75-4.073a1.818 1.818 0 0 1-.196-2.564h-.004z" fill="currentColor"/><path d="M7.71 9.727a1.818 1.818 0 0 1 2.563-.2l6.363 5.455a1.818 1.818 0 0 1 0 2.763L10.273 23.2a1.818 1.818 0 0 1-2.364-2.764l4.75-4.072-4.75-4.073a1.818 1.818 0 0 1-.196-2.564h-.004z" fill-opacity=".2" fill="currentColor"/><path d="M17.273 23.636c0-1.004.814-1.818 1.818-1.818h11.818a1.818 1.818 0 1 1 0 3.637H19.091a1.818 1.818 0 0 1-1.818-1.819z" fill="currentColor"/><path d="M17.273 23.636c0-1.004.814-1.818 1.818-1.818h11.818a1.818 1.818 0 1 1 0 3.637H19.091a1.818 1.818 0 0 1-1.818-1.819z" fill-opacity=".2" fill="currentColor"/></svg>