<?xml version="1.0" encoding="UTF-8"?>
<svg width="40px" height="33px" viewBox="0 0 40 33" version="1.1" xmlns="http://www.w3.org/2000/svg"
>
    <title>web-terminal</title>


    <path d="M0,3.63636364 C0,1.62805546 1.62805546,0 3.63636364,0 L36.3636364,0 C38.3719445,0 40,1.62805546 40,3.63636364 L40,29.0909091 C40,31.0992173 38.3719445,32.7272727 36.3636364,32.7272727 L3.63636364,32.7272727 C1.62805546,32.7272727 0,31.0992173 0,29.0909091 L0,3.63636364 Z M36.3636364,3.63636364 L3.63636364,3.63636364 L3.63636364,29.0909091 L36.3636364,29.0909091 L36.3636364,3.63636364 Z"
          id="形状" fill="#646A73"></path>
    <path d="M0,3.63636364 C0,1.62805546 1.62805546,0 3.63636364,0 L36.3636364,0 C38.3719445,0 40,1.62805546 40,3.63636364 L40,29.0909091 C40,31.0992173 38.3719445,32.7272727 36.3636364,32.7272727 L3.63636364,32.7272727 C1.62805546,32.7272727 0,31.0992173 0,29.0909091 L0,3.63636364 Z M36.3636364,3.63636364 L3.63636364,3.63636364 L3.63636364,29.0909091 L36.3636364,29.0909091 L36.3636364,3.63636364 Z"
          id="形状" fill-opacity="0.2" fill="#000000"></path>
    <path d="M7.70909091,9.72727273 C8.02251506,9.36077047 8.46870236,9.13379656 8.94948481,9.09628871 C9.43026725,9.05878086 9.90625636,9.21381193 10.2727273,9.52727273 L16.6363636,14.9818182 C17.0403025,15.3272513 17.2728671,15.8321378 17.2728671,16.3636364 C17.2728671,16.8951349 17.0403025,17.4000214 16.6363636,17.7454545 L10.2727273,23.2 C9.50957016,23.8527001 8.3617911,23.7631571 7.70909095,23 C7.05639081,22.2368429 7.14593384,21.0890638 7.90909091,20.4363636 L12.6581818,16.3636364 L7.90909091,12.2909091 C7.14699515,11.6371758 7.0590839,10.4894456 7.71272727,9.72727273 L7.70909091,9.72727273 Z"
          id="路径" fill="#646A73"></path>
    <path d="M7.70909091,9.72727273 C8.02251506,9.36077047 8.46870236,9.13379656 8.94948481,9.09628871 C9.43026725,9.05878086 9.90625636,9.21381193 10.2727273,9.52727273 L16.6363636,14.9818182 C17.0403025,15.3272513 17.2728671,15.8321378 17.2728671,16.3636364 C17.2728671,16.8951349 17.0403025,17.4000214 16.6363636,17.7454545 L10.2727273,23.2 C9.50957016,23.8527001 8.3617911,23.7631571 7.70909095,23 C7.05639081,22.2368429 7.14593384,21.0890638 7.90909091,20.4363636 L12.6581818,16.3636364 L7.90909091,12.2909091 C7.14699515,11.6371758 7.0590839,10.4894456 7.71272727,9.72727273 L7.70909091,9.72727273 Z"
          id="路径" fill-opacity="0.2" fill="#000000"></path>
    <path d="M17.2727273,23.6363636 C17.2727273,22.6322095 18.086755,21.8181818 19.0909091,21.8181818 L30.9090909,21.8181818 C31.913245,21.8181818 32.7272727,22.6322095 32.7272727,23.6363636 C32.7272727,24.6405177 31.913245,25.4545455 30.9090909,25.4545455 L19.0909091,25.4545455 C18.086755,25.4545455 17.2727273,24.6405177 17.2727273,23.6363636 Z"
          id="路径" fill="#646A73"></path>
    <path d="M17.2727273,23.6363636 C17.2727273,22.6322095 18.086755,21.8181818 19.0909091,21.8181818 L30.9090909,21.8181818 C31.913245,21.8181818 32.7272727,22.6322095 32.7272727,23.6363636 C32.7272727,24.6405177 31.913245,25.4545455 30.9090909,25.4545455 L19.0909091,25.4545455 C18.086755,25.4545455 17.2727273,24.6405177 17.2727273,23.6363636 Z"
          id="路径" fill-opacity="0.2" fill="#000000"></path>


</svg>
