<svg xmlns="http://www.w3.org/2000/svg" viewBox="0 0 24 24"><path fill="#646A73" d="M1 5a2 2 0 0 1 2-2h18a2 2 0 0 1 2 2v14a2 2 0 0 1-2 2H3a2 2 0 0 1-2-2V5Zm20 0H3v14h18V5Z" clip-rule="evenodd" fill-rule="evenodd"/><path fill-opacity=".2" fill="#000" d="M1 5a2 2 0 0 1 2-2h18a2 2 0 0 1 2 2v14a2 2 0 0 1-2 2H3a2 2 0 0 1-2-2V5Zm20 0H3v14h18V5Z" clip-rule="evenodd" fill-rule="evenodd"/><path fill="#646A73" d="M5.24 8.35a1 1 0 0 1 1.41-.11l3.5 3a1 1 0 0 1 0 1.52l-3.5 3a1 1 0 0 1-1.3-1.52L7.962 12 5.35 9.76a1 1 0 0 1-.108-1.41Z" clip-rule="evenodd" fill-rule="evenodd"/><path fill-opacity=".2" fill="#000" d="M5.24 8.35a1 1 0 0 1 1.41-.11l3.5 3a1 1 0 0 1 0 1.52l-3.5 3a1 1 0 0 1-1.3-1.52L7.962 12 5.35 9.76a1 1 0 0 1-.108-1.41Z" clip-rule="evenodd" fill-rule="evenodd"/><path fill="#646A73" d="M10.5 16a1 1 0 0 1 1-1H18a1 1 0 1 1 0 2h-6.5a1 1 0 0 1-1-1Z" clip-rule="evenodd" fill-rule="evenodd"/><path fill-opacity=".2" fill="#000" d="M10.5 16a1 1 0 0 1 1-1H18a1 1 0 1 1 0 2h-6.5a1 1 0 0 1-1-1Z" clip-rule="evenodd" fill-rule="evenodd"/></svg>