<svg t="1709091357757" class="icon" viewBox="0 0 1024 1024" version="1.1" xmlns="http://www.w3.org/2000/svg" p-id="10345" width="200" height="200"><path d="M953.342411 141.241379C953.312026 141.241379 953.37931 728.083791 953.37931 728.083791 953.37931 728.14313 70.657589 728.123657 70.657589 728.123657 70.687974 728.123657 70.62069 141.281245 70.62069 141.281245 70.62069 141.221923 953.342411 141.241379 953.342411 141.241379ZM0 728.083791C0 767.026723 31.652899 798.744346 70.657589 798.744346L953.342411 798.744346C992.425472 798.744346 1024 767.121902 1024 728.083791L1024 141.281245C1024 102.33833 992.347101 70.62069 953.342411 70.62069L70.657589 70.62069C31.574528 70.62069 0 102.243134 0 141.281245L0 728.083791ZM840.751492 963.941976C860.252849 963.941976 876.061837 948.132988 876.061837 928.631631L876.061837 926.987864C876.061837 907.486508 860.252849 891.677519 840.751492 891.677519L183.248508 891.677519C163.747151 891.677519 147.938163 907.486508 147.938163 926.987864L147.938163 928.631631C147.938163 948.132988 163.747151 963.941976 183.248508 963.941976 202.749881 963.941976 840.751492 963.941976 840.751492 963.941976ZM475.867772 892.499403 546.488461 892.499403 546.488461 798.744346 477.511539 798.744346 475.867772 892.499403Z" fill="#515151" p-id="10346"></path></svg>
