<?xml version="1.0" encoding="UTF-8"?>
<svg width="40px" height="35px" viewBox="0 0 40 35" version="1.1" xmlns="http://www.w3.org/2000/svg" xmlns:xlink="http://www.w3.org/1999/xlink">
    <title>workbench</title>
    <g id="jumpserver" stroke="none" stroke-width="1" fill="none" fill-rule="evenodd">
        <g id="workbench" fill="#515151" fill-rule="nonzero">
            <path d="M37.2399379,2.75850141 C37.238751,2.75850141 37.2413793,25.6821524 37.2413793,25.6821524 C37.2413793,25.6844703 2.76006207,25.6838291 2.76006207,25.6838291 C2.76124898,25.6838291 2.7586207,2.76017793 2.7586207,2.76017793 C2.7586207,2.75786066 37.2399379,2.75850141 37.2399379,2.75850141 Z M0,25.6821524 C0,27.2033607 1.23644137,28.4423303 2.76006207,28.4423303 L37.2399379,28.4423303 C38.76662,28.4423303 40,27.2070786 40,25.6821524 L40,2.76017793 C40,1.23897031 38.7635586,-3.55271368e-16 37.2399379,-3.55271368e-16 L2.76006207,-3.55271368e-16 C1.23338,-3.55271368e-16 0,1.23525172 0,2.76017793 L0,25.6821524 Z M32.8418552,34.8953627 C33.6036269,34.8953627 34.2211655,34.2778241 34.2211655,33.5160524 L34.2211655,33.4518427 C34.2211655,32.690071 33.6036269,32.0725324 32.8418552,32.0725324 L7.15814484,32.0725324 C6.39637309,32.0725324 5.77883449,32.690071 5.77883449,33.4518427 L5.77883449,33.5160524 C5.77883449,34.2778241 6.39637309,34.8953627 7.15814484,34.8953627 C7.91991723,34.8953627 32.8418552,34.8953627 32.8418552,34.8953627 Z M18.5885848,32.1046372 L21.3472055,32.1046372 L21.3472055,28.4423303 L18.6527945,28.4423303 L18.5885848,32.1046372 Z" id="形状"></path>
        </g>
    </g>
</svg>