<svg xmlns="http://www.w3.org/2000/svg" viewBox="0 0 24 24"><path fill="#646A73" d="M1 3.5a1 1 0 0 1 1-1h20a1 1 0 0 1 1 1v13a1 1 0 0 1-1 1H2a1 1 0 0 1-1-1v-13Zm2 1v11h18v-11H3Z" clip-rule="evenodd" fill-rule="evenodd"/><path fill-opacity=".2" fill="#000" d="M1 3.5a1 1 0 0 1 1-1h20a1 1 0 0 1 1 1v13a1 1 0 0 1-1 1H2a1 1 0 0 1-1-1v-13Zm2 1v11h18v-11H3Z" clip-rule="evenodd" fill-rule="evenodd"/><path fill="#646A73" d="M7.5 13a.5.5 0 0 1-.5-.5v-1a.5.5 0 0 1 .5-.5h1a.5.5 0 0 1 .5.5v1a.5.5 0 0 1-.5.5h-1Z" clip-rule="evenodd" fill-rule="evenodd"/><path fill-opacity=".2" fill="#000" d="M7.5 13a.5.5 0 0 1-.5-.5v-1a.5.5 0 0 1 .5-.5h1a.5.5 0 0 1 .5.5v1a.5.5 0 0 1-.5.5h-1Z" clip-rule="evenodd" fill-rule="evenodd"/><path fill="#646A73" d="M11 19.5v-3h2v3h-2Z" clip-rule="evenodd" fill-rule="evenodd"/><path fill-opacity=".2" fill="#000" d="M11 19.5v-3h2v3h-2Z" clip-rule="evenodd" fill-rule="evenodd"/><path fill="#646A73" d="M11.5 13a.5.5 0 0 1-.5-.5v-3a.5.5 0 0 1 .5-.5h1a.5.5 0 0 1 .5.5v3a.5.5 0 0 1-.5.5h-1Z" clip-rule="evenodd" fill-rule="evenodd"/><path fill-opacity=".2" fill="#000" d="M11.5 13a.5.5 0 0 1-.5-.5v-3a.5.5 0 0 1 .5-.5h1a.5.5 0 0 1 .5.5v3a.5.5 0 0 1-.5.5h-1Z" clip-rule="evenodd" fill-rule="evenodd"/><path fill="#646A73" d="M15.5 13a.5.5 0 0 1-.5-.5v-5a.5.5 0 0 1 .5-.5h1a.5.5 0 0 1 .5.5v5a.5.5 0 0 1-.5.5h-1Z" clip-rule="evenodd" fill-rule="evenodd"/><path fill-opacity=".2" fill="#000" d="M15.5 13a.5.5 0 0 1-.5-.5v-5a.5.5 0 0 1 .5-.5h1a.5.5 0 0 1 .5.5v5a.5.5 0 0 1-.5.5h-1Z" clip-rule="evenodd" fill-rule="evenodd"/><path fill="#646A73" d="M18 21a.5.5 0 0 1-.5.5h-11A.5.5 0 0 1 6 21v-1a.5.5 0 0 1 .5-.5h11a.5.5 0 0 1 .5.5v1Z" clip-rule="evenodd" fill-rule="evenodd"/><path fill-opacity=".2" fill="#000" d="M18 21a.5.5 0 0 1-.5.5h-11A.5.5 0 0 1 6 21v-1a.5.5 0 0 1 .5-.5h11a.5.5 0 0 1 .5.5v1Z" clip-rule="evenodd" fill-rule="evenodd"/></svg>