<svg width="40" height="35" xmlns="http://www.w3.org/2000/svg"><path d="M37.24 2.759l.001 22.923c0 .002-34.48.002-34.48.002L2.758 2.76c0-.002 34.48-.001 34.48-.001zM0 25.682a2.763 2.763 0 0 0 2.76 2.76h34.48a2.758 2.758 0 0 0 2.76-2.76V2.76A2.763 2.763 0 0 0 37.24 0H2.76A2.758 2.758 0 0 0 0 2.76v22.922zm32.842 9.213a1.38 1.38 0 0 0 1.38-1.379v-.064a1.38 1.38 0 0 0-1.38-1.38H7.158a1.38 1.38 0 0 0-1.38 1.38v.064c0 .762.618 1.38 1.38 1.38h25.684zm-14.253-2.79h2.758v-3.663h-2.694l-.064 3.663z"/></svg>