<svg t="1716521217079" class="icon" viewBox="0 0 1024 1024" version="1.1" xmlns="http://www.w3.org/2000/svg" p-id="23658" width="200" height="200"><path d="M832 960H192v-64h640z" fill="#2c2c2c" p-id="23659"></path><path d="M324.48 557.76a256 256 0 1 1 375.04 0L745.28 512l39.04 39.04A316.8 316.8 0 0 0 832 384c0-176.736-143.264-320-320-320S192 207.264 192 384a316.8 316.8 0 0 0 47.68 167.04L278.72 512zM290.88 614.72l-9.6-9.6zM742.72 605.12l-9.6 9.6zM338.24 571.52l-13.76-13.76zM512 745.28l-44.8-44.8a320 320 0 0 1-176.32-85.76L512 832l22.72-22.72L489.28 768z" fill="#2c2c2c" p-id="23660"></path><path d="M338.24 571.52l-13.76-13.76L278.72 512l-39.04 39.04a311.68 311.68 0 0 0 41.6 54.08l9.6 9.6a320 320 0 0 0 176.32 85.76zM699.52 557.76l-13.76 13.76zM512 745.28l22.72 22.72-45.44 41.6 22.72 22.4 221.12-217.6a320 320 0 0 1-176.32 85.76z" fill="#2c2c2c" p-id="23661"></path><path d="M745.28 512l-45.76 45.76-13.76 13.76-128 128a320 320 0 0 0 176.32-85.76l9.6-9.6a311.68 311.68 0 0 0 41.6-54.08zM489.504 767.904l22.624-22.624 22.624 22.624-22.624 22.624zM512 320a64 64 0 1 1 0 128 64 64 0 0 1 0-128m0-64a128 128 0 1 0 0 256 128 128 0 0 0 0-256z" fill="#2c2c2c" p-id="23662"></path></svg>
