<svg width="40" height="50" xmlns="http://www.w3.org/2000/svg"><path d="M40 49.7H0v-3.55h40zM8.28 27.388c-2.12-2.024-3.529-4.555-4.052-7.28-.524-2.724-.14-5.526 1.104-8.06 1.245-2.534 3.295-4.69 5.9-6.205C13.839 4.328 16.886 3.52 20 3.52c3.115 0 6.162.807 8.767 2.322 2.605 1.514 4.656 3.671 5.9 6.205 1.245 2.534 1.629 5.336 1.105 8.06-.523 2.725-1.932 5.256-4.052 7.28l2.86-2.538 2.44 2.166c1.947-2.782 2.979-5.991 2.98-9.266C40 7.947 31.046 0 20 0S0 7.947 0 17.75c.001 3.275 1.033 6.484 2.98 9.266l2.44-2.166 2.86 2.538zM20 37.79l-2.8-2.485c-4.144-.523-7.998-2.187-11.02-4.757L20 42.6l1.42-1.26-2.84-2.29L20 37.79z"/><path d="M9.14 28.152l-.86-.764-2.86-2.538-2.44 2.166a17.71 17.71 0 0 0 2.6 3l.6.532c3.022 2.57 6.876 4.234 11.02 4.757l-8.06-7.153zM20 37.79l1.42 1.26-2.84 2.308L20 42.6l13.82-12.07c-3.022 2.57-6.876 4.234-11.02 4.757L20 37.79z"/><path d="M34.58 24.85l-2.86 2.538-.86.764-8 7.1c4.144-.524 7.998-2.187 11.02-4.757l.6-.533a17.705 17.705 0 0 0 2.6-3l-2.5-2.112zM18.594 39.045l1.414-1.255 1.414 1.255-1.414 1.255-1.414-1.255zM20 14.2c1.06 0 2.078.374 2.829 1.04.75.666 1.171 1.568 1.171 2.51 0 .942-.421 1.844-1.171 2.51-.75.666-1.768 1.04-2.829 1.04-1.06 0-2.078-.374-2.828-1.04S16 18.692 16 17.75c0-.942.421-1.844 1.172-2.51.75-.666 1.767-1.04 2.828-1.04zm0-3.55c-2.122 0-4.157.748-5.657 2.08C12.843 14.06 12 15.867 12 17.75c0 1.883.843 3.689 2.343 5.02 1.5 1.332 3.535 2.08 5.657 2.08s4.157-.748 5.657-2.08C27.157 21.44 28 19.633 28 17.75c0-1.883-.843-3.689-2.343-5.02-1.5-1.332-3.535-2.08-5.657-2.08z"/></svg>