<svg width="196.07843px" height="243.627px" viewBox="0 0 196.07843 243.627" version="1.1"
     xmlns="http://www.w3.org/2000/svg">
    <g id="页面-1" stroke="none" stroke-width="1" fill="none" fill-rule="evenodd">
        <g id="Frame-(1)" fill="#2C2C2C" fill-rule="nonzero">
            <polygon id="路径" points="196.07843 243.627 0 243.627 0 226.225 196.07843 226.225"></polygon>
            <path d="M40.58823,134.256 C30.19433,124.331 23.29063,111.928 20.72403,98.5709 C18.15733,85.2134 20.03943,71.4815 26.13923,59.0597 C32.23913,46.6378 42.29153,36.066 55.06343,28.6413 C67.83533,21.2165 82.77123,17.2616 98.03943,17.2616 C113.30743,17.2616 128.24343,21.2165 141.01543,28.6413 C153.78643,36.066 163.83943,46.6378 169.93943,59.0597 C176.03943,71.4815 177.92143,85.2134 175.35443,98.5709 C172.78743,111.928 165.88443,124.331 155.49043,134.256 L169.50943,121.814 L181.47043,132.429 C191.01343,118.793 196.07243,103.062 196.07843,87.0098 C196.07843,38.9543 152.18643,0 98.03943,0 C43.89213,0 0,38.9543 0,87.0098 C0.00586,103.062 5.06536,118.793 14.60783,132.429 L26.56863,121.814 L40.58823,134.256 Z M98.03943,185.244 L84.31373,173.062 C64.00153,170.498 45.10783,162.342 30.29413,149.744 L98.03943,208.824 L105.00043,202.646 L91.07843,191.422 L98.03943,185.244 Z"
                  id="形状"></path>
            <path d="M44.80393,137.998 L40.58823,134.256 L26.56863,121.814 L14.60783,132.429 C18.23713,137.73 22.51113,142.661 27.35293,147.134 L30.29413,149.744 C45.10783,162.342 64.00153,170.498 84.31373,173.062 L44.80393,137.998 Z M98.03943,185.244 L105.00043,191.422 L91.07843,202.733 L98.03943,208.824 L165.78443,149.657 C150.97043,162.255 132.07743,170.411 111.76443,172.975 L98.03943,185.244 Z"
                  id="形状"></path>
            <path d="M169.50943,121.814 L155.49043,134.256 L151.27443,137.998 L112.05843,172.801 C132.37143,170.237 151.26443,162.081 166.07843,149.483 L169.01943,146.873 C173.86143,142.4 178.13543,137.469 181.76443,132.168 L169.50943,121.814 Z M91.14703,191.395 L98.07843,185.244 L105.00943,191.395 L98.07843,197.547 L91.14703,191.395 Z M98.03943,69.6078 C103.23943,69.6078 108.22643,71.4413 111.90443,74.7048 C115.58143,77.9683 117.64743,82.3945 117.64743,87.0098 C117.64743,91.6251 115.58143,96.0513 111.90443,99.3148 C108.22643,102.578 103.23943,104.412 98.03943,104.412 C92.83893,104.412 87.85153,102.578 84.17443,99.3148 C80.49723,96.0513 78.43133,91.6251 78.43133,87.0098 C78.43133,82.3945 80.49723,77.9683 84.17443,74.7048 C87.85153,71.4413 92.83893,69.6078 98.03943,69.6078 Z M98.03943,52.2059 C87.63853,52.2059 77.66393,55.8727 70.30953,62.3997 C62.95513,68.9267 58.82353,77.7792 58.82353,87.0098 C58.82353,96.2404 62.95513,105.093 70.30953,111.62 C77.66393,118.147 87.63853,121.814 98.03943,121.814 C108.43943,121.814 118.41443,118.147 125.76843,111.62 C133.12343,105.093 137.25443,96.2404 137.25443,87.0098 C137.25443,77.7792 133.12343,68.9267 125.76843,62.3997 C118.41443,55.8727 108.43943,52.2059 98.03943,52.2059 Z"
                  id="形状"></path>
        </g>
    </g>
</svg>
