<svg t="1717743183519" class="icon" viewBox="0 0 1024 1024" version="1.1" xmlns="http://www.w3.org/2000/svg" p-id="34140" width="200" height="200"><path d="M521.30666655 248.79999969c4.93333313 0 9.14666625 0.73333312 12.66666657 2.17333406l181.97333343 106.71999938a34.00000031 34.00000031 0 0 0 26.83999969-0.61333313l168.72-94.69333312L520.06666624 36.26666656 128.02666624 262.38666687l171.20000063 95.93333344c3.69333375 1.63999969 7.8 2.46666656 12.33333281 2.46666656 4.93333313 0 9.04000031-0.82666687 12.33333375-2.46666656l184.45333312-107.04c4.32-1.63999969 8.64-2.46666656 12.96-2.46666656" fill="#5BCA87" p-id="34141"></path><path d="M763.02666687 421.28a34.39999969 34.39999969 0 0 0-9.52000032 23.28l3 200.17333312a28.74666656 28.74666656 0 0 1-9.86666625 22.04000063l-4.54666687 4.38666656-167.49333375 103.39999969a34.89333375 34.89333375 0 0 0-10.39999969 7.56c-5.86666687 5.83999969-8.93333344 13.39999969-9.19999969 22.65333375l2.79999938 186.6 384-230.04-6.61333313-441.36-161.47999968 93.43999969a40.89333375 40.89333375 0 0 0-10.68 7.86666656" fill="#EC5D3E" p-id="34142"></path><path d="M292.4400003 667.69333344a30.40000031 30.40000031 0 0 1-9.86666718-21.58666688V444.68c0-8.44000031-3.29333344-16.13333344-9.87999938-23.13333375a55.63999969 55.63999969 0 0 0-10.8-7.71999938l-162.85333406-90.66666656V765.46666625l387.42666656 222.40000031V801.25333344c-0.21333375-9.25333312-3.40000031-16.75999969-9.57333281-22.51999969a31.81333312 31.81333312 0 0 0-10.8-7.40000063l-168.72-99.31999968-4.93333313-4.32z" fill="#2464F5" p-id="34143"></path></svg>
