<svg t="1717743357432" class="icon" viewBox="0 0 1228 1024" version="1.1" xmlns="http://www.w3.org/2000/svg" p-id="37305" width="200" height="200"><path d="M779.7248 289.8944h37.4784l106.8032-106.8032 5.2736-45.3632A480.1024 480.1024 0 0 0 148.224 371.968c11.8784-4.864 25.088-5.632 37.4784-2.2528l213.6064-35.2256s10.9056-17.9712 16.4864-16.896a266.496 266.496 0 0 1 364.6976-27.6992h-0.768z" fill="#EA4335" p-id="37306"></path><path d="M1076.224 371.9168a481.28 481.28 0 0 0-145.1008-233.8304l-149.9136 149.9136a266.496 266.496 0 0 1 97.792 211.3536v26.624a133.4272 133.4272 0 1 1 0 266.8544h-266.752l-26.624 26.9824v160l26.624 26.624h266.752A347.0336 347.0336 0 0 0 1076.224 371.9168" fill="#4285F4" p-id="37307"></path><path d="M344.9856 1004.9536h266.8544v-213.6064H344.9856a132.608 132.608 0 0 1-55.0912-12.032l-37.4784 11.6224-107.5712 106.8032-9.3696 37.4784a345.1904 345.1904 0 0 0 209.5104 69.7344" fill="#34A853" p-id="37308"></path><path d="M344.9856 311.9616a347.0336 347.0336 0 0 0-209.5104 622.1312l154.7776-154.7776a133.4272 133.4272 0 1 1 176.5376-176.4864L621.568 448a346.6752 346.6752 0 0 0-276.5824-136.0384" fill="#FBBC05" p-id="37309"></path></svg>
