<svg t="1717743147068" class="icon" viewBox="0 0 1027 1024" version="1.1" xmlns="http://www.w3.org/2000/svg" p-id="32927" width="200" height="200"><path d="M402.3125 208.25c16.875-5.62500027 33.75-8.4375 50.625-11.24999973 19.68749973 25.3125 25.3125 59.0625 33.75 89.99999946 5.62500027 33.75 11.24999973 67.5 11.24999973 101.25 5.62500027 22.50000027 2.81249973 47.81250027 2.81250054 70.31250054s-2.81249973 42.1875 0 64.68749946c0 30.93750027-2.81249973 59.0625-2.81250054 90.00000027-5.62500027 19.68749973 0 39.37500027-5.62499946 59.0625-8.4375-2.81249973-11.24999973-11.24999973-14.06250027-16.875-33.75-50.625-64.68750027-101.25-92.8125-154.68749973-28.12499973-56.25000027-56.25000027-112.49999973-59.0625-177.1875-5.62500027-50.625 28.12499973-98.43750027 75.9375-115.31250027z m174.37500027-8.4375c5.62500027-2.81249973 8.4375 0 14.06249946 0 22.50000027 5.62500027 47.81250027 8.4375 67.5 22.50000027s36.56249973 33.75 42.1875 56.24999946c8.4375 28.12499973 5.62500027 59.0625 0 87.18750054-8.4375 36.56249973-25.3125 70.31249973-42.1875 104.06249973-5.62500027 11.24999973-11.24999973 19.68749973-16.875 30.93750027-8.4375 19.68749973-22.50000027 39.37500027-33.75 59.0625-19.68749973 33.75-39.37500027 61.87499973-59.0625 95.62499973-2.81249973 2.81249973-5.62500027 11.24999973-11.24999973 5.62500027-2.81249973-33.75-5.62500027-67.5-8.4375-104.06250054-5.62500027-44.99999973-2.81249973-87.18749973-2.81249973-132.18749946 2.81249973-28.12499973 2.81249973-59.0625 5.62499946-87.18750054 5.62500027-33.75 11.24999973-70.31249973 22.50000027-104.06249973 11.24999973-8.4375 11.24999973-25.3125 22.50000027-33.75zM222.31250027 309.5c2.81249973 0 5.62500027 5.62500027 8.4375 8.4375 81.56250027 106.87500027 154.68749973 219.375 213.74999973 340.31249973 5.62500027 8.4375 11.24999973 19.68749973 11.24999973 30.93750027-11.24999973-2.81249973-19.68749973-8.4375-28.12499973-14.06250027-53.43749973-28.12499973-106.87500027-59.0625-160.3125-89.99999946-19.68749973-14.06250027-39.37500027-28.12499973-56.25000027-42.1875-33.75-22.50000027-56.25000027-64.68750027-53.43749973-106.87500027 2.81249973-50.625 30.93750027-92.8125 64.68750027-126.5625z m582.1875 0h5.62499946c14.06250027 19.68749973 33.75 39.37500027 45.00000054 61.87499973 11.24999973 19.68749973 16.875 44.99999973 19.68749973 67.5 0 25.3125-8.4375 53.43749973-28.12499973 73.12500027-11.24999973 11.24999973-19.68749973 22.50000027-33.75 30.93750027-64.68750027 50.625-135 90.00000027-208.12500027 126.5625-11.24999973 5.62500027-19.68749973 14.06250027-33.75 14.06249946 2.81249973-14.06250027 11.24999973-28.12499973 16.875-39.37499946 47.81250027-98.43750027 106.87500027-191.25000027 171.56249973-281.25000054 14.06250027-14.06250027 30.93750027-33.75 45.00000054-53.43749973z m-705.93750027 225.00000027c2.81249973-2.81249973 0-8.4375 5.62500027-11.25000054 8.4375 2.81249973 16.875 8.4375 22.49999946 11.25000054 101.25 56.25000027 202.5 112.49999973 300.93750027 174.37499946 2.81249973 2.81249973 5.62500027 5.62500027 5.62500027 8.4375H239.18750027c-39.37500027 0-75.9375-16.875-104.06250054-44.99999973-22.50000027-25.3125-42.1875-59.0625-44.99999973-92.8125 5.62500027-14.06250027 2.81249973-28.12499973 8.4375-44.99999973z m810-2.81250054c5.62500027-2.81249973 14.06250027-8.4375 19.68749973-5.62499946 0 14.06250027 5.62500027 30.93750027 5.62500027 44.99999973-2.81249973 19.68749973-2.81249973 36.56249973-11.24999973 53.43749973-5.62500027 14.06250027-14.06250027 30.93750027-25.3125 42.1875-14.06250027 11.24999973-22.50000027 25.3125-39.37500027 33.75-16.875 14.06250027-42.1875 16.875-61.87499973 19.68750054h-202.5c2.81249973-2.81249973 2.81249973-5.62500027 5.62499946-8.4375 101.25-64.68750027 205.31249973-123.75000027 309.37500027-180.00000054zM242 748.25c36.56249973-2.81249973 73.12500027 0 109.6875-5.62500027 25.3125 0 53.43749973-2.81249973 78.74999973 0-5.62500027 11.24999973-19.68749973 16.875-28.12499973 22.50000027-28.12499973 19.68749973-56.25000027 36.56249973-87.18749973 50.625s-67.5 8.4375-92.8125-11.24999973c-19.68749973-14.06250027-36.56249973-36.56249973-47.81250027-56.25000027h67.5z m357.18749973-5.62500027c25.3125-2.81249973 50.625 0 78.75000054 0 33.75 2.81249973 70.31249973 0 106.87499946 5.62500027 25.3125 2.81249973 50.625 0 73.12500027 2.81249973-8.4375 16.875-22.50000027 33.75-36.56249973 47.81250027-22.50000027 22.50000027-56.25000027 33.75-87.18750054 28.12499973-28.12499973-8.4375-50.625-25.3125-75.9375-39.37499946-14.06250027-8.4375-25.3125-16.875-39.37499946-25.3125-8.4375-8.4375-14.06250027-11.24999973-19.68750054-19.68750054z" fill="#C71F1E" p-id="32928"></path></svg>
