<svg t="1717743116713" class="icon" viewBox="0 0 1024 1024" version="1.1" xmlns="http://www.w3.org/2000/svg" p-id="31939" width="200" height="200"><path d="M718.5408 453.8368c-4.1984 0-8.3968-0.7168-12.5952-0.7168a103.8336 103.8336 0 0 0-67.8912 25.088 139.6736 139.6736 0 0 0 13.6192-60.3136 133.12 133.12 0 0 0-2.4576-25.7024 139.5712 139.5712 0 0 0-274.432 0 133.12 133.12 0 0 0-2.4576 25.7024 139.6736 139.6736 0 0 0 13.6192 60.3136 103.8336 103.8336 0 0 0-67.8912-25.088c-4.1984 0-8.3968 0-12.5952 0.7168a104.5504 104.5504 0 1 0 101.0688 159.4368 116.736 116.736 0 0 0 6.144-11.0592 105.1648 105.1648 0 0 0 4.9152-76.6976 62.6688 62.6688 0 0 1 27.3408 20.48l2.6624 3.8912a83.2512 83.2512 0 0 1 133.9392-3.3792l4.7104 6.8608 51.2 73.9328a84.0704 84.0704 0 0 0 62.464 34.6112h5.5296a104.5504 104.5504 0 0 0 12.5952-208.384z" fill="#E6002D" p-id="31940"></path><path d="M512 0a512 512 0 1 0 512 512A512 512 0 0 0 512 0z m200.8064 732.3648h-6.8608a152.4736 152.4736 0 0 1-120.5248-58.9824S509.2352 564.6336 508.0064 563.2a42.1888 42.1888 0 0 0-32.4608-15.2576 40.96 40.96 0 0 0-24.064 7.5776l122.88 175.4112a62.5664 62.5664 0 0 0 77.0048 20.48A97.5872 97.5872 0 0 1 593.92 783.5648a97.0752 97.0752 0 0 1-95.5392-39.1168l-49.4592-70.656a174.8992 174.8992 0 1 1-143.36-290.5088 209.7152 209.7152 0 0 1 413.9008 0 174.7968 174.7968 0 0 1-6.144 349.0816z" fill="#E6002D" p-id="31941"></path></svg>
