<svg t="1717746661932" class="icon" viewBox="0 0 1024 1024" version="1.1" xmlns="http://www.w3.org/2000/svg" p-id="60936" width="200" height="200"><path d="M29.696 541.696A30.72 30.72 0 0 0 59.52 512 452.16 452.16 0 0 1 512 59.456a439.68 439.68 0 0 1 225.664 61.44l16.704 10.432 7.04 4.608-3.84 7.488c-1.216 2.496-1.536 6.592-1.536 16.64 0 44.352 37.504 81.856 81.856 81.856s81.856-37.504 81.856-81.856a83.008 83.008 0 0 0-108.544-77.824l-8.96 3.136-4.48 1.792-4.096-2.624A520.768 520.768 0 0 0 512 0C230.4 0 0 230.4 0 512c0 15.68 14.08 29.696 29.696 29.696z m588.16-186.24c-13.056-93.568-37.12-164.224-62.336-203.584a383.808 383.808 0 0 0-43.776-2.752c-14.784 0-29.568 1.088-43.776 2.752-25.216 39.36-49.28 109.44-62.4 203.584z m221.696 0a365.504 365.504 0 0 0-203.52-184.96c21.312 51.392 36.608 115.456 45.888 184.96z m-497.472 0c9.28-69.504 24.576-133.568 45.952-184.96a365.504 365.504 0 0 0-203.584 184.96z m520.512 250.688a358.4 358.4 0 0 0 0-188.288H688c2.688 31.232 3.84 62.4 3.84 94.144 0 31.744-1.664 62.912-3.84 94.144z m-237.568 0c2.176-29.568 3.84-61.312 3.84-94.144 0-33.408-1.664-64.64-3.84-94.144H398.976c-2.752 29.568-3.84 61.312-3.84 94.144 0 33.408 1.664 64.64 3.84 94.144z m-289.024 0A1073.92 1073.92 0 0 1 332.16 512c0-31.744 1.152-62.912 3.84-94.144H161.408a358.4 358.4 0 0 0 0 188.288zM512 1024c281.6 0 512-230.4 512-512a30.72 30.72 0 0 0-29.696-29.696 30.72 30.72 0 0 0-29.76 29.696A452.16 452.16 0 0 1 512 964.544a439.68 439.68 0 0 1-225.664-61.44l-16.704-10.432-7.04-4.608 3.84-7.488c1.216-2.496 1.536-6.592 1.536-16.64 0-44.352-37.504-81.856-81.856-81.856s-81.856 37.504-81.856 81.856a83.008 83.008 0 0 0 108.544 77.824l8.96-3.136 4.48-1.792 4.096 2.624A520.768 520.768 0 0 0 512 1024z m-0.256-149.12c14.72 0 29.568-1.088 43.776-2.752 25.152-39.36 49.28-109.44 62.4-203.584H405.568c13.12 93.568 37.184 164.224 62.4 203.584 14.208 1.664 28.992 2.752 43.776 2.752z m124.224-21.312a365.504 365.504 0 0 0 203.584-185.024h-157.632c-9.28 69.504-24.576 133.568-45.952 184.96z m-247.936 0c-21.376-51.456-36.672-115.52-45.952-185.024H184.448a365.504 365.504 0 0 0 203.52 184.96z" fill="#448CF7" p-id="60937"></path></svg>
