<svg t="1717746166860" class="icon" viewBox="0 0 1024 1024" version="1.1" xmlns="http://www.w3.org/2000/svg" p-id="51952" width="200" height="200"><path d="M928.856 10.912H95.142C42.814 10.912 0 53.726 0 106.054v224.202h231.25v-36.64c0-28.418 23.046-51.454 51.464-51.454h458.58c28.42 0 51.456 23.036 51.456 51.456v36.64H1024V106.052c0-52.328-42.816-95.142-95.144-95.142zM792.75 730.38c0 28.42-23.036 51.466-51.456 51.466h-458.58c-28.418 0-51.464-23.046-51.464-51.466v-36.63H0v224.194c0 52.336 42.816 95.142 95.144 95.142h833.714c52.328 0 95.142-42.806 95.142-95.142V693.752H792.75v36.63zM0.006 627.628h231.25V396.38H0.006v231.25z m792.74 0h231.25V396.38H792.748v231.25z" fill="#E72F52" p-id="51953"></path></svg>
