<svg t="1717745876738" class="icon" viewBox="0 0 1024 1024" version="1.1" xmlns="http://www.w3.org/2000/svg" p-id="50950" width="200" height="200"><path d="M494.272 0L347.968 89.088l146.304 86.4V0z m43.904 175.552l146.304-87.488L538.176 0v175.552z m0 731.392l146.304-87.872-146.304-87.68v175.552z m-43.904 0V731.52l-146.304 88.128 146.304 87.36m409.6-205.696L757.568 614.4v175.552l146.304-88.704M289.472 614.4l-146.304 87.68 146.304 87.872V614.4z m468.096-73.152l146.304-88.128-146.304-87.424v175.552z m-468.096 0V365.696L143.168 453.632l146.304 87.68m614.4-336.768L757.568 117.12V292.48l146.304-88m-614.4-87.488l-146.304 88.32 146.304 87.168V117.12z m629.056 307.2V248.704l-146.304 88.256 146.304 87.296m-789.952 0l146.304-88.064-146.304-87.488v175.552z m146.304 146.432L128.576 482.752v175.552l146.304-87.616m497.344 0.192l146.304 87.424V482.752L772.224 570.88m-438.848 43.52v175.552l146.304-88L333.376 614.4m380.352 175.552V614.4l-146.304 87.68 146.304 87.872M333.376 307.2l146.304-88.128-146.304-87.424V307.2z m380.352 541.248l-146.304 88.768L713.728 1024v-175.552z m0-555.904V131.648L567.424 212.672l146.304 79.872" fill="#57B382" p-id="50951"></path><path d="M494.272 0v175.552L347.968 89.088 494.272 0m43.904 175.552V0l146.304 88.064-146.304 87.488m0 731.392V731.52l146.304 87.68-146.304 87.808m-43.904 0l-146.304-87.36 146.304-88.128v175.488z m409.6-205.696l-146.304 88.704V614.4l146.304 86.848M289.472 614.4v175.552L143.168 702.08 289.472 614.4m468.096-73.152V365.696l146.304 87.424-146.304 88.128m-468.096 0L143.168 453.632l146.304-87.936v175.552z m614.4-336.64L757.568 292.48V117.12l146.304 87.488m-614.4-87.488V292.48L143.168 205.44l146.304-88.384m629.056 307.2l-146.304-87.296 146.304-88.32V424.32z m-789.952 0V248.704l146.304 87.488-146.304 88.064m146.304 146.432l-146.304 87.616V482.752l146.304 87.936m497.344 0.192l146.304-88.128v175.552L772.224 570.88m-438.848 43.52l146.304 87.552-146.304 88V614.4z m380.352 175.552l-146.304-87.936L713.728 614.4v175.552zM333.376 307.2V131.648l146.304 87.424L333.376 307.2m380.352 541.248V1024l-146.304-86.784 146.304-88.768m0-555.904L567.424 212.672l146.304-81.024v160.896z" fill="#57B382" p-id="50952" class="custom-cursor-on-hover"></path></svg>
