<svg t="1717746510567" class="icon" viewBox="0 0 1351 1024" version="1.1" xmlns="http://www.w3.org/2000/svg" p-id="55261" width="200" height="200"><path d="M416.92885 824.173591c-56.901379 30.927289-130.232881 35.397249-203.685192-3.745101a159.190971 159.190971 0 0 1-65.35806-64.754011c-79.130368-147.025432 15.826074-294.775723 150.770533-309.635319 7.369393-0.845668 14.738786-1.328907 22.228989-1.328907 59.317574 0 112.353042 25.732471 149.320817 66.324538a249.50832 249.50832 0 0 1-26.457329-111.628184c0-16.188503 1.691336-31.893767 4.590769-47.236601a320.508194 320.508194 0 0 0-127.575067-26.45733c-6.161296 0-12.201782 0.604049-18.242268 0.966478C83.252396 339.122556-77.424535 571.198033 39.036038 806.897801c25.370042 51.344132 66.686967 93.748345 117.668669 119.601625 115.614904 58.713525 230.50495 50.377654 319.420907 0.966478 31.531338-17.51741 38.659111-59.921622 15.946883-88.070288-0.241619-0.362429-0.483239-0.604049-0.724858-0.966477-18.000649-22.349799-49.290367-27.907046-74.418789-14.255548z" fill="#62B0DB" p-id="55262"></path><path d="M443.869418 399.527417c0-16.188503 1.691336-31.893767 4.590769-47.236602 23.557896-123.709156 137.602274-215.403735 270.855398-203.081143 24.041135 2.174575 46.994982 8.094251 68.740732 16.792551 50.377654-17.879839 104.3796-28.148665 160.91855-28.148665 16.550932 0 32.981054 0.845668 49.169557 2.537004C928.558024 59.448048 827.561096 5.929341 715.328864 0.492904c-204.65167-10.027207-377.167953 134.098792-412.565202 326.18625-4.34915 23.678706-6.886154 47.96146-6.886154 72.848263 0 15.826074 1.208097 31.289718 2.899433 46.511743 7.369393-0.845668 14.738786-1.328907 22.228989-1.328907 59.317574 0 112.473852 25.732471 149.320817 66.324538-16.792551-33.464293-26.457329-71.277736-26.457329-111.507374z" fill="#8FC361" p-id="55263"></path><path d="M1114.725806 778.386706S880.717374 806.172943 749.034777 723.176663c-66.928586-42.162593-43.73312-127.937496 50.015225-152.461869 63.666724-16.671742 302.024306-14.376357 457.989657 13.04745 156.086161 27.423807 124.675634 166.717417-142.313853 194.624462zM1316.961282 782.615047s-67.170206 87.22462-241.981874 113.561139c-72.727453 10.993685-135.06527 13.289069-224.102035 0 0 0-70.311258-18.967126-82.392231 35.638868-14.376357 65.23725 157.656688 128.420735 327.998396 62.458627 172.274664-66.566157 220.477743-211.658634 220.477744-211.658634z" fill="#ADD079" p-id="55264"></path><path d="M1341.244036 531.089205s-44.457978-76.955793-241.136206-131.924217c-195.228511-54.605995-295.86301 15.463644-346.240665-30.202431-24.886803-22.470608-5.194818-77.318222 23.557896-101.480167 46.994982-39.504779 176.744624-83.600328 323.407627-20.416843 214.558067 92.540247 240.411348 284.023657 240.411348 284.023658z" fill="#A2CB70" p-id="55265"></path><path d="M783.948786 456.791225s234.008432-27.786236 365.69103 55.210044c66.928586 42.162593 43.73312 127.937496-50.015225 152.461869-63.666724 16.671742-302.024306 14.376357-457.989658-13.04745-156.086161-27.302997-124.675634-166.717417 142.313853-194.624463z m11.839353 535.42869c146.663003 63.183485 276.412645 19.208746 323.407627-20.416843 28.631904-24.161944 48.444699-78.888749 23.557896-101.480167-50.377654-45.666075-151.012153 24.403564-346.240665-30.20243-196.678228-54.968424-241.136206-131.924217-241.136206-131.924217s25.97409 191.60422 240.411348 284.023657zM579.780355 456.791225s67.170206-87.22462 241.981874-113.561139c72.727453-10.993685 135.06527-13.289069 224.102036 0 0 0 70.311258 18.967126 82.39223-35.638868 14.376357-65.23725-157.656688-128.420735-327.998396-62.458626-172.274664 66.566157-220.477743 211.658634-220.477744 211.658633z" fill="#4885BE" p-id="55266"></path></svg>
