<svg t="1717747284124" class="icon" viewBox="0 0 1024 1024" version="1.1" xmlns="http://www.w3.org/2000/svg" p-id="2464" width="200" height="200"><path d="M838.4 416c-6.4-70.4-64-115.2-134.4-115.2-19.2 0-38.4 6.4-51.2 6.4-44.8-51.2-115.2-83.2-185.6-83.2-89.6 0-172.8 51.2-211.2 128h-12.8C115.2 352 19.2 448 12.8 576s96 224 224 230.4h294.4c25.6 0 44.8-19.2 44.8-44.8s-19.2-44.8-44.8-44.8H249.6c-70.4 0-134.4-57.6-134.4-128s51.2-128 121.6-134.4c12.8 0 25.6 0 38.4 6.4h6.4l25.6 6.4C320 390.4 390.4 320 473.6 320c57.6 0 108.8 32 140.8 83.2 6.4 6.4 6.4 12.8 6.4 19.2l6.4-6.4c19.2-19.2 51.2-19.2 70.4-19.2 44.8 0 70.4 38.4 70.4 76.8 0 12.8-6.4 25.6-6.4 38.4 12.8 6.4 19.2 19.2 38.4 19.2 6.4-6.4 19.2-12.8 19.2-19.2 64 6.4 115.2 57.6 108.8 128-6.4 57.6-57.6 108.8-121.6 108.8-51.2 0-96-32-115.2-83.2h51.2c6.4 0 12.8-6.4 12.8-12.8s0-6.4-6.4-6.4l-96-128c-6.4-6.4-12.8-12.8-19.2-6.4h-6.4l-96 128c-6.4 6.4-6.4 19.2 6.4 19.2 6.4 0 6.4 6.4 6.4 6.4h57.6c19.2 115.2 128 192 243.2 172.8 115.2-19.2 192-128 172.8-243.2-25.6-96-89.6-160-179.2-179.2z" fill="#F3A22F" p-id="2465"></path></svg>
