<svg t="1717743387740" class="icon" viewBox="0 0 1024 1024" version="1.1" xmlns="http://www.w3.org/2000/svg" p-id="38378" width="200" height="200"><path d="M912.192 0C973.952 0 1024 50.048 1024 111.808v800.384c0 61.76-50.048 111.808-111.808 111.808H111.808A111.808 111.808 0 0 1 0 912.192V111.808C0 50.048 50.048 0 111.808 0h800.384zM672 185.152c-23.936-1.088-30.912 6.144-30.656 30.4 1.28 116.864 0.832 233.728 0.384 350.592-0.128 37.76 2.368 75.52-3.392 113.216-6.912 45.184-33.92 71.68-76.16 82.88-52.672 13.952-107.136-1.728-131.2-36.736-17.6-25.728-19.84-55.552-19.904-85.632-0.192-120.32-0.448-240.64 0.192-360.96 0.128-18.432-4.032-26.24-24.448-26.24-20.416 0.128-27.136 8-24.128 26.432 4.608 28.16-8.256 37.12-34.24 33.152-23.168-3.456-35.2 5.248-30.912 29.952 5.312 30.4-6.912 42.304-37.248 37.248-20.416-3.392-30.72 2.304-30.144 26.88 1.6 79.04-0.512 158.08 1.024 237.184 2.24 113.088 79.104 204.8 189.632 230.912a462.08 462.08 0 0 0 187.136 5.632c133.12-23.04 214.08-117.824 214.4-252.416V435.2c0-74.496-0.896-148.992 0.448-223.424 0.448-21.76-6.4-27.264-27.2-26.56-41.152 1.536-82.432 1.92-123.52 0z m-422.784 133.76c-16.832-3.84-18.752 7.04-19.2 21.568-0.384 15.296 3.968 22.208 20.736 22.464 18.496 0.32 22.528-7.36 22.528-24.128 0-16.96-7.296-22.144-24.064-19.84z m73.6-65.92l-4.992 0.448c-17.792-2.816-20.928 7.04-20.8 22.272 0 15.104 6.592 19.456 20.864 19.648 15.68 0.256 22.72-4.224 22.656-21.248 0-17.024-6.72-23.04-22.72-20.672z m-134.464 3.904c-10.88 0.384-12.288 7.36-12.608 16-0.448 11.008 2.88 17.664 15.168 16 12.672 1.216 15.168-6.144 14.912-16.768-0.32-11.84-6.656-15.552-17.472-15.232z m68.032-3.648c-11.776 0.32-19.904 1.664-19.52 16.512 0.32 11.776 1.472 19.968 16.448 19.328 11.52-0.448 21.12-0.896 18.944-16.192 1.28-11.904-0.96-20.096-15.872-19.648z m126.592-68.032c-17.088-0.32-20.8 6.848-20.928 22.336-0.128 16.96 6.848 22.656 22.592 20.352 17.664 2.88 20.288-7.04 20.736-21.952 0.512-17.28-7.232-20.48-22.4-20.736z m-58.816 7.104l-4.736 0.32c-12.48-0.96-22.272-0.064-22.336 16.96 0 15.872 7.552 19.072 21.056 18.752 12.352-0.256 22.08-0.64 22.208-17.6 0.128-16.128-7.616-19.648-20.928-18.112z m-137.6 6.016c-9.088-0.128-10.816 5.632-10.432 13.056 0.384 9.088 6.464 10.304 13.632 9.792 7.872-0.64 11.776-4.928 11.008-12.992-0.832-8.832-7.232-9.792-14.208-9.856z m65.728-5.632h-3.584c-11.328 0.32-11.392 7.936-11.456 16.128 0 10.88 6.976 12.544 15.616 12.096 10.368 0.512 12.928-5.248 13.184-14.528 0.32-13.056-7.552-13.952-17.28-13.696z m66.816-55.68c-7.808 0.256-16.832-0.96-17.472 10.56-0.704 11.712 6.592 15.616 17.024 15.744 9.152 0.128 15.424-2.944 15.36-13.312 0.832-11.008-5.952-13.312-14.912-12.992z m-63.68 0.448c-7.936-0.128-12.352 3.072-12.288 11.456 0.128 7.424 2.752 12.8 11.008 13.376 8.32 0.512 11.712-4.288 12.032-12.032 0.64-7.808-2.176-12.608-10.752-12.8z" fill="#3860F4" p-id="38379" class="custom-cursor-on-hover"></path></svg>
