<svg t="1717747341803" class="icon" viewBox="0 0 1024 1024" version="1.1" xmlns="http://www.w3.org/2000/svg" p-id="3484" width="200" height="200"><path d="M813.6 65H451.9c-81.8 0-144.7 62.7-144.7 144.1v100.4h-97.5C127.9 309.5 65 372.3 65 453.7v360.5c0 81.4 62.8 144.2 144.7 144.2h358.6c81.8 0 144.7-62.7 144.7-144.2V710.7h100.6c81.8 0 144.7-62.7 144.7-144.2V206c3.2-75.3-62.9-141-144.7-141z m37.8 504.6c-0.4 20.6-17.1 37.3-37.7 37.5H609.2V814c-0.3 20.7-17 37.3-37.7 37.6H209.8c-20.7-0.2-37.4-16.9-37.8-37.6V453.6c0.3-20.7 17.1-37.4 37.8-37.6h204.4V209.1c0-21.9 18.9-37.5 37.8-37.5h361.7c20.6 0.3 37.3 16.9 37.7 37.5v360.5z m0 0" fill="#8FBE48" p-id="3485"></path><path d="M514.8 268.7v235H272.7V745h242.2V510H757V268.7H514.8z m0 0" fill="#F2B624" p-id="3486"></path></svg>
