<svg t="1717743222537" class="icon" viewBox="0 0 1024 1024" version="1.1" xmlns="http://www.w3.org/2000/svg" p-id="36225" width="200" height="200"><path d="M830.537143 476.525714L706.413714 961.828571a8.484571 8.484571 0 0 0 0 4.022858 9.069714 9.069714 0 0 0 8.996572 6.948571h248.100571a9.069714 9.069714 0 0 0 9.069714-10.971429l-124.708571-485.302857a9.142857 9.142857 0 0 0-17.334857 0M147.602286 586.386286L51.492571 961.828571a8.996571 8.996571 0 0 0 9.069715 10.971429h191.488a9.142857 9.142857 0 0 0 7.241143-3.291429 8.777143 8.777143 0 0 0 1.755428-3.657142 8.484571 8.484571 0 0 0 0-4.022858L164.864 586.459429a8.777143 8.777143 0 0 0-3.291429-4.534858 9.216 9.216 0 0 0-10.752 0 8.777143 8.777143 0 0 0-3.218285 4.534858" fill="#00E5E5" p-id="36226"></path><path d="M317.074286 275.748571l-175.104 686.08a8.777143 8.777143 0 0 0 1.682285 7.460572c1.682286 2.194286 4.242286 3.437714 6.948572 3.437714h350.354286a9.069714 9.069714 0 0 0 9.069714-10.898286L334.409143 275.748571a8.777143 8.777143 0 0 0-3.291429-4.608 9.216 9.216 0 0 0-10.752 0 8.777143 8.777143 0 0 0-3.291428 4.608" fill="#006EFF" p-id="36227"></path><path d="M619.227429 57.490286A8.777143 8.777143 0 0 0 615.862857 52.955429a9.216 9.216 0 0 0-10.752 0 8.777143 8.777143 0 0 0-3.291428 4.534857L362.569143 961.828571a8.996571 8.996571 0 0 0 8.996571 10.898286h478.354286a9.216 9.216 0 0 0 9.142857-6.875428 8.996571 8.996571 0 0 0 0-4.022858L619.154286 57.490286z" fill="#006EFF" p-id="36228"></path><path d="M443.318857 375.442286L291.474286 961.828571a9.069714 9.069714 0 0 0 9.069714 10.971429l302.957714 0.073143a9.216 9.216 0 0 0 7.314286-3.364572 9.142857 9.142857 0 0 0 1.828571-7.68L460.653714 375.442286a9.216 9.216 0 0 0-8.704-6.290286 9.216 9.216 0 0 0-8.630857 6.290286" fill="#00E5E5" p-id="36229"></path></svg>
