<svg t="1717744618903" class="icon" viewBox="0 0 1587 1024" version="1.1" xmlns="http://www.w3.org/2000/svg" p-id="40571" data-spm-anchor-id="a313x.search_index.0.i48.4b883a81lXUbRw" width="200" height="200"><path d="M1340.8 1024H300.8c-144 0-265.6-102.4-294.4-243.2-16-80 0-156.8 44.8-224 38.4-57.6 99.2-99.2 166.4-118.4 0-16 3.2-32 3.2-44.8C240 249.6 329.6 128 460.8 64 563.2 12.8 681.6 6.4 790.4 44.8c99.2 35.2 179.2 102.4 230.4 192 35.2-12.8 70.4-22.4 108.8-22.4 73.6 0 140.8 28.8 192 80 51.2 51.2 80 118.4 76.8 192 0 19.2-3.2 35.2-6.4 54.4 108.8 25.6 192 121.6 192 240 3.2 134.4-105.6 243.2-243.2 243.2zM649.6 83.2c-54.4 0-108.8 12.8-160 35.2-112 54.4-188.8 156.8-204.8 281.6-3.2 16-3.2 32-3.2 48v38.4l-25.6 6.4c-60.8 12.8-115.2 48-150.4 99.2S57.6 707.2 70.4 768c22.4 112 118.4 192 230.4 192H1344c99.2 0 179.2-80 179.2-182.4 0-96-73.6-176-169.6-179.2l-44.8-3.2 16-41.6 9.6-28.8c3.2-12.8 3.2-28.8 3.2-41.6 0-54.4-22.4-108.8-60.8-147.2a205.44 205.44 0 0 0-147.2-60.8c-35.2 0-73.6 9.6-105.6 28.8l-28.8 16-16-32c-41.6-89.6-118.4-153.6-211.2-188.8-38.4-9.6-76.8-16-118.4-16z" fill="#0085D0" p-id="40572" class="custom-cursor-on-hover"></path><path d="M332.8 294.4C256 294.4 195.2 233.6 195.2 156.8S256 16 332.8 16s140.8 60.8 140.8 140.8c0 76.8-60.8 137.6-140.8 137.6z" fill="#8DC228" p-id="40573"></path><path d="M332.8 32c67.2 0 124.8 57.6 121.6 124.8s-57.6 124.8-124.8 121.6c-64 0-118.4-54.4-118.4-121.6C208 86.4 265.6 32 332.8 32m0-32C249.6 0 179.2 70.4 179.2 156.8s70.4 156.8 156.8 156.8 156.8-70.4 156.8-156.8c-3.2-86.4-73.6-156.8-160-156.8z" fill="#FFFFFF" p-id="40574"></path><path d="M332.8 156.8m-96 0a96 96 0 1 0 192 0 96 96 0 1 0-192 0Z" fill="#FFFFFF" p-id="40575"></path><path d="M332.8 233.6C291.2 233.6 256 198.4 256 156.8s35.2-76.8 76.8-76.8 76.8 35.2 76.8 76.8c3.2 41.6-32 76.8-76.8 76.8z" fill="#8DC228" p-id="40576"></path><path d="M332.8 92.8c35.2 0 60.8 25.6 60.8 60.8 0 35.2-25.6 60.8-60.8 60.8-32 3.2-57.6-22.4-57.6-57.6-3.2-35.2 25.6-60.8 57.6-64 3.2 0 3.2 0 0 0m3.2-32c-51.2 0-92.8 41.6-92.8 92.8 0 51.2 41.6 92.8 92.8 92.8s92.8-41.6 92.8-92.8c0-48-41.6-89.6-92.8-92.8z" fill="#FFFFFF" p-id="40577"></path><path d="M608 531.2c0 9.6 0 16 3.2 25.6l9.6 19.2c0 3.2 3.2 3.2 3.2 6.4s-3.2 6.4-6.4 9.6l-16 12.8c-3.2 0-3.2 3.2-6.4 3.2s-6.4 0-9.6-3.2c-3.2-3.2-6.4-9.6-9.6-12.8-3.2-6.4-6.4-9.6-9.6-16-19.2 25.6-51.2 38.4-83.2 38.4-19.2 0-41.6-6.4-57.6-19.2-12.8-12.8-22.4-35.2-19.2-54.4 0-22.4 9.6-41.6 25.6-57.6 19.2-16 44.8-22.4 67.2-22.4 9.6 0 19.2 0 28.8 3.2 9.6 0 22.4 3.2 32 6.4V448c3.2-16-3.2-32-12.8-44.8-12.8-9.6-28.8-16-44.8-12.8-9.6 0-19.2 0-28.8 3.2l-28.8 9.6c-3.2 0-6.4 3.2-9.6 3.2h-3.2c-3.2 0-6.4-3.2-6.4-9.6V384c0-3.2 0-6.4 3.2-9.6 3.2-3.2 6.4-3.2 6.4-6.4 12.8-6.4 22.4-9.6 35.2-12.8 12.8-3.2 28.8-6.4 44.8-6.4 25.6-3.2 54.4 6.4 73.6 22.4 16 19.2 25.6 44.8 22.4 70.4l-3.2 89.6zM492.8 576c9.6 0 19.2-3.2 28.8-6.4 9.6-3.2 19.2-9.6 25.6-19.2 3.2-6.4 6.4-9.6 9.6-16 3.2-6.4 3.2-16 3.2-25.6v-12.8c-9.6-3.2-16-3.2-25.6-3.2h-25.6c-16 0-28.8 3.2-41.6 12.8-9.6 9.6-12.8 19.2-12.8 32-3.2 19.2 9.6 38.4 32 41.6 0-3.2 3.2-3.2 6.4-3.2z m227.2 32c-3.2 0-6.4 0-9.6-3.2-3.2-3.2-6.4-6.4-6.4-9.6l-67.2-217.6c0-3.2-3.2-6.4-3.2-12.8 0-3.2 0-3.2 3.2-6.4 0 0 3.2-3.2 6.4 0h28.8c3.2 0 6.4 0 12.8 3.2 3.2 3.2 3.2 6.4 6.4 12.8l48 185.6 44.8-185.6c0-3.2 3.2-6.4 6.4-9.6 3.2-3.2 6.4-3.2 12.8-3.2h25.6c3.2 0 6.4 0 12.8 3.2 3.2 3.2 6.4 6.4 6.4 9.6l44.8 188.8 48-188.8c0-3.2 3.2-6.4 6.4-9.6 3.2-3.2 6.4-3.2 9.6-3.2h32l3.2 3.2v3.2l-3.2 6.4-67.2 217.6c0 3.2-3.2 9.6-6.4 12.8-3.2 3.2-6.4 3.2-9.6 3.2h-25.6c-3.2 0-9.6 0-12.8-3.2-3.2-3.2-6.4-6.4-6.4-9.6l-44.8-182.4-44.8 182.4c0 3.2-3.2 9.6-6.4 12.8-3.2 3.2-6.4 3.2-12.8 3.2l-32-3.2z m361.6 6.4c-16 0-28.8-3.2-44.8-6.4-9.6-3.2-22.4-6.4-32-12.8-6.4-3.2-9.6-9.6-9.6-16v-16c0-6.4 3.2-9.6 6.4-9.6h6.4l6.4 3.2c19.2 9.6 41.6 12.8 64 12.8 12.8 0 28.8-3.2 41.6-9.6 9.6-6.4 16-16 16-25.6 0-6.4-3.2-12.8-6.4-19.2-9.6-6.4-19.2-12.8-28.8-16l-44.8-6.4c-16-3.2-32-16-44.8-28.8-9.6-12.8-12.8-25.6-12.8-41.6 0-9.6 3.2-22.4 6.4-32 6.4-9.6 12.8-16 19.2-22.4 9.6-6.4 19.2-12.8 28.8-16 12.8-3.2 22.4-6.4 35.2-6.4h19.2c6.4 0 12.8 3.2 19.2 3.2 6.4 0 9.6 3.2 16 3.2 3.2 0 9.6 3.2 12.8 3.2 3.2 3.2 6.4 3.2 9.6 6.4 3.2 3.2 3.2 6.4 3.2 9.6v12.8c0 6.4-3.2 9.6-6.4 9.6s-6.4 0-9.6-3.2c-16-6.4-35.2-9.6-54.4-9.6-12.8 0-25.6 3.2-38.4 6.4-9.6 6.4-12.8 16-12.8 25.6 0 6.4 3.2 16 9.6 19.2 9.6 6.4 19.2 12.8 32 16l38.4 12.8c16 3.2 32 12.8 44.8 28.8 9.6 12.8 12.8 25.6 12.8 41.6 0 9.6-3.2 22.4-6.4 32-6.4 9.6-12.8 19.2-19.2 25.6-9.6 6.4-19.2 12.8-32 16-12.8 3.2-25.6 6.4-38.4 3.2l-6.4 6.4z" fill="#252F3E" p-id="40578"></path><path d="M1136 752c-102.4 67.2-220.8 105.6-342.4 105.6-153.6 0-304-57.6-419.2-160-9.6-6.4 0-19.2 9.6-12.8 128 73.6 272 112 419.2 112 108.8 0 217.6-22.4 320-67.2 12.8-6.4 25.6 9.6 12.8 22.4z" fill="#FF9900" p-id="40579"></path><path d="M1174.4 707.2c-12.8-16-80-6.4-108.8-3.2-9.6 0-9.6-6.4-3.2-12.8 54.4-38.4 140.8-25.6 150.4-12.8s-3.2 99.2-51.2 140.8c-6.4 6.4-16 3.2-12.8-6.4 12.8-28.8 35.2-89.6 25.6-105.6z" fill="#FF9900" p-id="40580"></path><path d="M608 531.2c0 9.6 0 16 3.2 25.6l9.6 19.2c0 3.2 3.2 3.2 3.2 6.4s-3.2 6.4-6.4 9.6l-16 12.8c-3.2 0-3.2 3.2-6.4 3.2s-6.4 0-9.6-3.2c-3.2-3.2-6.4-9.6-9.6-12.8-3.2-6.4-6.4-9.6-9.6-16-19.2 25.6-51.2 38.4-83.2 38.4-19.2 0-41.6-6.4-57.6-19.2-12.8-12.8-22.4-35.2-19.2-54.4 0-22.4 9.6-41.6 25.6-57.6 19.2-16 44.8-22.4 67.2-22.4 9.6 0 19.2 0 28.8 3.2 9.6 0 22.4 3.2 32 6.4V448c3.2-16-3.2-32-12.8-44.8-12.8-9.6-28.8-16-44.8-12.8-9.6 0-19.2 0-28.8 3.2l-28.8 9.6c-3.2 0-6.4 3.2-9.6 3.2h-3.2c-3.2 0-6.4-3.2-6.4-9.6V384c0-3.2 0-6.4 3.2-9.6 3.2-3.2 6.4-3.2 6.4-6.4 12.8-6.4 22.4-9.6 35.2-12.8 12.8-3.2 28.8-6.4 44.8-6.4 25.6-3.2 54.4 6.4 73.6 22.4 16 19.2 25.6 44.8 22.4 70.4l-3.2 89.6zM492.8 576c9.6 0 19.2-3.2 28.8-6.4 9.6-3.2 19.2-9.6 25.6-19.2 3.2-6.4 6.4-9.6 9.6-16 3.2-6.4 3.2-16 3.2-25.6v-12.8c-9.6-3.2-16-3.2-25.6-3.2h-25.6c-16 0-28.8 3.2-41.6 12.8-9.6 9.6-12.8 19.2-12.8 32-3.2 19.2 9.6 38.4 32 41.6 0-3.2 3.2-3.2 6.4-3.2z m227.2 32c-3.2 0-6.4 0-9.6-3.2-3.2-3.2-6.4-6.4-6.4-9.6l-67.2-217.6c0-3.2-3.2-6.4-3.2-12.8 0-3.2 0-3.2 3.2-6.4 0 0 3.2-3.2 6.4 0h28.8c3.2 0 6.4 0 12.8 3.2 3.2 3.2 3.2 6.4 6.4 12.8l48 185.6 44.8-185.6c0-3.2 3.2-6.4 6.4-9.6 3.2-3.2 6.4-3.2 12.8-3.2h25.6c3.2 0 6.4 0 12.8 3.2 3.2 3.2 6.4 6.4 6.4 9.6l44.8 188.8 48-188.8c0-3.2 3.2-6.4 6.4-9.6 3.2-3.2 6.4-3.2 9.6-3.2h32l3.2 3.2v3.2l-3.2 6.4-67.2 217.6c0 3.2-3.2 9.6-6.4 12.8-3.2 3.2-6.4 3.2-9.6 3.2h-25.6c-3.2 0-9.6 0-12.8-3.2-3.2-3.2-6.4-6.4-6.4-9.6l-44.8-182.4-44.8 182.4c0 3.2-3.2 9.6-6.4 12.8-3.2 3.2-6.4 3.2-12.8 3.2l-32-3.2z m361.6 6.4c-16 0-28.8-3.2-44.8-6.4-9.6-3.2-22.4-6.4-32-12.8-6.4-3.2-9.6-9.6-9.6-16v-16c0-6.4 3.2-9.6 6.4-9.6h6.4l6.4 3.2c19.2 9.6 41.6 12.8 64 12.8 12.8 0 28.8-3.2 41.6-9.6 9.6-6.4 16-16 16-25.6 0-6.4-3.2-12.8-6.4-19.2-9.6-6.4-19.2-12.8-28.8-16l-44.8-6.4c-16-3.2-32-16-44.8-28.8-9.6-12.8-12.8-25.6-12.8-41.6 0-9.6 3.2-22.4 6.4-32 6.4-9.6 12.8-16 19.2-22.4 9.6-6.4 19.2-12.8 28.8-16 12.8-3.2 22.4-6.4 35.2-6.4h19.2c6.4 0 12.8 3.2 19.2 3.2 6.4 0 9.6 3.2 16 3.2 3.2 0 9.6 3.2 12.8 3.2 3.2 3.2 6.4 3.2 9.6 6.4 3.2 3.2 3.2 6.4 3.2 9.6v12.8c0 6.4-3.2 9.6-6.4 9.6s-6.4 0-9.6-3.2c-16-6.4-35.2-9.6-54.4-9.6-12.8 0-25.6 3.2-38.4 6.4-9.6 6.4-12.8 16-12.8 25.6 0 6.4 3.2 16 9.6 19.2 9.6 6.4 19.2 12.8 32 16l38.4 12.8c16 3.2 32 12.8 44.8 28.8 9.6 12.8 12.8 25.6 12.8 41.6 0 9.6-3.2 22.4-6.4 32-6.4 9.6-12.8 19.2-19.2 25.6-9.6 6.4-19.2 12.8-32 16-12.8 3.2-25.6 6.4-38.4 3.2l-6.4 6.4z" fill="#252F3E" p-id="40581" class="custom-cursor-on-hover"></path><path d="M1136 752c-102.4 67.2-220.8 105.6-342.4 105.6-153.6 0-304-57.6-419.2-160-9.6-6.4 0-19.2 9.6-12.8 128 73.6 272 112 419.2 112 108.8 0 217.6-22.4 320-67.2 12.8-6.4 25.6 9.6 12.8 22.4z" fill="#FF9900" p-id="40582"></path><path d="M1174.4 707.2c-12.8-16-80-6.4-108.8-3.2-9.6 0-9.6-6.4-3.2-12.8 54.4-38.4 140.8-25.6 150.4-12.8s-3.2 99.2-51.2 140.8c-6.4 6.4-16 3.2-12.8-6.4 12.8-28.8 35.2-89.6 25.6-105.6z" fill="#FF9900" p-id="40583"></path></svg>
