<svg t="1717743450082" class="icon" viewBox="0 0 1024 1024" version="1.1" xmlns="http://www.w3.org/2000/svg" p-id="39383" width="200" height="200"><path d="M18.753 17.145h468.424l-0.02 468.426H18.774V17.145h-0.02z m0 0" fill="#F25022" p-id="39384"></path><path d="M534.999 17.145h468.422c0 156.141 0.022 312.283-0.02 468.426H535.038c-0.06-156.162-0.039-312.285-0.039-468.426z m0 0" fill="#80BA01" p-id="39385"></path><path d="M18.753 533.352c156.141 0.058 312.282-0.019 468.424 0.058v468.386H18.753V533.352z m0 0" fill="#02A4EF" p-id="39386"></path><path d="M535.018 533.41c156.124-0.058 312.243-0.019 468.383-0.019v468.422H534.999c0.019-156.163-0.02-312.28 0.019-468.403z m0 0" fill="#FFB902" p-id="39387"></path></svg>
