<svg t="1717747391666" class="icon" viewBox="0 0 1333 1024" version="1.1" xmlns="http://www.w3.org/2000/svg" p-id="4694" width="200" height="200"><path d="M1018.488284 0.541672L1314.82427 0a18.458499 18.458499 0 0 1 13.083451 31.500282L894.070504 465.337499a18.458499 18.458499 0 0 1-26.104401 0L720.079363 317.450758a18.458499 18.458499 0 0 1 0-26.093983L1005.477751 5.937553a18.458499 18.458499 0 0 1 13.02095-5.406298zM1018.488284 1023.446662l296.335986 0.552088a18.458499 18.458499 0 0 0 13.083451-31.500282L894.070504 558.650834a18.458499 18.458499 0 0 0-26.104401 0L720.079363 706.547992a18.458499 18.458499 0 0 0 0 26.1044l285.398388 285.398388a18.458499 18.458499 0 0 0 13.02095 5.406298z" fill="#054496" p-id="4695"></path><path d="M821.319852 500.275312L327.34668 5.416715A18.437665 18.437665 0 0 0 314.29448 0H18.510582A18.479332 18.479332 0 0 0 5.437549 31.531532l466.566676 467.400018a18.500166 18.500166 0 0 1 0 26.146067L5.458382 992.425551a18.489749 18.489749 0 0 0 13.083451 31.562782h295.74223a18.437665 18.437665 0 0 0 13.052201-5.416715l493.973172-494.858596a16.593899 16.593899 0 0 0 0-23.448127z" fill="#87BB4C" p-id="4696"></path></svg>
