<svg t="1717743207396" class="icon" viewBox="0 0 1402 1024" version="1.1" xmlns="http://www.w3.org/2000/svg" p-id="35171" width="200" height="200"><path d="M1216.84017881 832.26669714c-22.01770438 22.42169837-66.05311315 55.95324845-143.01407896 55.95324845H600.84945441c143.01407897-139.88312044 264.01045355-257.44554135 275.01930505-268.65639054a860.50843905 860.50843905 0 0 1 65.9521143-61.60917245c55.04426026-50.29732444 98.9786702-55.8522496 137.45915242-55.85224962 55.04426026 0 98.9786702 22.32069952 137.56015263 55.95324846 76.96096581 72.71902281 76.96096581 201.4922929 0 274.2113157z m93.42374503-363.79711171a304.81390494 304.81390494 0 0 0-225.42897111-100.79664655c-77.06196465 0-143.01407897 27.97662354-203.51226695 72.71902278-22.01770438 22.52269721-54.94326142 44.84339811-82.51589098 78.47594568-21.91670555 22.32069952-494.89335097 492.5703818-494.89335097 492.57038317 27.47163072 5.55492517 60.59918544 5.55492517 87.96981869 5.55492517h599.42694635c44.03540877 0 76.96096581 0 110.08852053-5.55492517a335.11349765 335.11349765 0 0 0 203.41126672-89.58579738c126.45030092-123.21834493 126.45030092-330.265563 5.45392772-453.3829077z" fill="#00A3FF" p-id="35172"></path><path d="M528.73642327 435.44302817c-60.80118311-45.14639325-121.70336508-67.66909045-193.51339969-67.66909045a306.02588827 306.02588827 0 0 0-226.74195328 101.60463453 333.80051551 333.80051551 0 0 0 5.55492517 462.97777956c55.24625795 50.80231726 110.59351474 78.98093847 176.94962165 84.63686387l127.1572928-124.22833194h-71.91103484c-71.91103347-5.65592402-116.14843991-28.27962006-143.72106809-56.45824128a206.03723244 206.03723244 0 0 1-5.55492656-282.29120635c38.68247989-39.49046924 82.91988635-56.45824127 138.26714315-56.45824267 33.12755473 0 82.91988635 5.65592402 132.71221657 56.55924012 22.11870323 22.52269721 82.91988635 67.66909045 105.03858956 90.29278788h5.55492518l82.91988496-84.73786132v-5.65592401c-38.68247989-39.49046924-99.58466186-90.29278651-132.71221658-118.57240794" fill="#00C8DC" p-id="35173"></path><path d="M1114.32655611 290.00498256A436.81913102 436.81913102 0 0 0 705.58504746 7.00678432c-218.3590661 0-391.87473546 160.8908378-425.507283 360.66615456 16.76577435 0 33.63254755-5.45392634 55.95324845-5.45392634 22.42169837 0 50.49932212 5.45392634 72.82002164 5.45392634 27.97662354-138.67113711 151.19496845-238.55879549 296.73401291-238.55879412a310.06583359 310.06583359 0 0 1 279.96823856 177.55561331s5.55492517 5.55492517 5.55492517 0c39.18747409-5.55492517 84.03087084-16.66477551 123.21834492-16.66477551 0 5.55492517 0 5.55492517 0 0" fill="#006EFF" p-id="35174"></path></svg>
